<svg width="684" height="200" viewBox="0 0 684 200" fill="none" xmlns="http://www.w3.org/2000/svg">
<rect width="684" height="200" fill="#E5E5E5"/>
<rect width="200" height="200" fill="white"/>
<g filter="url(#filter0_d)">
<path fill-rule="evenodd" clip-rule="evenodd" d="M172.106 45H26.9127L99.9965 89.8247L172.106 45ZM174 45L100 91L26 45.6133V154H174V45ZM174 155H26H25V154V45V44H175V45V154V155H174Z" fill="black"/>
<path d="M26.9127 45V37.5C23.5551 37.5 20.6067 39.7315 19.6947 42.9628C18.7827 46.1941 20.1294 49.6379 22.9915 51.3933L26.9127 45ZM172.106 45L176.065 51.3696C178.91 49.6015 180.237 46.1617 179.318 42.9412C178.398 39.7206 175.455 37.5 172.106 37.5V45ZM99.9965 89.8247L96.0753 96.218C98.495 97.7021 101.545 97.693 103.956 96.1944L99.9965 89.8247ZM174 45H181.5C181.5 42.2768 180.024 39.7676 177.644 38.4446C175.264 37.1216 172.353 37.1927 170.04 38.6304L174 45ZM100 91L96.0788 97.3933C98.4985 98.8774 101.549 98.8682 103.96 97.3696L100 91ZM26 45.6133L29.9212 39.22C27.6067 37.8005 24.7058 37.7427 22.3366 39.0689C19.9674 40.3951 18.5 42.8982 18.5 45.6133H26ZM26 154H18.5C18.5 158.142 21.8579 161.5 26 161.5V154ZM174 154V161.5C178.142 161.5 181.5 158.142 181.5 154H174ZM25 155H17.5C17.5 159.142 20.8579 162.5 25 162.5V155ZM25 44V36.5C20.8579 36.5 17.5 39.8579 17.5 44H25ZM175 44H182.5C182.5 39.8579 179.142 36.5 175 36.5V44ZM175 155V162.5C179.142 162.5 182.5 159.142 182.5 155H175ZM26.9127 52.5H172.106V37.5H26.9127V52.5ZM103.918 83.4314L30.8339 38.6067L22.9915 51.3933L96.0753 96.218L103.918 83.4314ZM103.956 96.1944L176.065 51.3696L168.146 38.6304L96.037 83.4551L103.956 96.1944ZM170.04 38.6304L96.0405 84.6304L103.96 97.3696L177.96 51.3696L170.04 38.6304ZM22.0788 52.0066L96.0788 97.3933L103.921 84.6067L29.9212 39.22L22.0788 52.0066ZM33.5 154V45.6133H18.5V154H33.5ZM174 146.5H26V161.5H174V146.5ZM166.5 45V154H181.5V45H166.5ZM26 162.5H174V147.5H26V162.5ZM25 162.5H26V147.5H25V162.5ZM17.5 154V155H32.5V154H17.5ZM17.5 45V154H32.5V45H17.5ZM17.5 44V45H32.5V44H17.5ZM175 36.5H25V51.5H175V36.5ZM182.5 45V44H167.5V45H182.5ZM182.5 154V45H167.5V154H182.5ZM182.5 155V154H167.5V155H182.5ZM174 162.5H175V147.5H174V162.5Z" fill="#3349C0"/>
</g>
<rect width="200" height="200" transform="translate(240)" fill="white"/>
<g filter="url(#filter1_d)">
<rect x="265" y="45" width="150" height="110" rx="1" stroke="#3349C0" stroke-width="15"/>
</g>
<line x1="299.182" y1="151.711" x2="333.985" y2="117.161" stroke="#3349C0" stroke-width="8"/>
<line x1="366.527" y1="149.184" x2="331.419" y2="114.076" stroke="#3349C0" stroke-width="8"/>
<line x1="347.173" y1="127.132" x2="379.173" y2="95.1699" stroke="#3349C0" stroke-width="8"/>
<line x1="412.527" y1="127.184" x2="376.995" y2="91.6517" stroke="#3349C0" stroke-width="8"/>
<circle cx="302" cy="85" r="12.5" stroke="#3349C0" stroke-width="5"/>
<rect width="200" height="200" transform="translate(484)" fill="white"/>
<g filter="url(#filter2_d)">
<line x1="508.5" y1="39" x2="508.5" y2="159" stroke="#3349C0" stroke-width="15"/>
<line x1="658.5" y1="39" x2="658.5" y2="159" stroke="#3349C0" stroke-width="15"/>
<path d="M542.5 129V70H537.5V129H542.5ZM624 131.5H545V136.5H624V131.5ZM631.5 129V70H626.5V129H631.5ZM545 67.5H624V62.5H545V67.5ZM540 137.5H629V132.5H540V137.5ZM536.5 65V134H541.5V65H536.5ZM629 61.5H540V66.5H629V61.5ZM627.5 65V134H632.5V65H627.5ZM541.5 65C541.5 65.8284 540.828 66.5 540 66.5V61.5C538.067 61.5 536.5 63.067 536.5 65H541.5ZM540 132.5C540.828 132.5 541.5 133.172 541.5 134H536.5C536.5 135.933 538.067 137.5 540 137.5V132.5ZM631.5 70C631.5 65.8579 628.142 62.5 624 62.5V67.5C625.381 67.5 626.5 68.6193 626.5 70H631.5ZM624 136.5C628.142 136.5 631.5 133.142 631.5 129H626.5C626.5 130.381 625.381 131.5 624 131.5V136.5ZM542.5 70C542.5 68.6193 543.619 67.5 545 67.5V62.5C540.858 62.5 537.5 65.8579 537.5 70H542.5ZM627.5 134C627.5 133.172 628.172 132.5 629 132.5V137.5C630.933 137.5 632.5 135.933 632.5 134H627.5ZM629 66.5C628.172 66.5 627.5 65.8284 627.5 65H632.5C632.5 63.067 630.933 61.5 629 61.5V66.5ZM537.5 129C537.5 133.142 540.858 136.5 545 136.5V131.5C543.619 131.5 542.5 130.381 542.5 129H537.5Z" fill="#3349C0"/>
<path d="M537.5 153V154.5H542.5V153H537.5ZM542 153.5H627V148.5H542V153.5ZM626.5 153V154.5H631.5V153H626.5ZM632.5 154.5V151H627.5V154.5H632.5ZM629 147.5H540V152.5H629V147.5ZM541.5 154.5V151H536.5V154.5H541.5ZM536.5 154.5C536.5 156.157 537.843 157.5 539.5 157.5V152.5C540.605 152.5 541.5 153.395 541.5 154.5H536.5ZM540 147.5C538.067 147.5 536.5 149.067 536.5 151H541.5C541.5 151.828 540.828 152.5 540 152.5V147.5ZM632.5 151C632.5 149.067 630.933 147.5 629 147.5V152.5C628.172 152.5 627.5 151.828 627.5 151H632.5ZM629.5 157.5C631.157 157.5 632.5 156.157 632.5 154.5H627.5C627.5 153.395 628.395 152.5 629.5 152.5V157.5ZM626.5 154.5C626.5 156.157 627.843 157.5 629.5 157.5V152.5C630.605 152.5 631.5 153.395 631.5 154.5H626.5ZM627 153.5C626.724 153.5 626.5 153.276 626.5 153H631.5C631.5 150.515 629.485 148.5 627 148.5V153.5ZM537.5 154.5C537.5 153.395 538.395 152.5 539.5 152.5V157.5C541.157 157.5 542.5 156.157 542.5 154.5H537.5ZM542.5 153C542.5 153.276 542.276 153.5 542 153.5V148.5C539.515 148.5 537.5 150.515 537.5 153H542.5Z" fill="#3349C0"/>
<path d="M542.5 44V42.5H537.5V44H542.5ZM627 43.5H542V48.5H627V43.5ZM631.5 44V42.5H626.5V44H631.5ZM627.5 42.5V46H632.5V42.5H627.5ZM540 49.5H629V44.5H540V49.5ZM536.5 42.5V46H541.5V42.5H536.5ZM541.5 42.5C541.5 43.6046 540.605 44.5 539.5 44.5V39.5C537.843 39.5 536.5 40.8431 536.5 42.5H541.5ZM540 44.5C540.828 44.5 541.5 45.1716 541.5 46H536.5C536.5 47.933 538.067 49.5 540 49.5V44.5ZM627.5 46C627.5 45.1716 628.172 44.5 629 44.5V49.5C630.933 49.5 632.5 47.933 632.5 46H627.5ZM629.5 44.5C628.395 44.5 627.5 43.6046 627.5 42.5H632.5C632.5 40.8431 631.157 39.5 629.5 39.5V44.5ZM631.5 42.5C631.5 43.6046 630.605 44.5 629.5 44.5V39.5C627.843 39.5 626.5 40.8431 626.5 42.5H631.5ZM627 48.5C629.485 48.5 631.5 46.4853 631.5 44H626.5C626.5 43.7239 626.724 43.5 627 43.5V48.5ZM542.5 42.5C542.5 40.8431 541.157 39.5 539.5 39.5V44.5C538.395 44.5 537.5 43.6046 537.5 42.5H542.5ZM537.5 44C537.5 46.4853 539.515 48.5 542 48.5V43.5C542.276 43.5 542.5 43.7239 542.5 44H537.5Z" fill="#3349C0"/>
</g>
<defs>
<filter id="filter0_d" x="9.5" y="36.5" width="173" height="134" filterUnits="userSpaceOnUse" color-interpolation-filters="sRGB">
<feFlood flood-opacity="0" result="BackgroundImageFix"/>
<feColorMatrix in="SourceAlpha" type="matrix" values="0 0 0 0 0 0 0 0 0 0 0 0 0 0 0 0 0 0 127 0"/>
<feOffset dx="-4" dy="4"/>
<feGaussianBlur stdDeviation="2"/>
<feColorMatrix type="matrix" values="0 0 0 0 0 0 0 0 0 0 0 0 0 0 0 0 0 0 0.25 0"/>
<feBlend mode="normal" in2="BackgroundImageFix" result="effect1_dropShadow"/>
<feBlend mode="normal" in="SourceGraphic" in2="effect1_dropShadow" result="shape"/>
</filter>
<filter id="filter1_d" x="249.5" y="37.5" width="173" height="133" filterUnits="userSpaceOnUse" color-interpolation-filters="sRGB">
<feFlood flood-opacity="0" result="BackgroundImageFix"/>
<feColorMatrix in="SourceAlpha" type="matrix" values="0 0 0 0 0 0 0 0 0 0 0 0 0 0 0 0 0 0 127 0"/>
<feOffset dx="-4" dy="4"/>
<feGaussianBlur stdDeviation="2"/>
<feColorMatrix type="matrix" values="0 0 0 0 0 0 0 0 0 0 0 0 0 0 0 0 0 0 0.25 0"/>
<feBlend mode="normal" in2="BackgroundImageFix" result="effect1_dropShadow"/>
<feBlend mode="normal" in="SourceGraphic" in2="effect1_dropShadow" result="shape"/>
</filter>
<filter id="filter2_d" x="493" y="39" width="173" height="128" filterUnits="userSpaceOnUse" color-interpolation-filters="sRGB">
<feFlood flood-opacity="0" result="BackgroundImageFix"/>
<feColorMatrix in="SourceAlpha" type="matrix" values="0 0 0 0 0 0 0 0 0 0 0 0 0 0 0 0 0 0 127 0"/>
<feOffset dx="-4" dy="4"/>
<feGaussianBlur stdDeviation="2"/>
<feColorMatrix type="matrix" values="0 0 0 0 0 0 0 0 0 0 0 0 0 0 0 0 0 0 0.25 0"/>
<feBlend mode="normal" in2="BackgroundImageFix" result="effect1_dropShadow"/>
<feBlend mode="normal" in="SourceGraphic" in2="effect1_dropShadow" result="shape"/>
</filter>
</defs>
</svg>
