<?xml version="1.0" standalone="no"?>
<!DOCTYPE svg PUBLIC "-//W3C//DTD SVG 1.1//EN" "http://www.w3.org/Graphics/SVG/1.1/DTD/svg11.dtd" >
<svg>
<metadata>
Created by FontForge 20090914 at Wed Sep  2 09:01:39 2020
 By www-data
Copyright 2019 The Baloo 2 Project Authors (https://github.com/EkType/Baloo2)
</metadata>
<defs>
<font id="BalooChettan2-Regular" horiz-adv-x="550" >
  <font-face 
    font-family="Baloo Chettan 2"
    font-weight="400"
    font-stretch="normal"
    units-per-em="1000"
    panose-1="3 8 5 2 4 3 2 2 2 0"
    ascent="800"
    descent="-200"
    x-height="461.998"
    cap-height="613"
    bbox="-809.005 -349 2196 1018"
    underline-thickness="50"
    underline-position="-50"
    unicode-range="U+000D-U+FB04"
  />
<missing-glyph horiz-adv-x="645" 
d="M466 581h-286v-513h286v513zM99 589c0 18.667 5.16797 33.334 15.501 44.001s24.833 16 43.5 16h328c19.333 0 34.166 -5.33301 44.499 -16s15.5 -25.334 15.5 -44.001v-529c0 -18.667 -5.16699 -33.334 -15.5 -44.001s-25.166 -16 -44.499 -16h-327
c-18.667 0 -33.334 5.33301 -44.001 16s-16 25.334 -16 44.001v529z" />
    <glyph glyph-name="f_f" unicode="ff" horiz-adv-x="783" 
d="M156 436l197.999 -0.000976562c2 -3.33301 4 -7.66602 6 -12.999s3 -11.666 3 -18.999c0 -22 -10.333 -33 -31 -33h-175v-369c-3.33301 -1.33301 -8.33301 -2.83301 -15 -4.5s-14 -2.5 -22 -2.5c-28.667 0 -43 12 -43 36v472c0 58.667 15.833 101.167 47.5 127.5
s75.834 39.5 132.501 39.5c38 0 67.833 -5 89.5 -15s32.5 -22.333 32.5 -37s-5.66699 -27 -17 -37c-12 6.66699 -27 12.167 -45 16.5s-35.333 6.5 -52 6.5c-40.667 0 -69 -8.33301 -85 -25s-24 -43.334 -24 -80.001v-63zM540.999 435.999l197.999 -0.000976562
c2 -3.33301 4 -7.66602 6 -12.999s3 -11.666 3 -18.999c0 -22 -10.333 -33 -31 -33h-175v-369c-3.33301 -1.33301 -8.33301 -2.83301 -15 -4.5s-14 -2.5 -22 -2.5c-28.667 0 -43 12 -43 36v472c0 58.667 15.833 101.167 47.5 127.5s75.834 39.5 132.501 39.5
c38 0 67.833 -5 89.5 -15s32.5 -22.333 32.5 -37s-5.66699 -27 -17 -37c-12 6.66699 -27 12.167 -45 16.5s-35.333 6.5 -52 6.5c-40.667 0 -69 -8.33301 -85 -25s-24 -43.334 -24 -80.001v-63z" />
    <glyph glyph-name="fi" unicode="fi" horiz-adv-x="640" 
d="M156 436l197.999 -0.000976562c2 -3.33301 4 -7.66602 6 -12.999s3 -11.666 3 -18.999c0 -22 -10.333 -33 -31 -33h-175v-369c-3.33301 -1.33301 -8.33301 -2.83301 -15 -4.5s-14 -2.5 -22 -2.5c-28.667 0 -43 12 -43 36v472c0 58.667 15.833 101.167 47.5 127.5
s75.834 39.5 132.501 39.5c38 0 67.833 -5 89.5 -15s32.5 -22.333 32.5 -37s-5.66699 -27 -17 -37c-12 6.66699 -27 12.167 -45 16.5s-35.333 6.5 -52 6.5c-40.667 0 -69 -8.33301 -85 -25s-24 -43.334 -24 -80.001v-63zM558.999 1.99902
c-3.33301 -1.33301 -8.33301 -2.83301 -15 -4.5s-14 -2.5 -22 -2.5c-28.667 0 -43 12 -43 36v429c3.33301 1.33301 8.5 2.83301 15.5 4.5s14.5 2.5 22.5 2.5c28 0 42 -12.333 42 -37v-428zM466.999 607.999c0 14 4.83301 25.833 14.5 35.5s22.167 14.5 37.5 14.5
s27.666 -4.83301 36.999 -14.5s14 -21.5 14 -35.5s-4.66699 -25.833 -14 -35.5s-21.666 -14.5 -36.999 -14.5s-27.833 4.83301 -37.5 14.5s-14.5 21.5 -14.5 35.5z" />
    <glyph glyph-name="fl" unicode="fl" horiz-adv-x="645" 
d="M156 436l197.999 -0.000976562c2 -3.33301 4 -7.66602 6 -12.999s3 -11.666 3 -18.999c0 -22 -10.333 -33 -31 -33h-175v-369c-3.33301 -1.33301 -8.33301 -2.83301 -15 -4.5s-14 -2.5 -22 -2.5c-28.667 0 -43 12 -43 36v472c0 58.667 15.833 101.167 47.5 127.5
s75.834 39.5 132.501 39.5c38 0 67.833 -5 89.5 -15s32.5 -22.333 32.5 -37s-5.66699 -27 -17 -37c-12 6.66699 -27 12.167 -45 16.5s-35.333 6.5 -52 6.5c-40.667 0 -69 -8.33301 -85 -25s-24 -43.334 -24 -80.001v-63zM561.999 1.99902
c-3.33301 -1.33301 -8.33301 -2.83301 -15 -4.5s-14 -2.5 -22 -2.5c-28.667 0 -43 12 -43 36v617c3.33301 1.33301 8.5 2.83301 15.5 4.5s14.167 2.5 21.5 2.5c28.667 0 43 -12 43 -36v-617z" />
    <glyph glyph-name="f_f_i" unicode="ffi" horiz-adv-x="988" 
d="M156 436l197.999 -0.000976562c2 -3.33301 4 -7.66602 6 -12.999s3 -11.666 3 -18.999c0 -22 -10.333 -33 -31 -33h-175v-369c-3.33301 -1.33301 -8.33301 -2.83301 -15 -4.5s-14 -2.5 -22 -2.5c-28.667 0 -43 12 -43 36v472c0 58.667 15.833 101.167 47.5 127.5
s75.834 39.5 132.501 39.5c38 0 67.833 -5 89.5 -15s32.5 -22.333 32.5 -37s-5.66699 -27 -17 -37c-12 6.66699 -27 12.167 -45 16.5s-35.333 6.5 -52 6.5c-40.667 0 -69 -8.33301 -85 -25s-24 -43.334 -24 -80.001v-63zM506.999 435.999l197.999 -0.000976562
c2 -3.33301 4 -7.66602 6 -12.999s3 -11.666 3 -18.999c0 -22 -10.333 -33 -31 -33h-175v-369c-3.33301 -1.33301 -8.33301 -2.83301 -15 -4.5s-14 -2.5 -22 -2.5c-28.667 0 -43 12 -43 36v472c0 58.667 15.833 101.167 47.5 127.5s75.834 39.5 132.501 39.5
c38 0 67.833 -5 89.5 -15s32.5 -22.333 32.5 -37s-5.66699 -27 -17 -37c-12 6.66699 -27 12.167 -45 16.5s-35.333 6.5 -52 6.5c-40.667 0 -69 -8.33301 -85 -25s-24 -43.334 -24 -80.001v-63zM906.998 1.99805c-3.33301 -1.33301 -8.33301 -2.83301 -15 -4.5
s-14 -2.5 -22 -2.5c-28.667 0 -43 12 -43 36v429c3.33301 1.33301 8.5 2.83301 15.5 4.5s14.5 2.5 22.5 2.5c28 0 42 -12.333 42 -37v-428zM814.998 607.998c0 14 4.83301 25.833 14.5 35.5s22.167 14.5 37.5 14.5s27.666 -4.83301 36.999 -14.5s14 -21.5 14 -35.5
s-4.66699 -25.833 -14 -35.5s-21.666 -14.5 -36.999 -14.5s-27.833 4.83301 -37.5 14.5s-14.5 21.5 -14.5 35.5z" />
    <glyph glyph-name="f_f_l" unicode="ffl" horiz-adv-x="1029" 
d="M913 2c-3.33301 -1.33301 -8.33301 -2.83301 -15 -4.5s-14 -2.5 -22 -2.5c-28.667 0 -43 12 -43 36v617c3.33301 1.33301 8.5 2.83301 15.5 4.5s14.167 2.5 21.5 2.5c28.667 0 43 -12 43 -36v-617zM156 436l197.999 -0.000976562c2 -3.33301 4 -7.66602 6 -12.999
s3 -11.666 3 -18.999c0 -22 -10.333 -33 -31 -33h-175v-369c-3.33301 -1.33301 -8.33301 -2.83301 -15 -4.5s-14 -2.5 -22 -2.5c-28.667 0 -43 12 -43 36v472c0 58.667 15.833 101.167 47.5 127.5s75.834 39.5 132.501 39.5c38 0 67.833 -5 89.5 -15s32.5 -22.333 32.5 -37
s-5.66699 -27 -17 -37c-12 6.66699 -27 12.167 -45 16.5s-35.333 6.5 -52 6.5c-40.667 0 -69 -8.33301 -85 -25s-24 -43.334 -24 -80.001v-63zM506.999 435.999l197.999 -0.000976562c2 -3.33301 4 -7.66602 6 -12.999s3 -11.666 3 -18.999c0 -22 -10.333 -33 -31 -33h-175
v-369c-3.33301 -1.33301 -8.33301 -2.83301 -15 -4.5s-14 -2.5 -22 -2.5c-28.667 0 -43 12 -43 36v472c0 58.667 15.833 101.167 47.5 127.5s75.834 39.5 132.501 39.5c38 0 67.833 -5 89.5 -15s32.5 -22.333 32.5 -37s-5.66699 -27 -17 -37
c-12 6.66699 -27 12.167 -45 16.5s-35.333 6.5 -52 6.5c-40.667 0 -69 -8.33301 -85 -25s-24 -43.334 -24 -80.001v-63z" />
    <glyph glyph-name=".notdef" horiz-adv-x="645" 
d="M466 581h-286v-513h286v513zM99 589c0 18.667 5.16797 33.334 15.501 44.001s24.833 16 43.5 16h328c19.333 0 34.166 -5.33301 44.499 -16s15.5 -25.334 15.5 -44.001v-529c0 -18.667 -5.16699 -33.334 -15.5 -44.001s-25.166 -16 -44.499 -16h-327
c-18.667 0 -33.334 5.33301 -44.001 16s-16 25.334 -16 44.001v529z" />
    <glyph glyph-name="NULL" horiz-adv-x="0" 
 />
    <glyph glyph-name="NULL" horiz-adv-x="0" 
 />
    <glyph glyph-name="uni000D" unicode="&#xd;" horiz-adv-x="223" 
 />
    <glyph glyph-name="space" unicode=" " horiz-adv-x="200" 
 />
    <glyph glyph-name="exclam" unicode="!" horiz-adv-x="250" 
d="M164 582c0 -20 -0.168945 -46.334 -0.501953 -79.001s-1 -67.5 -2 -104.5s-2.16699 -74.167 -3.5 -111.5s-2.66602 -70.666 -3.99902 -99.999c-8.66699 -6.66699 -19.667 -10 -33 -10c-9.33301 0 -17 2 -23 6s-9.33301 10.333 -10 19
c-1.33301 19.333 -2.66602 46.333 -3.99902 81s-2.33301 71.667 -3 111s-1.16699 78.5 -1.5 117.5s-0.5 72.5 -0.5 100.5c14 8.66699 29 13 45 13c26.667 0 40 -14.333 40 -43zM65.998 44.999c0 16 5 29.333 15 40s23.667 16 41 16s31 -5.33301 41 -16s15 -24 15 -40
s-5 -29.333 -15 -40s-23.667 -16 -41 -16s-31 5.33301 -41 16s-15 24 -15 40z" />
    <glyph glyph-name="quotedbl" unicode="&#x22;" horiz-adv-x="270" 
d="M101 418c-9.33301 -4 -19.666 -6 -30.999 -6c-21.333 0 -32.333 9.66699 -33 29l-6 174c12 6.66699 25 10 39 10c24.667 0 37 -13 37 -39c0 -8.66699 -0.166992 -20 -0.5 -34s-0.833008 -29 -1.5 -45l-2 -47.5c-0.666992 -15.667 -1.33398 -29.5 -2.00098 -41.5zM234 418
c-10 -4 -20.666 -6 -31.999 -6c-20.667 0 -31.334 9.66699 -32.001 29l-7 174c6 3.33301 12.167 5.83301 18.5 7.5s13.5 2.5 21.5 2.5c24 0 36 -13.333 36 -40c0 -8 -0.166992 -19 -0.5 -33s-0.833008 -29 -1.5 -45s-1.16699 -31.833 -1.5 -47.5s-0.833008 -29.5 -1.5 -41.5
z" />
    <glyph glyph-name="numbersign" unicode="#" horiz-adv-x="667" 
d="M494 396l-36.0029 -172.005h136c1.33301 -4 2.66602 -8.5 3.99902 -13.5s2 -10.5 2 -16.5c0 -21.333 -11.333 -32 -34 -32h-121l-34 -165c-3.33301 -0.666992 -7.16602 -1.16699 -11.499 -1.5s-8.83301 -0.5 -13.5 -0.5c-10.667 0 -19.167 2.5 -25.5 7.5
s-9.5 13.167 -9.5 24.5c0 6.66699 1 14.834 3 24.501l5 24.5l18 86h-148l-34 -165c-3.33301 -0.666992 -7.16602 -1.16699 -11.499 -1.5s-8.83301 -0.5 -13.5 -0.5c-10.667 0 -19.167 2.5 -25.5 7.5s-9.5 13.167 -9.5 24.5c0 6.66699 1 14.834 3 24.501s4 17.834 6 24.501
l18 86h-113c-1.33301 4 -2.66602 8.5 -3.99902 13.5s-2 10.167 -2 15.5c0 22 11 33 33 33h99l36 172h-132l-4.5 13c-1.66699 4.66699 -2.5 10 -2.5 16c0 22 11.333 33 34 33h118l32 153c3.33301 0.666992 7.33301 1.16699 12 1.5s9 0.5 13 0.5
c10.667 0 19.167 -2.5 25.5 -7.5s9.5 -13.167 9.5 -24.5c0 -6.66699 -1.16699 -14.667 -3.5 -24s-4.16602 -17.666 -5.49902 -24.999l-16 -74h148l33 153c3.33301 0.666992 7.33301 1.16699 12 1.5s9 0.5 13 0.5c10.667 0 19.167 -2.5 25.5 -7.5s9.5 -13.167 9.5 -24.5
c0 -6.66699 -1.16699 -14.667 -3.5 -24s-4.16602 -17.666 -5.49902 -24.999l-16 -74h117c1.33301 -4 2.66602 -8.5 3.99902 -13.5s2 -10.5 2 -16.5c0 -21.333 -11.333 -32 -34 -32h-102zM241.997 223.995h148l36 172h-148z" />
    <glyph glyph-name="dollar" unicode="$" horiz-adv-x="522" 
d="M257 55c44.667 0 78.499 10.1699 101.499 30.5029s34.5 46.5 34.5 78.5c0 28 -8.83301 50.667 -26.5 68s-45.5 31.666 -83.5 42.999l-87 26c-42.667 12.667 -76.167 31.334 -100.5 56.001s-36.5 58 -36.5 100c0 44.667 14.5 81 43.5 109s68.5 45.333 118.5 52v79
c3.33301 1.33301 7.83301 2.5 13.5 3.5s12.167 1.5 19.5 1.5c26.667 0 40 -11 40 -33v-49c22.667 -2 43.667 -5.5 63 -10.5s36 -11 50 -18s25 -14.833 33 -23.5s12 -17.334 12 -26.001c0 -9.33301 -2.33301 -17.333 -7 -24s-10.667 -12 -18 -16
c-17.333 13.333 -39.833 25 -67.5 35s-58.5 15 -92.5 15c-39.333 0 -70.166 -8.33301 -92.499 -25s-33.5 -40 -33.5 -70c0 -23.333 8 -42.333 24 -57s42.667 -27.334 80 -38.001l61 -18c52.667 -15.333 94.167 -36.833 124.5 -64.5s45.5 -66.167 45.5 -115.5
c0 -48 -15.667 -87.833 -47 -119.5s-76.333 -50.167 -135 -55.5v-78c-3.33301 -1.33301 -7.66602 -2.5 -12.999 -3.5s-11.666 -1.5 -18.999 -1.5c-27.333 0 -41 11 -41 33v50c-25.333 2 -48.333 5.83301 -69 11.5s-38.334 12.5 -53.001 20.5s-25.834 16.667 -33.501 26
s-11.5 18.666 -11.5 27.999c0 11.333 3.5 20.833 10.5 28.5s15.167 13.167 24.5 16.5c7.33301 -7.33301 16.333 -14.833 27 -22.5s23 -14.667 37 -21s29.667 -11.5 47 -15.5s36.333 -6 57 -6z" />
    <glyph glyph-name="percent" unicode="%" horiz-adv-x="772" 
d="M335 474c0 -22 -3.66699 -41.667 -11 -59s-17.333 -32.166 -30 -44.499s-27.667 -21.833 -45 -28.5s-35.666 -10 -54.999 -10c-20 0 -38.5 3.33301 -55.5 10s-31.833 16.167 -44.5 28.5s-22.667 27.166 -30 44.499s-11 37 -11 59s3.66699 41.667 11 59
s17.333 32.166 30 44.499s27.5 21.833 44.5 28.5s35.5 10 55.5 10c19.333 0 37.666 -3.33301 54.999 -10s32.333 -16.167 45 -28.5s22.667 -27.166 30 -44.499s11 -37 11 -59zM124 474c0 -26 6.5 -46.167 19.5 -60.5s29.833 -21.5 50.5 -21.5s37.5 7.16699 50.5 21.5
s19.5 34.5 19.5 60.5s-6.5 46.167 -19.5 60.5s-29.833 21.5 -50.5 21.5s-37.5 -7.16699 -50.5 -21.5s-19.5 -34.5 -19.5 -60.5zM554 616c15.333 -2 27.5 -5.83105 36.5 -11.498s13.5 -13.167 13.5 -22.5c0 -6.66699 -1.33301 -13.167 -4 -19.5s-6.66699 -13.166 -12 -20.499
l-367 -549c-14.667 1.33301 -26.667 5.16602 -36 11.499s-14 14.166 -14 23.499s5 21.666 15 36.999zM719 135.002c0 -22 -3.66699 -41.833 -11 -59.5s-17.333 -32.667 -30 -45s-27.5 -21.833 -44.5 -28.5s-35.5 -10 -55.5 -10c-19.333 0 -37.666 3.33301 -54.999 10
s-32.333 16.167 -45 28.5s-22.667 27.333 -30 45s-11 37.5 -11 59.5c0 21.333 3.66699 40.666 11 57.999s17.333 32.166 30 44.499s27.667 21.833 45 28.5s35.666 10 54.999 10c20 0 38.5 -3.33301 55.5 -10s31.833 -16.167 44.5 -28.5s22.667 -27.166 30 -44.499
s11 -36.666 11 -57.999zM508 135.002c0 -26.667 6.5 -47.167 19.5 -61.5s29.833 -21.5 50.5 -21.5s37.5 7.16699 50.5 21.5s19.5 34.833 19.5 61.5c0 25.333 -6.5 45.166 -19.5 59.499s-29.833 21.5 -50.5 21.5s-37.5 -7.16699 -50.5 -21.5s-19.5 -34.166 -19.5 -59.499z
" />
    <glyph glyph-name="ampersand" unicode="&#x26;" horiz-adv-x="637" 
d="M565 -14c-7.33301 0 -14.002 1.99805 -20.002 5.99805s-12.667 9.66699 -20 17l-51 53c-22 -23.333 -49 -42 -81 -56s-70 -21 -114 -21c-34.667 0 -66 4.83301 -94 14.5s-52 23.167 -72 40.5s-35.5 38.5 -46.5 63.5s-16.5 52.833 -16.5 83.5
c0 46.667 12.333 85.5 37 116.5s56 53.5 94 67.5c-16 18.667 -28 37 -36 55s-12 37.667 -12 59c0 41.333 13.833 74.333 41.5 99s66.834 37 117.501 37c35.333 0 62.166 -5 80.499 -15s27.5 -22.667 27.5 -38c0 -8 -2.16699 -15.167 -6.5 -21.5
s-9.16602 -11.166 -14.499 -14.499c-10.667 6 -23.167 11 -37.5 15s-29.166 6 -44.499 6c-25.333 0 -45.333 -6.16699 -60 -18.5s-22 -29.166 -22 -50.499c0 -20.667 5.33301 -39 16 -55s26 -34.333 46 -55l188 -196c9.33301 21.333 16.5 46.666 21.5 75.999
s7.5 62.333 7.5 99c6 2.66699 12.167 4.83398 18.5 6.50098s12.5 2.5 18.5 2.5c26.667 0 40 -15 40 -45c0 -34 -4.33301 -68.333 -13 -103s-21 -66 -37 -94l88 -91c-4 -28.667 -18.667 -43 -44 -43zM279.998 52.998c23.333 0 47.667 4.66699 73 14s49 25 71 47l-194 203
c-12.667 -4 -25 -9.5 -37 -16.5s-22.5 -16 -31.5 -27s-16.333 -23.833 -22 -38.5s-8.5 -31 -8.5 -49c0 -40 13.167 -72.167 39.5 -96.5s62.833 -36.5 109.5 -36.5z" />
    <glyph glyph-name="quotesingle" unicode="'" horiz-adv-x="139" 
d="M103 418c-4.66699 -1.33301 -9.83105 -2.66699 -15.498 -4s-11.5 -2 -17.5 -2c-20.667 0 -31.667 9.66699 -33 29l-6 174c5.33301 3.33301 11.166 5.83301 17.499 7.5s13.833 2.5 22.5 2.5c25.333 0 38 -13.333 38 -40c0 -8.66699 -0.166992 -20 -0.5 -34
s-0.833008 -28.833 -1.5 -44.5l-2 -47c-0.666992 -15.667 -1.33398 -29.5 -2.00098 -41.5z" />
    <glyph glyph-name="parenleft" unicode="(" horiz-adv-x="254" 
d="M204 -116c-10.667 0 -20.334 3.83105 -29.001 11.498s-17.667 18.167 -27 31.5c-30 42.667 -53 92.5 -69 149.5s-24 122.833 -24 197.5s9.33301 140.834 28 198.501s40.334 105.167 65.001 142.5c17.333 28 36 42 56 42c9.33301 0 17.5 -2.66699 24.5 -8
s12.167 -12 15.5 -20c-36 -46 -63.833 -98.833 -83.5 -158.5s-29.5 -125.167 -29.5 -196.5s8.83301 -135.666 26.5 -192.999s46.5 -113.333 86.5 -168c-3.33301 -8 -8.5 -14.833 -15.5 -20.5s-15.167 -8.5 -24.5 -8.5z" />
    <glyph glyph-name="parenright" unicode=")" horiz-adv-x="254" 
d="M50 -116c-9.33301 0 -17.5 2.83496 -24.5 8.50195s-12.167 12.5 -15.5 20.5c40 54.667 68.833 110.667 86.5 168s26.5 121.666 26.5 192.999s-9.83301 136.833 -29.5 196.5s-47.5 112.5 -83.5 158.5c3.33301 8 8.5 14.667 15.5 20s15.167 8 24.5 8
c20 0 38.667 -14 56 -42c24.667 -37.333 46.334 -84.833 65.001 -142.5s28 -123.834 28 -198.501s-8 -140.5 -24 -197.5s-39 -106.833 -69 -149.5c-9.33301 -13.333 -18.333 -23.833 -27 -31.5s-18.334 -11.5 -29.001 -11.5z" />
    <glyph glyph-name="asterisk" unicode="*" horiz-adv-x="299" 
d="M50 579c3.33301 0 6.66699 -0.666016 10 -1.99902s7 -2.66602 11 -3.99902l53 -27l-3 94c3.33301 2 7.66602 4 12.999 6s11.333 3 18 3c8.66699 0 15.834 -2 21.501 -6s8.5 -10.667 8.5 -20c0 -4.66699 -0.666992 -15.334 -2 -32.001s-2.33301 -32.334 -3 -47.001l77 44
c6 -2.66699 11.667 -7.16699 17 -13.5s8 -13.5 8 -21.5s-2.33301 -14 -7 -18s-10.667 -7.66699 -18 -11l-59 -28l63 -75c-1.33301 -8.66699 -5.5 -16 -12.5 -22s-14.5 -9 -22.5 -9c-7.33301 0 -14 2.83301 -20 8.5s-11.333 11.5 -16 17.5l-36 50l-51 -75
c-3.33301 -0.666992 -7.66602 -1 -12.999 -1c-13.333 0 -23 2.83301 -29 8.5s-9 12.5 -9 20.5c0 10 4 19 12 27l46 52l-84 28c-2 6.66699 -3 13.667 -3 21c0 9.33301 2.66699 17 8 23s12.666 9 21.999 9z" />
    <glyph glyph-name="plus" unicode="+" horiz-adv-x="548" 
d="M312 332h177.998l4.5 -14c1.66699 -5.33301 2.5 -11 2.5 -17c0 -23.333 -11.667 -35 -35 -35h-150v-193c-5.33301 -2 -10.5 -3.66699 -15.5 -5s-11.167 -2 -18.5 -2c-13.333 0 -23.166 3 -29.499 9s-9.5 16.333 -9.5 31v160h-181c-2 4.66699 -3.66699 9.5 -5 14.5
s-2 10.833 -2 17.5c0 22.667 11.667 34 35 34h153v189c5.33301 2 10.833 3.66699 16.5 5s12.5 2 20.5 2c12.667 0 21.834 -3 27.501 -9s8.5 -16.333 8.5 -31v-156z" />
    <glyph glyph-name="comma" unicode="," horiz-adv-x="145" 
d="M68 -94c-5.33301 -9.33301 -10.9971 -16.168 -16.9971 -20.501s-13.333 -6.5 -22 -6.5c-14.667 0 -26.667 5.66699 -36 17c4.66699 12.667 9.66699 27.5 15 44.5l16.5 53c5.66699 18.333 10.667 36.166 15 53.499s7.83301 33 10.5 47
c5.33301 2.66699 11.166 4.83398 17.499 6.50098s13.166 2.5 20.499 2.5c12 0 21.333 -2.83301 28 -8.5s10 -15.167 10 -28.5c0 -11.333 -2.16699 -24.666 -6.5 -39.999s-9.5 -30.833 -15.5 -46.5s-12.333 -30.167 -19 -43.5s-12.334 -23.333 -17.001 -30z" />
    <glyph glyph-name="hyphen" unicode="-" horiz-adv-x="389" 
d="M61 228c-2 4.66699 -3.66699 9.5 -5 14.5s-2 10.833 -2 17.5c0 22.667 11.667 34 35 34h239l4.5 -14c1.66699 -5.33301 2.5 -11 2.5 -17c0 -23.333 -11.667 -35 -35 -35h-239z" />
    <glyph glyph-name="period" unicode="." horiz-adv-x="141" 
d="M16 42c0 16 4.83301 29.333 14.5 40s23.167 16 40.5 16s30.666 -5.33301 39.999 -16s14 -24 14 -40c0 -15.333 -4.66699 -28.333 -14 -39s-22.666 -16 -39.999 -16s-30.833 5.33301 -40.5 16s-14.5 23.667 -14.5 39z" />
    <glyph glyph-name="slash" unicode="/" horiz-adv-x="305" 
d="M89 -105c-4 -0.666992 -7.99902 -1.16602 -11.999 -1.49902s-8.66699 -0.5 -14 -0.5c-26 0 -39 12 -39 36c0 7.33301 1.33301 16 4 26s4.66699 18 6 24l184 726c4 0.666992 8.16699 1.16699 12.5 1.5s8.83301 0.5 13.5 0.5c11.333 0 20.666 -2.83301 27.999 -8.5
s11 -14.834 11 -27.501c0 -7.33301 -1 -15.5 -3 -24.5s-4 -17.5 -6 -25.5z" />
    <glyph glyph-name="zero" unicode="0" horiz-adv-x="583" 
d="M447 304c0 44.667 -4.16699 82.666 -12.5 113.999s-19.5 57 -33.5 77s-30.5 34.5 -49.5 43.5s-39.167 13.5 -60.5 13.5s-41.333 -4.83301 -60 -14.5s-35 -24.5 -49 -44.5s-25.167 -45.667 -33.5 -77s-12.5 -68.666 -12.5 -111.999c0 -80.667 13.5 -142.334 40.5 -185.001
s65.167 -64 114.5 -64c50 0 88.5 21.333 115.5 64s40.5 104.334 40.5 185.001zM291 -13.001c-35.333 0 -67.502 6.50098 -96.502 19.501s-54 32.667 -75 59s-37.167 59.333 -48.5 99s-17 86.167 -17 139.5c0 57.333 6.66699 106 20 146s31 72.667 53 98
s47.167 43.666 75.5 54.999s57.833 17 88.5 17s60.334 -5.83301 89.001 -17.5s54 -30.167 76 -55.5s39.667 -58 53 -98s20 -88.333 20 -145c0 -53.333 -5.66699 -99.833 -17 -139.5s-27.5 -72.667 -48.5 -99s-46.167 -46 -75.5 -59s-61.666 -19.5 -96.999 -19.5z" />
    <glyph glyph-name="one" unicode="1" horiz-adv-x="357" 
d="M45 470c-8.66699 3.33301 -15.832 8.33203 -21.499 14.999s-8.5 15 -8.5 25c0 10.667 2.66699 19.334 8 26.001s14.666 12.667 27.999 18l140 61h19c13.333 0 24 -4 32 -12s12 -18.667 12 -32v-572c-4 -1.33301 -9.33301 -2.83301 -16 -4.5s-14 -2.5 -22 -2.5
c-28.667 0 -43 12.333 -43 37v501z" />
    <glyph glyph-name="two" unicode="2" horiz-adv-x="508" 
d="M57 545c0 8.66699 4.5 17.5 13.5 26.5s21.167 17.167 36.5 24.5s33.333 13.166 54 17.499s42.667 6.5 66 6.5c64.667 0 115.167 -15.667 151.5 -47s54.5 -73.666 54.5 -126.999c0 -18 -2.33301 -35.833 -7 -53.5s-12.334 -35.667 -23.001 -54s-24.667 -37.5 -42 -57.5
s-38.333 -41.333 -63 -64l-163 -151h297c2.66699 -3.33301 5 -7.66602 7 -12.999s3 -11.666 3 -18.999c0 -22.667 -10.333 -34 -31 -34h-353c-13.333 9.33301 -20 22.666 -20 39.999c0 19.333 8 36.666 24 51.999l180 173c20 19.333 37 37 51 53s25.167 31 33.5 45
s14.333 27.667 18 41s5.5 27 5.5 41c0 32 -10.667 57.833 -32 77.5s-53.666 29.5 -96.999 29.5c-30 0 -56.333 -5 -79 -15s-41.667 -20.667 -57 -32c-7.33301 3.33301 -13.833 8.33301 -19.5 15s-8.5 15 -8.5 25z" />
    <glyph glyph-name="three" unicode="3" horiz-adv-x="506" 
d="M217 621c31.333 0 60.001 -3.50098 86.001 -10.501s48.333 -17.5 67 -31.5s33.167 -31.333 43.5 -52s15.5 -44.667 15.5 -72c0 -20 -3.33301 -37.833 -10 -53.5s-14.834 -29.167 -24.501 -40.5s-20.167 -20.333 -31.5 -27s-21.333 -11 -30 -13
c13.333 -4 26.666 -10.167 39.999 -18.5s25.5 -18.666 36.5 -30.999s20 -27 27 -44s10.5 -36.167 10.5 -57.5c0 -30 -5.5 -56.333 -16.5 -79s-26.5 -41.5 -46.5 -56.5s-44 -26.333 -72 -34s-58.667 -11.5 -92 -11.5c-27.333 0 -52.5 2.16699 -75.5 6.5
s-42.833 10.333 -59.5 18s-29.667 16.167 -39 25.5s-14 19 -14 29c0 9.33301 2.5 17.333 7.5 24s11.5 12.334 19.5 17.001c17.333 -13.333 38.5 -25.333 63.5 -36s57.5 -16 97.5 -16c44 0 79.667 9.5 107 28.5s41 47.833 41 86.5c0 34 -12.667 61.333 -38 82s-62 31 -110 31
h-83c-2.66699 3.33301 -5 8.16602 -7 14.499s-3 12.833 -3 19.5c0 7.33301 1 14 3 20s4.33301 10.667 7 14h76c49.333 0 84.5 9.16699 105.5 27.5s31.5 42.5 31.5 72.5c0 32.667 -11.833 57.5 -35.5 74.5s-56.5 25.5 -98.5 25.5c-32 0 -60.167 -4.83301 -84.5 -14.5
s-44.5 -20.167 -60.5 -31.5c-6.66699 3.33301 -12.667 8.5 -18 15.5s-8 15.167 -8 24.5c0 8.66699 4.33301 17.5 13 26.5s20.834 17 36.501 24s34 12.667 55 17s43.5 6.5 67.5 6.5z" />
    <glyph glyph-name="four" unicode="4" horiz-adv-x="548" 
d="M323 609c6 1.33301 12.8311 2.50098 20.498 3.50098s14.5 1.5 20.5 1.5c14 0 26.667 -3.33301 38 -10s17 -19.667 17 -39v-350h100c2 -3.33301 4 -7.83301 6 -13.5s3 -12.167 3 -19.5c0 -22.667 -10.333 -34 -31 -34h-78v-150
c-3.33301 -1.33301 -8.16602 -2.66602 -14.499 -3.99902s-13.166 -2 -20.499 -2c-28.667 0 -43 11.667 -43 35v121h-289c-6.66699 3.33301 -12.5 9.16602 -17.5 17.499s-7.5 18.166 -7.5 29.499c0 6 0.5 11.167 1.5 15.5s2.16699 8.5 3.5 12.5zM343.998 530.001h-2
l-222 -315h222z" />
    <glyph glyph-name="five" unicode="5" horiz-adv-x="538" 
d="M454 608c2 -3.33301 4 -7.83691 6 -13.5039s3 -11.834 3 -18.501c0 -11.333 -2.66699 -20.166 -8 -26.499s-13 -9.5 -23 -9.5h-256l-16 -180c11.333 6 27 11.833 47 17.5s41.667 8.5 65 8.5c30 0 57.833 -4.33301 83.5 -13s48.167 -21.167 67.5 -37.5
s34.5 -36.666 45.5 -60.999s16.5 -52.5 16.5 -84.5c0 -29.333 -5 -56.333 -15 -81s-24.667 -46 -44 -64s-43.166 -32.167 -71.499 -42.5s-60.5 -15.5 -96.5 -15.5c-28.667 0 -54.834 2.5 -78.501 7.5s-43.834 11.5 -60.501 19.5s-29.5 16.833 -38.5 26.5
s-13.5 19.167 -13.5 28.5c0 10.667 3.5 19.834 10.5 27.501s14.167 13.167 21.5 16.5c14.667 -13.333 35.334 -26.5 62.001 -39.5s59 -19.5 97 -19.5c46 0 81.667 12.667 107 38s38 58 38 98c0 40.667 -13 72.334 -39 95.001s-60 34 -102 34
c-23.333 0 -44.666 -3.66699 -63.999 -11s-37.333 -15.666 -54 -24.999c-18 1.33301 -32.5 6.83301 -43.5 16.5s-16.5 22.167 -16.5 37.5c0 4 0.166992 9.16699 0.5 15.5s0.833008 12.5 1.5 18.5l17 191c1.33301 14 5.66602 25.167 12.999 33.5s18 12.5 32 12.5h306v0z" />
    <glyph glyph-name="six" unicode="6" 
d="M455 561c0 -8 -2.16797 -15.499 -6.50098 -22.499s-9.83301 -12.167 -16.5 -15.5c-14.667 7.33301 -31.167 13.833 -49.5 19.5s-38.166 8.5 -59.499 8.5c-26 0 -50.167 -4.66699 -72.5 -14s-42 -23.5 -59 -42.5s-30.5 -43 -40.5 -72s-15.333 -63.167 -16 -102.5
c6.66699 6.66699 15.167 13.667 25.5 21s22.333 14.333 36 21s29.167 12.167 46.5 16.5s36 6.5 56 6.5c29.333 0 56.333 -4.16699 81 -12.5s46 -20.833 64 -37.5s32 -37.334 42 -62.001s15 -53.334 15 -86.001c0 -31.333 -5 -59.333 -15 -84s-24.333 -45.5 -43 -62.5
s-41.167 -30.167 -67.5 -39.5s-55.5 -14 -87.5 -14c-33.333 0 -64.333 5.5 -93 16.5s-53.5 28.5 -74.5 52.5s-37.333 54.833 -49 92.5s-17.5 83.167 -17.5 136.5c0 62.667 7.66699 115.334 23 158.001s35.5 77.167 60.5 103.5s53.5 45.166 85.5 56.499s64.667 17 98 17
c17.333 0 34 -1.33301 50 -4s30.333 -6.5 43 -11.5s22.667 -11.167 30 -18.5s11 -15.666 11 -24.999zM287.999 54.001c38.667 0 70.333 11.668 95 35.001s37 56.666 37 99.999s-12.5 75.5 -37.5 96.5s-55.833 31.5 -92.5 31.5c-36 0 -67 -7.33301 -93 -22
s-46.667 -32.667 -62 -54c0.666992 -56 14.167 -101.167 40.5 -135.5s63.833 -51.5 112.5 -51.5z" />
    <glyph glyph-name="seven" unicode="7" horiz-adv-x="458" 
d="M415 608c15.333 -8.66699 23 -21.9961 23 -39.9961c0 -13.333 -3.66699 -27.333 -11 -42l-251 -530c-4 -0.666992 -7.83301 -1 -11.5 -1h-11.5c-13.333 0 -24.5 3.16699 -33.5 9.5s-13.5 15.166 -13.5 26.499c0 8 1.5 15.833 4.5 23.5s7.16699 16.5 12.5 26.5l226 459
h-316c-2 3.33301 -4 7.66602 -6 12.999s-3 11.666 -3 18.999c0 11.333 2.66699 20.166 8 26.499s13 9.5 23 9.5h360z" />
    <glyph glyph-name="eight" unicode="8" horiz-adv-x="569" 
d="M59 161c0 20.667 3.16699 39.333 9.5 56s14.833 31.5 25.5 44.5s23 24 37 33s28.667 16.5 44 22.5c-32 12 -56.833 29.333 -74.5 52s-26.5 51.334 -26.5 86.001c0 25.333 5 48.166 15 68.499s24.333 37.666 43 51.999s41 25.333 67 33s54.667 11.5 86 11.5
c65.333 0 116.833 -14.833 154.5 -44.5s56.5 -70.5 56.5 -122.5c0 -35.333 -10 -64.166 -30 -86.499s-45.667 -38.833 -77 -49.5c16.667 -6 32.334 -13.667 47.001 -23s27.5 -20.333 38.5 -33s19.667 -27.5 26 -44.5s9.5 -35.833 9.5 -56.5
c0 -27.333 -5.5 -51.666 -16.5 -72.999s-26.333 -39.333 -46 -54s-43.334 -26 -71.001 -34s-58.167 -12 -91.5 -12c-68.667 0 -123.5 15.167 -164.5 45.5s-61.5 73.166 -61.5 128.499zM430 162.999c0 36 -13.833 65 -41.5 87s-65.5 36 -113.5 42
c-41.333 -7.33301 -74.333 -22 -99 -44s-37 -50.667 -37 -86c0 -34 12.833 -60.5 38.5 -79.5s61.5 -28.5 107.5 -28.5c44 0 79.167 9.16699 105.5 27.5s39.5 45.5 39.5 81.5zM154 453.999c0 -18.667 3.66699 -34.5 11 -47.5s17.5 -23.833 30.5 -32.5
s28.167 -15.5 45.5 -20.5s36 -8.5 56 -10.5c40 10 69.833 23.667 89.5 41s29.5 40.333 29.5 69c0 32 -11.667 56.667 -35 74s-55.333 26 -96 26c-40 0 -71.833 -9 -95.5 -27s-35.5 -42 -35.5 -72z" />
    <glyph glyph-name="nine" unicode="9" horiz-adv-x="552" 
d="M82 49c0 8 2.16895 15.668 6.50195 23.001s9.83301 12.666 16.5 15.999c12.667 -7.33301 29.167 -14.5 49.5 -21.5s44.5 -10.5 72.5 -10.5c26 0 50.5 4 73.5 12s43.167 21 60.5 39s31 41.5 41 70.5s15 64.5 15 106.5c-4.66699 -5.33301 -11.334 -11.5 -20.001 -18.5
s-19.5 -13.667 -32.5 -20s-27.833 -11.666 -44.5 -15.999s-35.334 -6.5 -56.001 -6.5c-28 0 -55 3.66699 -81 11s-48.667 18.666 -68 33.999s-34.833 35.333 -46.5 60s-17.5 54.667 -17.5 90c0 31.333 5.5 59.5 16.5 84.5s26 46.167 45 63.5s41.333 30.666 67 39.999
s53.167 14 82.5 14c34 0 65.5 -5.83301 94.5 -17.5s54 -29.667 75 -54s37.333 -55.166 49 -92.499s17.5 -81.666 17.5 -132.999c0 -61.333 -6.5 -113.333 -19.5 -156s-31.333 -77.334 -55 -104.001s-52.167 -46 -85.5 -58s-70 -18 -110 -18c-20 0 -38.833 1.33301 -56.5 4
s-33.167 6.66699 -46.5 12s-23.833 11.833 -31.5 19.5s-11.5 16.5 -11.5 26.5zM275.002 290.001c16.667 0 32.5 2.16309 47.5 6.49609s28.833 10.333 41.5 18s23.5 16.334 32.5 26.001s15.833 19.5 20.5 29.5c-1.33301 56.667 -15.5 101.334 -42.5 134.001
s-64.5 49 -112.5 49c-37.333 0 -68.333 -11.667 -93 -35s-37 -56 -37 -98c0 -23.333 3.66699 -43.166 11 -59.499s17.5 -29.666 30.5 -39.999s28.167 -18 45.5 -23s36 -7.5 56 -7.5z" />
    <glyph glyph-name="colon" unicode=":" horiz-adv-x="189" 
d="M40 392c0 16 4.66699 29.333 14 40s22.666 16 39.999 16s30.833 -5.33301 40.5 -16s14.5 -24 14.5 -40s-4.83301 -29.167 -14.5 -39.5s-23.167 -15.5 -40.5 -15.5s-30.666 5.16699 -39.999 15.5s-14 23.5 -14 39.5zM40 42c0 16 4.66699 29.333 14 40s22.666 16 39.999 16
s30.833 -5.33301 40.5 -16s14.5 -24 14.5 -40c0 -15.333 -4.83301 -28.333 -14.5 -39s-23.167 -16 -40.5 -16s-30.666 5.33301 -39.999 16s-14 23.667 -14 39z" />
    <glyph glyph-name="semicolon" unicode=";" horiz-adv-x="202" 
d="M46 392c0 16 4.66699 29.333 14 40s22.666 16 39.999 16s30.833 -5.33301 40.5 -16s14.5 -24 14.5 -40s-4.83301 -29.167 -14.5 -39.5s-23.167 -15.5 -40.5 -15.5s-30.666 5.16699 -39.999 15.5s-14 23.5 -14 39.5zM89 -94
c-5.33301 -9.33301 -10.9971 -16.168 -16.9971 -20.501s-13.333 -6.5 -22 -6.5c-14.667 0 -26.667 5.66699 -36 17c4.66699 12.667 9.66699 27.5 15 44.5l16.5 53c5.66699 18.333 10.667 36.166 15 53.499s7.83301 33 10.5 47
c5.33301 2.66699 11.166 4.83398 17.499 6.50098s13.166 2.5 20.499 2.5c12 0 21.333 -2.83301 28 -8.5s10 -15.167 10 -28.5c0 -11.333 -2.16699 -24.666 -6.5 -39.999s-9.5 -30.833 -15.5 -46.5s-12.333 -30.167 -19 -43.5s-12.334 -23.333 -17.001 -30z" />
    <glyph glyph-name="less" unicode="&#x3c;" horiz-adv-x="473" 
d="M440 141c0.666992 -3.33301 1.00098 -6.33496 1.00098 -9.00195v-9c0 -10 -3.33301 -18.333 -10 -25s-15.667 -10 -27 -10c-9.33301 0 -21 4.33301 -35 13l-305 166c-6.66699 10 -10 21 -10 33c0 18.667 5.66699 31.334 17 38.001l334 171c22 -8 33 -20.667 33 -38
c0 -11.333 -3.33301 -20.166 -10 -26.499s-15.334 -12.833 -26.001 -19.5l-270 -124z" />
    <glyph glyph-name="equal" unicode="=" horiz-adv-x="518" 
d="M58 363c-4.66699 9.33301 -6.99902 19.667 -6.99902 31c0 22.667 11.667 34 35 34h374c1.33301 -4 2.66602 -8.5 3.99902 -13.5s2 -10.833 2 -17.5c0 -22.667 -11.667 -34 -35 -34h-373zM58.001 161.001c-4.66699 9.33301 -6.99902 19.667 -6.99902 31
c0 22.667 11.667 34 35 34h374c1.33301 -4 2.66602 -8.66699 3.99902 -14s2 -11 2 -17c0 -22.667 -11.667 -34 -35 -34h-373z" />
    <glyph glyph-name="greater" unicode="&#x3e;" horiz-adv-x="460" 
d="M33 459c-0.666992 3.33301 -1 6.33203 -1 8.99902v9c0 9.33301 3.16699 17.5 9.5 24.5s15.166 10.5 26.499 10.5c5.33301 0 10.833 -1.16699 16.5 -3.5s11.834 -5.16602 18.501 -8.49902l296 -166c6.66699 -10 10 -21.333 10 -34c0 -10 -1.5 -18 -4.5 -24
s-7.16699 -10.667 -12.5 -14l-324 -170c-11.333 3.33301 -19.666 8.5 -24.999 15.5s-8 14.5 -8 22.5c0 10.667 3.16699 19.5 9.5 26.5s15.166 13.167 26.499 18.5l260 127z" />
    <glyph glyph-name="question" unicode="?" horiz-adv-x="459" 
d="M115 200c-13.333 13.333 -20 27.998 -20 43.998c0 9.33301 2.66699 17 8 23s14.666 10.667 27.999 14l69 18c44 11.333 77.833 28.166 101.5 50.499s35.5 51.5 35.5 87.5c0 32 -11.5 59.5 -34.5 82.5s-58.833 34.5 -107.5 34.5c-26.667 0 -53.5 -4.16699 -80.5 -12.5
s-48.5 -19.166 -64.5 -32.499c-15.333 11.333 -23 25.666 -23 42.999c0 10 4.16699 19.333 12.5 28s20.166 16.334 35.499 23.001s33.333 12 54 16s43.667 6 69 6c32.667 0 62.667 -4.66699 90 -14s50.833 -22.166 70.5 -38.499s34.834 -36 45.501 -59s16 -48.167 16 -75.5
c0 -56.667 -17.167 -102.167 -51.5 -136.5s-86.166 -60.166 -155.499 -77.499zM104 44.998c0 16 5 29.5 15 40.5s23.667 16.5 41 16.5s31.166 -5.5 41.499 -16.5s15.5 -24.5 15.5 -40.5s-5.16699 -29.333 -15.5 -40s-24.166 -16 -41.499 -16s-31 5.33301 -41 16
s-15 24 -15 40z" />
    <glyph glyph-name="at" unicode="@" horiz-adv-x="1000" 
d="M667 79c7.33301 -5.33301 15.8311 -9.66504 25.498 -12.998s20.834 -5 33.501 -5c22 0 41.167 5 57.5 15s30 24.167 41 42.5s19.167 40.166 24.5 65.499s8 53 8 83c0 47.333 -8 90.666 -24 129.999s-38.833 73 -68.5 101s-65.5 49.833 -107.5 65.5s-89 23.5 -141 23.5
c-58 0 -110.667 -9.16699 -158 -27.5s-87.5 -44.333 -120.5 -78s-58.5 -74 -76.5 -121s-27 -99.167 -27 -156.5c0 -54.667 8.5 -104.167 25.5 -148.5s40.833 -82.166 71.5 -113.499s67.667 -55.5 111 -72.5s91.333 -25.5 144 -25.5c25.333 0 47.666 1.5 66.999 4.5
s35.666 6.5 48.999 10.5c8.66699 -8.66699 13 -19 13 -31c0 -15.333 -9.83301 -27.333 -29.5 -36s-54.834 -13 -105.501 -13c-63.333 0 -121.166 10 -173.499 30s-97.166 48.333 -134.499 85s-66.166 81.167 -86.499 133.5s-30.5 111.166 -30.5 176.499
c0 67.333 10.833 128.666 32.5 183.999s52.5 102.5 92.5 141.5s88.333 69.167 145 90.5s120 32 190 32c65.333 0 124 -9.16699 176 -27.5s96.167 -44.5 132.5 -78.5s64.166 -74.667 83.499 -122s29 -100 29 -158c0 -86.667 -17.667 -153.5 -53 -200.5
s-87.666 -70.5 -156.999 -70.5c-20.667 0 -41.167 3.33301 -61.5 10s-38.166 16.334 -53.499 29.001c-14 -10 -30.667 -18.167 -50 -24.5s-42.333 -9.5 -69 -9.5c-29.333 0 -55.833 4.5 -79.5 13.5s-44 22 -61 39s-30.167 38 -39.5 63s-14 53.167 -14 84.5
c0 36 5.5 68.167 16.5 96.5s26.5 52.333 46.5 72s44.167 34.667 72.5 45s59.833 15.5 94.5 15.5c23.333 0 46 -2.66699 68 -8s40.667 -12 56 -20c27.333 -14 41 -30.333 41 -49c0 -4.66699 -0.166992 -9.66699 -0.5 -15s-0.833008 -10.333 -1.5 -15zM379.998 200.001
c0 -43.333 10.8311 -76.5 32.498 -99.5s51.834 -34.5 90.501 -34.5c32 0 60.667 10 86 30l25 248c-10.667 5.33301 -23.667 9.83301 -39 13.5s-32.666 5.5 -51.999 5.5c-42.667 0 -77.167 -14.167 -103.5 -42.5s-39.5 -68.5 -39.5 -120.5z" />
    <glyph glyph-name="A" unicode="A" horiz-adv-x="592" 
d="M428 162h-267.997l-15 -43.5l-15.5 -46l-14.5 -42c-4.66699 -13 -8.33398 -23.833 -11.001 -32.5c-9.33301 -4 -20.333 -6 -33 -6c-10.667 0 -20.167 2.83301 -28.5 8.5s-12.5 14.834 -12.5 27.501c0 6 1 12.167 3 18.5s4.33301 13.166 7 20.499l38.5 108l51 140.5
l56 150l52.5 135.5c5.33301 2.66699 13.333 5.33398 24 8.00098s21.667 4 33 4c13.333 0 26.166 -2 38.499 -6s20.166 -10.667 23.499 -20c16 -38.667 33.167 -82.834 51.5 -132.501l55.5 -152.5l53.5 -153.5l45.5 -136.5c-5.33301 -6 -11.666 -10.833 -18.999 -14.5
s-15.666 -5.5 -24.999 -5.5c-12.667 0 -22.334 2.83301 -29.001 8.5s-12.334 15.167 -17.001 28.5zM294.003 545l-25.001 -68.501l-29 -80.5l-30 -85l-28 -82h225l-31 90.5l-30.5 87.5l-27 77.5c-8.33301 23.667 -15.166 43.834 -20.499 60.501h-4z" />
    <glyph glyph-name="B" unicode="B" horiz-adv-x="599" 
d="M516 455c0 -28.667 -6.83203 -55.168 -20.499 -79.501s-36.5 -43.166 -68.5 -56.499c38 -12.667 66.333 -32.5 85 -59.5s28 -57.5 28 -91.5c0 -60.667 -21.833 -105.667 -65.5 -135s-105.834 -44 -186.501 -44c-28 0 -55.167 1.16699 -81.5 3.5s-51.5 6.83301 -75.5 13.5
c-28 8 -42 23.333 -42 46v512c0 19.333 11 32 33 38c22.667 6.66699 46.667 11.167 72 13.5s53 3.5 83 3.5c75.333 0 134 -13.333 176 -40s63 -68 63 -124zM169.001 282.999v-215.999c16 -3.33301 34.5 -6 55.5 -8s42.167 -3 63.5 -3c55.333 0 97.333 9.16699 126 27.5
s43 47.166 43 86.499c0 34.667 -12.833 62.167 -38.5 82.5s-63.5 30.5 -113.5 30.5h-136zM169.001 349l136 0.000976562c42 0 73.833 9.33301 95.5 28s32.5 44 32.5 76c0 66 -52 99 -156 99c-23.333 0 -43.5 -0.833008 -60.5 -2.5s-32.833 -3.83398 -47.5 -6.50098v-194z
" />
    <glyph glyph-name="C" unicode="C" horiz-adv-x="588" 
d="M533 541c0 -9.33301 -2.83984 -17.3291 -8.50684 -23.9961s-12.167 -11.667 -19.5 -15c-17.333 12 -37.666 23.333 -60.999 34s-53.666 16 -90.999 16c-30.667 0 -59 -5.33301 -85 -16s-48.667 -26.334 -68 -47.001s-34.5 -46.667 -45.5 -78s-16.5 -67.333 -16.5 -108
c0 -41.333 5.33301 -77.333 16 -108s25.5 -56.334 44.5 -77.001s41.833 -36.167 68.5 -46.5s56.334 -15.5 89.001 -15.5c34.667 0 64.834 4.83301 90.501 14.5s47.167 21.167 64.5 34.5c6.66699 -2.66699 13 -7.5 19 -14.5s9 -15.167 9 -24.5c0 -14 -8 -26.667 -24 -38
c-15.333 -10.667 -36.333 -20.167 -63 -28.5s-60.667 -12.5 -102 -12.5c-42 0 -81 6.66699 -117 20s-67.167 33.166 -93.5 59.499s-47.166 59.166 -62.499 98.499s-23 85.333 -23 138s7.83301 98.834 23.5 138.501s36.834 72.834 63.501 99.501s57.834 46.667 93.501 60
s73.167 20 112.5 20c27.333 0 52.5 -2.33301 75.5 -7s42.667 -10.834 59 -18.501s29 -16.334 38 -26.001s13.5 -19.167 13.5 -28.5z" />
    <glyph glyph-name="D" unicode="D" horiz-adv-x="652" 
d="M515 311c0 42.667 -6.5 79.168 -19.5 109.501s-30.667 55.166 -53 74.499s-48.333 33.5 -78 42.5s-61.5 13.5 -95.5 13.5c-21.333 0 -39.833 -0.666992 -55.5 -2s-30.167 -3.33301 -43.5 -6v-476c16 -4 33.167 -6.66699 51.5 -8s37.166 -2 56.499 -2
c78.667 0 137.834 21.333 177.501 64s59.5 106 59.5 190zM598 311.001c0 -54.667 -7.49902 -102.169 -22.499 -142.502s-36.333 -73.833 -64 -100.5s-61.167 -46.5 -100.5 -59.5s-83.333 -19.5 -132 -19.5c-21.333 0 -45.333 0.833008 -72 2.5s-52 6.16699 -76 13.5
c-28 8.66699 -42 24 -42 46v514c0 10.667 2.66699 18.834 8 24.501s13.666 10.167 24.999 13.5c20.667 6.66699 44 11 70 13s52 3 78 3c48.667 0 93.167 -6.5 133.5 -19.5s74.833 -32.333 103.5 -58s51 -57.667 67 -96s24 -83.166 24 -134.499z" />
    <glyph glyph-name="E" unicode="E" horiz-adv-x="531" 
d="M133 0c-13.333 0 -24 3.99805 -32 11.998s-12 18.667 -12 32v520c0 13.333 4 24 12 32s18.667 12 32 12h332c2 -3.33301 4 -7.83301 6 -13.5s3 -11.834 3 -18.501c0 -11.333 -2.66699 -20.333 -8 -27s-13 -10 -23 -10h-273v-193h264c2 -3.33301 4 -7.83301 6 -13.5
s3 -11.834 3 -18.501c0 -11.333 -2.66699 -20.166 -8 -26.499s-13 -9.5 -23 -9.5h-242v-210h300c2 -3.33301 4 -7.66602 6 -12.999s3 -11.666 3 -18.999c0 -11.333 -2.66699 -20.166 -8 -26.499s-13 -9.5 -23 -9.5h-315v0z" />
    <glyph glyph-name="F" unicode="F" horiz-adv-x="517" 
d="M465 608c2 -3.33301 4 -7.83203 6 -13.499s3 -11.834 3 -18.501c0 -11.333 -2.66699 -20.333 -8 -27s-13 -10 -23 -10h-272v-208h259c2 -3.33301 4 -7.83301 6 -13.5s3 -11.834 3 -18.501c0 -11.333 -2.66699 -20.333 -8 -27s-13 -10 -23 -10h-237v-261
c-3.33301 -1.33301 -8.5 -2.66602 -15.5 -3.99902s-14.167 -2 -21.5 -2c-30 0 -45 12 -45 36v533c0 13.333 4 24 12 32s18.667 12 32 12h332z" />
    <glyph glyph-name="G" unicode="G" horiz-adv-x="639" 
d="M570 70c0 -12 -3.5 -21.998 -10.5 -29.998s-17.5 -15.667 -31.5 -23c-16.667 -8 -39.667 -15 -69 -21s-59 -9 -89 -9c-46.667 0 -89.334 6.33301 -128.001 19s-72 32 -100 58s-49.667 58.833 -65 98.5s-23 86.5 -23 140.5c0 53.333 8 100 24 140s37.833 73.167 65.5 99.5
s59.834 46 96.501 59s75.667 19.5 117 19.5c28 0 53.833 -2.33301 77.5 -7s43.834 -10.834 60.501 -18.501s29.667 -16.167 39 -25.5s14 -18.666 14 -27.999s-2.66699 -17.333 -8 -24s-11.666 -11.667 -18.999 -15c-18 12 -39.333 23.167 -64 33.5
s-56.334 15.5 -95.001 15.5c-32 0 -61.667 -5.33301 -89 -16s-51 -26.334 -71 -47.001s-35.667 -46.667 -47 -78s-17 -67.333 -17 -108c0 -43.333 5.83301 -80.5 17.5 -111.5s28 -56.5 49 -76.5s45.667 -34.833 74 -44.5s59.166 -14.5 92.499 -14.5c24 0 46.667 2 68 6
s38 9 50 15v184h-151c-2 3.33301 -4 7.83301 -6 13.5s-3 11.834 -3 18.501c0 11.333 2.66699 20.166 8 26.499s13 9.5 23 9.5h167c12 0 22.167 -3.83301 30.5 -11.5s12.5 -17.834 12.5 -30.501v-217z" />
    <glyph glyph-name="H" unicode="H" horiz-adv-x="654" 
d="M565 2c-4 -1.33301 -9.33301 -2.83301 -16 -4.5s-14 -2.5 -22 -2.5c-29.333 0 -44 12.333 -44 37v242h-312v-272c-4 -1.33301 -9.33301 -2.83301 -16 -4.5s-14 -2.5 -22 -2.5c-29.333 0 -44 12.333 -44 37v574c3.33301 1.33301 8.5 2.83301 15.5 4.5s14.5 2.5 22.5 2.5
c29.333 0 44 -12.333 44 -37v-234h312v264c3.33301 1.33301 8.5 2.83301 15.5 4.5s14.5 2.5 22.5 2.5c29.333 0 44 -12.333 44 -37v-574v0z" />
    <glyph glyph-name="I" unicode="I" horiz-adv-x="262" 
d="M171 2c-3.33301 -1.33301 -8.33301 -2.83301 -15 -4.5s-14 -2.5 -22 -2.5c-29.333 0 -44 12.333 -44 37v574c3.33301 1.33301 8.5 2.83301 15.5 4.5s14.5 2.5 22.5 2.5c28.667 0 43 -12.333 43 -37v-574v0z" />
    <glyph glyph-name="J" unicode="J" horiz-adv-x="385" 
d="M215 606c3.33301 1.33301 8.5 2.83105 15.5 4.49805s14.167 2.5 21.5 2.5c29.333 0 44 -12.333 44 -37v-428c0 -30 -4.33301 -55.167 -13 -75.5s-20.5 -36.666 -35.5 -48.999s-32.333 -21.166 -52 -26.499s-40.167 -8 -61.5 -8c-38 0 -65.667 4.5 -83 13.5
s-26 20.833 -26 35.5c0 9.33301 2 17.333 6 24s7.66699 11.667 11 15c10 -4.66699 22 -9 36 -13s28.667 -6 44 -6c30 0 53 7.16699 69 21.5s24 38.5 24 72.5v454v0z" />
    <glyph glyph-name="K" unicode="K" horiz-adv-x="566" 
d="M171 290l0.000976562 -288.999c-4 -1.33301 -9.33301 -2.83301 -16 -4.5s-14 -2.5 -22 -2.5c-29.333 0 -44 12.333 -44 37v575c3.33301 1.33301 8.5 2.83301 15.5 4.5s14.5 2.5 22.5 2.5c29.333 0 44 -12.333 44 -37v-249l275 285c17.333 -0.666992 30.333 -5 39 -13
s13 -17.333 13 -28c0 -8.66699 -2.33301 -16.667 -7 -24s-11.334 -15.333 -20.001 -24l-216 -212l157.5 -158.5c44.333 -46.333 82.5 -83.833 114.5 -112.5c-1.33301 -14.667 -5.83301 -26.167 -13.5 -34.5s-17.5 -12.5 -29.5 -12.5c-11.333 0 -21.5 3.16699 -30.5 9.5
s-18.167 14.166 -27.5 23.499z" />
    <glyph glyph-name="L" unicode="L" horiz-adv-x="501" 
d="M133 0c-12.667 0 -23.167 4 -31.5 12s-12.5 18.667 -12.5 32v562c3.33301 1.33301 8.5 2.83301 15.5 4.5s14.5 2.5 22.5 2.5c29.333 0 44 -12.333 44 -37v-506h287c7.33301 -7.33301 11 -18.333 11 -33c0 -11.333 -3 -20.333 -9 -27s-14 -10 -24 -10h-303v0z" />
    <glyph glyph-name="M" unicode="M" horiz-adv-x="780" 
d="M435 158c-4.66699 -3.33301 -10.833 -6.33398 -18.5 -9.00098s-16.167 -4 -25.5 -4c-10.667 0 -20.167 1.66699 -28.5 5s-14.166 8.66602 -17.499 15.999c-36 74.667 -67 143 -93 205l-63 154h-4c-2 -50 -4.16699 -96.5 -6.5 -139.5s-4.83301 -85 -7.5 -126l-8 -124.5
c-2.66699 -42 -5.33398 -87 -8.00098 -135c-4 -1.33301 -9.16699 -2.66602 -15.5 -3.99902s-13.166 -2 -20.499 -2c-14.667 0 -25 3 -31 9s-9 14.667 -9 26c0 6.66699 0.5 21 1.5 43s2.5 48.667 4.5 80l6.5 104c2.33301 38 5 76.667 8 116l9 116l8.5 104
c5.33301 4.66699 13 9 23 13s21.333 6 34 6c30.667 0 52 -12.333 64 -37l38.5 -82.5l39 -88.5l38 -89l35.5 -84h4l44 104.5l43 99.5l40 90l34 77c6 3.33301 13.667 5.83301 23 7.5s18 2.5 26 2.5c31.333 0 49.333 -10.667 54 -32c2.66699 -12 5.66699 -31.833 9 -59.5
s6.66602 -59.5 9.99902 -95.5s6.5 -74.667 9.5 -116l8.5 -119.5c2.66699 -38.333 5 -73.666 7 -105.999s3.66699 -57.833 5 -76.5c-12 -8 -26 -12 -42 -12c-10 0 -18.833 2.5 -26.5 7.5s-12.167 14.167 -13.5 27.5c-3.33301 48.667 -6.33301 97 -9 145l-7.5 137l-6.5 119.5
l-5 92.5h-4l-25.5 -63l-34 -79l-43.5 -99.5z" />
    <glyph glyph-name="N" unicode="N" horiz-adv-x="660" 
d="M133 -5c-29.333 0 -44.001 12 -44.001 36v565c12 12 30 18 54 18c16 0 29.667 -3.16699 41 -9.5s21.666 -17.833 30.999 -34.5l191 -320l25 -44.5l25 -47l22.5 -44l17.5 -34.5l4 1c-5.33301 54 -8.5 108.333 -9.5 163s-1.5 108 -1.5 160v202
c4 1.33301 9.33301 2.83301 16 4.5s14 2.5 22 2.5c29.333 0 44 -12 44 -36v-566c-6 -5.33301 -13.667 -9.5 -23 -12.5s-19.666 -4.5 -30.999 -4.5c-16 0 -29.667 3.16699 -41 9.5s-21.666 17.833 -30.999 34.5l-190 320l-25.5 44l-26 47l-23 44l-17.5 35l-4 -1
c3.33301 -32 6 -68.5 8 -109.5s3 -79.833 3 -116.5v-299c-3.33301 -1.33301 -8.5 -2.83301 -15.5 -4.5s-14.167 -2.5 -21.5 -2.5z" />
    <glyph glyph-name="O" unicode="O" horiz-adv-x="689" 
d="M634 304c0 -52 -7.33496 -97.833 -22.002 -137.5s-35 -72.667 -61 -99s-56.667 -46.333 -92 -60s-73.666 -20.5 -114.999 -20.5s-79.666 6.83301 -114.999 20.5s-66 33.667 -92 60s-46.333 59.333 -61 99s-22 85.5 -22 137.5s7.5 97.667 22.5 137s35.5 72.333 61.5 99
s56.667 46.834 92 60.501s73.333 20.5 114 20.5s78.667 -6.83301 114 -20.5s66 -33.834 92 -60.501s46.5 -59.667 61.5 -99s22.5 -85 22.5 -137zM550.998 304c0 80 -18.832 141.333 -56.499 184s-87.834 64 -150.501 64c-31.333 0 -59.666 -5.5 -84.999 -16.5
s-47 -27 -65 -48s-31.833 -46.833 -41.5 -77.5s-14.5 -66 -14.5 -106c0 -80 18.667 -141.333 56 -184s87.333 -64 150 -64c63.333 0 113.666 21.333 150.999 64s56 104 56 184z" />
    <glyph glyph-name="P" unicode="P" horiz-adv-x="567" 
d="M171 217l0.000976562 -215c-4 -1.33301 -9.33301 -2.83301 -16 -4.5s-14 -2.5 -22 -2.5c-29.333 0 -44 12.333 -44 37v532c0 10.667 2.66699 18.834 8 24.501s13.666 10.167 24.999 13.5c19.333 6 42.833 10.333 70.5 13s54.5 4 80.5 4
c84.667 0 146.5 -17.833 185.5 -53.5s58.5 -83.834 58.5 -144.501c0 -62 -20 -111.5 -60 -148.5s-101.667 -55.5 -185 -55.5h-101zM267.001 285c53.333 0 94.667 11.001 124 33.001s44 56 44 102c0 45.333 -14.167 78.5 -42.5 99.5s-68.833 31.5 -121.5 31.5
c-18 0 -35.833 -0.833008 -53.5 -2.5s-33.5 -3.83398 -47.5 -6.50098v-257h97z" />
    <glyph glyph-name="Q" unicode="Q" horiz-adv-x="690" 
d="M634 304c0 -81.333 -17.502 -147.331 -52.502 -197.998s-80.5 -85.334 -136.5 -104.001l65.5 -34.5c19 -9.66699 36.667 -18.167 53 -25.5s32 -14 47 -20s30.833 -12 47.5 -18c1.33301 -4.66699 2 -8.5 2 -11.5v-8.5c0 -12.667 -3.83301 -22.834 -11.5 -30.501
s-18.5 -11.5 -32.5 -11.5c-21.333 0 -49.166 9.16699 -83.499 27.5s-73.5 42.5 -117.5 72.5l-66 45h-5c-41.333 0 -79.666 6.83301 -114.999 20.5s-66 33.667 -92 60s-46.333 59.333 -61 99s-22 85.5 -22 137.5s7.5 97.667 22.5 137s35.5 72.333 61.5 99
s56.667 46.834 92 60.501s73.333 20.5 114 20.5s78.667 -6.83301 114 -20.5s66 -33.834 92 -60.501s46.5 -59.667 61.5 -99s22.5 -85 22.5 -137zM550.998 304.002c0 80 -18.832 141.333 -56.499 184s-87.834 64 -150.501 64c-31.333 0 -59.666 -5.5 -84.999 -16.5
s-47 -27 -65 -48s-31.833 -46.833 -41.5 -77.5s-14.5 -66 -14.5 -106c0 -80 18.667 -141.333 56 -184s87.333 -64 150 -64c63.333 0 113.666 21.333 150.999 64s56 104 56 184z" />
    <glyph glyph-name="R" unicode="R" horiz-adv-x="589" 
d="M171 2c-4 -1.33301 -9.33203 -2.83398 -15.999 -4.50098s-14 -2.5 -22 -2.5c-29.333 0 -44 12.333 -44 37v532c0 10.667 2.66699 18.834 8 24.501s13.666 10.167 24.999 13.5c19.333 6 43.166 10.333 71.499 13s55.833 4 82.5 4c84 0 146.5 -16.833 187.5 -50.5
s61.5 -81.5 61.5 -143.5c0 -46 -11.833 -84.667 -35.5 -116s-59.5 -53.666 -107.5 -66.999l50 -64l47.5 -60.5l40 -51.5l27.5 -36c-2.66699 -11.333 -8.5 -20.333 -17.5 -27s-18.167 -10 -27.5 -10c-11.333 0 -20.666 2.66699 -27.999 8s-15 13.666 -23 24.999l-146 204
h-134v-228zM285.001 297.999c49.333 0 88 10.668 116 32.001s42 53 42 95s-14.667 73.5 -44 94.5s-71.333 31.5 -126 31.5c-18 0 -36.167 -0.833008 -54.5 -2.5s-34.5 -3.83398 -48.5 -6.50098v-244h115z" />
    <glyph glyph-name="S" unicode="S" horiz-adv-x="523" 
d="M257 55c44.667 0 78.5 10.1699 101.5 30.5029s34.5 46.5 34.5 78.5c0 28 -8.83301 50.667 -26.5 68s-45.5 31.666 -83.5 42.999l-87 26c-42.667 12.667 -76.167 31.334 -100.5 56.001s-36.5 58 -36.5 100c0 25.333 4.83301 48.166 14.5 68.499s23.5 37.5 41.5 51.5
s39.5 24.833 64.5 32.5s53.167 11.5 84.5 11.5c26.667 0 51.5 -2.16699 74.5 -6.5s43 -10.333 60 -18s30.167 -16.167 39.5 -25.5s14 -19 14 -29c0 -9.33301 -2.33301 -17.333 -7 -24s-10.667 -12 -18 -16c-17.333 13.333 -39.833 25 -67.5 35s-58.5 15 -92.5 15
c-39.333 0 -70.166 -8.33301 -92.499 -25s-33.5 -40 -33.5 -70c0 -23.333 8 -42.333 24 -57s42.667 -27.334 80 -38.001l61 -18c52.667 -15.333 94.167 -36.833 124.5 -64.5s45.5 -66.167 45.5 -115.5c0 -52.667 -19 -95.334 -57 -128.001s-92 -49 -162 -49
c-30.667 0 -58.5 2.66699 -83.5 8s-46.333 12.333 -64 21s-31.334 18.167 -41.001 28.5s-14.5 20.5 -14.5 30.5c0 11.333 3.5 20.833 10.5 28.5s15.167 13.167 24.5 16.5c7.33301 -7.33301 16.333 -14.833 27 -22.5s23 -14.667 37 -21s29.667 -11.5 47 -15.5
s36.333 -6 57 -6z" />
    <glyph glyph-name="T" unicode="T" horiz-adv-x="523" 
d="M302 539v-536.998c-3.33301 -1.33301 -8.5 -2.83301 -15.5 -4.5s-14.167 -2.5 -21.5 -2.5c-29.333 0 -44 12.333 -44 37v507h-187c-2 3.33301 -4 7.83301 -6 13.5s-3 12.167 -3 19.5c0 11.333 2.66699 20.166 8 26.499s13 9.5 23 9.5h433c2 -3.33301 4 -7.83301 6 -13.5
s3 -11.834 3 -18.501c0 -11.333 -2.66699 -20.333 -8 -27s-13 -10 -23 -10h-165z" />
    <glyph glyph-name="U" unicode="U" horiz-adv-x="649" 
d="M561 210c0 -34 -5.16895 -64.667 -15.502 -92s-25.666 -50.666 -45.999 -69.999s-45.166 -34.333 -74.499 -45s-63 -16 -101 -16s-71.667 5.33301 -101 16s-54 25.667 -74 45s-35.167 42.666 -45.5 69.999s-15.5 58 -15.5 92v396c3.33301 1.33301 8.5 2.83301 15.5 4.5
s14.5 2.5 22.5 2.5c28.667 0 43 -12.333 43 -37v-359c0 -26.667 4 -50 12 -70s18.833 -36.833 32.5 -50.5s30 -23.834 49 -30.501s39.5 -10 61.5 -10s42.5 3.33301 61.5 10s35.333 16.834 49 30.501s24.5 30.5 32.5 50.5s12 43.333 12 70v389
c3.33301 1.33301 8.5 2.83301 15.5 4.5s14.5 2.5 22.5 2.5c29.333 0 44 -12.333 44 -37v-366v0z" />
    <glyph glyph-name="V" unicode="V" horiz-adv-x="583" 
d="M347 8c-3.33301 -3.33301 -9.66602 -6.33105 -18.999 -8.99805s-19.666 -4 -30.999 -4c-12.667 0 -24 1.83301 -34 5.5s-16.667 9.16699 -20 16.5c-8.66699 17.333 -18.834 39.666 -30.501 66.999s-24 57.833 -37 91.5l-40 106.5l-39.5 111l-36 106.5
c-11.333 34.333 -21 65.166 -29 92.499c4 5.33301 10 10.333 18 15s17 7 27 7c12.667 0 22 -3 28 -9s11 -15 15 -27l86 -253c27.333 -81.333 57.333 -164 90 -248h4l45.5 121.5c15.667 43 31 87.333 46 133l44 138.5c14.333 46.667 27.166 92.334 38.499 137.001
c8.66699 4.66699 20 7 34 7c12 0 21.667 -3 29 -9s11 -15 11 -27c0 -10 -3.83301 -28.833 -11.5 -56.5s-17.5 -59.834 -29.5 -96.501l-40.5 -118l-44.5 -121l-42 -106c-13.333 -32 -24 -56 -32 -72z" />
    <glyph glyph-name="W" unicode="W" horiz-adv-x="803" 
d="M359 457c5.33301 2.66699 11.8281 5.00195 19.4951 7.00195s16.167 3 25.5 3c28 0 45 -8.66699 51 -26l34 -102l31 -92.5l29 -87.5l28 -89h4l28 131.5l27 130c8.66699 43.667 17 88 25 133s15.667 92.5 23 142.5c9.33301 4.66699 20.666 7 33.999 7
c12.667 0 22.667 -2.83301 30 -8.5s11 -14.167 11 -25.5c0 -12.667 -1.83301 -32 -5.5 -58s-8.66699 -55.833 -15 -89.5s-13.666 -70 -21.999 -109s-17.166 -77.333 -26.499 -115l-28 -108.5c-9.33301 -34.667 -18.333 -64.334 -27 -89.001
c-6 -3.33301 -13.667 -6.5 -23 -9.5s-20 -4.5 -32 -4.5c-14.667 0 -27 2.33301 -37 7s-16.667 11 -20 19c-7.33301 17.333 -15.666 39.166 -24.999 65.499l-29.5 87l-31.5 99l-31 102.5l-31 -103l-31.5 -102.5c-10.333 -33 -20.5 -63.5 -30.5 -91.5s-19 -51.333 -27 -70
c-5.33301 -3.33301 -12.666 -6.33301 -21.999 -9s-20 -4 -32 -4c-15.333 0 -27.666 2.5 -36.999 7.5s-15.666 11.167 -18.999 18.5c-6 14 -12.833 34 -20.5 60s-15.667 55.5 -24 88.5l-26 106.5l-26 113.5c-8.33301 37.667 -16 74 -23 109s-12.833 66.5 -17.5 94.5
c4.66699 4.66699 11 9 19 13s16.667 6 26 6c23.333 0 37.333 -12.333 42 -37l25 -121.5l24.5 -119l26.5 -125.5l31 -141h4l27 85.5l27 84.5l30.5 96z" />
    <glyph glyph-name="X" unicode="X" horiz-adv-x="591" 
d="M293 252l-183.999 -257c-6.66699 -1.33301 -13.334 -2 -20.001 -2c-13.333 0 -24 3.16699 -32 9.5s-12 15.166 -12 26.499c0 8.66699 2.16699 16.667 6.5 24s9.83301 15.666 16.5 24.999l176 230l-195 266c3.33301 11.333 8.83301 20.833 16.5 28.5
s18.167 11.5 31.5 11.5c10.667 0 19.667 -3.16699 27 -9.5s15 -15.166 23 -26.499l148 -212l177 245c3.33301 0.666992 6.66602 1.16699 9.99902 1.5s7 0.5 11 0.5c14 0 24.5 -3.33301 31.5 -10s10.5 -15 10.5 -25c0 -7.33301 -1.83301 -14.5 -5.5 -21.5
s-8.16699 -14.167 -13.5 -21.5l-85 -112l-88 -113l201 -278c-3.33301 -11.333 -8.66602 -20.666 -15.999 -27.999s-17.333 -11 -30 -11c-10.667 0 -19.5 2.66699 -26.5 8s-14.5 14 -22.5 26z" />
    <glyph glyph-name="Y" unicode="Y" 
d="M523 580c0 -7.33301 -5.00098 -21.5 -15.001 -42.5s-24 -47.167 -42 -78.5l-64.5 -107l-82.5 -127v-223c-3.33301 -1.33301 -8.5 -2.83301 -15.5 -4.5s-14.167 -2.5 -21.5 -2.5c-29.333 0 -44 12.333 -44 37v193l-57.5 87l-58.5 93l-55 92
c-17.333 30 -32.666 58.333 -45.999 85c2.66699 7.33301 7.66699 14.5 15 21.5s17 10.5 29 10.5c12.667 0 22.5 -3.33301 29.5 -10s14.167 -16.667 21.5 -30l37.5 -66l44 -77l43.5 -75.5l36 -60.5h4c34.667 58 65.5 112 92.5 162l80.5 150c4 2.66699 8.83301 4.5 14.5 5.5
s11.167 1.5 16.5 1.5c25.333 0 38 -11.333 38 -34z" />
    <glyph glyph-name="Z" unicode="Z" horiz-adv-x="557" 
d="M483 608c5.33301 -4.66699 9.83301 -10.334 13.5 -17.001s5.5 -13.667 5.5 -21c0 -9.33301 -1.83301 -17.666 -5.5 -24.999s-8.83398 -15.666 -15.501 -24.999l-329 -451h347c2.66699 -3.33301 5 -7.83301 7 -13.5s3 -12.167 3 -19.5
c0 -11.333 -2.83301 -20.166 -8.5 -26.499s-13.167 -9.5 -22.5 -9.5h-409c-5.33301 4.66699 -9.83301 10.334 -13.5 17.001s-5.5 13.667 -5.5 21c0 9.33301 1.83301 17.666 5.5 24.999s8.83398 15.666 15.501 24.999l329 451h-333c-2 3.33301 -4.16699 7.83301 -6.5 13.5
s-3.5 12.167 -3.5 19.5c0 11.333 2.83301 20.166 8.5 26.499s13.5 9.5 23.5 9.5h394v0z" />
    <glyph glyph-name="bracketleft" unicode="[" horiz-adv-x="268" 
d="M252 651c1.33301 -4 2.66699 -8.33105 4 -12.998s2 -10.334 2 -17.001c0 -22 -11.333 -33 -34 -33h-82v-634h110l4 -14c1.33301 -4.66699 2 -10.334 2 -17.001c0 -22 -11.333 -33 -34 -33h-114c-13.333 0 -23.5 3.66699 -30.5 11s-10.5 17.333 -10.5 30v680
c0 26.667 13.667 40 41 40h142z" />
    <glyph glyph-name="backslash" unicode="\" horiz-adv-x="341" 
d="M300 -46c-5.33301 -4.66699 -11.833 -8.83203 -19.5 -12.499s-15.167 -5.5 -22.5 -5.5c-18.667 0 -30.334 8.66699 -35.001 26l-190 685c5.33301 5.33301 11.833 9.66602 19.5 12.999s15.167 5 22.5 5c18.667 0 30.334 -8.66699 35.001 -26z" />
    <glyph glyph-name="bracketright" unicode="]" horiz-adv-x="269" 
d="M16 -110c-1.33301 4 -2.66797 8.5 -4.00098 13.5s-2 10.5 -2 16.5c0 22.667 11.667 34 35 34h81v634h-110c-1.33301 4 -2.66602 8.5 -3.99902 13.5s-2 10.5 -2 16.5c0 22 11.667 33 35 33h113c27.333 0 41 -13.333 41 -40v-680c0 -12.667 -3.5 -22.667 -10.5 -30
s-17.167 -11 -30.5 -11h-142z" />
    <glyph glyph-name="asciicircum" unicode="^" horiz-adv-x="463" 
d="M194 646c3.33301 2.66699 8.33594 4.83789 15.0029 6.50488s13.667 2.5 21 2.5c9.33301 0 17.166 -1 23.499 -3s10.833 -5.66699 13.5 -11c9.33301 -16.667 20.5 -37.834 33.5 -63.501l40 -80.5l39 -83c12.333 -27.333 22.166 -51 29.499 -71
c-3.33301 -5.33301 -8.33301 -9.83301 -15 -13.5s-14 -5.5 -22 -5.5c-10.667 0 -19.167 2.16699 -25.5 6.5s-12.166 13.166 -17.499 26.499l-97 216h-7l-16.5 -36l-28 -62l-31.5 -73.5c-10.667 -25.667 -19.334 -48.834 -26.001 -69.501
c-4.66699 -2.66699 -9.83398 -4.83398 -15.501 -6.50098s-12.167 -2.5 -19.5 -2.5c-9.33301 0 -17.333 2.16699 -24 6.5s-10 12.166 -10 23.499c0 4.66699 3 14.5 9 29.5s13.667 32.667 23 53l31 64.5l32.5 64l27.5 52.5c8 15 13.667 24.833 17 29.5z" />
    <glyph glyph-name="underscore" unicode="_" horiz-adv-x="465" 
d="M6 -123c-1.33301 4 -2.66699 8.5 -4 13.5s-2 10.833 -2 17.5c0 22.667 11.667 34 35 34h423l4.5 -14c1.66699 -5.33301 2.5 -11 2.5 -17c0 -22.667 -11.667 -34 -35 -34h-424z" />
    <glyph glyph-name="grave" unicode="`" horiz-adv-x="302" 
d="M59 634c-1.33301 6.66699 -2 10.999 -2 12.999c0 10.667 3.5 19.334 10.5 26.001s16.167 10 27.5 10c14 0 25.667 -5.66699 35 -17l90 -113c-0.666992 -10.667 -4 -19.167 -10 -25.5s-13.667 -9.5 -23 -9.5c-7.33301 0 -13.5 1.33301 -18.5 4s-10.167 6.66699 -15.5 12z
" />
    <glyph glyph-name="a" unicode="a" horiz-adv-x="499" 
d="M240 52c28 0 51.1689 2.83203 69.502 8.49902s31.5 11.167 39.5 16.5v145l-124 -13c-34.667 -3.33301 -60.334 -11.166 -77.001 -23.499s-25 -30.5 -25 -54.5c0 -25.333 9.66699 -44.833 29 -58.5s48.666 -20.5 87.999 -20.5zM239.002 474.999
c58 0 104 -12.9971 138 -38.9971s51 -67 51 -123v-237c0 -14.667 -2.83301 -25.834 -8.5 -33.501s-14.167 -14.834 -25.5 -21.501c-16 -9.33301 -37.167 -17.5 -63.5 -24.5s-56.5 -10.5 -90.5 -10.5c-62.667 0 -111.167 12.333 -145.5 37s-51.5 60.334 -51.5 107.001
c0 44 14.333 77.167 43 99.5s69 36.166 121 41.499l142 14v28c0 33.333 -10 57.666 -30 72.999s-47 23 -81 23c-28 0 -54.333 -4 -79 -12s-46.667 -17 -66 -27c-5.33301 4.66699 -10.166 10 -14.499 16s-6.5 12.667 -6.5 20c0 9.33301 2.33301 17 7 23s12 11.667 22 17
c18 9.33301 38.667 16.5 62 21.5s48.666 7.5 75.999 7.5z" />
    <glyph glyph-name="b" unicode="b" horiz-adv-x="549" 
d="M281 475c30.667 0 59.332 -5 85.999 -15s49.834 -25 69.501 -45s35 -45.333 46 -76s16.5 -66.667 16.5 -108c0 -42 -5.66699 -78.333 -17 -109s-27.166 -56 -47.499 -76s-44.833 -34.833 -73.5 -44.5s-60 -14.5 -94 -14.5c-32.667 0 -62.167 3.83301 -88.5 11.5
s-47.833 16.5 -64.5 26.5c-14 8.66699 -23.667 17.167 -29 25.5s-8 19.5 -8 33.5v564c3.33301 1.33301 8.5 2.83301 15.5 4.5s14.5 2.5 22.5 2.5c28 0 42 -12 42 -36v-179c14.667 9.33301 32.167 17.5 52.5 24.5s44.166 10.5 71.499 10.5zM268.998 409
c-23.333 0 -44.501 -4.16895 -63.501 -12.502s-35.167 -18.166 -48.5 -29.499v-283c10 -7.33301 24.5 -14.333 43.5 -21s41.167 -10 66.5 -10c22.667 0 43.167 3.5 61.5 10.5s34.166 17.833 47.499 32.5s23.666 33.167 30.999 55.5s11 48.833 11 79.5
s-3.66699 57.334 -11 80.001s-17.666 41.167 -30.999 55.5s-29.166 25 -47.499 32s-38.166 10.5 -59.499 10.5z" />
    <glyph glyph-name="c" unicode="c" horiz-adv-x="478" 
d="M289 408c-22.667 0 -43.6699 -3.83203 -63.0029 -11.499s-36 -19 -50 -34s-25 -33.667 -33 -56s-12 -47.833 -12 -76.5c0 -57.333 14.333 -101.166 43 -131.499s67 -45.5 115 -45.5c28 0 51.333 3.83301 70 11.5s35.334 16.5 50.001 26.5c7.33301 -4 13.333 -9 18 -15
s7 -13.333 7 -22c0 -9.33301 -3.66699 -18 -11 -26s-17.5 -15 -30.5 -21s-28.333 -10.833 -46 -14.5s-36.834 -5.5 -57.501 -5.5c-34.667 0 -66.667 5 -96 15s-54.666 25 -75.999 45s-38 45.167 -50 75.5s-18 66.166 -18 107.499c0 40.667 6.33301 76.167 19 106.5
s29.667 55.833 51 76.5s46.5 36.167 75.5 46.5s59.833 15.5 92.5 15.5c20.667 0 39.834 -1.83301 57.501 -5.5s32.834 -8.83398 45.501 -15.501s22.5 -14.167 29.5 -22.5s10.5 -16.833 10.5 -25.5c0 -8 -2.33301 -15 -7 -21s-10.667 -10.667 -18 -14
c-14.667 10 -30.667 18.667 -48 26s-40 11 -68 11z" />
    <glyph glyph-name="d" unicode="d" horiz-adv-x="547" 
d="M470 76c0 -13.333 -2.83203 -23.667 -8.49902 -31s-14.5 -14.666 -26.5 -21.999c-13.333 -8.66699 -32.333 -16.834 -57 -24.501s-53 -11.5 -85 -11.5c-36 0 -69 4.66699 -99 14s-55.833 23.833 -77.5 43.5s-38.334 44.667 -50.001 75s-17.5 66.833 -17.5 109.5
c0 43.333 6 80.5 18 111.5s28.167 56.5 48.5 76.5s44.333 34.667 72 44s57.167 14 88.5 14c21.333 0 42 -2.66699 62 -8s37.333 -12 52 -20v201c3.33301 1.33301 8.5 2.83301 15.5 4.5s14.167 2.5 21.5 2.5c28.667 0 43 -12 43 -36v-543zM390.001 374.999
c-13.333 9.33301 -28.667 17.3291 -46 23.9961s-37.333 10 -60 10c-20.667 0 -40.167 -3.16699 -58.5 -9.5s-34.5 -16.666 -48.5 -30.999s-25.167 -33.166 -33.5 -56.499s-12.5 -51.666 -12.5 -84.999c0 -61.333 14.667 -105.666 44 -132.999s68.333 -41 117 -41
c23.333 0 42.5 2.5 57.5 7.5s28.5 11.167 40.5 18.5v296z" />
    <glyph glyph-name="e" unicode="e" horiz-adv-x="519" 
d="M132 184c18 -87.333 75.334 -131.001 172.001 -131.001c28 0 53.333 4.66699 76 14s40.667 19.333 54 30c16 -9.33301 24 -22 24 -38c0 -9.33301 -4.16699 -18.333 -12.5 -27s-19.666 -16.334 -33.999 -23.001s-31 -12 -50 -16s-39.5 -6 -61.5 -6
c-77.333 0 -138.5 21 -183.5 63s-67.5 103.333 -67.5 184c0 38 5.5 71.833 16.5 101.5s26.333 54.834 46 75.501s43.167 36.5 70.5 47.5s57 16.5 89 16.5c30 0 57.667 -5 83 -15s47.166 -24.167 65.499 -42.5s32.666 -40 42.999 -65s15.5 -52.5 15.5 -82.5
c0 -14.667 -3.33301 -25.167 -10 -31.5s-16 -10.166 -28 -11.499zM270.001 409.999c-40.667 0 -74.334 -14.168 -101.001 -42.501s-40.667 -68.833 -42 -121.5l275 38c-3.33301 36.667 -16.166 66.834 -38.499 90.501s-53.5 35.5 -93.5 35.5z" />
    <glyph glyph-name="f" unicode="f" horiz-adv-x="399" 
d="M156 436l197.999 -0.000976562c2 -3.33301 4 -7.66602 6 -12.999s3 -11.666 3 -18.999c0 -22 -10.333 -33 -31 -33h-175v-369c-3.33301 -1.33301 -8.33301 -2.83301 -15 -4.5s-14 -2.5 -22 -2.5c-28.667 0 -43 12 -43 36v472c0 58.667 15.833 101.167 47.5 127.5
s75.834 39.5 132.501 39.5c38 0 67.833 -5 89.5 -15s32.5 -22.333 32.5 -37s-5.66699 -27 -17 -37c-12 6.66699 -27 12.167 -45 16.5s-35.333 6.5 -52 6.5c-40.667 0 -69 -8.33301 -85 -25s-24 -43.334 -24 -80.001v-63z" />
    <glyph glyph-name="g" unicode="g" horiz-adv-x="537" 
d="M384 48c-11.333 -9.33301 -26.8301 -17.3281 -46.4971 -23.9951s-43.167 -10 -70.5 -10c-29.333 0 -57 4.16699 -83 12.5s-48.833 21.666 -68.5 39.999s-35.334 42.166 -47.001 71.499s-17.5 65 -17.5 107c0 38 5.66699 71.333 17 100s27.166 52.667 47.499 72
s44.5 33.833 72.5 43.5s59 14.5 93 14.5c30.667 0 58.834 -3.83301 84.501 -11.5s47.167 -17.167 64.5 -28.5c10 -6.66699 18.167 -14.167 24.5 -22.5s9.5 -18.5 9.5 -30.5v-402c0 -33.333 -5.5 -61.5 -16.5 -84.5s-26.333 -41.667 -46 -56s-42.834 -24.833 -69.501 -31.5
s-55.334 -10 -86.001 -10c-34 0 -62.833 3.5 -86.5 10.5s-39.834 13.167 -48.501 18.5c-20 11.333 -30 25.666 -30 42.999c0 9.33301 2.16699 17.166 6.5 23.499s9.83301 11.166 16.5 14.499c14 -10.667 33.667 -20.5 59 -29.5s53 -13.5 83 -13.5
c44.667 0 78.834 9.5 102.501 28.5s35.5 49.5 35.5 91.5v63zM276.003 80.0049c26.667 0 48.5 4.16699 65.5 12.5s31.167 17.833 42.5 28.5v260c-11.333 7.33301 -25.5 13.833 -42.5 19.5s-37.167 8.5 -60.5 8.5c-45.333 0 -81.5 -13.667 -108.5 -41s-40.5 -68 -40.5 -122
c0 -30 3.66699 -55.5 11 -76.5s17.5 -38.167 30.5 -51.5s28.333 -23 46 -29s36.5 -9 56.5 -9z" />
    <glyph glyph-name="h" unicode="h" horiz-adv-x="551" 
d="M157 2c-3.33301 -1.33301 -8.33496 -2.83203 -15.002 -4.49902s-14 -2.5 -22 -2.5c-28.667 0 -43 12 -43 36v617c3.33301 1.33301 8.5 2.83301 15.5 4.5s14.5 2.5 22.5 2.5c28 0 42 -12 42 -36v-180c16 9.33301 34.833 17.666 56.5 24.999s46.167 11 73.5 11
c28 0 53.5 -3.66699 76.5 -11s42.833 -18.5 59.5 -33.5s29.667 -34 39 -57s14 -49.833 14 -80.5v-291c-3.33301 -1.33301 -8.5 -2.83301 -15.5 -4.5s-14.167 -2.5 -21.5 -2.5c-28.667 0 -43 12 -43 36v260c0 40 -11 69.667 -33 89s-51 29 -87 29
c-23.333 0 -45.166 -4.16699 -65.499 -12.5s-38.166 -18.5 -53.499 -30.5v-364v0z" />
    <glyph glyph-name="i" unicode="i" horiz-adv-x="241" 
d="M160 2c-3.33301 -1.33301 -8.33301 -2.83301 -15 -4.5s-14 -2.5 -22 -2.5c-28.667 0 -43 12 -43 36v429c3.33301 1.33301 8.5 2.83301 15.5 4.5s14.5 2.5 22.5 2.5c28 0 42 -12.333 42 -37v-428zM68 608c0 14 4.83301 25.833 14.5 35.5s22.167 14.5 37.5 14.5
s27.666 -4.83301 36.999 -14.5s14 -21.5 14 -35.5s-4.66699 -25.833 -14 -35.5s-21.666 -14.5 -36.999 -14.5s-27.833 4.83301 -37.5 14.5s-14.5 21.5 -14.5 35.5z" />
    <glyph glyph-name="j" unicode="j" horiz-adv-x="243" 
d="M6 -146c12 5.33301 22.833 10.8359 32.5 16.5029s17.667 12.667 24 21s11.333 18.666 15 30.999s5.5 28.166 5.5 47.499v490c3.33301 1.33301 8.5 2.83301 15.5 4.5s14.5 2.5 22.5 2.5c28 0 42 -12.333 42 -37v-475c0 -29.333 -4 -53.5 -12 -72.5
s-17.833 -34.333 -29.5 -46s-23.834 -19.834 -36.501 -24.501s-23.667 -7 -33 -7c-16.667 0 -28.167 4.83301 -34.5 14.5s-10.166 21.167 -11.499 34.5zM71 608.003c0 14 4.83301 25.833 14.5 35.5s22.167 14.5 37.5 14.5s27.666 -4.83301 36.999 -14.5s14 -21.5 14 -35.5
s-4.66699 -25.833 -14 -35.5s-21.666 -14.5 -36.999 -14.5s-27.833 4.83301 -37.5 14.5s-14.5 21.5 -14.5 35.5z" />
    <glyph glyph-name="k" unicode="k" horiz-adv-x="487" 
d="M157 2c-3.33301 -1.33301 -8.33203 -2.83203 -14.999 -4.49902s-14 -2.5 -22 -2.5c-28.667 0 -43 12 -43 36v617c3.33301 1.33301 8.5 2.83301 15.5 4.5s14.5 2.5 22.5 2.5c28 0 42 -12 42 -36v-360l219 212c16 -0.666992 28.5 -4.5 37.5 -11.5s13.5 -16.167 13.5 -27.5
c0 -9.33301 -3 -17.5 -9 -24.5s-14 -15.167 -24 -24.5l-161 -141l223 -200c-1.33301 -14.667 -5.83301 -26.334 -13.5 -35.001s-17.834 -13 -30.501 -13c-10 0 -19.167 2.5 -27.5 7.5s-16.833 12.167 -25.5 21.5l-202 203v-224v0z" />
    <glyph glyph-name="l" unicode="l" horiz-adv-x="246" 
d="M163 2c-3.33301 -1.33301 -8.33301 -2.83301 -15 -4.5s-14 -2.5 -22 -2.5c-28.667 0 -43 12 -43 36v617c3.33301 1.33301 8.5 2.83301 15.5 4.5s14.167 2.5 21.5 2.5c28.667 0 43 -12 43 -36v-617v0z" />
    <glyph glyph-name="m" unicode="m" horiz-adv-x="816" 
d="M661 314c0 32.667 -9.33203 56.6699 -27.999 72.0029s-43.667 23 -75 23c-43.333 0 -82 -15.333 -116 -46c4 -13.333 6 -27.666 6 -42.999v-318c-3.33301 -1.33301 -8.5 -2.83301 -15.5 -4.5s-14.167 -2.5 -21.5 -2.5c-28.667 0 -43 12 -43 36v283
c0 32.667 -9.33301 56.667 -28 72s-44 23 -76 23c-21.333 0 -41.5 -3.33301 -60.5 -10s-35.167 -14.334 -48.5 -23.001v-374c-3.33301 -1.33301 -8.33301 -2.83301 -15 -4.5s-14 -2.5 -22 -2.5c-28.667 0 -43 12 -43 36v341c0 13.333 2.83301 24.5 8.5 33.5
s15.5 18.167 29.5 27.5c18 11.333 40.833 21.166 68.5 29.499s55.5 12.5 83.5 12.5c32.667 0 61.667 -4.83301 87 -14.5s44.666 -22.834 57.999 -39.501c17.333 15.333 39 28.166 65 38.499s55.667 15.5 89 15.5c54 0 97 -12.833 129 -38.5s48 -65.167 48 -118.5v-316
c-3.33301 -1.33301 -8.5 -2.83301 -15.5 -4.5s-14.167 -2.5 -21.5 -2.5c-28.667 0 -43 12 -43 36v283v0z" />
    <glyph glyph-name="n" unicode="n" 
d="M395 301c0 37.333 -10.498 64.667 -31.498 82s-49.167 26 -84.5 26c-26.667 0 -50.334 -3.33301 -71.001 -10s-38.334 -14.334 -53.001 -23.001v-374c-3.33301 -1.33301 -8.33301 -2.83301 -15 -4.5s-14 -2.5 -22 -2.5c-28.667 0 -43 12 -43 36v341
c0 14 2.83301 25.5 8.5 34.5s15.5 17.833 29.5 26.5c17.333 10.667 40.333 20.334 69 29.001s61 13 97 13c60.667 0 108.5 -13.667 143.5 -41s52.5 -70.333 52.5 -129v-303c-3.33301 -1.33301 -8.5 -2.83301 -15.5 -4.5s-14.167 -2.5 -21.5 -2.5c-28.667 0 -43 12 -43 36
v270v0z" />
    <glyph glyph-name="o" unicode="o" horiz-adv-x="553" 
d="M504 231c0 -37.333 -5.33203 -71 -15.999 -101s-25.834 -55.667 -45.501 -77s-43.5 -37.666 -71.5 -48.999s-59.333 -17 -94 -17s-66 5.66699 -94 17s-52 27.666 -72 48.999s-35.333 47 -46 77s-16 63.667 -16 101s5.5 71 16.5 101s26.5 55.667 46.5 77
s44 37.666 72 48.999s59 17 93 17s65 -5.66699 93 -17s51.833 -27.666 71.5 -48.999s35 -47 46 -77s16.5 -63.667 16.5 -101zM277.001 409c-45.333 0 -81 -15.667 -107 -47s-39 -75 -39 -131c0 -56.667 12.833 -100.5 38.5 -131.5s61.5 -46.5 107.5 -46.5
s81.667 15.667 107 47s38 75 38 131s-12.833 99.667 -38.5 131s-61.167 47 -106.5 47z" />
    <glyph glyph-name="p" unicode="p" horiz-adv-x="546" 
d="M272 -13c-23.333 0 -45.333 2.66992 -66 8.00293s-37.667 11.666 -51 18.999v-194c-3.33301 -1.33301 -8.33301 -2.83301 -15 -4.5s-14 -2.5 -22 -2.5c-28.667 0 -43 12.333 -43 37v528c0 13.333 2.33301 24 7 32s14.334 16.333 29.001 25c18 10 39.5 19.167 64.5 27.5
s53.5 12.5 85.5 12.5c32.667 0 63.5 -4.66699 92.5 -14s54 -23.833 75 -43.5s37.667 -44.834 50 -75.501s18.5 -67.334 18.5 -110.001c0 -41.333 -5.5 -77.333 -16.5 -108s-26.5 -56.167 -46.5 -76.5s-43.833 -35.5 -71.5 -45.5s-57.834 -15 -90.501 -15zM261 53.0029
c46.667 0 84.168 14.166 112.501 42.499s42.5 73.833 42.5 136.5c0 32.667 -4.16699 60.334 -12.5 83.001s-19.666 41 -33.999 55s-30.833 24 -49.5 30s-38.334 9 -59.001 9c-24 0 -44.333 -3 -61 -9s-31.667 -12.667 -45 -20v-295c12.667 -9.33301 27.667 -17 45 -23
s37.666 -9 60.999 -9z" />
    <glyph glyph-name="q" unicode="q" horiz-adv-x="546" 
d="M471 -183c-3.33301 -1.33301 -8.49902 -2.83203 -15.499 -4.49902s-14.167 -2.5 -21.5 -2.5c-28.667 0 -43 12.333 -43 37v169c-13.333 -8 -29.5 -14.833 -48.5 -20.5s-41.5 -8.5 -67.5 -8.5c-32.667 0 -62.834 4.66699 -90.501 14s-51.5 23.666 -71.5 42.999
s-35.667 44.333 -47 75s-17 67 -17 109s6 78.5 18 109.5s28.667 56.667 50 77s46.5 35.5 75.5 45.5s60.167 15 93.5 15c32 0 61 -4 87 -12s47.667 -17.333 65 -28c10 -6 18 -13.333 24 -22s9 -19 9 -31v-565zM287.001 53.001c21.333 0 41 3.16992 59 9.50293
s33 14.5 45 24.5v294c-11.333 7.33301 -25.5 13.833 -42.5 19.5s-37.167 8.5 -60.5 8.5c-21.333 0 -41.5 -3.33301 -60.5 -10s-35.667 -17.334 -50 -32.001s-25.666 -33.334 -33.999 -56.001s-12.5 -50.334 -12.5 -83.001c0 -61.333 14.167 -105.833 42.5 -133.5
s66.166 -41.5 113.499 -41.5z" />
    <glyph glyph-name="r" unicode="r" horiz-adv-x="382" 
d="M155 2c-3.33301 -1.33301 -8.33203 -2.83008 -14.999 -4.49707s-14 -2.5 -22 -2.5c-28.667 0 -43 12 -43 36v339c0 15.333 2.83301 27.5 8.5 36.5s15.167 17.833 28.5 26.5c17.333 11.333 40.833 21.166 70.5 29.499s63.167 12.5 100.5 12.5c53.333 0 80 -13.333 80 -40
c0 -6.66699 -1 -12.834 -3 -18.501s-4.66699 -10.5 -8 -14.5c-6.66699 1.33301 -15.334 2.66602 -26.001 3.99902s-21.334 2 -32.001 2c-30.667 0 -57.667 -3.16699 -81 -9.5s-42.666 -13.833 -57.999 -22.5v-374z" />
    <glyph glyph-name="s" unicode="s" horiz-adv-x="447" 
d="M401 123c0 -42.667 -15.6709 -76 -47.0039 -100s-76.666 -36 -135.999 -36c-25.333 0 -48.666 2.16699 -69.999 6.5s-39.5 10 -54.5 17s-26.667 15 -35 24s-12.5 18.167 -12.5 27.5c0 8 2.16699 15.667 6.5 23s10.833 13.666 19.5 18.999
c18 -13.333 39 -25.166 63 -35.499s51.333 -15.5 82 -15.5c69.333 0 104 23.333 104 70c0 38 -23 62.667 -69 74l-83 22c-40.667 10.667 -70.334 26.167 -89.001 46.5s-28 46.5 -28 78.5c0 17.333 3.5 34 10.5 50s17.833 30 32.5 42s32.834 21.5 54.501 28.5
s47.167 10.5 76.5 10.5c46.667 0 84.334 -6.83301 113.001 -20.5s43 -29.5 43 -47.5c0 -8.66699 -2.16699 -16.334 -6.5 -23.001s-10.166 -11.667 -17.499 -15c-12 8 -29 16.667 -51 26s-48 14 -78 14s-53.833 -5.66699 -71.5 -17s-26.5 -27.333 -26.5 -48
c0 -15.333 5 -28.333 15 -39s26.667 -18.667 50 -24l69 -17c45.333 -11.333 79.333 -28.166 102 -50.499s34 -52.5 34 -90.5z" />
    <glyph glyph-name="t" unicode="t" horiz-adv-x="372" 
d="M233 -13c-46.667 0 -84.5 10.334 -113.5 31.001s-43.5 55 -43.5 103v475c3.33301 1.33301 8.5 2.83301 15.5 4.5s14.5 2.5 22.5 2.5c28 0 42 -12 42 -36v-115h164c2 -3.33301 4 -7.83301 6 -13.5s3 -11.834 3 -18.501c0 -22.667 -10 -34 -30 -34h-143v-260
c0 -26.667 7.5 -45.5 22.5 -56.5s36.167 -16.5 63.5 -16.5c11.333 0 24 2 38 6s25.667 8.66699 35 14c4 -4 7.66699 -9 11 -15s5 -13 5 -21c0 -14.667 -8.66699 -26.667 -26 -36s-41.333 -14 -72 -14z" />
    <glyph glyph-name="u" unicode="u" 
d="M75 460c3.33301 1.33301 8.49902 2.83203 15.499 4.49902s14.5 2.5 22.5 2.5c28 0 42 -12.333 42 -37v-257c0 -43.333 11.333 -74.166 34 -92.499s54 -27.5 94 -27.5c26.667 0 49.334 2.83301 68.001 8.5s33.334 11.5 44.001 17.5v381
c3.33301 1.33301 8.5 2.83301 15.5 4.5s14.167 2.5 21.5 2.5c28.667 0 43 -12.333 43 -37v-348c0 -14 -1.83301 -25.167 -5.5 -33.5s-12.5 -16.5 -26.5 -24.5c-15.333 -8.66699 -36.5 -17 -63.5 -25s-59.5 -12 -97.5 -12c-66.667 0 -117.834 14.667 -153.501 44
s-53.5 75.333 -53.5 138v291z" />
    <glyph glyph-name="v" unicode="v" horiz-adv-x="495" 
d="M421 471c11.333 0 20.499 -2.99902 27.499 -8.99902s10.5 -14.667 10.5 -26c0 -7.33301 -2.66699 -20.166 -8 -38.499s-12.333 -40 -21 -65l-29.5 -82.5c-11 -30 -22.667 -59.833 -35 -89.5l-37 -85.5c-12.333 -27.333 -23.833 -51 -34.5 -71
c-3.33301 -2.66699 -9.16602 -5 -17.499 -7s-17.166 -3 -26.499 -3c-24.667 0 -40.667 7 -48 21c-6 11.333 -13.667 27 -23 47s-19.333 42.667 -30 68l-33 81l-33 85.5l-30 82c-9.33301 26.333 -17 49.833 -23 70.5c4.66699 6.66699 11 12 19 16s16 6 24 6
c12 0 21.167 -3 27.5 -9s12.166 -16 17.499 -30l62 -179l15 -41.5l18.5 -50l19 -49.5c6.33301 -16 11.5 -29.667 15.5 -41h4c26.667 67.333 51.5 133.666 74.5 198.999s43.167 129.666 60.5 192.999c8.66699 5.33301 20 8 34 8z" />
    <glyph glyph-name="w" unicode="w" horiz-adv-x="729" 
d="M366 344l-28.501 -94.999c-9.66699 -32 -19.5 -62.667 -29.5 -92l-29 -83c-9.33301 -26 -18 -49 -26 -69c-5.33301 -3.33301 -11.333 -6 -18 -8s-15.667 -3 -27 -3c-10.667 0 -20.5 1.83301 -29.5 5.5s-15.167 9.5 -18.5 17.5c-8 16.667 -17.5 42.667 -28.5 78
s-22.333 74.166 -34 116.499s-22.667 85 -33 128s-18.833 80.5 -25.5 112.5c4.66699 4.66699 10.5 9 17.5 13s15.5 6 25.5 6c12.667 0 22 -3.5 28 -10.5s10.667 -18.167 14 -33.5l21 -95.5l24 -104.5l22.5 -93l15.5 -62h4l17.5 54l26.5 82.5l33 100.5l36 108
c12 6.66699 26.333 10 43 10c24.667 0 40 -8.66699 46 -26l34.5 -103.5l30.5 -95.5c9.33301 -29.333 17.333 -55.5 24 -78.5s12 -40.5 16 -52.5h5l50 191c18 67.333 32.667 134 44 200c9.33301 6 20.666 9 33.999 9c11.333 0 20.333 -2.66699 27 -8s10 -13.666 10 -24.999
c0 -7.33301 -2.16699 -21.5 -6.5 -42.5s-10.166 -45.333 -17.499 -73l-24.5 -89c-9 -31.667 -18.167 -62.334 -27.5 -92.001l-26.5 -81c-8.33301 -24.333 -15.5 -42.833 -21.5 -55.5c-3.33301 -2.66699 -8.83301 -5.16699 -16.5 -7.5s-16.5 -3.5 -26.5 -3.5
c-12.667 0 -23.167 1.5 -31.5 4.5s-13.833 7.83301 -16.5 14.5c-7.33301 18 -15.166 39.333 -23.499 64l-26.5 80.5l-28.5 91.5z" />
    <glyph glyph-name="x" unicode="x" horiz-adv-x="482" 
d="M61 72c20.667 28 42.334 55.335 65.001 82.002l68 82l-78 96.5l-74 94.5c2.66699 13.333 7.5 23.666 14.5 30.999s16.167 11 27.5 11s20.166 -2.83301 26.499 -8.5s13.166 -13.167 20.499 -22.5l53.5 -74.5c18.333 -26.333 37.5 -52.5 57.5 -78.5l70 89.5
c22 28.333 44.667 59.5 68 93.5c3.33301 0.666992 7 1 11 1c14 0 25 -3.16699 33 -9.5s12 -14.833 12 -25.5c0 -7.33301 -1.5 -14.333 -4.5 -21s-7.83301 -14.334 -14.5 -23.001l-63.5 -77.5l-64.5 -77.5l78.5 -100.5l78.5 -99.5
c-1.33301 -12.667 -5.66602 -22.667 -12.999 -30s-17 -11 -29 -11c-11.333 0 -20.5 2.83301 -27.5 8.5s-15.167 14.5 -24.5 26.5l-55.5 76.5l-56.5 78.5l-70.5 -94l-68.5 -95h-14c-15.333 0 -26.833 3.33301 -34.5 10s-11.5 15 -11.5 25c0 5.33301 1.16699 10.833 3.5 16.5
s7.83301 14.167 16.5 25.5z" />
    <glyph glyph-name="y" unicode="y" horiz-adv-x="489" 
d="M169 103c-8.66699 16 -18.668 36.3359 -30.001 61.0029s-23.166 52.334 -35.499 83.001l-37.5 97.5c-12.667 34.333 -24.667 69.166 -36 104.499c4.66699 6.66699 10.834 12 18.501 16s15.834 6 24.501 6c11.333 0 20.5 -3 27.5 -9s13.167 -16 18.5 -30
c20 -56.667 40.833 -112.334 62.5 -167.001s46.167 -112 73.5 -172h4c10.667 20.667 21.667 45.834 33 75.501s22.5 61.167 33.5 94.5s21.333 67.166 31 101.499s18.167 67.166 25.5 98.499c4.66699 2 9.66699 3.83301 15 5.5s11.666 2.5 18.999 2.5
c11.333 0 20.666 -2.83301 27.999 -8.5s11 -14.167 11 -25.5c0 -13.333 -4.66699 -37.666 -14 -72.999s-21.5 -75 -36.5 -119s-32.167 -89.167 -51.5 -135.5s-39 -87.5 -59 -123.5c-31.333 -56.667 -59.5 -100.167 -84.5 -130.5s-48.167 -45.5 -69.5 -45.5
c-15.333 0 -27.166 4 -35.499 12s-13.5 17.333 -15.5 28c10.667 9.33301 22.667 21.333 36 36s26.666 30.5 39.999 47.5s26 34.5 38 52.5s22 35.333 30 52c-11.333 3.33301 -21.833 9.16602 -31.5 17.499s-20.5 24.166 -32.5 47.499z" />
    <glyph glyph-name="z" unicode="z" horiz-adv-x="469" 
d="M61 0c-10.667 8.66699 -15.999 20.3311 -15.999 34.998c0 8 1.66699 15.5 5 22.5s7.66602 13.833 12.999 20.5l254 318h-257c-2 3.33301 -4 7.83301 -6 13.5s-3 12.167 -3 19.5c0 22 10 33 30 33h320c11.333 -9.33301 17 -21.333 17 -36
c0 -13.333 -6.33301 -27.333 -19 -42l-254 -319h271c2 -3.33301 4 -7.66602 6 -12.999s3 -11.666 3 -18.999c0 -22 -10.333 -33 -31 -33h-333v0z" />
    <glyph glyph-name="braceleft" unicode="{" horiz-adv-x="281" 
d="M122 275c22 -11.333 39.167 -28.498 51.5 -51.498s18.5 -52.167 18.5 -87.5v-131c0 -23.333 4.5 -39.833 13.5 -49.5s23.167 -14.834 42.5 -15.501c2 -8 3 -15.667 3 -23c0 -9.33301 -3 -17 -9 -23s-15 -9 -27 -9c-28 0 -50.833 10 -68.5 30s-26.5 50 -26.5 90v123
c0 69.333 -25.333 108 -76 116c-2.66699 3.33301 -4.5 8.16602 -5.5 14.499s-1.5 11.833 -1.5 16.5s0.666992 10 2 16s3 11 5 15c50.667 8 76 46.333 76 115v116c0 40 8.83301 69.833 26.5 89.5s40.5 29.5 68.5 29.5c24 0 36 -10.667 36 -32c0 -7.33301 -1 -15 -3 -23
c-19.333 0 -33.5 -4.83301 -42.5 -14.5s-13.5 -26.5 -13.5 -50.5v-122c0 -36 -6.16699 -65.333 -18.5 -88s-29.5 -39.667 -51.5 -51z" />
    <glyph glyph-name="bar" unicode="|" horiz-adv-x="251" 
d="M162 -180c-5.33301 -2 -10.666 -3.66699 -15.999 -5s-11.666 -2 -18.999 -2c-13.333 0 -23 3 -29 9s-9 16.333 -9 31v821c5.33301 2 10.666 3.66699 15.999 5s11.666 2 18.999 2c13.333 0 23 -3 29 -9s9 -16.333 9 -31v-821z" />
    <glyph glyph-name="braceright" unicode="}" horiz-adv-x="281" 
d="M159 275c-22 11.333 -39.167 28.3311 -51.5 50.998s-18.5 52 -18.5 88v122c0 24 -4.5 40.833 -13.5 50.5s-23.167 14.5 -42.5 14.5c-2 8 -3 15.667 -3 23c0 21.333 12 32 36 32c28 0 50.833 -9.83301 68.5 -29.5s26.5 -49.5 26.5 -89.5v-116
c0 -68.667 25.333 -107 76 -115c2 -4 3.66699 -9 5 -15s2 -11.333 2 -16s-0.5 -10.167 -1.5 -16.5s-2.83301 -11.166 -5.5 -14.499c-50.667 -8 -76 -46.667 -76 -116v-123c0 -40 -8.83301 -70 -26.5 -90s-40.5 -30 -68.5 -30c-12 0 -21 3 -27 9s-9 13.667 -9 23
c0 7.33301 1 15 3 23c19.333 0.666992 33.5 5.83398 42.5 15.501s13.5 26.167 13.5 49.5v131c0 35.333 6.16699 64.5 18.5 87.5s29.5 40.167 51.5 51.5z" />
    <glyph glyph-name="asciitilde" unicode="~" horiz-adv-x="448" 
d="M312 282c17.333 0 29.998 4.83301 37.998 14.5s14.667 19.834 20 30.501c14.667 0 27.167 -4 37.5 -12s15.5 -18.667 15.5 -32c0 -21.333 -8.66699 -38.333 -26 -51s-40 -19 -68 -19c-20 0 -38.833 2.16699 -56.5 6.5s-34.5 9 -50.5 14l-45 14
c-14 4.33301 -27.667 6.5 -41 6.5c-18 0 -30.833 -4.83301 -38.5 -14.5s-14.167 -19.834 -19.5 -30.501c-15.333 0 -28 4 -38 12s-15 18.667 -15 32c0 21.333 8.66699 38.333 26 51s40 19 68 19c20.667 0 39.834 -2.16699 57.501 -6.5s34.334 -9 50.001 -14l44.5 -14
c14 -4.33301 27.667 -6.5 41 -6.5z" />
    <glyph glyph-name="DEL" horiz-adv-x="0" 
 />
    <glyph glyph-name="uni00A0" unicode="&#xa0;" horiz-adv-x="200" 
 />
    <glyph glyph-name="exclamdown" unicode="&#xa1;" horiz-adv-x="250" 
d="M86 -126c0 20 0.168945 46.334 0.501953 79.001s1 67.5 2 104.5s2.16699 74.167 3.5 111.5s2.66602 70.666 3.99902 99.999c8.66699 6.66699 19.667 10 33 10c9.33301 0 17 -2 23 -6s9.33301 -10.333 10 -19c1.33301 -19.333 2.66602 -46.333 3.99902 -81
s2.33301 -71.667 3 -111s1.16699 -78.5 1.5 -117.5s0.5 -72.5 0.5 -100.5c-14 -8.66699 -29 -13 -45 -13c-26.667 0 -40 14.333 -40 43zM184.002 411.001c0 -16 -5 -29.333 -15 -40s-23.667 -16 -41 -16s-31 5.33301 -41 16s-15 24 -15 40s5 29.333 15 40s23.667 16 41 16
s31 -5.33301 41 -16s15 -24 15 -40z" />
    <glyph glyph-name="cent" unicode="&#xa2;" horiz-adv-x="476" 
d="M289 408c-22.667 0 -43.666 -3.83496 -62.999 -11.502s-36 -19 -50 -34s-25 -33.667 -33 -56s-12 -47.833 -12 -76.5c0 -57.333 14.333 -101.166 43 -131.499s67 -45.5 115 -45.5c28 0 51.333 3.83301 70 11.5s35.334 16.5 50.001 26.5c7.33301 -4 13.333 -9 18 -15
s7 -13.333 7 -22c0 -17.333 -12 -32.166 -36 -44.499s-54.667 -19.5 -92 -21.5v-96c-3.33301 -1.33301 -7.83301 -2.5 -13.5 -3.5s-11.834 -1.5 -18.501 -1.5c-27.333 0 -41 11 -41 33v72c-54.667 9.33301 -99 33.5 -133 72.5s-51 94.167 -51 165.5
c0 34.667 4.66699 65.834 14 93.501s22.166 51.5 38.499 71.5s35.833 36.167 58.5 48.5s47 21.166 73 26.499v101c3.33301 1.33301 7.83301 2.5 13.5 3.5s12.167 1.5 19.5 1.5c26.667 0 40 -11 40 -33v-69c36.667 -2 66.5 -9.66699 89.5 -23s34.5 -28.333 34.5 -45
c0 -8 -2.5 -15 -7.5 -21s-11.167 -10.667 -18.5 -14c-14 10 -29.667 18.667 -47 26s-40 11 -68 11z" />
    <glyph glyph-name="sterling" unicode="&#xa3;" horiz-adv-x="504" 
d="M145 219c0 12 -0.999023 26.666 -2.99902 43.999h-57c-7.33301 0 -13.833 2.5 -19.5 7.5s-8.5 13.5 -8.5 25.5c0 6.66699 1 12.5 3 17.5s3.66699 9.83301 5 14.5h71c-2 16.667 -3.5 32.834 -4.5 48.501s-1.5 29.5 -1.5 41.5c0 36 5.33301 66.667 16 92
s25.167 46.333 43.5 63s39.666 28.834 63.999 36.501s50.5 11.5 78.5 11.5c21.333 0 40 -1.83301 56 -5.5s29.167 -8.5 39.5 -14.5s18.166 -12.667 23.499 -20s8 -14.333 8 -21c0 -5.33301 -1.83301 -11.833 -5.5 -19.5s-9.5 -13.834 -17.5 -18.501
c-14.667 10 -29.5 17.667 -44.5 23s-33.167 8 -54.5 8c-84.667 0 -127 -48.667 -127 -146c0 -11.333 0.333008 -23.833 1 -37.5s1.66699 -27.5 3 -41.5h191c2 -4.66699 3.83301 -9.5 5.5 -14.5s2.5 -10.833 2.5 -17.5c0 -12 -2.66699 -20.5 -8 -25.5s-12.333 -7.5 -21 -7.5
h-164c2 -18 3 -33.333 3 -46c0 -36 -4.66699 -66.167 -14 -90.5s-23 -44.5 -41 -60.5h293c5.33301 -9.33301 8 -20.333 8 -33c0 -10.667 -2.66699 -18.834 -8 -24.501s-12.333 -8.5 -21 -8.5h-340c-12.667 0 -23.5 3.83301 -32.5 11.5s-13.5 18.834 -13.5 33.501v7.5
c0 1.66699 0.333008 4.16699 1 7.5c14.667 7.33301 27.667 15.5 39 24.5s20.833 19.5 28.5 31.5s13.334 26.333 17.001 43s5.5 36.667 5.5 60z" />
    <glyph glyph-name="currency" unicode="&#xa4;" horiz-adv-x="525" 
d="M447 298c0 -25.333 -3.5 -47.9971 -10.5 -67.9971s-16.833 -37.667 -29.5 -53l58 -68c-5.33301 -12.667 -12.166 -22 -20.499 -28s-17.166 -9 -26.499 -9c-8 0 -15.833 3.66699 -23.5 11s-14.834 15.333 -21.501 24l-23 27c-25.333 -12.667 -54.666 -19 -87.999 -19
c-32 0 -61 6 -87 18l-54 -69c-13.333 2.66699 -24.666 7.5 -33.999 14.5s-14 16.5 -14 28.5c0 8 2.16699 16 6.5 24s10.166 16 17.499 24l19 22c-26 31.333 -39 71.666 -39 120.999c0 24.667 3.33301 46.834 10 66.501s16 37.167 28 52.5l-55 66
c5.33301 12 12.166 21 20.499 27s17.166 9 26.499 9c8.66699 0 16.667 -3.66699 24 -11s14.333 -15 21 -23l20 -25c26.667 13.333 56.667 20 90 20c34 0 64.667 -7 92 -21l53 68c12.667 -2.66699 23.667 -7.33398 33 -14.001s14 -16 14 -28
c0 -8.66699 -2.16699 -16.834 -6.5 -24.501s-10.166 -15.834 -17.499 -24.501l-19 -23c11.333 -15.333 20.166 -32.5 26.499 -51.5s9.5 -40.167 9.5 -63.5zM373 298.003c0 38 -10.167 67.5 -30.5 88.5s-47.166 31.5 -80.499 31.5c-34 0 -61.167 -10.5 -81.5 -31.5
s-30.5 -50.5 -30.5 -88.5c0 -38.667 10.167 -68.334 30.5 -89.001s47.5 -31 81.5 -31c33.333 0 60.166 10.333 80.499 31s30.5 50.334 30.5 89.001z" />
    <glyph glyph-name="yen" unicode="&#xa5;" horiz-adv-x="546" 
d="M59 280c-6.66699 8 -10.001 18.667 -10.001 32c0 11.333 2.5 19.166 7.5 23.499s10.833 6.5 17.5 6.5h118l-44.5 67l-42.5 66.5l-37.5 62.5l-30.5 54c4.66699 6 10.667 11.833 18 17.5s16 8.5 26 8.5c11.333 0 20.5 -3.16699 27.5 -9.5s14.167 -16.5 21.5 -30.5l143 -233
h5c16 24.667 30.167 47.5 42.5 68.5l35.5 62l35 62.5l41 72c6 3.33301 11.333 5.5 16 6.5s10.667 1.5 18 1.5c12 0 20.833 -3.16699 26.5 -9.5s8.5 -13.833 8.5 -22.5c0 -5.33301 -4.16699 -16 -12.5 -32s-19.166 -35.333 -32.499 -58l-45 -74l-51 -80h129
c2 -5.33301 3.83301 -10.5 5.5 -15.5s2.5 -10.5 2.5 -16.5c0 -9.33301 -2.33301 -16.666 -7 -21.999s-10.667 -8 -18 -8h-413zM315.999 148l0.000976562 -147.004c-3.33301 -1.33301 -8.5 -2.66602 -15.5 -3.99902s-14.167 -2 -21.5 -2c-30 0 -45 12 -45 36v117h-175
c-6.66699 8 -10 18.667 -10 32c0 12 2.5 20 7.5 24s10.5 6 16.5 6h414c2 -3.33301 3.83301 -8.16602 5.5 -14.499s2.5 -12.166 2.5 -17.499c0 -9.33301 -2.33301 -16.666 -7 -21.999s-10.334 -8 -17.001 -8h-155z" />
    <glyph glyph-name="brokenbar" unicode="&#xa6;" horiz-adv-x="293" 
d="M162 310c-5.33301 -2 -10.666 -3.66699 -15.999 -5s-11.666 -2 -18.999 -2c-13.333 0 -23 3 -29 9s-9 16.333 -9 31v332c5.33301 2 10.666 3.66699 15.999 5s11.666 2 18.999 2c13.333 0 23 -3 29 -9s9 -16.333 9 -31v-332zM162 -180
c-5.33301 -2 -10.666 -3.66699 -15.999 -5s-11.666 -2 -18.999 -2c-13.333 0 -23 3 -29 9s-9 16.333 -9 31v332c5.33301 2 10.666 3.66699 15.999 5s11.666 2 18.999 2c13.333 0 23 -3 29 -9s9 -16.333 9 -31v-332z" />
    <glyph glyph-name="section" unicode="&#xa7;" horiz-adv-x="504" 
d="M444 283c0 -23.333 -5.16504 -43.166 -15.498 -59.499s-23.166 -30.166 -38.499 -41.499c17.333 -10.667 30.666 -23.667 39.999 -39s14 -34.666 14 -57.999c0 -41.333 -16.5 -73.333 -49.5 -96s-81.833 -34 -146.5 -34c-27.333 0 -52.333 2 -75 6s-42.5 9.5 -59.5 16.5
s-30.167 15 -39.5 24s-14 18.5 -14 28.5c0 9.33301 2.33301 17.166 7 23.499s10.667 12.166 18 17.499c22.667 -14 47.167 -26 73.5 -36s56.166 -15 89.499 -15c37.333 0 66.166 5.5 86.499 16.5s30.5 27.167 30.5 48.5c0 18 -6.5 31.5 -19.5 40.5
s-34.167 16.833 -63.5 23.5l-91 20c-36 7.33301 -66.333 20.833 -91 40.5s-37 49.167 -37 88.5c0 22.667 5.16699 42.167 15.5 58.5s23.166 29.833 38.499 40.5c-15.333 9.33301 -27.5 21.833 -36.5 37.5s-13.5 35.5 -13.5 59.5c0 40.667 15.5 72 46.5 94
s74.833 33 131.5 33c24 0 46.333 -1.66699 67 -5s38.5 -8 53.5 -14s26.833 -13 35.5 -21s13 -16.667 13 -26c0 -8.66699 -2.16699 -16.167 -6.5 -22.5s-9.16602 -11.166 -14.499 -14.499c-18 9.33301 -39.333 18 -64 26s-52 12 -82 12c-32 0 -56.833 -5.16699 -74.5 -15.5
s-26.5 -25.833 -26.5 -46.5c0 -18.667 6.16699 -32.334 18.5 -41.001s29.5 -15.334 51.5 -20.001l90 -18c20.667 -5.33301 39.5 -11.5 56.5 -18.5s31.5 -15.5 43.5 -25.5s21.333 -22.167 28 -36.5s10 -31.5 10 -51.5zM307.002 212l14.002 -3.99902c13.333 8 24 18 32 30
s12 26.667 12 44c0 19.333 -6.5 34.333 -19.5 45s-34.5 19 -64.5 25l-90 18c-2.66699 0 -5.33398 0.666992 -8.00098 2c-12.667 -8 -22.834 -18 -30.501 -30s-11.5 -26 -11.5 -42c0 -19.333 6.66699 -34.333 20 -45s31.333 -18.334 54 -23.001z" />
    <glyph glyph-name="dieresis" unicode="&#xa8;" horiz-adv-x="374" 
d="M154 606c0 -13.333 -4.66699 -24.666 -14 -33.999s-21.333 -14 -36 -14c-14 0 -25.5 4.66699 -34.5 14s-13.5 20.666 -13.5 33.999s4.5 24.666 13.5 33.999s20.5 14 34.5 14c14.667 0 26.667 -4.66699 36 -14s14 -20.666 14 -33.999zM327 606
c0 -13.333 -4.83301 -24.666 -14.5 -33.999s-21.5 -14 -35.5 -14c-13.333 0 -24.833 4.66699 -34.5 14s-14.5 20.666 -14.5 33.999s4.83301 24.666 14.5 33.999s21.167 14 34.5 14c14 0 25.833 -4.66699 35.5 -14s14.5 -20.666 14.5 -33.999z" />
    <glyph glyph-name="copyright" unicode="&#xa9;" horiz-adv-x="713" 
d="M54 298c0 43.333 7.16699 84 21.5 122s34.833 71 61.5 99s58.334 50 95.001 66s77.667 24 123 24c44.667 0 85.667 -8 123 -24s69.333 -38 96 -66s47.5 -61 62.5 -99s22.5 -78.667 22.5 -122c0 -42 -7.5 -81.333 -22.5 -118s-35.833 -68.5 -62.5 -95.5
s-58.667 -48.167 -96 -63.5s-78.333 -23 -123 -23c-45.333 0 -86.333 7.66699 -123 23s-68.334 36.5 -95.001 63.5s-47.167 58.833 -61.5 95.5s-21.5 76 -21.5 118zM355 555c-37.333 0 -70.833 -6.33301 -100.5 -19s-54.667 -30.334 -75 -53.001s-36 -49.667 -47 -81
s-16.5 -66 -16.5 -104c0 -36 5.5 -69.167 16.5 -99.5s26.667 -56.333 47 -78s45.333 -38.5 75 -50.5s63.167 -18 100.5 -18s70.833 6 100.5 18s54.667 28.833 75 50.5s36 47.667 47 78s16.5 63.5 16.5 99.5c0 38 -5.5 72.667 -16.5 104s-26.667 58.333 -47 81
s-45.333 40.334 -75 53.001s-63.167 19 -100.5 19zM377 420c-14 0 -27.5049 -2.33105 -40.5049 -6.99805s-24.5 -11.667 -34.5 -21s-18 -21.333 -24 -36s-9 -32.334 -9 -53.001c0 -38 10.5 -66.833 31.5 -86.5s47.5 -29.5 79.5 -29.5c18.667 0 33.334 2.33301 44.001 7
s20.334 9.66699 29.001 15c13.333 -7.33301 20 -18 20 -32c0 -11.333 -8.16699 -22.333 -24.5 -33s-40.833 -16 -73.5 -16c-24.667 0 -47.667 3.66699 -69 11s-40 18.333 -56 33s-28.667 33 -38 55s-14 47.333 -14 76c0 30.667 5 57.167 15 79.5s23.167 40.666 39.5 54.999
s34.5 25 54.5 32s40 10.5 60 10.5c30 0 54.5 -5.16699 73.5 -15.5s28.5 -23.5 28.5 -39.5c0 -5.33301 -2.16699 -10.5 -6.5 -15.5s-9.16602 -8.83301 -14.499 -11.5c-9.33301 5.33301 -19.666 10.333 -30.999 15s-24.666 7 -39.999 7z" />
    <glyph glyph-name="ordfeminine" unicode="&#xaa;" horiz-adv-x="352" 
d="M174 358c14 0 27 1.5 39 4.5s21 6.16699 27 9.5v80l-68 -7c-24 -2.66699 -41.333 -7.16699 -52 -13.5s-16 -15.5 -16 -27.5c0 -30.667 23.333 -46 70 -46zM171 620c18.667 0 36.001 -1.66504 52.001 -4.99805s29.667 -9.33301 41 -18s20.333 -20 27 -34
s10 -31.667 10 -53v-155c0 -10.667 -8 -20.334 -24 -29.001c-13.333 -6.66699 -29 -11.834 -47 -15.501s-36.667 -5.5 -56 -5.5c-41.333 0 -73.666 7.83301 -96.999 23.5s-35 39.5 -35 71.5c0 30 10 52.5 30 67.5s49 24.167 87 27.5l81 8v7c0 22 -5.83301 37 -17.5 45
s-30.167 12 -55.5 12c-17.333 0 -34.5 -2.66699 -51.5 -8s-31.167 -11.666 -42.5 -18.999c-4.66699 2.66699 -8.83398 6.5 -12.501 11.5s-5.5 11.167 -5.5 18.5s1.66699 13.166 5 17.499s8.66602 8.5 15.999 12.5c10 5.33301 23.833 10 41.5 14s35.5 6 53.5 6z" />
    <glyph glyph-name="guillemotleft" unicode="&#xab;" horiz-adv-x="469" 
d="M239 82c0 -10 -3.16895 -19.167 -9.50195 -27.5s-15.833 -12.5 -28.5 -12.5c-8.66699 0 -16.667 2.66699 -24 8s-14.333 11.666 -21 18.999l-111 123c-6.66699 10 -10 21.333 -10 34c0 10.667 1.33301 18.834 4 24.501s6.33398 10.5 11.001 14.5l145 151
c26 -6 39 -18 39 -36c0 -8 -2.16699 -15.167 -6.5 -21.5s-11.166 -14.5 -20.499 -24.5l-106 -109zM428.998 82c0 -10 -3.16992 -19.167 -9.50293 -27.5s-15.5 -12.5 -27.5 -12.5c-9.33301 0 -17.666 2.66699 -24.999 8s-14 11.666 -20 18.999l-112 123
c-6.66699 10 -10 21.333 -10 34c0 10.667 1.33301 18.834 4 24.501s6.33398 10.5 11.001 14.5l145 151c26 -6 39 -18 39 -36c0 -8 -2.16699 -15.167 -6.5 -21.5s-11.166 -14.5 -20.499 -24.5l-105 -109z" />
    <glyph glyph-name="logicalnot" unicode="&#xac;" horiz-adv-x="542" 
d="M452 383c11.333 0 20.499 -3.16602 27.499 -9.49902s10.5 -15.5 10.5 -27.5v-164c-5.33301 -2 -10.833 -3.66699 -16.5 -5s-12.167 -2 -19.5 -2c-13.333 0 -23.166 3 -29.499 9s-9.5 16.333 -9.5 31v103h-357c-4.66699 9.33301 -7 19.666 -7 30.999
c0 22.667 11.667 34 35 34h366z" />
    <glyph glyph-name="uni00AD" unicode="&#xad;" horiz-adv-x="389" 
d="M61 228c-2 4.66699 -3.66699 9.5 -5 14.5s-2 10.833 -2 17.5c0 22.667 11.667 34 35 34h239l4.5 -14c1.66699 -5.33301 2.5 -11 2.5 -17c0 -23.333 -11.667 -35 -35 -35h-239z" />
    <glyph glyph-name="registered" unicode="&#xae;" horiz-adv-x="619" 
d="M58 377c0 34 6 66 18 96s29 56.167 51 78.5s48.333 40.166 79 53.499s65 20 103 20c36.667 0 70.5 -6.66699 101.5 -20s57.667 -31.166 80 -53.499s39.666 -48.5 51.999 -78.5s18.5 -62 18.5 -96s-6.16699 -66 -18.5 -96s-29.666 -56.333 -51.999 -79
s-49 -40.5 -80 -53.5s-64.833 -19.5 -101.5 -19.5c-38 0 -72.333 6.5 -103 19.5s-57 30.833 -79 53.5s-39 49 -51 79s-18 62 -18 96zM113 377c0 -28.667 4.66699 -55.167 14 -79.5s22.5 -45.333 39.5 -63s37.667 -31.5 62 -41.5s51.166 -15 80.499 -15s56.166 5 80.499 15
s45 23.833 62 41.5s30.167 38.667 39.5 63s14 50.833 14 79.5s-4.66699 55.167 -14 79.5s-22.5 45.333 -39.5 63s-37.667 31.5 -62 41.5s-51.166 15 -80.499 15s-56.166 -5 -80.499 -15s-45 -23.833 -62 -41.5s-30.167 -38.667 -39.5 -63s-14 -50.833 -14 -79.5zM279 350
l-0.000976562 -80.001c-6.66699 -1.33301 -15.334 -2 -26.001 -2c-8 0 -14.333 1.33301 -19 4s-7 9 -7 19v185c0 9.33301 7.33301 15.333 22 18c9.33301 2 18 3.33301 26 4s16.667 1 26 1c32 0 57 -6.5 75 -19.5s27 -31.5 27 -55.5
c0 -17.333 -4.83301 -31.666 -14.5 -42.999s-21.5 -19.333 -35.5 -24l57 -70c-1.33301 -5.33301 -4.66602 -10 -9.99902 -14s-11.666 -6 -18.999 -6c-12 0 -23 6.66699 -33 20l-43 63h-26zM310.999 390.999c25.333 0 38 11.667 38 35c0 10 -4 17.833 -12 23.5
s-18.667 8.5 -32 8.5c-4.66699 0 -9.16699 -0.166992 -13.5 -0.5s-8.5 -0.833008 -12.5 -1.5v-65h32z" />
    <glyph glyph-name="macron" unicode="&#xaf;" horiz-adv-x="328" 
d="M40 570c-2.66699 4 -5.16699 8.66797 -7.5 14.001s-3.5 11.333 -3.5 18c0 11.333 3 19.666 9 24.999s13.667 8 23 8h228c2.66699 -4 5 -8.83301 7 -14.5s3 -11.5 3 -17.5c0 -22 -10.667 -33 -32 -33h-227z" />
    <glyph glyph-name="degree" unicode="&#xb0;" horiz-adv-x="360" 
d="M321 489c0 -20 -3.66895 -38.002 -11.002 -54.002s-17.5 -29.833 -30.5 -41.5s-28 -20.5 -45 -26.5s-34.833 -9 -53.5 -9c-20.667 0 -39.667 3.33301 -57 10s-32.333 15.834 -45 27.501s-22.5 25.5 -29.5 41.5s-10.5 33.333 -10.5 52c0 20 3.83301 38 11.5 54
s17.834 29.833 30.501 41.5s27.5 20.5 44.5 26.5s35.167 9 54.5 9c18.667 0 36.667 -3 54 -9s32.333 -14.667 45 -26s22.834 -25.166 30.501 -41.499s11.5 -34.5 11.5 -54.5zM179.998 560.998c-18 0 -34.333 -6.16699 -49 -18.5s-22 -30.166 -22 -53.499s7 -41.333 21 -54
s30.667 -19 50 -19s36 6.33301 50 19s21 30.667 21 54s-7.33301 41.166 -22 53.499s-31 18.5 -49 18.5z" />
    <glyph glyph-name="plusminus" unicode="&#xb1;" horiz-adv-x="517" 
d="M297 383h162.999c1.33301 -4 2.66602 -8.5 3.99902 -13.5s2 -10.833 2 -17.5c0 -22.667 -11.667 -34 -35 -34h-134v-168c-5.33301 -1.33301 -10.5 -2.83301 -15.5 -4.5s-11.167 -2.5 -18.5 -2.5c-13.333 0 -23.166 3 -29.499 9s-9.5 16.667 -9.5 32v134h-167
c-1.33301 4 -2.66602 8.66699 -3.99902 14s-2 11 -2 17c0 22.667 11.667 34 35 34h138v164c5.33301 2 10.833 3.66699 16.5 5s12.167 2 19.5 2c12.667 0 22 -3 28 -9s9 -16.333 9 -31v-131zM56.999 0c-1.33301 4 -2.66602 8.66699 -3.99902 14s-2 11 -2 17
c0 22.667 11.667 34 35 34h374c1.33301 -4 2.66602 -8.5 3.99902 -13.5s2 -10.833 2 -17.5c0 -22.667 -11.667 -34 -35 -34h-374z" />
    <glyph glyph-name="twosuperior" unicode="&#xb2;" horiz-adv-x="276" 
d="M123 697c35.333 0 63 -8.66602 83 -25.999s30 -41.666 30 -72.999c0 -20.667 -5.5 -40.334 -16.5 -59.001s-30.833 -39.667 -59.5 -63l-70 -56h148c4 -7.33301 6 -15.666 6 -24.999c0 -6.66699 -1.83301 -12.334 -5.5 -17.001s-10.5 -7 -20.5 -7h-182
c-8.66699 8.66699 -13 19.334 -13 32.001c0 9.33301 1.5 16.833 4.5 22.5s6.83301 10.5 11.5 14.5l87 77c16 14 28.667 27.667 38 41s14 26.666 14 39.999c0 16.667 -5.66699 29 -17 37s-25 12 -41 12c-13.333 0 -25.833 -2.33301 -37.5 -7s-22.167 -10.667 -31.5 -18
c-4.66699 2.66699 -8.66699 6.16699 -12 10.5s-5 10.166 -5 17.499c0 6.66699 2.5 12.834 7.5 18.501s11.667 10.667 20 15s17.833 7.66602 28.5 9.99902s21.667 3.5 33 3.5z" />
    <glyph glyph-name="threesuperior" unicode="&#xb3;" horiz-adv-x="272" 
d="M134 559c13.333 0 24.333 3.83691 33 11.5039s13 17.5 13 29.5c0 14.667 -5.83301 26.167 -17.5 34.5s-27.5 12.5 -47.5 12.5c-15.333 0 -29.166 -2.33301 -41.499 -7s-22.5 -9.66699 -30.5 -15c-5.33301 3.33301 -9.33301 7.16602 -12 11.499s-4 10.166 -4 17.499
c0 12.667 9.5 23 28.5 31s40.833 12 65.5 12c38 0 67 -8.16699 87 -24.5s30 -38.5 30 -66.5c0 -16 -4.33301 -30.333 -13 -43s-20.667 -21.667 -36 -27c16 -5.33301 28.833 -15 38.5 -29s14.5 -30 14.5 -48c0 -33.333 -11.833 -57.666 -35.5 -72.999s-52.5 -23 -86.5 -23
c-29.333 0 -53.833 4.83301 -73.5 14.5s-29.5 21.167 -29.5 34.5c0 14 6.66699 24.333 20 31c8 -6.66699 18.5 -13.334 31.5 -20.001s29.5 -10 49.5 -10c19.333 0 35.166 4.16699 47.499 12.5s18.5 21.166 18.5 38.499c0 13.333 -4.5 24.333 -13.5 33s-21.167 13 -36.5 13
h-57c-5.33301 7.33301 -8 15.666 -8 24.999c0 10.667 2.66699 18.667 8 24h57z" />
    <glyph glyph-name="acute" unicode="&#xb4;" horiz-adv-x="298" 
d="M187 687c14.667 -0.666992 26.501 -4.83203 35.501 -12.499s13.5 -16.167 13.5 -25.5s-2 -16.833 -6 -22.5s-10.667 -12.834 -20 -21.501l-91 -89c-13.333 0 -24 3.5 -32 10.5s-12 14.833 -12 23.5c0 5.33301 1.66699 10.333 5 15s6.66602 9 9.99902 13z" />
    <glyph glyph-name="mu" unicode="&#xb5;" horiz-adv-x="552" 
d="M477 82c0 -14 -1.83594 -25.1689 -5.50293 -33.502s-12.5 -16.5 -26.5 -24.5s-33.667 -16.167 -59 -24.5s-56 -12.5 -92 -12.5c-30 0 -57.667 3.83301 -83 11.5s-45.666 21.167 -60.999 40.5c2 -20 3.66699 -43.667 5 -71s2 -55 2 -83v-69
c-3.33301 -1.33301 -8.33301 -2.66602 -15 -3.99902s-13.667 -2 -21 -2c-29.333 0 -44 12 -44 36v614c3.33301 1.33301 8.5 2.83301 15.5 4.5s14.167 2.5 21.5 2.5c28.667 0 43 -12.333 43 -37v-257c0 -43.333 11.667 -74.166 35 -92.499s54.333 -27.5 93 -27.5
c26.667 0 49.334 2.83301 68.001 8.5s33.334 11.5 44.001 17.5v381c3.33301 1.33301 8.33301 2.83301 15 4.5s14 2.5 22 2.5c28.667 0 43 -12.333 43 -37v-348v0z" />
    <glyph glyph-name="paragraph" unicode="&#xb6;" horiz-adv-x="441" 
d="M328 613c13.333 0 23.835 -2.33301 31.502 -7s11.5 -15 11.5 -31v-644c-3.33301 -1.33301 -8.33301 -2.66602 -15 -3.99902s-13.667 -2 -21 -2c-14 0 -24.833 2.83301 -32.5 8.5s-11.5 15.167 -11.5 28.5v582h-66v-268c0 -8 -4.33301 -14.667 -13 -20s-22.667 -8 -42 -8
c-18.667 0 -37.334 3.5 -56.001 10.5s-35.334 17.833 -50.001 32.5s-26.5 33.167 -35.5 55.5s-13.5 48.833 -13.5 79.5c0 32 5.5 59.667 16.5 83s25.5 42.666 43.5 57.999s39 26.833 63 34.5s49 11.5 75 11.5h115z" />
    <glyph glyph-name="periodcentered" unicode="&#xb7;" horiz-adv-x="141" 
d="M16 252c0 16 4.83301 29.333 14.5 40s23.167 16 40.5 16s30.666 -5.33301 39.999 -16s14 -24 14 -40c0 -15.333 -4.66699 -28.333 -14 -39s-22.666 -16 -39.999 -16s-30.833 5.33301 -40.5 16s-14.5 23.667 -14.5 39z" />
    <glyph glyph-name="cedilla" unicode="&#xb8;" horiz-adv-x="195" 
d="M111 17c18.667 -13.333 32 -28.4971 40 -45.4971s12 -35.833 12 -56.5c0 -32 -10 -57.333 -30 -76s-46 -28 -78 -28c-34.667 0 -52 12 -52 36c0 8.66699 2 16.667 6 24h15c24 0 41.5 5.16699 52.5 15.5s16.5 24.166 16.5 41.499c0 11.333 -2.5 23.666 -7.5 36.999
s-13.167 25.666 -24.5 36.999z" />
    <glyph glyph-name="onesuperior" unicode="&#xb9;" horiz-adv-x="211" 
d="M100 628l-61.001 -28.999c-5.33301 2.66699 -10.5 6.66699 -15.5 12s-7.5 11.666 -7.5 18.999c0 12 8 21.667 24 29l74 33h12c20.667 0 31 -11 31 -33v-286c-8 -4 -17 -6 -27 -6c-9.33301 0 -16.666 1.83301 -21.999 5.5s-8 11.167 -8 22.5v233z" />
    <glyph glyph-name="ordmasculine" unicode="&#xba;" horiz-adv-x="378" 
d="M333 462c0 -50.667 -13.001 -89.499 -39.001 -116.499s-61 -40.5 -105 -40.5c-42.667 0 -77.5 13.333 -104.5 40s-40.5 66 -40.5 118c0 26 3.66699 48.667 11 68s17.5 35.666 30.5 48.999s28.333 23.333 46 30s36.834 10 57.501 10c44 0 79 -13.5 105 -40.5
s39 -66.167 39 -117.5zM188.999 566.001c-24.667 0 -44.502 -8.99902 -59.502 -26.999s-22.5 -43.333 -22.5 -76c0 -33.333 7.33301 -58.833 22 -76.5s34.667 -26.5 60 -26.5c24.667 0 44.334 8.66699 59.001 26s22 42.666 22 75.999c0 32.667 -7.16699 58.167 -21.5 76.5
s-34.166 27.5 -59.499 27.5z" />
    <glyph glyph-name="guillemotright" unicode="&#xbb;" horiz-adv-x="469" 
d="M230 376c0 10 3.16992 19.167 9.50293 27.5s15.5 12.5 27.5 12.5c9.33301 0 17.666 -2.66699 24.999 -8s14 -11.666 20 -18.999l112 -123c6.66699 -10 10 -21.333 10 -34c0 -10.667 -1.33301 -18.834 -4 -24.501s-6.33398 -10.5 -11.001 -14.5l-146 -151
c-25.333 6 -38 18 -38 36c0 8 2.16699 15.167 6.5 21.5s11.166 14.5 20.499 24.5l105 109zM40.0029 376c0 10 3.16895 19.167 9.50195 27.5s15.5 12.5 27.5 12.5c9.33301 0 17.666 -2.66699 24.999 -8s14 -11.666 20 -18.999l112 -123c6.66699 -10 10 -21.333 10 -34
c0 -10.667 -1.33301 -18.834 -4 -24.501s-6.66699 -10.5 -12 -14.5l-145 -151c-25.333 6 -38 18 -38 36c0 8 2.16699 15.167 6.5 21.5s11.166 14.5 20.499 24.5l105 109z" />
    <glyph glyph-name="onequarter" unicode="&#xbc;" horiz-adv-x="602" 
d="M92 548l-61.001 -28.999c-5.33301 2.66699 -10.5 6.66699 -15.5 12s-7.5 11.666 -7.5 18.999c0 12 8 21.667 24 29l74 33h12c20.667 0 31 -11 31 -33v-286c-8 -4 -17 -6 -27 -6c-9.33301 0 -16.666 1.83301 -21.999 5.5s-8 11.167 -8 22.5v233zM480.999 73.001h-143
c-5.33301 2.66699 -9.83301 6.66699 -13.5 12s-5.5 11.666 -5.5 18.999c0 10.667 3.33301 20.334 10 29.001l136 183c10 3.33301 20.667 5 32 5s20.833 -2.66699 28.5 -8s11.5 -13 11.5 -23v-169h48c1.33301 -3.33301 2.5 -6.5 3.5 -9.5s1.5 -7.16699 1.5 -12.5
c0 -9.33301 -2.5 -16 -7.5 -20s-10.5 -6 -16.5 -6h-29v-71c-8 -4 -17 -6 -27 -6c-9.33301 0 -16.5 1.83301 -21.5 5.5s-7.5 11.167 -7.5 22.5v49zM482.999 187.001c0 10 0.166992 21.667 0.5 35s0.833008 26 1.5 38l-97 -139h95v66zM455.999 609.001
c26 -1.33301 38.999 -11 38.999 -29c0 -6.66699 -1.16699 -12.667 -3.5 -18s-6.16602 -12 -11.499 -20l-367 -547c-26.667 1.33301 -40 11 -40 29c0 6.66699 1.33301 12.667 4 18s6.66699 12.333 12 21z" />
    <glyph glyph-name="onehalf" unicode="&#xbd;" horiz-adv-x="621" 
d="M92 548l-61.001 -28.999c-5.33301 2.66699 -10.5 6.66699 -15.5 12s-7.5 11.666 -7.5 18.999c0 12 8 21.667 24 29l74 33h12c20.667 0 31 -11 31 -33v-286c-8 -4 -17 -6 -27 -6c-9.33301 0 -16.666 1.83301 -21.999 5.5s-8 11.167 -8 22.5v233zM472.999 326.001
c35.333 0 63 -8.66602 83 -25.999s30 -41.666 30 -72.999c0 -20.667 -5.5 -40.334 -16.5 -59.001s-30.833 -39.667 -59.5 -63l-70 -56h148c4 -7.33301 6 -15.666 6 -24.999c0 -6.66699 -1.83301 -12.334 -5.5 -17.001s-10.5 -7 -20.5 -7h-182
c-8.66699 8.66699 -13 19.334 -13 32.001c0 9.33301 1.5 16.833 4.5 22.5s6.83301 10.5 11.5 14.5l87 77c16 14 28.667 27.667 38 41s14 26.666 14 39.999c0 16.667 -5.66699 29 -17 37s-25 12 -41 12c-13.333 0 -25.833 -2.33301 -37.5 -7s-22.167 -10.667 -31.5 -18
c-4.66699 2.66699 -8.66699 6.16699 -12 10.5s-5 10.166 -5 17.499c0 6.66699 2.5 12.834 7.5 18.501s11.667 10.667 20 15s17.833 7.66602 28.5 9.99902s21.667 3.5 33 3.5zM455.999 609.002c26 -1.33301 38.999 -11 38.999 -29c0 -6.66699 -1.16699 -12.667 -3.5 -18
s-6.16602 -12 -11.499 -20l-367 -547c-26.667 1.33301 -40 11 -40 29c0 6.66699 1.33301 12.667 4 18s6.66699 12.333 12 21z" />
    <glyph glyph-name="threequarters" unicode="&#xbe;" horiz-adv-x="647" 
d="M134 479c13.333 0 24.333 3.83691 33 11.5039s13 17.5 13 29.5c0 14.667 -5.83301 26.167 -17.5 34.5s-27.5 12.5 -47.5 12.5c-15.333 0 -29.166 -2.33301 -41.499 -7s-22.5 -9.66699 -30.5 -15c-5.33301 3.33301 -9.33301 7.16602 -12 11.499s-4 10.166 -4 17.499
c0 12.667 9.5 23 28.5 31s40.833 12 65.5 12c38 0 67 -8.16699 87 -24.5s30 -38.5 30 -66.5c0 -16 -4.33301 -30.333 -13 -43s-20.667 -21.667 -36 -27c16 -5.33301 28.833 -15 38.5 -29s14.5 -30 14.5 -48c0 -33.333 -11.833 -57.666 -35.5 -72.999s-52.5 -23 -86.5 -23
c-29.333 0 -53.833 4.83301 -73.5 14.5s-29.5 21.167 -29.5 34.5c0 14 6.66699 24.333 20 31c8 -6.66699 18.5 -13.334 31.5 -20.001s29.5 -10 49.5 -10c19.333 0 35.166 4.16699 47.499 12.5s18.5 21.166 18.5 38.499c0 13.333 -4.5 24.333 -13.5 33s-21.167 13 -36.5 13
h-57c-5.33301 7.33301 -8 15.666 -8 24.999c0 10.667 2.66699 18.667 8 24h57zM527 73.0039h-143c-5.33301 2.66699 -9.83301 6.66699 -13.5 12s-5.5 11.666 -5.5 18.999c0 10.667 3.33301 20.334 10 29.001l136 183c10 3.33301 20.667 5 32 5s20.833 -2.66699 28.5 -8
s11.5 -13 11.5 -23v-169h48c1.33301 -3.33301 2.5 -6.5 3.5 -9.5s1.5 -7.16699 1.5 -12.5c0 -9.33301 -2.5 -16 -7.5 -20s-10.5 -6 -16.5 -6h-29v-71c-8 -4 -17 -6 -27 -6c-9.33301 0 -16.5 1.83301 -21.5 5.5s-7.5 11.167 -7.5 22.5v49zM529 187.004
c0 10 0.166992 21.667 0.5 35s0.833008 26 1.5 38l-97 -139h95v66zM506 609.004c26 -1.33301 38.999 -11 38.999 -29c0 -6.66699 -1.16699 -12.667 -3.5 -18s-6.16602 -12 -11.499 -20l-367 -547c-26.667 1.33301 -40 11 -40 29c0 6.66699 1.33301 12.667 4 18
s6.66699 12.333 12 21z" />
    <glyph glyph-name="questiondown" unicode="&#xbf;" horiz-adv-x="459" 
d="M344 256c13.333 -13.333 20 -27.998 20 -43.998c0 -9.33301 -2.66699 -17 -8 -23s-14.666 -10.667 -27.999 -14l-69 -18c-44 -11.333 -77.833 -28.166 -101.5 -50.499s-35.5 -51.5 -35.5 -87.5c0 -32 11.5 -59.5 34.5 -82.5s58.833 -34.5 107.5 -34.5
c26.667 0 53.5 4.16699 80.5 12.5s48.5 19.166 64.5 32.499c15.333 -11.333 23 -25.666 23 -42.999c0 -10 -4.16699 -19.333 -12.5 -28s-20.166 -16.334 -35.499 -23.001s-33.5 -12 -54.5 -16s-43.833 -6 -68.5 -6c-33.333 0 -63.5 4.66699 -90.5 14
s-50.333 22.166 -70 38.499s-34.834 36 -45.501 59s-16 48.167 -16 75.5c0 56.667 17.167 102.167 51.5 136.5s86.166 60.166 155.499 77.499zM355 411.002c0 -16 -5 -29.5 -15 -40.5s-23.667 -16.5 -41 -16.5s-31.166 5.5 -41.499 16.5s-15.5 24.5 -15.5 40.5
s5.16699 29.333 15.5 40s24.166 16 41.499 16s31 -5.33301 41 -16s15 -24 15 -40z" />
    <glyph glyph-name="Agrave" unicode="&#xc0;" horiz-adv-x="592" 
d="M428 162h-267.997l-15 -43.5l-15.5 -46l-14.5 -42c-4.66699 -13 -8.33398 -23.833 -11.001 -32.5c-9.33301 -4 -20.333 -6 -33 -6c-10.667 0 -20.167 2.83301 -28.5 8.5s-12.5 14.834 -12.5 27.501c0 6 1 12.167 3 18.5s4.33301 13.166 7 20.499l38.5 108l51 140.5
l56 150l52.5 135.5c5.33301 2.66699 13.333 5.33398 24 8.00098s21.667 4 33 4c13.333 0 26.166 -2 38.499 -6s20.166 -10.667 23.499 -20c16 -38.667 33.167 -82.834 51.5 -132.501l55.5 -152.5l53.5 -153.5l45.5 -136.5c-5.33301 -6 -11.666 -10.833 -18.999 -14.5
s-15.666 -5.5 -24.999 -5.5c-12.667 0 -22.334 2.83301 -29.001 8.5s-12.334 15.167 -17.001 28.5zM294.003 545l-25.001 -68.501l-29 -80.5l-30 -85l-28 -82h225l-31 90.5l-30.5 87.5l-27 77.5c-8.33301 23.667 -15.166 43.834 -20.499 60.501h-4zM172.002 767.999
c-0.666992 3.33301 -0.999023 7.33301 -0.999023 12c0 10.667 3.16699 19.5 9.5 26.5s14.5 10.5 24.5 10.5c14.667 0 26.667 -6 36 -18l84 -101c-0.666992 -10.667 -3.83398 -19 -9.50098 -25s-13.167 -9 -22.5 -9c-7.33301 0 -13.333 1.33301 -18 4
s-9.66699 6.66699 -15 12z" />
    <glyph glyph-name="Aacute" unicode="&#xc1;" horiz-adv-x="592" 
d="M428 162h-267.997l-15 -43.5l-15.5 -46l-14.5 -42c-4.66699 -13 -8.33398 -23.833 -11.001 -32.5c-9.33301 -4 -20.333 -6 -33 -6c-10.667 0 -20.167 2.83301 -28.5 8.5s-12.5 14.834 -12.5 27.501c0 6 1 12.167 3 18.5s4.33301 13.166 7 20.499l38.5 108l51 140.5
l56 150l52.5 135.5c5.33301 2.66699 13.333 5.33398 24 8.00098s21.667 4 33 4c13.333 0 26.166 -2 38.499 -6s20.166 -10.667 23.499 -20c16 -38.667 33.167 -82.834 51.5 -132.501l55.5 -152.5l53.5 -153.5l45.5 -136.5c-5.33301 -6 -11.666 -10.833 -18.999 -14.5
s-15.666 -5.5 -24.999 -5.5c-12.667 0 -22.334 2.83301 -29.001 8.5s-12.334 15.167 -17.001 28.5zM294.003 545l-25.001 -68.501l-29 -80.5l-30 -85l-28 -82h225l-31 90.5l-30.5 87.5l-27 77.5c-8.33301 23.667 -15.166 43.834 -20.499 60.501h-4zM376.002 819.999
c14.667 -0.666992 25.833 -4.5 33.5 -11.5s11.5 -15.167 11.5 -24.5s-1.83301 -17 -5.5 -23s-10.167 -13 -19.5 -21l-85 -76c-12.667 1.33301 -22.5 4.66602 -29.5 9.99902s-10.5 12 -10.5 20c0 6.66699 1.33301 12.334 4 17.001s6 9 10 13z" />
    <glyph glyph-name="Acircumflex" unicode="&#xc2;" horiz-adv-x="592" 
d="M298 751l-40.0029 -41.499c-15.333 -16.333 -32.666 -33.166 -51.999 -50.499c-11.333 1.33301 -20.666 4.83301 -27.999 10.5s-11 13.167 -11 22.5c0 7.33301 2.5 14.166 7.5 20.499s11.167 13.166 18.5 20.499l59 59c14.667 14.667 30.334 22 47.001 22
c10.667 0 19.667 -2.16699 27 -6.5s15 -10.833 23 -19.5l82 -93c0 -10 -3.16699 -18.167 -9.5 -24.5s-14.5 -9.5 -24.5 -9.5c-7.33301 0 -14.333 2 -21 6s-14.667 11.333 -24 22zM427.997 162.001h-267.997l-15 -43.5l-15.5 -46l-14.5 -42
c-4.66699 -13 -8.33398 -23.833 -11.001 -32.5c-9.33301 -4 -20.333 -6 -33 -6c-10.667 0 -20.167 2.83301 -28.5 8.5s-12.5 14.834 -12.5 27.501c0 6 1 12.167 3 18.5s4.33301 13.166 7 20.499l38.5 108l51 140.5l56 150l52.5 135.5
c5.33301 2.66699 13.333 5.33398 24 8.00098s21.667 4 33 4c13.333 0 26.166 -2 38.499 -6s20.166 -10.667 23.499 -20c16 -38.667 33.167 -82.834 51.5 -132.501l55.5 -152.5l53.5 -153.5l45.5 -136.5c-5.33301 -6 -11.666 -10.833 -18.999 -14.5
s-15.666 -5.5 -24.999 -5.5c-12.667 0 -22.334 2.83301 -29.001 8.5s-12.334 15.167 -17.001 28.5zM294 545.001l-25.001 -68.501l-29 -80.5l-30 -85l-28 -82h225l-31 90.5l-30.5 87.5l-27 77.5c-8.33301 23.667 -15.166 43.834 -20.499 60.501h-4z" />
    <glyph glyph-name="Atilde" unicode="&#xc3;" horiz-adv-x="592" 
d="M428 162h-267.997l-15 -43.5l-15.5 -46l-14.5 -42c-4.66699 -13 -8.33398 -23.833 -11.001 -32.5c-9.33301 -4 -20.333 -6 -33 -6c-10.667 0 -20.167 2.83301 -28.5 8.5s-12.5 14.834 -12.5 27.501c0 6 1 12.167 3 18.5s4.33301 13.166 7 20.499l38.5 108l51 140.5
l56 150l52.5 135.5c5.33301 2.66699 13.333 5.33398 24 8.00098s21.667 4 33 4c13.333 0 26.166 -2 38.499 -6s20.166 -10.667 23.499 -20c16 -38.667 33.167 -82.834 51.5 -132.501l55.5 -152.5l53.5 -153.5l45.5 -136.5c-5.33301 -6 -11.666 -10.833 -18.999 -14.5
s-15.666 -5.5 -24.999 -5.5c-12.667 0 -22.334 2.83301 -29.001 8.5s-12.334 15.167 -17.001 28.5zM294.003 545l-25.001 -68.501l-29 -80.5l-30 -85l-28 -82h225l-31 90.5l-30.5 87.5l-27 77.5c-8.33301 23.667 -15.166 43.834 -20.499 60.501h-4zM230.002 785.999
c14 0 27 -1.83398 39 -5.50098s23.167 -7.5 33.5 -11.5l29.5 -11.5c9.33301 -3.66699 18.333 -5.5 27 -5.5c12 0 20.833 3.5 26.5 10.5s9.83398 16.167 12.501 27.5h6c12 0 22.667 -2.83301 32 -8.5s14 -15.5 14 -29.5c0 -19.333 -6.66699 -34.5 -20 -45.5
s-31 -16.5 -53 -16.5c-14 0 -27.333 1.83301 -40 5.5s-24.5 7.66699 -35.5 12l-30.5 12c-9.33301 3.66699 -18 5.5 -26 5.5c-12 0 -20.667 -3.66699 -26 -11s-9.33301 -16.666 -12 -27.999h-6c-12 0 -22.667 3 -32 9s-14 15.667 -14 29c0 19.333 7.66699 34.5 23 45.5
s32.666 16.5 51.999 16.5z" />
    <glyph glyph-name="Adieresis" unicode="&#xc4;" horiz-adv-x="592" 
d="M428 162h-267.997l-15 -43.5l-15.5 -46l-14.5 -42c-4.66699 -13 -8.33398 -23.833 -11.001 -32.5c-9.33301 -4 -20.333 -6 -33 -6c-10.667 0 -20.167 2.83301 -28.5 8.5s-12.5 14.834 -12.5 27.501c0 6 1 12.167 3 18.5s4.33301 13.166 7 20.499l38.5 108l51 140.5
l56 150l52.5 135.5c5.33301 2.66699 13.333 5.33398 24 8.00098s21.667 4 33 4c13.333 0 26.166 -2 38.499 -6s20.166 -10.667 23.499 -20c16 -38.667 33.167 -82.834 51.5 -132.501l55.5 -152.5l53.5 -153.5l45.5 -136.5c-5.33301 -6 -11.666 -10.833 -18.999 -14.5
s-15.666 -5.5 -24.999 -5.5c-12.667 0 -22.334 2.83301 -29.001 8.5s-12.334 15.167 -17.001 28.5zM294.003 545l-25.001 -68.501l-29 -80.5l-30 -85l-28 -82h225l-31 90.5l-30.5 87.5l-27 77.5c-8.33301 23.667 -15.166 43.834 -20.499 60.501h-4zM259.002 737.999
c0 -13.333 -4.66699 -24.666 -14 -33.999s-21.333 -14 -36 -14c-14 0 -25.5 4.66699 -34.5 14s-13.5 20.666 -13.5 33.999s4.5 24.666 13.5 33.999s20.5 14 34.5 14c14.667 0 26.667 -4.66699 36 -14s14 -20.666 14 -33.999zM432.002 737.999
c0 -13.333 -4.83301 -24.666 -14.5 -33.999s-21.5 -14 -35.5 -14c-13.333 0 -24.833 4.66699 -34.5 14s-14.5 20.666 -14.5 33.999s4.83301 24.666 14.5 33.999s21.167 14 34.5 14c14 0 25.833 -4.66699 35.5 -14s14.5 -20.666 14.5 -33.999z" />
    <glyph glyph-name="Aring" unicode="&#xc5;" horiz-adv-x="592" 
d="M428 162h-267.997l-15 -43.5l-15.5 -46l-14.5 -42c-4.66699 -13 -8.33398 -23.833 -11.001 -32.5c-9.33301 -4 -20.333 -6 -33 -6c-10.667 0 -20.167 2.83301 -28.5 8.5s-12.5 14.834 -12.5 27.501c0 6 1 12.167 3 18.5s4.33301 13.166 7 20.499l38.5 108l51 140.5
l56 150l52.5 135.5c5.33301 2.66699 13.333 5.33398 24 8.00098s21.667 4 33 4c13.333 0 26.166 -2 38.499 -6s20.166 -10.667 23.499 -20c16 -38.667 33.167 -82.834 51.5 -132.501l55.5 -152.5l53.5 -153.5l45.5 -136.5c-5.33301 -6 -11.666 -10.833 -18.999 -14.5
s-15.666 -5.5 -24.999 -5.5c-12.667 0 -22.334 2.83301 -29.001 8.5s-12.334 15.167 -17.001 28.5zM294.003 545l-25.001 -68.501l-29 -80.5l-30 -85l-28 -82h225l-31 90.5l-30.5 87.5l-27 77.5c-8.33301 23.667 -15.166 43.834 -20.499 60.501h-4zM191.002 743.999
c0 26 9.33301 47.667 28 65s44.667 26 78 26c34 0 60.167 -8.66699 78.5 -26s27.5 -39 27.5 -65c0 -25.333 -9.16699 -46.666 -27.5 -63.999s-44.5 -26 -78.5 -26c-33.333 0 -59.333 8.66699 -78 26s-28 38.666 -28 63.999zM251.002 743.999
c0 -12.667 4.33301 -22.667 13 -30s19.667 -11 33 -11s24.5 3.66699 33.5 11s13.5 17.333 13.5 30c0 13.333 -4.5 23.666 -13.5 30.999s-20.167 11 -33.5 11s-24.333 -3.66699 -33 -11s-13 -17.666 -13 -30.999z" />
    <glyph glyph-name="AE" unicode="&#xc6;" horiz-adv-x="844" 
d="M397 613c10 0 19.667 -1.33301 29 -4s16.666 -6.33398 21.999 -11.001c8.66699 6.66699 20.334 10 35.001 10h295c2.66699 -3.33301 5 -7.83301 7 -13.5s3 -11.834 3 -18.501c0 -11.333 -2.83301 -20.333 -8.5 -27s-13.167 -10 -22.5 -10h-273v-193h263
c2.66699 -3.33301 5 -7.83301 7 -13.5s3 -11.834 3 -18.501c0 -11.333 -2.83301 -20.166 -8.5 -26.499s-13.167 -9.5 -22.5 -9.5h-242v-210h299c2 -3.33301 4.16699 -7.66602 6.5 -12.999s3.5 -11.666 3.5 -18.999c0 -11.333 -2.83301 -20.166 -8.5 -26.499
s-13.167 -9.5 -22.5 -9.5h-316c-12.667 0 -22.834 4 -30.501 12s-11.5 18.667 -11.5 32v118h-210l-86 -165l-12.5 -3.5c-3.66699 -1 -9.16699 -1.5 -16.5 -1.5c-26.667 0 -40 10.667 -40 32c0 6 1.33301 12.5 4 19.5s6.33398 14.833 11.001 23.5l27 51l42.5 78.5l52.5 97
l57.5 106l58.5 105.5l54 96c5.33301 3.33301 12.333 6.16602 21 8.49902s18.667 3.5 30 3.5zM230 229h174v312h-6z" />
    <glyph glyph-name="Ccedilla" unicode="&#xc7;" horiz-adv-x="588" 
d="M533 541c0 -9.33301 -2.83887 -17.3301 -8.50586 -23.9971s-12.167 -11.667 -19.5 -15c-17.333 12 -37.666 23.333 -60.999 34s-53.666 16 -90.999 16c-30.667 0 -59 -5.33301 -85 -16s-48.667 -26.334 -68 -47.001s-34.5 -46.667 -45.5 -78s-16.5 -67.333 -16.5 -108
c0 -41.333 5.33301 -77.333 16 -108s25.5 -56.334 44.5 -77.001s41.833 -36.167 68.5 -46.5s56.334 -15.5 89.001 -15.5c34.667 0 64.834 4.83301 90.501 14.5s47.167 21.167 64.5 34.5c6.66699 -2.66699 13 -7.5 19 -14.5s9 -15.167 9 -24.5c0 -14 -8 -26.667 -24 -38
c-13.333 -9.33301 -30.333 -17.5 -51 -24.5s-46.334 -11.833 -77.001 -14.5c14.667 -20.667 22 -45.334 22 -74.001c0 -32 -10 -57.333 -30 -76s-46 -28 -78 -28c-34.667 0 -52 12 -52 36c0 8.66699 2 16.667 6 24h15c24 0 41.5 5.16699 52.5 15.5s16.5 24.166 16.5 41.499
c0 9.33301 -1.66699 19.333 -5 30s-8.66602 21 -15.999 31c-38 2.66699 -73 11.334 -105 26.001s-59.833 35.167 -83.5 61.5s-42.167 58.333 -55.5 96s-20 81.167 -20 130.5c0 52.667 7.83301 98.834 23.5 138.501s36.834 72.834 63.501 99.501s57.834 46.667 93.501 60
s73.167 20 112.5 20c27.333 0 52.5 -2.33301 75.5 -7s42.667 -10.834 59 -18.501s29 -16.334 38 -26.001s13.5 -19.167 13.5 -28.5z" />
    <glyph glyph-name="Egrave" unicode="&#xc8;" horiz-adv-x="542" 
d="M145 0c-13.333 0 -24 3.99805 -32 11.998s-12 18.667 -12 32v520c0 13.333 4 24 12 32s18.667 12 32 12h332c2 -3.33301 4 -7.83301 6 -13.5s3 -11.834 3 -18.501c0 -11.333 -2.66699 -20.333 -8 -27s-13 -10 -23 -10h-273v-193h264c2 -3.33301 4 -7.83301 6 -13.5
s3 -11.834 3 -18.501c0 -11.333 -2.66699 -20.166 -8 -26.499s-13 -9.5 -23 -9.5h-242v-210h300c2 -3.33301 4 -7.66602 6 -12.999s3 -11.666 3 -18.999c0 -11.333 -2.66699 -20.166 -8 -26.499s-13 -9.5 -23 -9.5h-315zM191 767.998
c-0.666992 3.33301 -0.999023 7.33301 -0.999023 12c0 10.667 3.16699 19.5 9.5 26.5s14.5 10.5 24.5 10.5c14.667 0 26.667 -6 36 -18l84 -101c-0.666992 -10.667 -3.83398 -19 -9.50098 -25s-13.167 -9 -22.5 -9c-7.33301 0 -13.333 1.33301 -18 4
s-9.66699 6.66699 -15 12z" />
    <glyph glyph-name="Eacute" unicode="&#xc9;" horiz-adv-x="542" 
d="M145 0c-13.333 0 -24 3.99805 -32 11.998s-12 18.667 -12 32v520c0 13.333 4 24 12 32s18.667 12 32 12h332c2 -3.33301 4 -7.83301 6 -13.5s3 -11.834 3 -18.501c0 -11.333 -2.66699 -20.333 -8 -27s-13 -10 -23 -10h-273v-193h264c2 -3.33301 4 -7.83301 6 -13.5
s3 -11.834 3 -18.501c0 -11.333 -2.66699 -20.166 -8 -26.499s-13 -9.5 -23 -9.5h-242v-210h300c2 -3.33301 4 -7.66602 6 -12.999s3 -11.666 3 -18.999c0 -11.333 -2.66699 -20.166 -8 -26.499s-13 -9.5 -23 -9.5h-315zM370 819.998
c14.667 -0.666992 25.833 -4.5 33.5 -11.5s11.5 -15.167 11.5 -24.5s-1.83301 -17 -5.5 -23s-10.167 -13 -19.5 -21l-85 -76c-12.667 1.33301 -22.5 4.66602 -29.5 9.99902s-10.5 12 -10.5 20c0 6.66699 1.33301 12.334 4 17.001s6 9 10 13z" />
    <glyph glyph-name="Ecircumflex" unicode="&#xca;" horiz-adv-x="542" 
d="M145 0c-13.333 0 -24 3.99805 -32 11.998s-12 18.667 -12 32v520c0 13.333 4 24 12 32s18.667 12 32 12h332c2 -3.33301 4 -7.83301 6 -13.5s3 -11.834 3 -18.501c0 -11.333 -2.66699 -20.333 -8 -27s-13 -10 -23 -10h-273v-193h264c2 -3.33301 4 -7.83301 6 -13.5
s3 -11.834 3 -18.501c0 -11.333 -2.66699 -20.166 -8 -26.499s-13 -9.5 -23 -9.5h-242v-210h300c2 -3.33301 4 -7.66602 6 -12.999s3 -11.666 3 -18.999c0 -11.333 -2.66699 -20.166 -8 -26.499s-13 -9.5 -23 -9.5h-315zM296 750.998l-40.0029 -41.499
c-15.333 -16.333 -32.666 -33.166 -51.999 -50.499c-11.333 1.33301 -20.666 4.83301 -27.999 10.5s-11 13.167 -11 22.5c0 7.33301 2.5 14.166 7.5 20.499s11.167 13.166 18.5 20.499l59 59c14.667 14.667 30.334 22 47.001 22c10.667 0 19.667 -2.16699 27 -6.5
s15 -10.833 23 -19.5l82 -93c0 -10 -3.16699 -18.167 -9.5 -24.5s-14.5 -9.5 -24.5 -9.5c-7.33301 0 -14.333 2 -21 6s-14.667 11.333 -24 22z" />
    <glyph glyph-name="Edieresis" unicode="&#xcb;" horiz-adv-x="542" 
d="M145 0c-13.333 0 -24 3.99805 -32 11.998s-12 18.667 -12 32v520c0 13.333 4 24 12 32s18.667 12 32 12h332c2 -3.33301 4 -7.83301 6 -13.5s3 -11.834 3 -18.501c0 -11.333 -2.66699 -20.333 -8 -27s-13 -10 -23 -10h-273v-193h264c2 -3.33301 4 -7.83301 6 -13.5
s3 -11.834 3 -18.501c0 -11.333 -2.66699 -20.166 -8 -26.499s-13 -9.5 -23 -9.5h-242v-210h300c2 -3.33301 4 -7.66602 6 -12.999s3 -11.666 3 -18.999c0 -11.333 -2.66699 -20.166 -8 -26.499s-13 -9.5 -23 -9.5h-315zM264 728.998
c0 -13.333 -4.66699 -24.666 -14 -33.999s-21.333 -14 -36 -14c-14 0 -25.5 4.66699 -34.5 14s-13.5 20.666 -13.5 33.999s4.5 24.666 13.5 33.999s20.5 14 34.5 14c14.667 0 26.667 -4.66699 36 -14s14 -20.666 14 -33.999zM437 728.998
c0 -13.333 -4.83301 -24.666 -14.5 -33.999s-21.5 -14 -35.5 -14c-13.333 0 -24.833 4.66699 -34.5 14s-14.5 20.666 -14.5 33.999s4.83301 24.666 14.5 33.999s21.167 14 34.5 14c14 0 25.833 -4.66699 35.5 -14s14.5 -20.666 14.5 -33.999z" />
    <glyph glyph-name="Igrave" unicode="&#xcc;" horiz-adv-x="262" 
d="M171 2c-3.33301 -1.33301 -8.33301 -2.83301 -15 -4.5s-14 -2.5 -22 -2.5c-29.333 0 -44 12.333 -44 37v574c3.33301 1.33301 8.5 2.83301 15.5 4.5s14.5 2.5 22.5 2.5c28.667 0 43 -12.333 43 -37v-574zM4 768c-0.666992 3.33301 -0.999023 7.33301 -0.999023 12
c0 10.667 3.16699 19.5 9.5 26.5s14.5 10.5 24.5 10.5c14.667 0 26.667 -6 36 -18l84 -101c-0.666992 -10.667 -3.83398 -19 -9.50098 -25s-13.167 -9 -22.5 -9c-7.33301 0 -13.333 1.33301 -18 4s-9.66699 6.66699 -15 12z" />
    <glyph glyph-name="Iacute" unicode="&#xcd;" horiz-adv-x="262" 
d="M171 2c-3.33301 -1.33301 -8.33301 -2.83301 -15 -4.5s-14 -2.5 -22 -2.5c-29.333 0 -44 12.333 -44 37v574c3.33301 1.33301 8.5 2.83301 15.5 4.5s14.5 2.5 22.5 2.5c28.667 0 43 -12.333 43 -37v-574zM204 820c14.667 -0.666992 25.833 -4.5 33.5 -11.5
s11.5 -15.167 11.5 -24.5s-1.83301 -17 -5.5 -23s-10.167 -13 -19.5 -21l-85 -76c-12.667 1.33301 -22.5 4.66602 -29.5 9.99902s-10.5 12 -10.5 20c0 6.66699 1.33301 12.334 4 17.001s6 9 10 13z" />
    <glyph glyph-name="Icircumflex" unicode="&#xce;" horiz-adv-x="262" 
d="M171 2c-3.33301 -1.33301 -8.33301 -2.83301 -15 -4.5s-14 -2.5 -22 -2.5c-29.333 0 -44 12.333 -44 37v574c3.33301 1.33301 8.5 2.83301 15.5 4.5s14.5 2.5 22.5 2.5c28.667 0 43 -12.333 43 -37v-574zM132 751l-40.0029 -41.499
c-15.333 -16.333 -32.666 -33.166 -51.999 -50.499c-11.333 1.33301 -20.666 4.83301 -27.999 10.5s-11 13.167 -11 22.5c0 7.33301 2.5 14.166 7.5 20.499s11.167 13.166 18.5 20.499l59 59c14.667 14.667 30.334 22 47.001 22c10.667 0 19.667 -2.16699 27 -6.5
s15 -10.833 23 -19.5l82 -93c0 -10 -3.16699 -18.167 -9.5 -24.5s-14.5 -9.5 -24.5 -9.5c-7.33301 0 -14.333 2 -21 6s-14.667 11.333 -24 22z" />
    <glyph glyph-name="Idieresis" unicode="&#xcf;" horiz-adv-x="262" 
d="M171 2c-3.33301 -1.33301 -8.33301 -2.83301 -15 -4.5s-14 -2.5 -22 -2.5c-29.333 0 -44 12.333 -44 37v574c3.33301 1.33301 8.5 2.83301 15.5 4.5s14.5 2.5 22.5 2.5c28.667 0 43 -12.333 43 -37v-574zM94 729c0 -13.333 -4.66699 -24.666 -14 -33.999
s-21.333 -14 -36 -14c-14 0 -25.5 4.66699 -34.5 14s-13.5 20.666 -13.5 33.999s4.5 24.666 13.5 33.999s20.5 14 34.5 14c14.667 0 26.667 -4.66699 36 -14s14 -20.666 14 -33.999zM267 729c0 -13.333 -4.83301 -24.666 -14.5 -33.999s-21.5 -14 -35.5 -14
c-13.333 0 -24.833 4.66699 -34.5 14s-14.5 20.666 -14.5 33.999s4.83301 24.666 14.5 33.999s21.167 14 34.5 14c14 0 25.833 -4.66699 35.5 -14s14.5 -20.666 14.5 -33.999z" />
    <glyph glyph-name="Eth" unicode="&#xd0;" horiz-adv-x="682" 
d="M627 311c0 -54.667 -7.49902 -102.169 -22.499 -142.502s-36.333 -73.833 -64 -100.5s-61.167 -46.5 -100.5 -59.5s-83.333 -19.5 -132 -19.5c-21.333 0 -45.333 0.833008 -72 2.5s-52 6.16699 -76 13.5c-28 8.66699 -42 24 -42 46v219h-98
c-2.66699 3.33301 -5 7.83301 -7 13.5s-3 11.834 -3 18.501c0 11.333 2.83301 20.166 8.5 26.499s13.167 9.5 22.5 9.5h77v227c0 10.667 2.66699 18.834 8 24.501s13.666 10.167 24.999 13.5c20.667 6.66699 44 11 70 13s52 3 78 3c48.667 0 93.167 -6.5 133.5 -19.5
s74.833 -32.333 103.5 -58s51 -57.667 67 -96s24 -83.166 24 -134.499zM544.001 310.998c0 42.667 -6.5 79.165 -19.5 109.498s-30.667 55.166 -53 74.499s-48.333 33.5 -78 42.5s-61.5 13.5 -95.5 13.5c-21.333 0 -39.833 -0.666992 -55.5 -2s-30.167 -3.33301 -43.5 -6
v-205h154c2 -3.33301 4 -7.66602 6 -12.999s3 -11.666 3 -18.999c0 -11.333 -2.83301 -20.166 -8.5 -26.499s-13.167 -9.5 -22.5 -9.5h-132v-203c16 -4 33.167 -6.66699 51.5 -8s37.166 -2 56.499 -2c78.667 0 137.834 21.333 177.501 64s59.5 106 59.5 190z" />
    <glyph glyph-name="Ntilde" unicode="&#xd1;" horiz-adv-x="660" 
d="M133 -5c-29.333 0 -44.001 12 -44.001 36v565c12 12 30 18 54 18c16 0 29.667 -3.16699 41 -9.5s21.666 -17.833 30.999 -34.5l191 -320l25 -44.5l25 -47l22.5 -44l17.5 -34.5l4 1c-5.33301 54 -8.5 108.333 -9.5 163s-1.5 108 -1.5 160v202
c4 1.33301 9.33301 2.83301 16 4.5s14 2.5 22 2.5c29.333 0 44 -12 44 -36v-566c-6 -5.33301 -13.667 -9.5 -23 -12.5s-19.666 -4.5 -30.999 -4.5c-16 0 -29.667 3.16699 -41 9.5s-21.666 17.833 -30.999 34.5l-190 320l-25.5 44l-26 47l-23 44l-17.5 35l-4 -1
c3.33301 -32 6 -68.5 8 -109.5s3 -79.833 3 -116.5v-299c-3.33301 -1.33301 -8.5 -2.83301 -15.5 -4.5s-14.167 -2.5 -21.5 -2.5zM249.999 786c14 0 27 -1.83398 39 -5.50098s23.167 -7.5 33.5 -11.5l29.5 -11.5c9.33301 -3.66699 18.333 -5.5 27 -5.5
c12 0 20.833 3.5 26.5 10.5s9.83398 16.167 12.501 27.5h6c12 0 22.667 -2.83301 32 -8.5s14 -15.5 14 -29.5c0 -19.333 -6.66699 -34.5 -20 -45.5s-31 -16.5 -53 -16.5c-14 0 -27.333 1.83301 -40 5.5s-24.5 7.66699 -35.5 12l-30.5 12c-9.33301 3.66699 -18 5.5 -26 5.5
c-12 0 -20.667 -3.66699 -26 -11s-9.33301 -16.666 -12 -27.999h-6c-12 0 -22.667 3 -32 9s-14 15.667 -14 29c0 19.333 7.66699 34.5 23 45.5s32.666 16.5 51.999 16.5z" />
    <glyph glyph-name="Ograve" unicode="&#xd2;" horiz-adv-x="689" 
d="M634 304c0 -52 -7.33496 -97.833 -22.002 -137.5s-35 -72.667 -61 -99s-56.667 -46.333 -92 -60s-73.666 -20.5 -114.999 -20.5s-79.666 6.83301 -114.999 20.5s-66 33.667 -92 60s-46.333 59.333 -61 99s-22 85.5 -22 137.5s7.5 97.667 22.5 137s35.5 72.333 61.5 99
s56.667 46.834 92 60.501s73.333 20.5 114 20.5s78.667 -6.83301 114 -20.5s66 -33.834 92 -60.501s46.5 -59.667 61.5 -99s22.5 -85 22.5 -137zM550.998 304c0 80 -18.832 141.333 -56.499 184s-87.834 64 -150.501 64c-31.333 0 -59.666 -5.5 -84.999 -16.5
s-47 -27 -65 -48s-31.833 -46.833 -41.5 -77.5s-14.5 -66 -14.5 -106c0 -80 18.667 -141.333 56 -184s87.333 -64 150 -64c63.333 0 113.666 21.333 150.999 64s56 104 56 184zM222.999 768c-0.666992 3.33301 -0.999023 7.33301 -0.999023 12
c0 10.667 3.16699 19.5 9.5 26.5s14.5 10.5 24.5 10.5c14.667 0 26.667 -6 36 -18l84 -101c-0.666992 -10.667 -3.83398 -19 -9.50098 -25s-13.167 -9 -22.5 -9c-7.33301 0 -13.333 1.33301 -18 4s-9.66699 6.66699 -15 12z" />
    <glyph glyph-name="Oacute" unicode="&#xd3;" horiz-adv-x="689" 
d="M634 304c0 -52 -7.33496 -97.833 -22.002 -137.5s-35 -72.667 -61 -99s-56.667 -46.333 -92 -60s-73.666 -20.5 -114.999 -20.5s-79.666 6.83301 -114.999 20.5s-66 33.667 -92 60s-46.333 59.333 -61 99s-22 85.5 -22 137.5s7.5 97.667 22.5 137s35.5 72.333 61.5 99
s56.667 46.834 92 60.501s73.333 20.5 114 20.5s78.667 -6.83301 114 -20.5s66 -33.834 92 -60.501s46.5 -59.667 61.5 -99s22.5 -85 22.5 -137zM550.998 304c0 80 -18.832 141.333 -56.499 184s-87.834 64 -150.501 64c-31.333 0 -59.666 -5.5 -84.999 -16.5
s-47 -27 -65 -48s-31.833 -46.833 -41.5 -77.5s-14.5 -66 -14.5 -106c0 -80 18.667 -141.333 56 -184s87.333 -64 150 -64c63.333 0 113.666 21.333 150.999 64s56 104 56 184zM421.999 820c14.667 -0.666992 25.833 -4.5 33.5 -11.5s11.5 -15.167 11.5 -24.5
s-1.83301 -17 -5.5 -23s-10.167 -13 -19.5 -21l-85 -76c-12.667 1.33301 -22.5 4.66602 -29.5 9.99902s-10.5 12 -10.5 20c0 6.66699 1.33301 12.334 4 17.001s6 9 10 13z" />
    <glyph glyph-name="Ocircumflex" unicode="&#xd4;" horiz-adv-x="689" 
d="M634 304c0 -52 -7.33496 -97.833 -22.002 -137.5s-35 -72.667 -61 -99s-56.667 -46.333 -92 -60s-73.666 -20.5 -114.999 -20.5s-79.666 6.83301 -114.999 20.5s-66 33.667 -92 60s-46.333 59.333 -61 99s-22 85.5 -22 137.5s7.5 97.667 22.5 137s35.5 72.333 61.5 99
s56.667 46.834 92 60.501s73.333 20.5 114 20.5s78.667 -6.83301 114 -20.5s66 -33.834 92 -60.501s46.5 -59.667 61.5 -99s22.5 -85 22.5 -137zM550.998 304c0 80 -18.832 141.333 -56.499 184s-87.834 64 -150.501 64c-31.333 0 -59.666 -5.5 -84.999 -16.5
s-47 -27 -65 -48s-31.833 -46.833 -41.5 -77.5s-14.5 -66 -14.5 -106c0 -80 18.667 -141.333 56 -184s87.333 -64 150 -64c63.333 0 113.666 21.333 150.999 64s56 104 56 184zM342.999 751l-40.0029 -41.499c-15.333 -16.333 -32.666 -33.166 -51.999 -50.499
c-11.333 1.33301 -20.666 4.83301 -27.999 10.5s-11 13.167 -11 22.5c0 7.33301 2.5 14.166 7.5 20.499s11.167 13.166 18.5 20.499l59 59c14.667 14.667 30.334 22 47.001 22c10.667 0 19.667 -2.16699 27 -6.5s15 -10.833 23 -19.5l82 -93
c0 -10 -3.16699 -18.167 -9.5 -24.5s-14.5 -9.5 -24.5 -9.5c-7.33301 0 -14.333 2 -21 6s-14.667 11.333 -24 22z" />
    <glyph glyph-name="Otilde" unicode="&#xd5;" horiz-adv-x="689" 
d="M634 304c0 -52 -7.33496 -97.833 -22.002 -137.5s-35 -72.667 -61 -99s-56.667 -46.333 -92 -60s-73.666 -20.5 -114.999 -20.5s-79.666 6.83301 -114.999 20.5s-66 33.667 -92 60s-46.333 59.333 -61 99s-22 85.5 -22 137.5s7.5 97.667 22.5 137s35.5 72.333 61.5 99
s56.667 46.834 92 60.501s73.333 20.5 114 20.5s78.667 -6.83301 114 -20.5s66 -33.834 92 -60.501s46.5 -59.667 61.5 -99s22.5 -85 22.5 -137zM550.998 304c0 80 -18.832 141.333 -56.499 184s-87.834 64 -150.501 64c-31.333 0 -59.666 -5.5 -84.999 -16.5
s-47 -27 -65 -48s-31.833 -46.833 -41.5 -77.5s-14.5 -66 -14.5 -106c0 -80 18.667 -141.333 56 -184s87.333 -64 150 -64c63.333 0 113.666 21.333 150.999 64s56 104 56 184zM271.999 786c14 0 27 -1.83398 39 -5.50098s23.167 -7.5 33.5 -11.5l29.5 -11.5
c9.33301 -3.66699 18.333 -5.5 27 -5.5c12 0 20.833 3.5 26.5 10.5s9.83398 16.167 12.501 27.5h6c12 0 22.667 -2.83301 32 -8.5s14 -15.5 14 -29.5c0 -19.333 -6.66699 -34.5 -20 -45.5s-31 -16.5 -53 -16.5c-14 0 -27.333 1.83301 -40 5.5s-24.5 7.66699 -35.5 12
l-30.5 12c-9.33301 3.66699 -18 5.5 -26 5.5c-12 0 -20.667 -3.66699 -26 -11s-9.33301 -16.666 -12 -27.999h-6c-12 0 -22.667 3 -32 9s-14 15.667 -14 29c0 19.333 7.66699 34.5 23 45.5s32.666 16.5 51.999 16.5z" />
    <glyph glyph-name="Odieresis" unicode="&#xd6;" horiz-adv-x="689" 
d="M634 304c0 -52 -7.33496 -97.833 -22.002 -137.5s-35 -72.667 -61 -99s-56.667 -46.333 -92 -60s-73.666 -20.5 -114.999 -20.5s-79.666 6.83301 -114.999 20.5s-66 33.667 -92 60s-46.333 59.333 -61 99s-22 85.5 -22 137.5s7.5 97.667 22.5 137s35.5 72.333 61.5 99
s56.667 46.834 92 60.501s73.333 20.5 114 20.5s78.667 -6.83301 114 -20.5s66 -33.834 92 -60.501s46.5 -59.667 61.5 -99s22.5 -85 22.5 -137zM550.998 304c0 80 -18.832 141.333 -56.499 184s-87.834 64 -150.501 64c-31.333 0 -59.666 -5.5 -84.999 -16.5
s-47 -27 -65 -48s-31.833 -46.833 -41.5 -77.5s-14.5 -66 -14.5 -106c0 -80 18.667 -141.333 56 -184s87.333 -64 150 -64c63.333 0 113.666 21.333 150.999 64s56 104 56 184zM305.999 729c0 -13.333 -4.66699 -24.666 -14 -33.999s-21.333 -14 -36 -14
c-14 0 -25.5 4.66699 -34.5 14s-13.5 20.666 -13.5 33.999s4.5 24.666 13.5 33.999s20.5 14 34.5 14c14.667 0 26.667 -4.66699 36 -14s14 -20.666 14 -33.999zM478.999 729c0 -13.333 -4.83301 -24.666 -14.5 -33.999s-21.5 -14 -35.5 -14
c-13.333 0 -24.833 4.66699 -34.5 14s-14.5 20.666 -14.5 33.999s4.83301 24.666 14.5 33.999s21.167 14 34.5 14c14 0 25.833 -4.66699 35.5 -14s14.5 -20.666 14.5 -33.999z" />
    <glyph glyph-name="multiply" unicode="&#xd7;" horiz-adv-x="495" 
d="M298 289l138 -147.998c-3.33301 -8.66699 -8.33301 -16.667 -15 -24s-15.334 -11 -26.001 -11c-6 0 -11.667 1.5 -17 4.5s-9.66602 6.5 -12.999 10.5l-116 129l-148 -148c-8.66699 3.33301 -17.667 8.16602 -27 14.499s-14 14.5 -14 24.5c0 6 2 11.667 6 17
s8.66699 10.666 14 15.999l123 120l-141 150c2.66699 8.66699 7.33398 17 14.001 25s15 12 25 12c6.66699 0 12.667 -1.83301 18 -5.5s9.66602 -7.5 12.999 -11.5l120 -131l139 146c8 -2.66699 16 -7.16699 24 -13.5s12 -14.833 12 -25.5c0 -6 -1.66699 -11.667 -5 -17
s-7.33301 -10.333 -12 -15z" />
    <glyph glyph-name="Oslash" unicode="&#xd8;" horiz-adv-x="689" 
d="M634 304c0 -52 -7.33691 -97.833 -22.0039 -137.5s-35 -72.667 -61 -99s-56.667 -46.333 -92 -60s-73.666 -20.5 -114.999 -20.5c-73.333 0 -135.666 21 -186.999 63l-61 -66c-17.333 3.33301 -29.5 9.16602 -36.5 17.499s-10.5 16.166 -10.5 23.499
c0 8.66699 2.16699 16.167 6.5 22.5s10.833 13.833 19.5 22.5l33 34c-17.333 25.333 -30.666 54.833 -39.999 88.5s-14 70.834 -14 111.501c0 52 7.5 97.667 22.5 137s35.5 72.333 61.5 99s56.667 46.834 92 60.501s73.333 20.5 114 20.5c34 0 66.167 -5 96.5 -15
s57.833 -24.667 82.5 -44l58 64c13.333 -3.33301 24.5 -8.33301 33.5 -15s13.5 -14.667 13.5 -24c0 -6 -1.83301 -12.333 -5.5 -19s-10.167 -15.667 -19.5 -27l-29 -32c18.667 -26 33.334 -56.167 44.001 -90.5s16 -72.5 16 -114.5zM551.996 304
c0 29.333 -2.83203 56.168 -8.49902 80.501s-13.834 46.166 -24.501 65.499l-310 -344c17.333 -16 37.333 -28.333 60 -37s47.667 -13 75 -13c63.333 0 113.833 21.333 151.5 64s56.5 104 56.5 184zM136.997 304.002c0 -54.667 9.66602 -101.333 28.999 -140l307 343
c-35.333 30 -78.333 45 -129 45c-31.333 0 -59.666 -5.5 -84.999 -16.5s-47 -27 -65 -48s-32 -46.833 -42 -77.5s-15 -66 -15 -106z" />
    <glyph glyph-name="Ugrave" unicode="&#xd9;" horiz-adv-x="649" 
d="M561 210c0 -34 -5.16895 -64.667 -15.502 -92s-25.666 -50.666 -45.999 -69.999s-45.166 -34.333 -74.499 -45s-63 -16 -101 -16s-71.667 5.33301 -101 16s-54 25.667 -74 45s-35.167 42.666 -45.5 69.999s-15.5 58 -15.5 92v396c3.33301 1.33301 8.5 2.83301 15.5 4.5
s14.5 2.5 22.5 2.5c28.667 0 43 -12.333 43 -37v-359c0 -26.667 4 -50 12 -70s18.833 -36.833 32.5 -50.5s30 -23.834 49 -30.501s39.5 -10 61.5 -10s42.5 3.33301 61.5 10s35.333 16.834 49 30.501s24.5 30.5 32.5 50.5s12 43.333 12 70v389
c3.33301 1.33301 8.5 2.83301 15.5 4.5s14.5 2.5 22.5 2.5c29.333 0 44 -12.333 44 -37v-366zM197.998 768c-0.666992 3.33301 -0.999023 7.33301 -0.999023 12c0 10.667 3.16699 19.5 9.5 26.5s14.5 10.5 24.5 10.5c14.667 0 26.667 -6 36 -18l84 -101
c-0.666992 -10.667 -3.83398 -19 -9.50098 -25s-13.167 -9 -22.5 -9c-7.33301 0 -13.333 1.33301 -18 4s-9.66699 6.66699 -15 12z" />
    <glyph glyph-name="Uacute" unicode="&#xda;" horiz-adv-x="649" 
d="M561 210c0 -34 -5.16895 -64.667 -15.502 -92s-25.666 -50.666 -45.999 -69.999s-45.166 -34.333 -74.499 -45s-63 -16 -101 -16s-71.667 5.33301 -101 16s-54 25.667 -74 45s-35.167 42.666 -45.5 69.999s-15.5 58 -15.5 92v396c3.33301 1.33301 8.5 2.83301 15.5 4.5
s14.5 2.5 22.5 2.5c28.667 0 43 -12.333 43 -37v-359c0 -26.667 4 -50 12 -70s18.833 -36.833 32.5 -50.5s30 -23.834 49 -30.501s39.5 -10 61.5 -10s42.5 3.33301 61.5 10s35.333 16.834 49 30.501s24.5 30.5 32.5 50.5s12 43.333 12 70v389
c3.33301 1.33301 8.5 2.83301 15.5 4.5s14.5 2.5 22.5 2.5c29.333 0 44 -12.333 44 -37v-366zM400.998 820c14.667 -0.666992 25.833 -4.5 33.5 -11.5s11.5 -15.167 11.5 -24.5s-1.83301 -17 -5.5 -23s-10.167 -13 -19.5 -21l-85 -76
c-12.667 1.33301 -22.5 4.66602 -29.5 9.99902s-10.5 12 -10.5 20c0 6.66699 1.33301 12.334 4 17.001s6 9 10 13z" />
    <glyph glyph-name="Ucircumflex" unicode="&#xdb;" horiz-adv-x="649" 
d="M561 210c0 -34 -5.16895 -64.667 -15.502 -92s-25.666 -50.666 -45.999 -69.999s-45.166 -34.333 -74.499 -45s-63 -16 -101 -16s-71.667 5.33301 -101 16s-54 25.667 -74 45s-35.167 42.666 -45.5 69.999s-15.5 58 -15.5 92v396c3.33301 1.33301 8.5 2.83301 15.5 4.5
s14.5 2.5 22.5 2.5c28.667 0 43 -12.333 43 -37v-359c0 -26.667 4 -50 12 -70s18.833 -36.833 32.5 -50.5s30 -23.834 49 -30.501s39.5 -10 61.5 -10s42.5 3.33301 61.5 10s35.333 16.834 49 30.501s24.5 30.5 32.5 50.5s12 43.333 12 70v389
c3.33301 1.33301 8.5 2.83301 15.5 4.5s14.5 2.5 22.5 2.5c29.333 0 44 -12.333 44 -37v-366zM328.998 751l-40.0029 -41.499c-15.333 -16.333 -32.666 -33.166 -51.999 -50.499c-11.333 1.33301 -20.666 4.83301 -27.999 10.5s-11 13.167 -11 22.5
c0 7.33301 2.5 14.166 7.5 20.499s11.167 13.166 18.5 20.499l59 59c14.667 14.667 30.334 22 47.001 22c10.667 0 19.667 -2.16699 27 -6.5s15 -10.833 23 -19.5l82 -93c0 -10 -3.16699 -18.167 -9.5 -24.5s-14.5 -9.5 -24.5 -9.5c-7.33301 0 -14.333 2 -21 6
s-14.667 11.333 -24 22z" />
    <glyph glyph-name="Udieresis" unicode="&#xdc;" horiz-adv-x="649" 
d="M561 210c0 -34 -5.16895 -64.667 -15.502 -92s-25.666 -50.666 -45.999 -69.999s-45.166 -34.333 -74.499 -45s-63 -16 -101 -16s-71.667 5.33301 -101 16s-54 25.667 -74 45s-35.167 42.666 -45.5 69.999s-15.5 58 -15.5 92v396c3.33301 1.33301 8.5 2.83301 15.5 4.5
s14.5 2.5 22.5 2.5c28.667 0 43 -12.333 43 -37v-359c0 -26.667 4 -50 12 -70s18.833 -36.833 32.5 -50.5s30 -23.834 49 -30.501s39.5 -10 61.5 -10s42.5 3.33301 61.5 10s35.333 16.834 49 30.501s24.5 30.5 32.5 50.5s12 43.333 12 70v389
c3.33301 1.33301 8.5 2.83301 15.5 4.5s14.5 2.5 22.5 2.5c29.333 0 44 -12.333 44 -37v-366zM285.998 729c0 -13.333 -4.66699 -24.666 -14 -33.999s-21.333 -14 -36 -14c-14 0 -25.5 4.66699 -34.5 14s-13.5 20.666 -13.5 33.999s4.5 24.666 13.5 33.999s20.5 14 34.5 14
c14.667 0 26.667 -4.66699 36 -14s14 -20.666 14 -33.999zM458.998 729c0 -13.333 -4.83301 -24.666 -14.5 -33.999s-21.5 -14 -35.5 -14c-13.333 0 -24.833 4.66699 -34.5 14s-14.5 20.666 -14.5 33.999s4.83301 24.666 14.5 33.999s21.167 14 34.5 14
c14 0 25.833 -4.66699 35.5 -14s14.5 -20.666 14.5 -33.999z" />
    <glyph glyph-name="Yacute" unicode="&#xdd;" 
d="M523 580c0 -7.33301 -5.00098 -21.5 -15.001 -42.5s-24 -47.167 -42 -78.5l-64.5 -107l-82.5 -127v-223c-3.33301 -1.33301 -8.5 -2.83301 -15.5 -4.5s-14.167 -2.5 -21.5 -2.5c-29.333 0 -44 12.333 -44 37v193l-57.5 87l-58.5 93l-55 92
c-17.333 30 -32.666 58.333 -45.999 85c2.66699 7.33301 7.66699 14.5 15 21.5s17 10.5 29 10.5c12.667 0 22.5 -3.33301 29.5 -10s14.167 -16.667 21.5 -30l37.5 -66l44 -77l43.5 -75.5l36 -60.5h4c34.667 58 65.5 112 92.5 162l80.5 150c4 2.66699 8.83301 4.5 14.5 5.5
s11.167 1.5 16.5 1.5c25.333 0 38 -11.333 38 -34zM344.999 820c14.667 -0.666992 25.833 -4.5 33.5 -11.5s11.5 -15.167 11.5 -24.5s-1.83301 -17 -5.5 -23s-10.167 -13 -19.5 -21l-85 -76c-12.667 1.33301 -22.5 4.66602 -29.5 9.99902s-10.5 12 -10.5 20
c0 6.66699 1.33301 12.334 4 17.001s6 9 10 13z" />
    <glyph glyph-name="Thorn" unicode="&#xde;" horiz-adv-x="575" 
d="M89 607c3.33301 1.33301 8.5 2.66699 15.5 4s14.167 2 21.5 2c29.333 0 44 -12 44 -36v-80h128c75.333 0 131.5 -17.167 168.5 -51.5s55.5 -81.166 55.5 -140.499c0 -28.667 -4.66699 -54.834 -14 -78.501s-23.333 -43.834 -42 -60.501s-42 -29.667 -70 -39
s-60.667 -14 -98 -14h-128v-112c-3.33301 -1.33301 -8.33301 -2.66602 -15 -3.99902s-13.667 -2 -21 -2c-30 0 -45 12 -45 36v576zM170 182.001h109c50.667 0 90.334 10 119.001 30s43 51 43 93s-14.333 73 -43 93s-68.334 30 -119.001 30h-109v-246z" />
    <glyph glyph-name="germandbls" unicode="&#xdf;" horiz-adv-x="577" 
d="M160 -2c-3.33301 -1.33301 -8.16797 -2.66504 -14.501 -3.99805s-13.166 -2 -20.499 -2c-30 0 -45 12.333 -45 37v446c0 31.333 5 59.166 15 83.499s23.833 44.666 41.5 60.999s38.5 28.833 62.5 37.5s50 13 78 13s54.167 -4.16699 78.5 -12.5s45.5 -21.166 63.5 -38.499
s32.167 -39 42.5 -65s15.5 -56.333 15.5 -91c0 -22.667 -11.667 -38.667 -35 -48l-44 -17c-17.333 -8.66699 -29.5 -17 -36.5 -25s-10.5 -19 -10.5 -33c0 -13.333 4 -24.833 12 -34.5s22.667 -21.167 44 -34.5c20.667 -12 39 -23.333 55 -34s29.333 -21.834 40 -33.501
s18.834 -24.5 24.501 -38.5s8.5 -30.333 8.5 -49c0 -44.667 -15.333 -78 -46 -100s-70.334 -33 -119.001 -33c-38.667 0 -68.834 6 -90.501 18s-32.5 26.667 -32.5 44c0 8 2 16 6 24s10.667 13.667 20 17c12.667 -10 27 -18.333 43 -25s35 -10 57 -10
c24 0 43.5 6.16699 58.5 18.5s22.5 28.166 22.5 47.499c0 8.66699 -1.16699 16.834 -3.5 24.501s-6.66602 15 -12.999 22s-15 14.167 -26 21.5s-24.833 15.666 -41.5 24.999c-33.333 17.333 -58.5 36 -75.5 56s-25.5 45 -25.5 75c0 28 7.16699 50.833 21.5 68.5
s35.5 32.5 63.5 44.5l43 18c0 18.667 -3 36 -9 52s-14.167 29.667 -24.5 41s-23 20.333 -38 27s-31.5 10 -49.5 10c-15.333 0 -30 -2.33301 -44 -7s-26.333 -12.167 -37 -22.5s-19.167 -23.666 -25.5 -39.999s-9.5 -35.833 -9.5 -58.5v-476z" />
    <glyph glyph-name="agrave" unicode="&#xe0;" horiz-adv-x="499" 
d="M240 52c28 0 51.1689 2.83203 69.502 8.49902s31.5 11.167 39.5 16.5v145l-124 -13c-34.667 -3.33301 -60.334 -11.166 -77.001 -23.499s-25 -30.5 -25 -54.5c0 -25.333 9.66699 -44.833 29 -58.5s48.666 -20.5 87.999 -20.5zM239.002 474.999
c58 0 104 -12.9971 138 -38.9971s51 -67 51 -123v-237c0 -14.667 -2.83301 -25.834 -8.5 -33.501s-14.167 -14.834 -25.5 -21.501c-16 -9.33301 -37.167 -17.5 -63.5 -24.5s-56.5 -10.5 -90.5 -10.5c-62.667 0 -111.167 12.333 -145.5 37s-51.5 60.334 -51.5 107.001
c0 44 14.333 77.167 43 99.5s69 36.166 121 41.499l142 14v28c0 33.333 -10 57.666 -30 72.999s-47 23 -81 23c-28 0 -54.333 -4 -79 -12s-46.667 -17 -66 -27c-5.33301 4.66699 -10.166 10 -14.499 16s-6.5 12.667 -6.5 20c0 9.33301 2.33301 17 7 23s12 11.667 22 17
c18 9.33301 38.667 16.5 62 21.5s48.666 7.5 75.999 7.5zM118.002 634.002c-1.33301 6.66699 -2 10.999 -2 12.999c0 10.667 3.5 19.334 10.5 26.001s16.167 10 27.5 10c14 0 25.667 -5.66699 35 -17l90 -113c-0.666992 -10.667 -4 -19.167 -10 -25.5s-13.667 -9.5 -23 -9.5
c-7.33301 0 -13.5 1.33301 -18.5 4s-10.167 6.66699 -15.5 12z" />
    <glyph glyph-name="aacute" unicode="&#xe1;" horiz-adv-x="499" 
d="M240 52c28 0 51.1689 2.83203 69.502 8.49902s31.5 11.167 39.5 16.5v145l-124 -13c-34.667 -3.33301 -60.334 -11.166 -77.001 -23.499s-25 -30.5 -25 -54.5c0 -25.333 9.66699 -44.833 29 -58.5s48.666 -20.5 87.999 -20.5zM239.002 474.999
c58 0 104 -12.9971 138 -38.9971s51 -67 51 -123v-237c0 -14.667 -2.83301 -25.834 -8.5 -33.501s-14.167 -14.834 -25.5 -21.501c-16 -9.33301 -37.167 -17.5 -63.5 -24.5s-56.5 -10.5 -90.5 -10.5c-62.667 0 -111.167 12.333 -145.5 37s-51.5 60.334 -51.5 107.001
c0 44 14.333 77.167 43 99.5s69 36.166 121 41.499l142 14v28c0 33.333 -10 57.666 -30 72.999s-47 23 -81 23c-28 0 -54.333 -4 -79 -12s-46.667 -17 -66 -27c-5.33301 4.66699 -10.166 10 -14.499 16s-6.5 12.667 -6.5 20c0 9.33301 2.33301 17 7 23s12 11.667 22 17
c18 9.33301 38.667 16.5 62 21.5s48.666 7.5 75.999 7.5zM315.002 687.002c14.667 -0.666992 26.501 -4.83203 35.501 -12.499s13.5 -16.167 13.5 -25.5s-2 -16.833 -6 -22.5s-10.667 -12.834 -20 -21.501l-91 -89c-13.333 0 -24 3.5 -32 10.5s-12 14.833 -12 23.5
c0 5.33301 1.66699 10.333 5 15s6.66602 9 9.99902 13z" />
    <glyph glyph-name="acircumflex" unicode="&#xe2;" horiz-adv-x="499" 
d="M240 52c28 0 51.1689 2.83203 69.502 8.49902s31.5 11.167 39.5 16.5v145l-124 -13c-34.667 -3.33301 -60.334 -11.166 -77.001 -23.499s-25 -30.5 -25 -54.5c0 -25.333 9.66699 -44.833 29 -58.5s48.666 -20.5 87.999 -20.5zM239.002 474.999
c58 0 104 -12.9971 138 -38.9971s51 -67 51 -123v-237c0 -14.667 -2.83301 -25.834 -8.5 -33.501s-14.167 -14.834 -25.5 -21.501c-16 -9.33301 -37.167 -17.5 -63.5 -24.5s-56.5 -10.5 -90.5 -10.5c-62.667 0 -111.167 12.333 -145.5 37s-51.5 60.334 -51.5 107.001
c0 44 14.333 77.167 43 99.5s69 36.166 121 41.499l142 14v28c0 33.333 -10 57.666 -30 72.999s-47 23 -81 23c-28 0 -54.333 -4 -79 -12s-46.667 -17 -66 -27c-5.33301 4.66699 -10.166 10 -14.499 16s-6.5 12.667 -6.5 20c0 9.33301 2.33301 17 7 23s12 11.667 22 17
c18 9.33301 38.667 16.5 62 21.5s48.666 7.5 75.999 7.5zM243.002 618.002c-15.333 -18.667 -30.502 -35.8311 -45.502 -51.498s-29.167 -31.167 -42.5 -46.5c-12 1.33301 -22 4.83301 -30 10.5s-12 13.167 -12 22.5c0 7.33301 2 13.666 6 18.999s9.33301 11.666 16 18.999
l61 66c8.66699 7.33301 16.334 13 23.001 17s14.667 6 24 6c10.667 0 19.334 -2 26.001 -6s13.667 -10 21 -18l84 -100c0 -9.33301 -2.5 -17.333 -7.5 -24s-12.833 -10 -23.5 -10c-8 0 -14.5 1.83301 -19.5 5.5s-10.167 8.16699 -15.5 13.5z" />
    <glyph glyph-name="atilde" unicode="&#xe3;" horiz-adv-x="499" 
d="M240 52c28 0 51.1689 2.83203 69.502 8.49902s31.5 11.167 39.5 16.5v145l-124 -13c-34.667 -3.33301 -60.334 -11.166 -77.001 -23.499s-25 -30.5 -25 -54.5c0 -25.333 9.66699 -44.833 29 -58.5s48.666 -20.5 87.999 -20.5zM239.002 474.999
c58 0 104 -12.9971 138 -38.9971s51 -67 51 -123v-237c0 -14.667 -2.83301 -25.834 -8.5 -33.501s-14.167 -14.834 -25.5 -21.501c-16 -9.33301 -37.167 -17.5 -63.5 -24.5s-56.5 -10.5 -90.5 -10.5c-62.667 0 -111.167 12.333 -145.5 37s-51.5 60.334 -51.5 107.001
c0 44 14.333 77.167 43 99.5s69 36.166 121 41.499l142 14v28c0 33.333 -10 57.666 -30 72.999s-47 23 -81 23c-28 0 -54.333 -4 -79 -12s-46.667 -17 -66 -27c-5.33301 4.66699 -10.166 10 -14.499 16s-6.5 12.667 -6.5 20c0 9.33301 2.33301 17 7 23s12 11.667 22 17
c18 9.33301 38.667 16.5 62 21.5s48.666 7.5 75.999 7.5zM167.002 651.002c14 0 27 -1.83398 39 -5.50098s23.167 -7.5 33.5 -11.5l29.5 -11.5c9.33301 -3.66699 18.333 -5.5 27 -5.5c12 0 20.833 3.5 26.5 10.5s9.83398 16.167 12.501 27.5h6c12 0 22.667 -2.83301 32 -8.5
s14 -15.5 14 -29.5c0 -19.333 -6.66699 -34.5 -20 -45.5s-31 -16.5 -53 -16.5c-14 0 -27.333 1.83301 -40 5.5s-24.5 7.66699 -35.5 12l-30.5 12c-9.33301 3.66699 -18 5.5 -26 5.5c-12 0 -20.667 -3.66699 -26 -11s-9.33301 -16.666 -12 -27.999h-6c-12 0 -22.667 3 -32 9
s-14 15.667 -14 29c0 19.333 7.66699 34.5 23 45.5s32.666 16.5 51.999 16.5z" />
    <glyph glyph-name="adieresis" unicode="&#xe4;" horiz-adv-x="499" 
d="M240 52c28 0 51.1689 2.83203 69.502 8.49902s31.5 11.167 39.5 16.5v145l-124 -13c-34.667 -3.33301 -60.334 -11.166 -77.001 -23.499s-25 -30.5 -25 -54.5c0 -25.333 9.66699 -44.833 29 -58.5s48.666 -20.5 87.999 -20.5zM239.002 474.999
c58 0 104 -12.9971 138 -38.9971s51 -67 51 -123v-237c0 -14.667 -2.83301 -25.834 -8.5 -33.501s-14.167 -14.834 -25.5 -21.501c-16 -9.33301 -37.167 -17.5 -63.5 -24.5s-56.5 -10.5 -90.5 -10.5c-62.667 0 -111.167 12.333 -145.5 37s-51.5 60.334 -51.5 107.001
c0 44 14.333 77.167 43 99.5s69 36.166 121 41.499l142 14v28c0 33.333 -10 57.666 -30 72.999s-47 23 -81 23c-28 0 -54.333 -4 -79 -12s-46.667 -17 -66 -27c-5.33301 4.66699 -10.166 10 -14.499 16s-6.5 12.667 -6.5 20c0 9.33301 2.33301 17 7 23s12 11.667 22 17
c18 9.33301 38.667 16.5 62 21.5s48.666 7.5 75.999 7.5zM211.002 601.002c0 -13.333 -4.66699 -24.666 -14 -33.999s-21.333 -14 -36 -14c-14 0 -25.5 4.66699 -34.5 14s-13.5 20.666 -13.5 33.999s4.5 24.666 13.5 33.999s20.5 14 34.5 14
c14.667 0 26.667 -4.66699 36 -14s14 -20.666 14 -33.999zM384.002 601.002c0 -13.333 -4.83301 -24.666 -14.5 -33.999s-21.5 -14 -35.5 -14c-13.333 0 -24.833 4.66699 -34.5 14s-14.5 20.666 -14.5 33.999s4.83301 24.666 14.5 33.999s21.167 14 34.5 14
c14 0 25.833 -4.66699 35.5 -14s14.5 -20.666 14.5 -33.999z" />
    <glyph glyph-name="aring" unicode="&#xe5;" horiz-adv-x="499" 
d="M240 52c28 0 51.1689 2.83203 69.502 8.49902s31.5 11.167 39.5 16.5v145l-124 -13c-34.667 -3.33301 -60.334 -11.166 -77.001 -23.499s-25 -30.5 -25 -54.5c0 -25.333 9.66699 -44.833 29 -58.5s48.666 -20.5 87.999 -20.5zM239.002 474.999
c58 0 104 -12.9971 138 -38.9971s51 -67 51 -123v-237c0 -14.667 -2.83301 -25.834 -8.5 -33.501s-14.167 -14.834 -25.5 -21.501c-16 -9.33301 -37.167 -17.5 -63.5 -24.5s-56.5 -10.5 -90.5 -10.5c-62.667 0 -111.167 12.333 -145.5 37s-51.5 60.334 -51.5 107.001
c0 44 14.333 77.167 43 99.5s69 36.166 121 41.499l142 14v28c0 33.333 -10 57.666 -30 72.999s-47 23 -81 23c-28 0 -54.333 -4 -79 -12s-46.667 -17 -66 -27c-5.33301 4.66699 -10.166 10 -14.499 16s-6.5 12.667 -6.5 20c0 9.33301 2.33301 17 7 23s12 11.667 22 17
c18 9.33301 38.667 16.5 62 21.5s48.666 7.5 75.999 7.5zM147.002 612.002c0 26 9 48 27 66s43.667 27 77 27s59 -9 77 -27s27 -40 27 -66s-9 -48 -27 -66s-43.667 -27 -77 -27s-59 9 -77 27s-27 40 -27 66zM205.002 612.002c0 -14.667 4.33301 -26 13 -34
s19.667 -12 33 -12s24.5 4 33.5 12s13.5 19.333 13.5 34s-4.5 26 -13.5 34s-20.167 12 -33.5 12s-24.333 -4 -33 -12s-13 -19.333 -13 -34z" />
    <glyph glyph-name="ae" unicode="&#xe6;" horiz-adv-x="811" 
d="M239 475c40 0 73.334 -6.8291 100.001 -20.4961s46.334 -34.834 59.001 -63.501c18 27.333 41 48.166 69 62.499s60 21.5 96 21.5c30 0 57.667 -5 83 -15s47.166 -24.167 65.499 -42.5s32.666 -40 42.999 -65s15.5 -52.5 15.5 -82.5
c0 -14.667 -3.33301 -25.167 -10 -31.5s-16 -10.166 -28 -11.499l-309 -43c9.33301 -43.333 28.5 -76 57.5 -98s67.167 -33 114.5 -33c28 0 53.333 4.66699 76 14s41 19.333 55 30c16 -9.33301 24 -22 24 -38c0 -9.33301 -4.16699 -18.333 -12.5 -27
s-19.666 -16.334 -33.999 -23.001s-31 -12 -50 -16s-39.5 -6 -61.5 -6c-40.667 0 -76 6.33301 -106 19s-54.667 30.667 -74 54c-1.33301 -12 -5.5 -21.833 -12.5 -29.5s-15.167 -13.834 -24.5 -18.501c-14.667 -7.33301 -32.334 -13.5 -53.001 -18.5s-48 -7.5 -82 -7.5
c-62.667 0 -111.167 12.333 -145.5 37s-51.5 60.334 -51.5 107.001c0 44 14.333 77.167 43 99.5s69 36.166 121 41.499l142 14v28c0 33.333 -10 57.666 -30 72.999s-47 23 -81 23c-28 0 -54.333 -4 -79 -12s-46.667 -17 -66 -27c-5.33301 4.66699 -10.166 10 -14.499 16
s-6.5 12.667 -6.5 20c0 9.33301 2.33301 17 7 23s12 11.667 22 17c18 9.33301 38.667 16.5 62 21.5s48.666 7.5 75.999 7.5zM240.001 52.0039c28 0 51.1689 2.83203 69.502 8.49902s31.5 11.167 39.5 16.5v145l-124 -13c-34.667 -3.33301 -60.334 -11.166 -77.001 -23.499
s-25 -30.5 -25 -54.5c0 -25.333 9.66699 -44.833 29 -58.5s48.666 -20.5 87.999 -20.5zM562.003 410.003c-41.333 0 -75.1689 -14.168 -101.502 -42.501s-40.166 -68.5 -41.499 -120.5l275 37c-3.33301 36.667 -16.166 66.834 -38.499 90.501s-53.5 35.5 -93.5 35.5z" />
    <glyph glyph-name="ccedilla" unicode="&#xe7;" horiz-adv-x="478" 
d="M289 408c-22.667 0 -43.6699 -3.83105 -63.0029 -11.498s-36 -19 -50 -34s-25 -33.667 -33 -56s-12 -47.833 -12 -76.5c0 -57.333 14.333 -101.166 43 -131.499s67 -45.5 115 -45.5c28 0 51.333 3.83301 70 11.5s35.334 16.5 50.001 26.5c7.33301 -4 13.333 -9 18 -15
s7 -13.333 7 -22c0 -15.333 -9.66699 -28.833 -29 -40.5s-44.666 -19.5 -75.999 -23.5c15.333 -21.333 23 -46.333 23 -75c0 -32 -10 -57.333 -30 -76s-46 -28 -78 -28c-34.667 0 -52 12 -52 36c0 8.66699 2 16.667 6 24h15c24 0 41.5 5.16699 52.5 15.5
s16.5 24.166 16.5 41.499c0 9.33301 -1.5 19.166 -4.5 29.499s-8.16699 20.5 -15.5 30.5c-31.333 2.66699 -60 9.5 -86 20.5s-48.333 26.5 -67 46.5s-33.334 44.5 -44.001 73.5s-16 62.833 -16 101.5c0 40.667 6.33301 76.167 19 106.5s29.667 55.833 51 76.5
s46.5 36.167 75.5 46.5s59.833 15.5 92.5 15.5c20.667 0 39.834 -1.83301 57.501 -5.5s32.834 -8.83398 45.501 -15.501s22.5 -14.167 29.5 -22.5s10.5 -16.833 10.5 -25.5c0 -8 -2.33301 -15 -7 -21s-10.667 -10.667 -18 -14c-14.667 10 -30.667 18.667 -48 26
s-40 11 -68 11z" />
    <glyph glyph-name="egrave" unicode="&#xe8;" horiz-adv-x="519" 
d="M132 184c18 -87.333 75.334 -131.001 172.001 -131.001c28 0 53.333 4.66699 76 14s40.667 19.333 54 30c16 -9.33301 24 -22 24 -38c0 -9.33301 -4.16699 -18.333 -12.5 -27s-19.666 -16.334 -33.999 -23.001s-31 -12 -50 -16s-39.5 -6 -61.5 -6
c-77.333 0 -138.5 21 -183.5 63s-67.5 103.333 -67.5 184c0 38 5.5 71.833 16.5 101.5s26.333 54.834 46 75.501s43.167 36.5 70.5 47.5s57 16.5 89 16.5c30 0 57.667 -5 83 -15s47.166 -24.167 65.499 -42.5s32.666 -40 42.999 -65s15.5 -52.5 15.5 -82.5
c0 -14.667 -3.33301 -25.167 -10 -31.5s-16 -10.166 -28 -11.499zM270.001 409.999c-40.667 0 -74.334 -14.168 -101.001 -42.501s-40.667 -68.833 -42 -121.5l275 38c-3.33301 36.667 -16.166 66.834 -38.499 90.501s-53.5 35.5 -93.5 35.5zM141.001 633.998
c-1.33301 6.66699 -2 10.999 -2 12.999c0 10.667 3.5 19.334 10.5 26.001s16.167 10 27.5 10c14 0 25.667 -5.66699 35 -17l90 -113c-0.666992 -10.667 -4 -19.167 -10 -25.5s-13.667 -9.5 -23 -9.5c-7.33301 0 -13.5 1.33301 -18.5 4s-10.167 6.66699 -15.5 12z" />
    <glyph glyph-name="eacute" unicode="&#xe9;" horiz-adv-x="519" 
d="M132 184c18 -87.333 75.334 -131.001 172.001 -131.001c28 0 53.333 4.66699 76 14s40.667 19.333 54 30c16 -9.33301 24 -22 24 -38c0 -9.33301 -4.16699 -18.333 -12.5 -27s-19.666 -16.334 -33.999 -23.001s-31 -12 -50 -16s-39.5 -6 -61.5 -6
c-77.333 0 -138.5 21 -183.5 63s-67.5 103.333 -67.5 184c0 38 5.5 71.833 16.5 101.5s26.333 54.834 46 75.501s43.167 36.5 70.5 47.5s57 16.5 89 16.5c30 0 57.667 -5 83 -15s47.166 -24.167 65.499 -42.5s32.666 -40 42.999 -65s15.5 -52.5 15.5 -82.5
c0 -14.667 -3.33301 -25.167 -10 -31.5s-16 -10.166 -28 -11.499zM270.001 409.999c-40.667 0 -74.334 -14.168 -101.001 -42.501s-40.667 -68.833 -42 -121.5l275 38c-3.33301 36.667 -16.166 66.834 -38.499 90.501s-53.5 35.5 -93.5 35.5zM355.001 686.998
c14.667 -0.666992 26.501 -4.83203 35.501 -12.499s13.5 -16.167 13.5 -25.5s-2 -16.833 -6 -22.5s-10.667 -12.834 -20 -21.501l-91 -89c-13.333 0 -24 3.5 -32 10.5s-12 14.833 -12 23.5c0 5.33301 1.66699 10.333 5 15s6.66602 9 9.99902 13z" />
    <glyph glyph-name="ecircumflex" unicode="&#xea;" horiz-adv-x="519" 
d="M132 184c18 -87.333 75.334 -131.001 172.001 -131.001c28 0 53.333 4.66699 76 14s40.667 19.333 54 30c16 -9.33301 24 -22 24 -38c0 -9.33301 -4.16699 -18.333 -12.5 -27s-19.666 -16.334 -33.999 -23.001s-31 -12 -50 -16s-39.5 -6 -61.5 -6
c-77.333 0 -138.5 21 -183.5 63s-67.5 103.333 -67.5 184c0 38 5.5 71.833 16.5 101.5s26.333 54.834 46 75.501s43.167 36.5 70.5 47.5s57 16.5 89 16.5c30 0 57.667 -5 83 -15s47.166 -24.167 65.499 -42.5s32.666 -40 42.999 -65s15.5 -52.5 15.5 -82.5
c0 -14.667 -3.33301 -25.167 -10 -31.5s-16 -10.166 -28 -11.499zM270.001 409.999c-40.667 0 -74.334 -14.168 -101.001 -42.501s-40.667 -68.833 -42 -121.5l275 38c-3.33301 36.667 -16.166 66.834 -38.499 90.501s-53.5 35.5 -93.5 35.5zM272.001 617.998
c-15.333 -18.667 -30.502 -35.8311 -45.502 -51.498s-29.167 -31.167 -42.5 -46.5c-12 1.33301 -22 4.83301 -30 10.5s-12 13.167 -12 22.5c0 7.33301 2 13.666 6 18.999s9.33301 11.666 16 18.999l61 66c8.66699 7.33301 16.334 13 23.001 17s14.667 6 24 6
c10.667 0 19.334 -2 26.001 -6s13.667 -10 21 -18l84 -100c0 -9.33301 -2.5 -17.333 -7.5 -24s-12.833 -10 -23.5 -10c-8 0 -14.5 1.83301 -19.5 5.5s-10.167 8.16699 -15.5 13.5z" />
    <glyph glyph-name="edieresis" unicode="&#xeb;" horiz-adv-x="519" 
d="M132 184c18 -87.333 75.334 -131.001 172.001 -131.001c28 0 53.333 4.66699 76 14s40.667 19.333 54 30c16 -9.33301 24 -22 24 -38c0 -9.33301 -4.16699 -18.333 -12.5 -27s-19.666 -16.334 -33.999 -23.001s-31 -12 -50 -16s-39.5 -6 -61.5 -6
c-77.333 0 -138.5 21 -183.5 63s-67.5 103.333 -67.5 184c0 38 5.5 71.833 16.5 101.5s26.333 54.834 46 75.501s43.167 36.5 70.5 47.5s57 16.5 89 16.5c30 0 57.667 -5 83 -15s47.166 -24.167 65.499 -42.5s32.666 -40 42.999 -65s15.5 -52.5 15.5 -82.5
c0 -14.667 -3.33301 -25.167 -10 -31.5s-16 -10.166 -28 -11.499zM270.001 409.999c-40.667 0 -74.334 -14.168 -101.001 -42.501s-40.667 -68.833 -42 -121.5l275 38c-3.33301 36.667 -16.166 66.834 -38.499 90.501s-53.5 35.5 -93.5 35.5zM232.001 600.998
c0 -13.333 -4.66699 -24.666 -14 -33.999s-21.333 -14 -36 -14c-14 0 -25.5 4.66699 -34.5 14s-13.5 20.666 -13.5 33.999s4.5 24.666 13.5 33.999s20.5 14 34.5 14c14.667 0 26.667 -4.66699 36 -14s14 -20.666 14 -33.999zM405.001 600.998
c0 -13.333 -4.83301 -24.666 -14.5 -33.999s-21.5 -14 -35.5 -14c-13.333 0 -24.833 4.66699 -34.5 14s-14.5 20.666 -14.5 33.999s4.83301 24.666 14.5 33.999s21.167 14 34.5 14c14 0 25.833 -4.66699 35.5 -14s14.5 -20.666 14.5 -33.999z" />
    <glyph glyph-name="igrave" unicode="&#xec;" horiz-adv-x="241" 
d="M125 -8c-30 0 -45.002 12.333 -45.002 37v430c3.33301 1.33301 8.33301 2.66602 15 3.99902s13.667 2 21 2c29.333 0 44 -12.333 44 -37v-430c-3.33301 -1.33301 -8.16602 -2.66602 -14.499 -3.99902s-13.166 -2 -20.499 -2zM-10.002 634
c-1.33301 6.66699 -2 10.999 -2 12.999c0 10.667 3.5 19.334 10.5 26.001s16.167 10 27.5 10c14 0 25.667 -5.66699 35 -17l90 -113c-0.666992 -10.667 -4 -19.167 -10 -25.5s-13.667 -9.5 -23 -9.5c-7.33301 0 -13.5 1.33301 -18.5 4s-10.167 6.66699 -15.5 12z" />
    <glyph glyph-name="iacute" unicode="&#xed;" horiz-adv-x="241" 
d="M125 -8c-30 0 -45.002 12.333 -45.002 37v430c3.33301 1.33301 8.33301 2.66602 15 3.99902s13.667 2 21 2c29.333 0 44 -12.333 44 -37v-430c-3.33301 -1.33301 -8.16602 -2.66602 -14.499 -3.99902s-13.166 -2 -20.499 -2zM200.998 687
c14.667 -0.666992 26.501 -4.83203 35.501 -12.499s13.5 -16.167 13.5 -25.5s-2 -16.833 -6 -22.5s-10.667 -12.834 -20 -21.501l-91 -89c-13.333 0 -24 3.5 -32 10.5s-12 14.833 -12 23.5c0 5.33301 1.66699 10.333 5 15s6.66602 9 9.99902 13z" />
    <glyph glyph-name="icircumflex" unicode="&#xee;" horiz-adv-x="241" 
d="M125 -8c-30 0 -45.002 12.333 -45.002 37v430c3.33301 1.33301 8.33301 2.66602 15 3.99902s13.667 2 21 2c29.333 0 44 -12.333 44 -37v-430c-3.33301 -1.33301 -8.16602 -2.66602 -14.499 -3.99902s-13.166 -2 -20.499 -2zM122.998 618
c-15.333 -18.667 -30.502 -35.8311 -45.502 -51.498s-29.167 -31.167 -42.5 -46.5c-12 1.33301 -22 4.83301 -30 10.5s-12 13.167 -12 22.5c0 7.33301 2 13.666 6 18.999s9.33301 11.666 16 18.999l61 66c8.66699 7.33301 16.334 13 23.001 17s14.667 6 24 6
c10.667 0 19.334 -2 26.001 -6s13.667 -10 21 -18l84 -100c0 -9.33301 -2.5 -17.333 -7.5 -24s-12.833 -10 -23.5 -10c-8 0 -14.5 1.83301 -19.5 5.5s-10.167 8.16699 -15.5 13.5z" />
    <glyph glyph-name="idieresis" unicode="&#xef;" horiz-adv-x="241" 
d="M125 -8c-30 0 -45.002 12.333 -45.002 37v430c3.33301 1.33301 8.33301 2.66602 15 3.99902s13.667 2 21 2c29.333 0 44 -12.333 44 -37v-430c-3.33301 -1.33301 -8.16602 -2.66602 -14.499 -3.99902s-13.166 -2 -20.499 -2zM82.998 601
c0 -13.333 -4.66699 -24.666 -14 -33.999s-21.333 -14 -36 -14c-14 0 -25.5 4.66699 -34.5 14s-13.5 20.666 -13.5 33.999s4.5 24.666 13.5 33.999s20.5 14 34.5 14c14.667 0 26.667 -4.66699 36 -14s14 -20.666 14 -33.999zM255.998 601
c0 -13.333 -4.83301 -24.666 -14.5 -33.999s-21.5 -14 -35.5 -14c-13.333 0 -24.833 4.66699 -34.5 14s-14.5 20.666 -14.5 33.999s4.83301 24.666 14.5 33.999s21.167 14 34.5 14c14 0 25.833 -4.66699 35.5 -14s14.5 -20.666 14.5 -33.999z" />
    <glyph glyph-name="eth" unicode="&#xf0;" horiz-adv-x="537" 
d="M376 544c30.667 -37.333 56.8281 -82.3398 78.4951 -135.007s32.5 -109.334 32.5 -170.001c0 -83.333 -19 -146.166 -57 -188.499s-91 -63.5 -159 -63.5c-34 0 -64.667 5.16699 -92 15.5s-50.666 25.333 -69.999 45s-34.166 43.5 -44.499 71.5s-15.5 59.667 -15.5 95
c0 38.667 5.83301 72 17.5 100s27.334 51 47.001 69s42 31.333 67 40s51.167 13 78.5 13c24 0 45.833 -3.5 65.5 -10.5s37.167 -16.167 52.5 -27.5c-10.667 22.667 -22.167 43.834 -34.5 63.501s-26.833 37.834 -43.5 54.501l-114 -40c-7.33301 4 -13.166 9.5 -17.499 16.5
s-6.5 14.833 -6.5 23.5c0 14 8.33301 24 25 30l57 21c-15.333 10.667 -31.166 19.334 -47.499 26.001s-33.166 12.667 -50.499 18c0 12.667 3.5 23.834 10.5 33.501s17.5 14.5 31.5 14.5c19.333 0 41.166 -5.83301 65.499 -17.5s48.5 -27.167 72.5 -46.5l98 39
c6.66699 -4.66699 12.5 -10.167 17.5 -16.5s7.5 -14.166 7.5 -23.499s-2 -16.166 -6 -20.499s-10.333 -8.16602 -19 -11.499zM405.994 219.993c0 15.333 -0.5 29.333 -1.5 42s-2.16699 25 -3.5 37c-14.667 22 -33 39.333 -55 52s-46.333 19 -73 19
c-48 0 -83.667 -14 -107 -42s-35 -66 -35 -114c0 -49.333 12.5 -88.5 37.5 -117.5s59.5 -43.5 103.5 -43.5c44.667 0 78.167 15.167 100.5 45.5s33.5 70.833 33.5 121.5z" />
    <glyph glyph-name="ntilde" unicode="&#xf1;" horiz-adv-x="560" 
d="M405 301c0 37.333 -10.498 64.667 -31.498 82s-49.167 26 -84.5 26c-26.667 0 -50.334 -3.33301 -71.001 -10s-38.334 -14.334 -53.001 -23.001v-374c-3.33301 -1.33301 -8.33301 -2.83301 -15 -4.5s-14 -2.5 -22 -2.5c-28.667 0 -43 12 -43 36v341
c0 14 2.83301 25.5 8.5 34.5s15.5 17.833 29.5 26.5c17.333 10.667 40.333 20.334 69 29.001s61 13 97 13c60.667 0 108.5 -13.667 143.5 -41s52.5 -70.333 52.5 -129v-303c-3.33301 -1.33301 -8.5 -2.83301 -15.5 -4.5s-14.167 -2.5 -21.5 -2.5c-28.667 0 -43 12 -43 36
v270zM203.002 651.001c14 0 27 -1.83398 39 -5.50098s23.167 -7.5 33.5 -11.5l29.5 -11.5c9.33301 -3.66699 18.333 -5.5 27 -5.5c12 0 20.833 3.5 26.5 10.5s9.83398 16.167 12.501 27.5h6c12 0 22.667 -2.83301 32 -8.5s14 -15.5 14 -29.5
c0 -19.333 -6.66699 -34.5 -20 -45.5s-31 -16.5 -53 -16.5c-14 0 -27.333 1.83301 -40 5.5s-24.5 7.66699 -35.5 12l-30.5 12c-9.33301 3.66699 -18 5.5 -26 5.5c-12 0 -20.667 -3.66699 -26 -11s-9.33301 -16.666 -12 -27.999h-6c-12 0 -22.667 3 -32 9s-14 15.667 -14 29
c0 19.333 7.66699 34.5 23 45.5s32.666 16.5 51.999 16.5z" />
    <glyph glyph-name="ograve" unicode="&#xf2;" horiz-adv-x="553" 
d="M504 231c0 -37.333 -5.33203 -71 -15.999 -101s-25.834 -55.667 -45.501 -77s-43.5 -37.666 -71.5 -48.999s-59.333 -17 -94 -17s-66 5.66699 -94 17s-52 27.666 -72 48.999s-35.333 47 -46 77s-16 63.667 -16 101s5.5 71 16.5 101s26.5 55.667 46.5 77
s44 37.666 72 48.999s59 17 93 17s65 -5.66699 93 -17s51.833 -27.666 71.5 -48.999s35 -47 46 -77s16.5 -63.667 16.5 -101zM277.001 409c-45.333 0 -81 -15.667 -107 -47s-39 -75 -39 -131c0 -56.667 12.833 -100.5 38.5 -131.5s61.5 -46.5 107.5 -46.5
s81.667 15.667 107 47s38 75 38 131s-12.833 99.667 -38.5 131s-61.167 47 -106.5 47zM149.001 634c-1.33301 6.66699 -2 10.999 -2 12.999c0 10.667 3.5 19.334 10.5 26.001s16.167 10 27.5 10c14 0 25.667 -5.66699 35 -17l90 -113
c-0.666992 -10.667 -4 -19.167 -10 -25.5s-13.667 -9.5 -23 -9.5c-7.33301 0 -13.5 1.33301 -18.5 4s-10.167 6.66699 -15.5 12z" />
    <glyph glyph-name="oacute" unicode="&#xf3;" horiz-adv-x="553" 
d="M504 231c0 -37.333 -5.33203 -71 -15.999 -101s-25.834 -55.667 -45.501 -77s-43.5 -37.666 -71.5 -48.999s-59.333 -17 -94 -17s-66 5.66699 -94 17s-52 27.666 -72 48.999s-35.333 47 -46 77s-16 63.667 -16 101s5.5 71 16.5 101s26.5 55.667 46.5 77
s44 37.666 72 48.999s59 17 93 17s65 -5.66699 93 -17s51.833 -27.666 71.5 -48.999s35 -47 46 -77s16.5 -63.667 16.5 -101zM277.001 409c-45.333 0 -81 -15.667 -107 -47s-39 -75 -39 -131c0 -56.667 12.833 -100.5 38.5 -131.5s61.5 -46.5 107.5 -46.5
s81.667 15.667 107 47s38 75 38 131s-12.833 99.667 -38.5 131s-61.167 47 -106.5 47zM371.001 687c14.667 -0.666992 26.501 -4.83203 35.501 -12.499s13.5 -16.167 13.5 -25.5s-2 -16.833 -6 -22.5s-10.667 -12.834 -20 -21.501l-91 -89c-13.333 0 -24 3.5 -32 10.5
s-12 14.833 -12 23.5c0 5.33301 1.66699 10.333 5 15s6.66602 9 9.99902 13z" />
    <glyph glyph-name="ocircumflex" unicode="&#xf4;" horiz-adv-x="553" 
d="M504 231c0 -37.333 -5.33203 -71 -15.999 -101s-25.834 -55.667 -45.501 -77s-43.5 -37.666 -71.5 -48.999s-59.333 -17 -94 -17s-66 5.66699 -94 17s-52 27.666 -72 48.999s-35.333 47 -46 77s-16 63.667 -16 101s5.5 71 16.5 101s26.5 55.667 46.5 77
s44 37.666 72 48.999s59 17 93 17s65 -5.66699 93 -17s51.833 -27.666 71.5 -48.999s35 -47 46 -77s16.5 -63.667 16.5 -101zM277.001 409c-45.333 0 -81 -15.667 -107 -47s-39 -75 -39 -131c0 -56.667 12.833 -100.5 38.5 -131.5s61.5 -46.5 107.5 -46.5
s81.667 15.667 107 47s38 75 38 131s-12.833 99.667 -38.5 131s-61.167 47 -106.5 47zM277.001 618c-15.333 -18.667 -30.502 -35.8311 -45.502 -51.498s-29.167 -31.167 -42.5 -46.5c-12 1.33301 -22 4.83301 -30 10.5s-12 13.167 -12 22.5c0 7.33301 2 13.666 6 18.999
s9.33301 11.666 16 18.999l61 66c8.66699 7.33301 16.334 13 23.001 17s14.667 6 24 6c10.667 0 19.334 -2 26.001 -6s13.667 -10 21 -18l84 -100c0 -9.33301 -2.5 -17.333 -7.5 -24s-12.833 -10 -23.5 -10c-8 0 -14.5 1.83301 -19.5 5.5s-10.167 8.16699 -15.5 13.5z" />
    <glyph glyph-name="otilde" unicode="&#xf5;" horiz-adv-x="553" 
d="M504 231c0 -37.333 -5.33203 -71 -15.999 -101s-25.834 -55.667 -45.501 -77s-43.5 -37.666 -71.5 -48.999s-59.333 -17 -94 -17s-66 5.66699 -94 17s-52 27.666 -72 48.999s-35.333 47 -46 77s-16 63.667 -16 101s5.5 71 16.5 101s26.5 55.667 46.5 77
s44 37.666 72 48.999s59 17 93 17s65 -5.66699 93 -17s51.833 -27.666 71.5 -48.999s35 -47 46 -77s16.5 -63.667 16.5 -101zM277.001 409c-45.333 0 -81 -15.667 -107 -47s-39 -75 -39 -131c0 -56.667 12.833 -100.5 38.5 -131.5s61.5 -46.5 107.5 -46.5
s81.667 15.667 107 47s38 75 38 131s-12.833 99.667 -38.5 131s-61.167 47 -106.5 47zM206.001 651c14 0 27 -1.83398 39 -5.50098s23.167 -7.5 33.5 -11.5l29.5 -11.5c9.33301 -3.66699 18.333 -5.5 27 -5.5c12 0 20.833 3.5 26.5 10.5s9.83398 16.167 12.501 27.5h6
c12 0 22.667 -2.83301 32 -8.5s14 -15.5 14 -29.5c0 -19.333 -6.66699 -34.5 -20 -45.5s-31 -16.5 -53 -16.5c-14 0 -27.333 1.83301 -40 5.5s-24.5 7.66699 -35.5 12l-30.5 12c-9.33301 3.66699 -18 5.5 -26 5.5c-12 0 -20.667 -3.66699 -26 -11
s-9.33301 -16.666 -12 -27.999h-6c-12 0 -22.667 3 -32 9s-14 15.667 -14 29c0 19.333 7.66699 34.5 23 45.5s32.666 16.5 51.999 16.5z" />
    <glyph glyph-name="odieresis" unicode="&#xf6;" horiz-adv-x="553" 
d="M504 231c0 -37.333 -5.33203 -71 -15.999 -101s-25.834 -55.667 -45.501 -77s-43.5 -37.666 -71.5 -48.999s-59.333 -17 -94 -17s-66 5.66699 -94 17s-52 27.666 -72 48.999s-35.333 47 -46 77s-16 63.667 -16 101s5.5 71 16.5 101s26.5 55.667 46.5 77
s44 37.666 72 48.999s59 17 93 17s65 -5.66699 93 -17s51.833 -27.666 71.5 -48.999s35 -47 46 -77s16.5 -63.667 16.5 -101zM277.001 409c-45.333 0 -81 -15.667 -107 -47s-39 -75 -39 -131c0 -56.667 12.833 -100.5 38.5 -131.5s61.5 -46.5 107.5 -46.5
s81.667 15.667 107 47s38 75 38 131s-12.833 99.667 -38.5 131s-61.167 47 -106.5 47zM240.001 601c0 -13.333 -4.66699 -24.666 -14 -33.999s-21.333 -14 -36 -14c-14 0 -25.5 4.66699 -34.5 14s-13.5 20.666 -13.5 33.999s4.5 24.666 13.5 33.999s20.5 14 34.5 14
c14.667 0 26.667 -4.66699 36 -14s14 -20.666 14 -33.999zM413.001 601c0 -13.333 -4.83301 -24.666 -14.5 -33.999s-21.5 -14 -35.5 -14c-13.333 0 -24.833 4.66699 -34.5 14s-14.5 20.666 -14.5 33.999s4.83301 24.666 14.5 33.999s21.167 14 34.5 14
c14 0 25.833 -4.66699 35.5 -14s14.5 -20.666 14.5 -33.999z" />
    <glyph glyph-name="divide" unicode="&#xf7;" horiz-adv-x="522" 
d="M58 266c-2 4.66699 -3.66699 9.49902 -5 14.499s-2 10.833 -2 17.5c0 22.667 11.667 34 35 34h378c4.66699 -9.33301 7 -19.666 7 -30.999c0 -23.333 -11.667 -35 -35 -35h-378zM210 134.999c0 15.333 4.83301 28 14.5 38s22.5 15 38.5 15s28.833 -5 38.5 -15
s14.5 -22.667 14.5 -38s-4.83301 -28 -14.5 -38s-22.5 -15 -38.5 -15s-28.833 5 -38.5 15s-14.5 22.667 -14.5 38zM210 458.999c0 15.333 4.83301 28 14.5 38s22.5 15 38.5 15s28.833 -5 38.5 -15s14.5 -22.667 14.5 -38s-4.83301 -28 -14.5 -38s-22.5 -15 -38.5 -15
s-28.833 5 -38.5 15s-14.5 22.667 -14.5 38z" />
    <glyph glyph-name="oslash" unicode="&#xf8;" horiz-adv-x="553" 
d="M504 231c0 -37.333 -5.33203 -71.001 -15.999 -101.001s-25.834 -55.667 -45.501 -77s-43.5 -37.666 -71.5 -48.999s-59.333 -17 -94 -17c-40 0 -76 7.66699 -108 23l-48 -71c-15.333 0 -27.5 3.33301 -36.5 10s-13.5 15 -13.5 25c0 6 2 12 6 18l39 56
c-21.333 21.333 -37.833 47.333 -49.5 78s-17.5 65.667 -17.5 105c0 37.333 5.5 71 16.5 101s26.5 55.667 46.5 77s44 37.666 72 48.999s59 17 93 17c38.667 0 74 -7.66699 106 -23l47 71c14 0 25.667 -3.16699 35 -9.5s14 -15.166 14 -26.499c0 -4.66699 -2 -10 -6 -16
l-38 -56c22 -21.333 39 -47.5 51 -78.5s18 -66.167 18 -105.5zM424.001 230.999c0 50.667 -11.333 91.333 -34 122l-182 -285c20 -10 43 -15 69 -15c46 0 82 15.5 108 46.5s39 74.833 39 131.5zM277.001 408.998c-45.333 0 -81.333 -15.667 -108 -47s-40 -75 -40 -131
c0 -50 10.667 -90.333 32 -121l183 284c-20 10 -42.333 15 -67 15z" />
    <glyph glyph-name="ugrave" unicode="&#xf9;" 
d="M75 460c3.33301 1.33301 8.49902 2.83203 15.499 4.49902s14.5 2.5 22.5 2.5c28 0 42 -12.333 42 -37v-257c0 -43.333 11.333 -74.166 34 -92.499s54 -27.5 94 -27.5c26.667 0 49.334 2.83301 68.001 8.5s33.334 11.5 44.001 17.5v381
c3.33301 1.33301 8.5 2.83301 15.5 4.5s14.167 2.5 21.5 2.5c28.667 0 43 -12.333 43 -37v-348c0 -14 -1.83301 -25.167 -5.5 -33.5s-12.5 -16.5 -26.5 -24.5c-15.333 -8.66699 -36.5 -17 -63.5 -25s-59.5 -12 -97.5 -12c-66.667 0 -117.834 14.667 -153.501 44
s-53.5 75.333 -53.5 138v291zM143.999 633.999c-1.33301 6.66699 -2 10.999 -2 12.999c0 10.667 3.5 19.334 10.5 26.001s16.167 10 27.5 10c14 0 25.667 -5.66699 35 -17l90 -113c-0.666992 -10.667 -4 -19.167 -10 -25.5s-13.667 -9.5 -23 -9.5
c-7.33301 0 -13.5 1.33301 -18.5 4s-10.167 6.66699 -15.5 12z" />
    <glyph glyph-name="uacute" unicode="&#xfa;" 
d="M75 460c3.33301 1.33301 8.49902 2.83203 15.499 4.49902s14.5 2.5 22.5 2.5c28 0 42 -12.333 42 -37v-257c0 -43.333 11.333 -74.166 34 -92.499s54 -27.5 94 -27.5c26.667 0 49.334 2.83301 68.001 8.5s33.334 11.5 44.001 17.5v381
c3.33301 1.33301 8.5 2.83301 15.5 4.5s14.167 2.5 21.5 2.5c28.667 0 43 -12.333 43 -37v-348c0 -14 -1.83301 -25.167 -5.5 -33.5s-12.5 -16.5 -26.5 -24.5c-15.333 -8.66699 -36.5 -17 -63.5 -25s-59.5 -12 -97.5 -12c-66.667 0 -117.834 14.667 -153.501 44
s-53.5 75.333 -53.5 138v291zM355.999 686.999c14.667 -0.666992 26.501 -4.83203 35.501 -12.499s13.5 -16.167 13.5 -25.5s-2 -16.833 -6 -22.5s-10.667 -12.834 -20 -21.501l-91 -89c-13.333 0 -24 3.5 -32 10.5s-12 14.833 -12 23.5c0 5.33301 1.66699 10.333 5 15
s6.66602 9 9.99902 13z" />
    <glyph glyph-name="ucircumflex" unicode="&#xfb;" 
d="M75 460c3.33301 1.33301 8.49902 2.83203 15.499 4.49902s14.5 2.5 22.5 2.5c28 0 42 -12.333 42 -37v-257c0 -43.333 11.333 -74.166 34 -92.499s54 -27.5 94 -27.5c26.667 0 49.334 2.83301 68.001 8.5s33.334 11.5 44.001 17.5v381
c3.33301 1.33301 8.5 2.83301 15.5 4.5s14.167 2.5 21.5 2.5c28.667 0 43 -12.333 43 -37v-348c0 -14 -1.83301 -25.167 -5.5 -33.5s-12.5 -16.5 -26.5 -24.5c-15.333 -8.66699 -36.5 -17 -63.5 -25s-59.5 -12 -97.5 -12c-66.667 0 -117.834 14.667 -153.501 44
s-53.5 75.333 -53.5 138v291zM277.999 617.999c-15.333 -18.667 -30.502 -35.8311 -45.502 -51.498s-29.167 -31.167 -42.5 -46.5c-12 1.33301 -22 4.83301 -30 10.5s-12 13.167 -12 22.5c0 7.33301 2 13.666 6 18.999s9.33301 11.666 16 18.999l61 66
c8.66699 7.33301 16.334 13 23.001 17s14.667 6 24 6c10.667 0 19.334 -2 26.001 -6s13.667 -10 21 -18l84 -100c0 -9.33301 -2.5 -17.333 -7.5 -24s-12.833 -10 -23.5 -10c-8 0 -14.5 1.83301 -19.5 5.5s-10.167 8.16699 -15.5 13.5z" />
    <glyph glyph-name="udieresis" unicode="&#xfc;" 
d="M75 460c3.33301 1.33301 8.49902 2.83203 15.499 4.49902s14.5 2.5 22.5 2.5c28 0 42 -12.333 42 -37v-257c0 -43.333 11.333 -74.166 34 -92.499s54 -27.5 94 -27.5c26.667 0 49.334 2.83301 68.001 8.5s33.334 11.5 44.001 17.5v381
c3.33301 1.33301 8.5 2.83301 15.5 4.5s14.167 2.5 21.5 2.5c28.667 0 43 -12.333 43 -37v-348c0 -14 -1.83301 -25.167 -5.5 -33.5s-12.5 -16.5 -26.5 -24.5c-15.333 -8.66699 -36.5 -17 -63.5 -25s-59.5 -12 -97.5 -12c-66.667 0 -117.834 14.667 -153.501 44
s-53.5 75.333 -53.5 138v291zM235.999 600.999c0 -13.333 -4.66699 -24.666 -14 -33.999s-21.333 -14 -36 -14c-14 0 -25.5 4.66699 -34.5 14s-13.5 20.666 -13.5 33.999s4.5 24.666 13.5 33.999s20.5 14 34.5 14c14.667 0 26.667 -4.66699 36 -14s14 -20.666 14 -33.999z
M408.999 600.999c0 -13.333 -4.83301 -24.666 -14.5 -33.999s-21.5 -14 -35.5 -14c-13.333 0 -24.833 4.66699 -34.5 14s-14.5 20.666 -14.5 33.999s4.83301 24.666 14.5 33.999s21.167 14 34.5 14c14 0 25.833 -4.66699 35.5 -14s14.5 -20.666 14.5 -33.999z" />
    <glyph glyph-name="yacute" unicode="&#xfd;" horiz-adv-x="489" 
d="M169 103c-8.66699 16 -18.668 36.3359 -30.001 61.0029s-23.166 52.334 -35.499 83.001l-37.5 97.5c-12.667 34.333 -24.667 69.166 -36 104.499c4.66699 6.66699 10.834 12 18.501 16s15.834 6 24.501 6c11.333 0 20.5 -3 27.5 -9s13.167 -16 18.5 -30
c20 -56.667 40.833 -112.334 62.5 -167.001s46.167 -112 73.5 -172h4c10.667 20.667 21.667 45.834 33 75.501s22.5 61.167 33.5 94.5s21.333 67.166 31 101.499s18.167 67.166 25.5 98.499c4.66699 2 9.66699 3.83301 15 5.5s11.666 2.5 18.999 2.5
c11.333 0 20.666 -2.83301 27.999 -8.5s11 -14.167 11 -25.5c0 -13.333 -4.66699 -37.666 -14 -72.999s-21.5 -75 -36.5 -119s-32.167 -89.167 -51.5 -135.5s-39 -87.5 -59 -123.5c-31.333 -56.667 -59.5 -100.167 -84.5 -130.5s-48.167 -45.5 -69.5 -45.5
c-15.333 0 -27.166 4 -35.499 12s-13.5 17.333 -15.5 28c10.667 9.33301 22.667 21.333 36 36s26.666 30.5 39.999 47.5s26 34.5 38 52.5s22 35.333 30 52c-11.333 3.33301 -21.833 9.16602 -31.5 17.499s-20.5 24.166 -32.5 47.499zM328.999 687.003
c14.667 -0.666992 26.501 -4.83203 35.501 -12.499s13.5 -16.167 13.5 -25.5s-2 -16.833 -6 -22.5s-10.667 -12.834 -20 -21.501l-91 -89c-13.333 0 -24 3.5 -32 10.5s-12 14.833 -12 23.5c0 5.33301 1.66699 10.333 5 15s6.66602 9 9.99902 13z" />
    <glyph glyph-name="thorn" unicode="&#xfe;" horiz-adv-x="553" 
d="M274 -13c-23.333 0 -45.332 2.66992 -65.999 8.00293s-37.667 11.666 -51 18.999v-194c-3.33301 -1.33301 -8.33301 -2.83301 -15 -4.5s-14 -2.5 -22 -2.5c-28.667 0 -43 12.333 -43 37v799c3.33301 1.33301 8.5 2.66602 15.5 3.99902s14.167 2 21.5 2
c28.667 0 43 -12 43 -36v-168c14.667 6.66699 31.5 12.334 50.5 17.001s39.5 7 61.5 7c32 0 61.833 -4.66699 89.5 -14s52 -23.833 73 -43.5s37.5 -44.834 49.5 -75.501s18 -67.334 18 -110.001c0 -41.333 -5.5 -77.333 -16.5 -108s-26.5 -56.167 -46.5 -76.5
s-43.833 -35.5 -71.5 -45.5s-57.834 -15 -90.501 -15zM263.001 53.0029c46.667 0 84.168 14.166 112.501 42.499s42.5 73.833 42.5 136.5c0 32.667 -4.16699 60.334 -12.5 83.001s-19.666 41 -33.999 55s-30.833 24 -49.5 30s-38.334 9 -59.001 9
c-23.333 0 -43.5 -2.83301 -60.5 -8.5s-32.167 -12.167 -45.5 -19.5v-296c12.667 -9.33301 27.667 -17 45 -23s37.666 -9 60.999 -9z" />
    <glyph glyph-name="ydieresis" unicode="&#xff;" horiz-adv-x="489" 
d="M169 103c-8.66699 16 -18.668 36.3359 -30.001 61.0029s-23.166 52.334 -35.499 83.001l-37.5 97.5c-12.667 34.333 -24.667 69.166 -36 104.499c4.66699 6.66699 10.834 12 18.501 16s15.834 6 24.501 6c11.333 0 20.5 -3 27.5 -9s13.167 -16 18.5 -30
c20 -56.667 40.833 -112.334 62.5 -167.001s46.167 -112 73.5 -172h4c10.667 20.667 21.667 45.834 33 75.501s22.5 61.167 33.5 94.5s21.333 67.166 31 101.499s18.167 67.166 25.5 98.499c4.66699 2 9.66699 3.83301 15 5.5s11.666 2.5 18.999 2.5
c11.333 0 20.666 -2.83301 27.999 -8.5s11 -14.167 11 -25.5c0 -13.333 -4.66699 -37.666 -14 -72.999s-21.5 -75 -36.5 -119s-32.167 -89.167 -51.5 -135.5s-39 -87.5 -59 -123.5c-31.333 -56.667 -59.5 -100.167 -84.5 -130.5s-48.167 -45.5 -69.5 -45.5
c-15.333 0 -27.166 4 -35.499 12s-13.5 17.333 -15.5 28c10.667 9.33301 22.667 21.333 36 36s26.666 30.5 39.999 47.5s26 34.5 38 52.5s22 35.333 30 52c-11.333 3.33301 -21.833 9.16602 -31.5 17.499s-20.5 24.166 -32.5 47.499zM207.999 601.003
c0 -13.333 -4.66699 -24.666 -14 -33.999s-21.333 -14 -36 -14c-14 0 -25.5 4.66699 -34.5 14s-13.5 20.666 -13.5 33.999s4.5 24.666 13.5 33.999s20.5 14 34.5 14c14.667 0 26.667 -4.66699 36 -14s14 -20.666 14 -33.999zM380.999 601.003
c0 -13.333 -4.83301 -24.666 -14.5 -33.999s-21.5 -14 -35.5 -14c-13.333 0 -24.833 4.66699 -34.5 14s-14.5 20.666 -14.5 33.999s4.83301 24.666 14.5 33.999s21.167 14 34.5 14c14 0 25.833 -4.66699 35.5 -14s14.5 -20.666 14.5 -33.999z" />
    <glyph glyph-name="Amacron" unicode="&#x100;" horiz-adv-x="592" 
d="M165 690c-2.66699 4 -5.16699 8.66797 -7.5 14.001s-3.5 11.333 -3.5 18c0 11.333 3 19.666 9 24.999s13.667 8 23 8h228c2.66699 -4 5 -8.83301 7 -14.5s3 -11.5 3 -17.5c0 -22 -10.667 -33 -32 -33h-227zM428 162.001h-267.997l-15 -43.5l-15.5 -46l-14.5 -42
c-4.66699 -13 -8.33398 -23.833 -11.001 -32.5c-9.33301 -4 -20.333 -6 -33 -6c-10.667 0 -20.167 2.83301 -28.5 8.5s-12.5 14.834 -12.5 27.501c0 6 1 12.167 3 18.5s4.33301 13.166 7 20.499l38.5 108l51 140.5l56 150l52.5 135.5
c5.33301 2.66699 13.333 5.33398 24 8.00098s21.667 4 33 4c13.333 0 26.166 -2 38.499 -6s20.166 -10.667 23.499 -20c16 -38.667 33.167 -82.834 51.5 -132.501l55.5 -152.5l53.5 -153.5l45.5 -136.5c-5.33301 -6 -11.666 -10.833 -18.999 -14.5
s-15.666 -5.5 -24.999 -5.5c-12.667 0 -22.334 2.83301 -29.001 8.5s-12.334 15.167 -17.001 28.5zM294.003 545.001l-25.001 -68.501l-29 -80.5l-30 -85l-28 -82h225l-31 90.5l-30.5 87.5l-27 77.5c-8.33301 23.667 -15.166 43.834 -20.499 60.501h-4z" />
    <glyph glyph-name="amacron" unicode="&#x101;" horiz-adv-x="499" 
d="M240 52c28 0 51.1689 2.83203 69.502 8.49902s31.5 11.167 39.5 16.5v145l-124 -13c-34.667 -3.33301 -60.334 -11.166 -77.001 -23.499s-25 -30.5 -25 -54.5c0 -25.333 9.66699 -44.833 29 -58.5s48.666 -20.5 87.999 -20.5zM239.002 474.999
c58 0 104 -12.9971 138 -38.9971s51 -67 51 -123v-237c0 -14.667 -2.83301 -25.834 -8.5 -33.501s-14.167 -14.834 -25.5 -21.501c-16 -9.33301 -37.167 -17.5 -63.5 -24.5s-56.5 -10.5 -90.5 -10.5c-62.667 0 -111.167 12.333 -145.5 37s-51.5 60.334 -51.5 107.001
c0 44 14.333 77.167 43 99.5s69 36.166 121 41.499l142 14v28c0 33.333 -10 57.666 -30 72.999s-47 23 -81 23c-28 0 -54.333 -4 -79 -12s-46.667 -17 -66 -27c-5.33301 4.66699 -10.166 10 -14.499 16s-6.5 12.667 -6.5 20c0 9.33301 2.33301 17 7 23s12 11.667 22 17
c18 9.33301 38.667 16.5 62 21.5s48.666 7.5 75.999 7.5zM125.002 570.002c-2.66699 4 -5.16699 8.66797 -7.5 14.001s-3.5 11.333 -3.5 18c0 11.333 3 19.666 9 24.999s13.667 8 23 8h228c2.66699 -4 5 -8.83301 7 -14.5s3 -11.5 3 -17.5c0 -22 -10.667 -33 -32 -33h-227z
" />
    <glyph glyph-name="Abreve" unicode="&#x102;" horiz-adv-x="592" 
d="M428 162h-267.997l-15 -43.5l-15.5 -46l-14.5 -42c-4.66699 -13 -8.33398 -23.833 -11.001 -32.5c-9.33301 -4 -20.333 -6 -33 -6c-10.667 0 -20.167 2.83301 -28.5 8.5s-12.5 14.834 -12.5 27.501c0 6 1 12.167 3 18.5s4.33301 13.166 7 20.499l38.5 108l51 140.5
l56 150l52.5 135.5c5.33301 2.66699 13.333 5.33398 24 8.00098s21.667 4 33 4c13.333 0 26.166 -2 38.499 -6s20.166 -10.667 23.499 -20c16 -38.667 33.167 -82.834 51.5 -132.501l55.5 -152.5l53.5 -153.5l45.5 -136.5c-5.33301 -6 -11.666 -10.833 -18.999 -14.5
s-15.666 -5.5 -24.999 -5.5c-12.667 0 -22.334 2.83301 -29.001 8.5s-12.334 15.167 -17.001 28.5zM294.003 545l-25.001 -68.501l-29 -80.5l-30 -85l-28 -82h225l-31 90.5l-30.5 87.5l-27 77.5c-8.33301 23.667 -15.166 43.834 -20.499 60.501h-4zM296.002 724.999
c43.333 0 68.667 21.999 76 65.999c2.66699 0.666992 5.33398 1.16699 8.00098 1.5s5.66699 0.5 9 0.5c10.667 0 19.167 -3 25.5 -9s9.5 -15.667 9.5 -29c0 -10.667 -2.66699 -21.167 -8 -31.5s-13.333 -19.666 -24 -27.999s-24 -15.166 -40 -20.499s-34.667 -8 -56 -8
c-22 0 -41 2.66699 -57 8s-29.333 12.166 -40 20.499s-18.5 17.833 -23.5 28.5s-7.5 21 -7.5 31c0 25.333 11.667 38 35 38c6 0 11.667 -0.666992 17 -2c7.33301 -44 32.666 -66 75.999 -66z" />
    <glyph glyph-name="abreve" unicode="&#x103;" horiz-adv-x="499" 
d="M240 52c28 0 51.1689 2.83203 69.502 8.49902s31.5 11.167 39.5 16.5v145l-124 -13c-34.667 -3.33301 -60.334 -11.166 -77.001 -23.499s-25 -30.5 -25 -54.5c0 -25.333 9.66699 -44.833 29 -58.5s48.666 -20.5 87.999 -20.5zM239.002 474.999
c58 0 104 -12.9971 138 -38.9971s51 -67 51 -123v-237c0 -14.667 -2.83301 -25.834 -8.5 -33.501s-14.167 -14.834 -25.5 -21.501c-16 -9.33301 -37.167 -17.5 -63.5 -24.5s-56.5 -10.5 -90.5 -10.5c-62.667 0 -111.167 12.333 -145.5 37s-51.5 60.334 -51.5 107.001
c0 44 14.333 77.167 43 99.5s69 36.166 121 41.499l142 14v28c0 33.333 -10 57.666 -30 72.999s-47 23 -81 23c-28 0 -54.333 -4 -79 -12s-46.667 -17 -66 -27c-5.33301 4.66699 -10.166 10 -14.499 16s-6.5 12.667 -6.5 20c0 9.33301 2.33301 17 7 23s12 11.667 22 17
c18 9.33301 38.667 16.5 62 21.5s48.666 7.5 75.999 7.5zM253.002 599.002c43.333 0 68.667 21.999 76 65.999c2.66699 0.666992 5.33398 1.16699 8.00098 1.5s5.66699 0.5 9 0.5c10.667 0 19.167 -3 25.5 -9s9.5 -15.667 9.5 -29c0 -10.667 -2.66699 -21.167 -8 -31.5
s-13.333 -19.666 -24 -27.999s-24 -15.166 -40 -20.499s-34.667 -8 -56 -8c-22 0 -41 2.66699 -57 8s-29.333 12.166 -40 20.499s-18.5 17.833 -23.5 28.5s-7.5 21 -7.5 31c0 25.333 11.667 38 35 38c6 0 11.667 -0.666992 17 -2c7.33301 -44 32.666 -66 75.999 -66z" />
    <glyph glyph-name="Aogonek" unicode="&#x104;" horiz-adv-x="592" 
d="M428 162h-267.997l-15 -43.5l-15.5 -46l-14.5 -42c-4.66699 -13 -8.33398 -23.833 -11.001 -32.5c-9.33301 -4 -20.333 -6 -33 -6c-10.667 0 -20.167 2.83301 -28.5 8.5s-12.5 14.834 -12.5 27.501c0 6 1 12.167 3 18.5s4.33301 13.166 7 20.499l38.5 108l51 140.5
l56 150l52.5 135.5c5.33301 2.66699 13.333 5.33398 24 8.00098s21.667 4 33 4c13.333 0 26.166 -2 38.499 -6s20.166 -10.667 23.499 -20c16 -38.667 33.167 -82.834 51.5 -132.501l55.5 -152.5l53.5 -153.5l45.5 -136.5l-6 -6c-2 -2 -4.33301 -3.66699 -7 -5
c-12.667 -9.33301 -23.5 -19.666 -32.5 -30.999s-13.5 -25.666 -13.5 -42.999c0 -18 5.83301 -31.333 17.5 -40s27.167 -13 46.5 -13h14c4 -8 6 -15.667 6 -23c0 -10.667 -3.66699 -19.334 -11 -26.001s-19.666 -10 -36.999 -10c-14.667 0 -28.5 2.16699 -41.5 6.5
s-24.5 10.666 -34.5 18.999s-17.833 18.333 -23.5 30s-8.5 25.167 -8.5 40.5c0 23.333 5.5 42.833 16.5 58.5s22.833 27.5 35.5 35.5c-4.66699 6.66699 -8.33398 14.667 -11.001 24zM294.003 545l-25.001 -68.501l-29 -80.5l-30 -85l-28 -82h225l-31 90.5l-30.5 87.5
l-27 77.5c-8.33301 23.667 -15.166 43.834 -20.499 60.501h-4z" />
    <glyph glyph-name="aogonek" unicode="&#x105;" horiz-adv-x="499" 
d="M239 475c58 0 104.002 -12.9961 138.002 -38.9961s51 -67 51 -123v-237c0 -14.667 -2.83301 -25.834 -8.5 -33.501s-13.834 -14.5 -24.501 -20.5c-17.333 -14 -31 -28 -41 -42s-15 -31.667 -15 -53c0 -18 5.66699 -31.333 17 -40s26.666 -13 45.999 -13h15
c4 -8 6 -15.667 6 -23c0 -10.667 -3.66699 -19.334 -11 -26.001s-20 -10 -38 -10c-14.667 0 -28.5 2.16699 -41.5 6.5s-24.333 10.666 -34 18.999s-17.334 18.333 -23.001 30s-8.5 25.167 -8.5 40.5c0 18 3.33301 33.5 10 46.5s14.667 24.167 24 33.5
c-9.33301 -1.33301 -19.166 -2.5 -29.499 -3.5s-20.833 -1.5 -31.5 -1.5c-62.667 0 -111.167 12.333 -145.5 37s-51.5 60.334 -51.5 107.001c0 44 14.333 77.167 43 99.5s69 36.166 121 41.499l142 14v28c0 33.333 -10 57.666 -30 72.999s-47 23 -81 23
c-28 0 -54.333 -4 -79 -12s-46.667 -17 -66 -27c-5.33301 4.66699 -10.166 10 -14.499 16s-6.5 12.667 -6.5 20c0 9.33301 2.33301 17 7 23s12 11.667 22 17c18 9.33301 38.667 16.5 62 21.5s48.666 7.5 75.999 7.5zM240.002 52.0039c28 0 51.1689 2.83203 69.502 8.49902
s31.5 11.167 39.5 16.5v145l-124 -13c-34.667 -3.33301 -60.334 -11.166 -77.001 -23.499s-25 -30.5 -25 -54.5c0 -25.333 9.66699 -44.833 29 -58.5s48.666 -20.5 87.999 -20.5z" />
    <glyph glyph-name="Cacute" unicode="&#x106;" horiz-adv-x="588" 
d="M533 541c0 -9.33301 -2.83984 -17.3291 -8.50684 -23.9961s-12.167 -11.667 -19.5 -15c-17.333 12 -37.666 23.333 -60.999 34s-53.666 16 -90.999 16c-30.667 0 -59 -5.33301 -85 -16s-48.667 -26.334 -68 -47.001s-34.5 -46.667 -45.5 -78s-16.5 -67.333 -16.5 -108
c0 -41.333 5.33301 -77.333 16 -108s25.5 -56.334 44.5 -77.001s41.833 -36.167 68.5 -46.5s56.334 -15.5 89.001 -15.5c34.667 0 64.834 4.83301 90.501 14.5s47.167 21.167 64.5 34.5c6.66699 -2.66699 13 -7.5 19 -14.5s9 -15.167 9 -24.5c0 -14 -8 -26.667 -24 -38
c-15.333 -10.667 -36.333 -20.167 -63 -28.5s-60.667 -12.5 -102 -12.5c-42 0 -81 6.66699 -117 20s-67.167 33.166 -93.5 59.499s-47.166 59.166 -62.499 98.499s-23 85.333 -23 138s7.83301 98.834 23.5 138.501s36.834 72.834 63.501 99.501s57.834 46.667 93.501 60
s73.167 20 112.5 20c27.333 0 52.5 -2.33301 75.5 -7s42.667 -10.834 59 -18.501s29 -16.334 38 -26.001s13.5 -19.167 13.5 -28.5zM408.993 820.004c14.667 -0.666992 25.833 -4.5 33.5 -11.5s11.5 -15.167 11.5 -24.5s-1.83301 -17 -5.5 -23s-10.167 -13 -19.5 -21
l-85 -76c-12.667 1.33301 -22.5 4.66602 -29.5 9.99902s-10.5 12 -10.5 20c0 6.66699 1.33301 12.334 4 17.001s6 9 10 13z" />
    <glyph glyph-name="cacute" unicode="&#x107;" horiz-adv-x="478" 
d="M289 408c-22.667 0 -43.6699 -3.83203 -63.0029 -11.499s-36 -19 -50 -34s-25 -33.667 -33 -56s-12 -47.833 -12 -76.5c0 -57.333 14.333 -101.166 43 -131.499s67 -45.5 115 -45.5c28 0 51.333 3.83301 70 11.5s35.334 16.5 50.001 26.5c7.33301 -4 13.333 -9 18 -15
s7 -13.333 7 -22c0 -9.33301 -3.66699 -18 -11 -26s-17.5 -15 -30.5 -21s-28.333 -10.833 -46 -14.5s-36.834 -5.5 -57.501 -5.5c-34.667 0 -66.667 5 -96 15s-54.666 25 -75.999 45s-38 45.167 -50 75.5s-18 66.166 -18 107.499c0 40.667 6.33301 76.167 19 106.5
s29.667 55.833 51 76.5s46.5 36.167 75.5 46.5s59.833 15.5 92.5 15.5c20.667 0 39.834 -1.83301 57.501 -5.5s32.834 -8.83398 45.501 -15.501s22.5 -14.167 29.5 -22.5s10.5 -16.833 10.5 -25.5c0 -8 -2.33301 -15 -7 -21s-10.667 -10.667 -18 -14
c-14.667 10 -30.667 18.667 -48 26s-40 11 -68 11zM356.997 687.001c14.667 -0.666992 26.501 -4.83203 35.501 -12.499s13.5 -16.167 13.5 -25.5s-2 -16.833 -6 -22.5s-10.667 -12.834 -20 -21.501l-91 -89c-13.333 0 -24 3.5 -32 10.5s-12 14.833 -12 23.5
c0 5.33301 1.66699 10.333 5 15s6.66602 9 9.99902 13z" />
    <glyph glyph-name="Ccircumflex" unicode="&#x108;" horiz-adv-x="588" 
d="M533 541c0 -9.33301 -2.83984 -17.3291 -8.50684 -23.9961s-12.167 -11.667 -19.5 -15c-17.333 12 -37.666 23.333 -60.999 34s-53.666 16 -90.999 16c-30.667 0 -59 -5.33301 -85 -16s-48.667 -26.334 -68 -47.001s-34.5 -46.667 -45.5 -78s-16.5 -67.333 -16.5 -108
c0 -41.333 5.33301 -77.333 16 -108s25.5 -56.334 44.5 -77.001s41.833 -36.167 68.5 -46.5s56.334 -15.5 89.001 -15.5c34.667 0 64.834 4.83301 90.501 14.5s47.167 21.167 64.5 34.5c6.66699 -2.66699 13 -7.5 19 -14.5s9 -15.167 9 -24.5c0 -14 -8 -26.667 -24 -38
c-15.333 -10.667 -36.333 -20.167 -63 -28.5s-60.667 -12.5 -102 -12.5c-42 0 -81 6.66699 -117 20s-67.167 33.166 -93.5 59.499s-47.166 59.166 -62.499 98.499s-23 85.333 -23 138s7.83301 98.834 23.5 138.501s36.834 72.834 63.501 99.501s57.834 46.667 93.501 60
s73.167 20 112.5 20c27.333 0 52.5 -2.33301 75.5 -7s42.667 -10.834 59 -18.501s29 -16.334 38 -26.001s13.5 -19.167 13.5 -28.5zM341.993 751.004l-40.0029 -41.499c-15.333 -16.333 -32.666 -33.166 -51.999 -50.499c-11.333 1.33301 -20.666 4.83301 -27.999 10.5
s-11 13.167 -11 22.5c0 7.33301 2.5 14.166 7.5 20.499s11.167 13.166 18.5 20.499l59 59c14.667 14.667 30.334 22 47.001 22c10.667 0 19.667 -2.16699 27 -6.5s15 -10.833 23 -19.5l82 -93c0 -10 -3.16699 -18.167 -9.5 -24.5s-14.5 -9.5 -24.5 -9.5
c-7.33301 0 -14.333 2 -21 6s-14.667 11.333 -24 22z" />
    <glyph glyph-name="ccircumflex" unicode="&#x109;" horiz-adv-x="478" 
d="M289 408c-22.667 0 -43.6699 -3.83203 -63.0029 -11.499s-36 -19 -50 -34s-25 -33.667 -33 -56s-12 -47.833 -12 -76.5c0 -57.333 14.333 -101.166 43 -131.499s67 -45.5 115 -45.5c28 0 51.333 3.83301 70 11.5s35.334 16.5 50.001 26.5c7.33301 -4 13.333 -9 18 -15
s7 -13.333 7 -22c0 -9.33301 -3.66699 -18 -11 -26s-17.5 -15 -30.5 -21s-28.333 -10.833 -46 -14.5s-36.834 -5.5 -57.501 -5.5c-34.667 0 -66.667 5 -96 15s-54.666 25 -75.999 45s-38 45.167 -50 75.5s-18 66.166 -18 107.499c0 40.667 6.33301 76.167 19 106.5
s29.667 55.833 51 76.5s46.5 36.167 75.5 46.5s59.833 15.5 92.5 15.5c20.667 0 39.834 -1.83301 57.501 -5.5s32.834 -8.83398 45.501 -15.501s22.5 -14.167 29.5 -22.5s10.5 -16.833 10.5 -25.5c0 -8 -2.33301 -15 -7 -21s-10.667 -10.667 -18 -14
c-14.667 10 -30.667 18.667 -48 26s-40 11 -68 11zM276.997 618.001c-15.333 -18.667 -30.502 -35.8311 -45.502 -51.498s-29.167 -31.167 -42.5 -46.5c-12 1.33301 -22 4.83301 -30 10.5s-12 13.167 -12 22.5c0 7.33301 2 13.666 6 18.999s9.33301 11.666 16 18.999l61 66
c8.66699 7.33301 16.334 13 23.001 17s14.667 6 24 6c10.667 0 19.334 -2 26.001 -6s13.667 -10 21 -18l84 -100c0 -9.33301 -2.5 -17.333 -7.5 -24s-12.833 -10 -23.5 -10c-8 0 -14.5 1.83301 -19.5 5.5s-10.167 8.16699 -15.5 13.5z" />
    <glyph glyph-name="Cdotaccent" unicode="&#x10a;" horiz-adv-x="588" 
d="M533 541c0 -9.33301 -2.83984 -17.3291 -8.50684 -23.9961s-12.167 -11.667 -19.5 -15c-17.333 12 -37.666 23.333 -60.999 34s-53.666 16 -90.999 16c-30.667 0 -59 -5.33301 -85 -16s-48.667 -26.334 -68 -47.001s-34.5 -46.667 -45.5 -78s-16.5 -67.333 -16.5 -108
c0 -41.333 5.33301 -77.333 16 -108s25.5 -56.334 44.5 -77.001s41.833 -36.167 68.5 -46.5s56.334 -15.5 89.001 -15.5c34.667 0 64.834 4.83301 90.501 14.5s47.167 21.167 64.5 34.5c6.66699 -2.66699 13 -7.5 19 -14.5s9 -15.167 9 -24.5c0 -14 -8 -26.667 -24 -38
c-15.333 -10.667 -36.333 -20.167 -63 -28.5s-60.667 -12.5 -102 -12.5c-42 0 -81 6.66699 -117 20s-67.167 33.166 -93.5 59.499s-47.166 59.166 -62.499 98.499s-23 85.333 -23 138s7.83301 98.834 23.5 138.501s36.834 72.834 63.501 99.501s57.834 46.667 93.501 60
s73.167 20 112.5 20c27.333 0 52.5 -2.33301 75.5 -7s42.667 -10.834 59 -18.501s29 -16.334 38 -26.001s13.5 -19.167 13.5 -28.5zM386.993 730.004c0 -14.667 -4.66699 -26.5 -14 -35.5s-21.666 -13.5 -36.999 -13.5s-27.5 4.5 -36.5 13.5s-13.5 20.833 -13.5 35.5
c0 15.333 4.5 27.5 13.5 36.5s21.167 13.5 36.5 13.5s27.666 -4.5 36.999 -13.5s14 -21.167 14 -36.5z" />
    <glyph glyph-name="cdotaccent" unicode="&#x10b;" horiz-adv-x="478" 
d="M289 408c-22.667 0 -43.6699 -3.83203 -63.0029 -11.499s-36 -19 -50 -34s-25 -33.667 -33 -56s-12 -47.833 -12 -76.5c0 -57.333 14.333 -101.166 43 -131.499s67 -45.5 115 -45.5c28 0 51.333 3.83301 70 11.5s35.334 16.5 50.001 26.5c7.33301 -4 13.333 -9 18 -15
s7 -13.333 7 -22c0 -9.33301 -3.66699 -18 -11 -26s-17.5 -15 -30.5 -21s-28.333 -10.833 -46 -14.5s-36.834 -5.5 -57.501 -5.5c-34.667 0 -66.667 5 -96 15s-54.666 25 -75.999 45s-38 45.167 -50 75.5s-18 66.166 -18 107.499c0 40.667 6.33301 76.167 19 106.5
s29.667 55.833 51 76.5s46.5 36.167 75.5 46.5s59.833 15.5 92.5 15.5c20.667 0 39.834 -1.83301 57.501 -5.5s32.834 -8.83398 45.501 -15.501s22.5 -14.167 29.5 -22.5s10.5 -16.833 10.5 -25.5c0 -8 -2.33301 -15 -7 -21s-10.667 -10.667 -18 -14
c-14.667 10 -30.667 18.667 -48 26s-40 11 -68 11zM320.997 607.001c0 -14.667 -4.66699 -26.5 -14 -35.5s-21.666 -13.5 -36.999 -13.5s-27.5 4.5 -36.5 13.5s-13.5 20.833 -13.5 35.5c0 15.333 4.5 27.5 13.5 36.5s21.167 13.5 36.5 13.5s27.666 -4.5 36.999 -13.5
s14 -21.167 14 -36.5z" />
    <glyph glyph-name="Ccaron" unicode="&#x10c;" horiz-adv-x="588" 
d="M533 541c0 -9.33301 -2.83984 -17.3291 -8.50684 -23.9961s-12.167 -11.667 -19.5 -15c-17.333 12 -37.666 23.333 -60.999 34s-53.666 16 -90.999 16c-30.667 0 -59 -5.33301 -85 -16s-48.667 -26.334 -68 -47.001s-34.5 -46.667 -45.5 -78s-16.5 -67.333 -16.5 -108
c0 -41.333 5.33301 -77.333 16 -108s25.5 -56.334 44.5 -77.001s41.833 -36.167 68.5 -46.5s56.334 -15.5 89.001 -15.5c34.667 0 64.834 4.83301 90.501 14.5s47.167 21.167 64.5 34.5c6.66699 -2.66699 13 -7.5 19 -14.5s9 -15.167 9 -24.5c0 -14 -8 -26.667 -24 -38
c-15.333 -10.667 -36.333 -20.167 -63 -28.5s-60.667 -12.5 -102 -12.5c-42 0 -81 6.66699 -117 20s-67.167 33.166 -93.5 59.499s-47.166 59.166 -62.499 98.499s-23 85.333 -23 138s7.83301 98.834 23.5 138.501s36.834 72.834 63.501 99.501s57.834 46.667 93.501 60
s73.167 20 112.5 20c27.333 0 52.5 -2.33301 75.5 -7s42.667 -10.834 59 -18.501s29 -16.334 38 -26.001s13.5 -19.167 13.5 -28.5zM435.993 814.004c12 -1.33301 22.333 -4.83398 31 -10.501s13 -13.167 13 -22.5c0 -8 -2.5 -15 -7.5 -21s-11.167 -12.667 -18.5 -20
l-60 -60c-7.33301 -7.33301 -14.5 -12.5 -21.5 -15.5s-15.167 -4.5 -24.5 -4.5c-10 0 -18.833 2 -26.5 6s-15.167 10.333 -22.5 19l-83 88c0 12.667 3 22.334 9 29.001s14 10 24 10c7.33301 0 14.333 -2 21 -6s14.667 -11.333 24 -22l54 -63z" />
    <glyph glyph-name="ccaron" unicode="&#x10d;" horiz-adv-x="478" 
d="M289 408c-22.667 0 -43.6699 -3.83203 -63.0029 -11.499s-36 -19 -50 -34s-25 -33.667 -33 -56s-12 -47.833 -12 -76.5c0 -57.333 14.333 -101.166 43 -131.499s67 -45.5 115 -45.5c28 0 51.333 3.83301 70 11.5s35.334 16.5 50.001 26.5c7.33301 -4 13.333 -9 18 -15
s7 -13.333 7 -22c0 -9.33301 -3.66699 -18 -11 -26s-17.5 -15 -30.5 -21s-28.333 -10.833 -46 -14.5s-36.834 -5.5 -57.501 -5.5c-34.667 0 -66.667 5 -96 15s-54.666 25 -75.999 45s-38 45.167 -50 75.5s-18 66.166 -18 107.499c0 40.667 6.33301 76.167 19 106.5
s29.667 55.833 51 76.5s46.5 36.167 75.5 46.5s59.833 15.5 92.5 15.5c20.667 0 39.834 -1.83301 57.501 -5.5s32.834 -8.83398 45.501 -15.501s22.5 -14.167 29.5 -22.5s10.5 -16.833 10.5 -25.5c0 -8 -2.33301 -15 -7 -21s-10.667 -10.667 -18 -14
c-14.667 10 -30.667 18.667 -48 26s-40 11 -68 11zM272.997 583.001l88 97.001c13.333 -1.33301 23.833 -5 31.5 -11s11.5 -13.667 11.5 -23c0 -7.33301 -2.33301 -14 -7 -20s-10.667 -13 -18 -21l-63 -64c-6.66699 -6.66699 -13.334 -11.667 -20.001 -15s-14.667 -5 -24 -5
s-17.833 2.16699 -25.5 6.5s-15.5 10.833 -23.5 19.5l-85 93c0 10 3 18.833 9 26.5s14 11.5 24 11.5c8.66699 0 15.834 -1.83301 21.501 -5.5s12.167 -9.83398 19.5 -18.501z" />
    <glyph glyph-name="Dcaron" unicode="&#x10e;" horiz-adv-x="652" 
d="M515 311c0 42.667 -6.5 79.168 -19.5 109.501s-30.667 55.166 -53 74.499s-48.333 33.5 -78 42.5s-61.5 13.5 -95.5 13.5c-21.333 0 -39.833 -0.666992 -55.5 -2s-30.167 -3.33301 -43.5 -6v-476c16 -4 33.167 -6.66699 51.5 -8s37.166 -2 56.499 -2
c78.667 0 137.834 21.333 177.501 64s59.5 106 59.5 190zM598 311.001c0 -54.667 -7.49902 -102.169 -22.499 -142.502s-36.333 -73.833 -64 -100.5s-61.167 -46.5 -100.5 -59.5s-83.333 -19.5 -132 -19.5c-21.333 0 -45.333 0.833008 -72 2.5s-52 6.16699 -76 13.5
c-28 8.66699 -42 24 -42 46v514c0 10.667 2.66699 18.834 8 24.501s13.666 10.167 24.999 13.5c20.667 6.66699 44 11 70 13s52 3 78 3c48.667 0 93.167 -6.5 133.5 -19.5s74.833 -32.333 103.5 -58s51 -57.667 67 -96s24 -83.166 24 -134.499zM403.001 813.999
c12 -1.33301 22.333 -4.83398 31 -10.501s13 -13.167 13 -22.5c0 -8 -2.5 -15 -7.5 -21s-11.167 -12.667 -18.5 -20l-60 -60c-7.33301 -7.33301 -14.5 -12.5 -21.5 -15.5s-15.167 -4.5 -24.5 -4.5c-10 0 -18.833 2 -26.5 6s-15.167 10.333 -22.5 19l-83 88
c0 12.667 3 22.334 9 29.001s14 10 24 10c7.33301 0 14.333 -2 21 -6s14.667 -11.333 24 -22l54 -63z" />
    <glyph glyph-name="dcaron" unicode="&#x10f;" horiz-adv-x="624" 
d="M470 76c0 -13.333 -2.83203 -23.667 -8.49902 -31s-14.5 -14.666 -26.5 -21.999c-13.333 -8.66699 -32.333 -16.834 -57 -24.501s-53 -11.5 -85 -11.5c-36 0 -69 4.66699 -99 14s-55.833 23.833 -77.5 43.5s-38.334 44.667 -50.001 75s-17.5 66.833 -17.5 109.5
c0 43.333 6 80.5 18 111.5s28.167 56.5 48.5 76.5s44.333 34.667 72 44s57.167 14 88.5 14c21.333 0 42 -2.66699 62 -8s37.333 -12 52 -20v201c3.33301 1.33301 8.5 2.83301 15.5 4.5s14.167 2.5 21.5 2.5c28.667 0 43 -12 43 -36v-543zM390.001 374.999
c-13.333 9.33301 -28.667 17.3291 -46 23.9961s-37.333 10 -60 10c-20.667 0 -40.167 -3.16699 -58.5 -9.5s-34.5 -16.666 -48.5 -30.999s-25.167 -33.166 -33.5 -56.499s-12.5 -51.666 -12.5 -84.999c0 -61.333 14.667 -105.666 44 -132.999s68.333 -41 117 -41
c23.333 0 42.5 2.5 57.5 7.5s28.5 11.167 40.5 18.5v296zM589 515.995c-10 -12 -22.666 -17.998 -37.999 -17.998c-14 0 -24.333 4.33301 -31 13c9.33301 23.333 18 47.166 26 71.499s13 46.166 15 65.499c11.333 4.66699 23.333 7 36 7c10.667 0 19.5 -2.5 26.5 -7.5
s10.5 -12.5 10.5 -22.5c0 -8 -1.33301 -17.167 -4 -27.5s-6.33398 -20.5 -11.001 -30.5s-9.66699 -19.5 -15 -28.5s-10.333 -16.5 -15 -22.5z" />
    <glyph glyph-name="Dcroat" unicode="&#x110;" horiz-adv-x="691" 
d="M637 311c0 -54.667 -7.49902 -102.169 -22.499 -142.502s-36.333 -73.833 -64 -100.5s-61.167 -46.5 -100.5 -59.5s-83.333 -19.5 -132 -19.5c-21.333 0 -45.333 0.833008 -72 2.5s-52 6.16699 -76 13.5c-28 8.66699 -42 24 -42 46v219h-113
c-2.66699 3.33301 -5 7.83301 -7 13.5s-3 11.834 -3 18.501c0 11.333 2.83301 20.166 8.5 26.499s13.167 9.5 22.5 9.5h92v227c0 10.667 2.66699 18.834 8 24.501s13.666 10.167 24.999 13.5c20.667 6.66699 44 11 70 13s52 3 78 3c48.667 0 93.167 -6.5 133.5 -19.5
s74.833 -32.333 103.5 -58s51 -57.667 67 -96s24 -83.166 24 -134.499zM554.001 310.998c0 42.667 -6.5 79.165 -19.5 109.498s-30.667 55.166 -53 74.499s-48.333 33.5 -78 42.5s-61.5 13.5 -95.5 13.5c-21.333 0 -39.833 -0.666992 -55.5 -2s-30.167 -3.33301 -43.5 -6
v-205h146c2 -3.33301 4.16699 -7.66602 6.5 -12.999s3.5 -11.666 3.5 -18.999c0 -11.333 -2.83301 -20.166 -8.5 -26.499s-13.5 -9.5 -23.5 -9.5h-124v-203c16 -4 33.167 -6.66699 51.5 -8s37.166 -2 56.499 -2c78.667 0 137.834 21.333 177.501 64s59.5 106 59.5 190z" />
    <glyph glyph-name="dcroat" unicode="&#x111;" 
d="M470 76c0 -13.333 -2.83203 -23.667 -8.49902 -31s-14.5 -14.666 -26.5 -21.999c-13.333 -8.66699 -32.333 -16.834 -57 -24.501s-53 -11.5 -85 -11.5c-36 0 -69 4.66699 -99 14s-55.833 23.833 -77.5 43.5s-38.334 44.667 -50.001 75s-17.5 66.833 -17.5 109.5
c0 43.333 6 80.5 18 111.5s28.167 56.5 48.5 76.5s44.333 34.667 72 44s57.167 14 88.5 14c21.333 0 42 -2.66699 62 -8s37.333 -12 52 -20v80h-103c-2 3.33301 -3.83301 7.5 -5.5 12.5s-2.5 10.833 -2.5 17.5c0 20 9 30 27 30h84v62c3.33301 1.33301 8.5 2.83301 15.5 4.5
s14.167 2.5 21.5 2.5c28.667 0 43 -12 43 -36v-33h67l5 -12c2 -4.66699 3 -10 3 -16c0 -21.333 -9.33301 -32 -28 -32h-47v-451zM390.001 374.999c-13.333 9.33301 -28.667 17.3291 -46 23.9961s-37.333 10 -60 10c-20.667 0 -40.167 -3.16699 -58.5 -9.5
s-34.5 -16.666 -48.5 -30.999s-25.167 -33.166 -33.5 -56.499s-12.5 -51.666 -12.5 -84.999c0 -61.333 14.667 -105.666 44 -132.999s68.333 -41 117 -41c23.333 0 42.5 2.5 57.5 7.5s28.5 11.167 40.5 18.5v296z" />
    <glyph glyph-name="Emacron" unicode="&#x112;" horiz-adv-x="542" 
d="M145 0c-13.333 0 -24 3.99805 -32 11.998s-12 18.667 -12 32v520c0 13.333 4 24 12 32s18.667 12 32 12h332c2 -3.33301 4 -7.83301 6 -13.5s3 -11.834 3 -18.501c0 -11.333 -2.66699 -20.333 -8 -27s-13 -10 -23 -10h-273v-193h264c2 -3.33301 4 -7.83301 6 -13.5
s3 -11.834 3 -18.501c0 -11.333 -2.66699 -20.166 -8 -26.499s-13 -9.5 -23 -9.5h-242v-210h300c2 -3.33301 4 -7.66602 6 -12.999s3 -11.666 3 -18.999c0 -11.333 -2.66699 -20.166 -8 -26.499s-13 -9.5 -23 -9.5h-315zM162 689.998
c-2.66699 4 -5.16699 8.66797 -7.5 14.001s-3.5 11.333 -3.5 18c0 11.333 3 19.666 9 24.999s13.667 8 23 8h228c2.66699 -4 5 -8.83301 7 -14.5s3 -11.5 3 -17.5c0 -22 -10.667 -33 -32 -33h-227z" />
    <glyph glyph-name="emacron" unicode="&#x113;" horiz-adv-x="519" 
d="M132 184c18 -87.333 75.334 -131.001 172.001 -131.001c28 0 53.333 4.66699 76 14s40.667 19.333 54 30c16 -9.33301 24 -22 24 -38c0 -9.33301 -4.16699 -18.333 -12.5 -27s-19.666 -16.334 -33.999 -23.001s-31 -12 -50 -16s-39.5 -6 -61.5 -6
c-77.333 0 -138.5 21 -183.5 63s-67.5 103.333 -67.5 184c0 38 5.5 71.833 16.5 101.5s26.333 54.834 46 75.501s43.167 36.5 70.5 47.5s57 16.5 89 16.5c30 0 57.667 -5 83 -15s47.166 -24.167 65.499 -42.5s32.666 -40 42.999 -65s15.5 -52.5 15.5 -82.5
c0 -14.667 -3.33301 -25.167 -10 -31.5s-16 -10.166 -28 -11.499zM270.001 409.999c-40.667 0 -74.334 -14.168 -101.001 -42.501s-40.667 -68.833 -42 -121.5l275 38c-3.33301 36.667 -16.166 66.834 -38.499 90.501s-53.5 35.5 -93.5 35.5zM145.001 569.998
c-2.66699 4 -5.16699 8.66797 -7.5 14.001s-3.5 11.333 -3.5 18c0 11.333 3 19.666 9 24.999s13.667 8 23 8h228c2.66699 -4 5 -8.83301 7 -14.5s3 -11.5 3 -17.5c0 -22 -10.667 -33 -32 -33h-227z" />
    <glyph glyph-name="Ebreve" unicode="&#x114;" horiz-adv-x="542" 
d="M145 0c-13.333 0 -24 3.99805 -32 11.998s-12 18.667 -12 32v520c0 13.333 4 24 12 32s18.667 12 32 12h332c2 -3.33301 4 -7.83301 6 -13.5s3 -11.834 3 -18.501c0 -11.333 -2.66699 -20.333 -8 -27s-13 -10 -23 -10h-273v-193h264c2 -3.33301 4 -7.83301 6 -13.5
s3 -11.834 3 -18.501c0 -11.333 -2.66699 -20.166 -8 -26.499s-13 -9.5 -23 -9.5h-242v-210h300c2 -3.33301 4 -7.66602 6 -12.999s3 -11.666 3 -18.999c0 -11.333 -2.66699 -20.166 -8 -26.499s-13 -9.5 -23 -9.5h-315zM302 725.998c43.333 0 68.667 21.999 76 65.999
c2.66699 0.666992 5.33398 1.16699 8.00098 1.5s5.66699 0.5 9 0.5c10.667 0 19.167 -3 25.5 -9s9.5 -15.667 9.5 -29c0 -10.667 -2.66699 -21.167 -8 -31.5s-13.333 -19.666 -24 -27.999s-24 -15.166 -40 -20.499s-34.667 -8 -56 -8c-22 0 -41 2.66699 -57 8
s-29.333 12.166 -40 20.499s-18.5 17.833 -23.5 28.5s-7.5 21 -7.5 31c0 25.333 11.667 38 35 38c6 0 11.667 -0.666992 17 -2c7.33301 -44 32.666 -66 75.999 -66z" />
    <glyph glyph-name="ebreve" unicode="&#x115;" horiz-adv-x="519" 
d="M132 184c18 -87.333 75.334 -131.001 172.001 -131.001c28 0 53.333 4.66699 76 14s40.667 19.333 54 30c16 -9.33301 24 -22 24 -38c0 -9.33301 -4.16699 -18.333 -12.5 -27s-19.666 -16.334 -33.999 -23.001s-31 -12 -50 -16s-39.5 -6 -61.5 -6
c-77.333 0 -138.5 21 -183.5 63s-67.5 103.333 -67.5 184c0 38 5.5 71.833 16.5 101.5s26.333 54.834 46 75.501s43.167 36.5 70.5 47.5s57 16.5 89 16.5c30 0 57.667 -5 83 -15s47.166 -24.167 65.499 -42.5s32.666 -40 42.999 -65s15.5 -52.5 15.5 -82.5
c0 -14.667 -3.33301 -25.167 -10 -31.5s-16 -10.166 -28 -11.499zM270.001 409.999c-40.667 0 -74.334 -14.168 -101.001 -42.501s-40.667 -68.833 -42 -121.5l275 38c-3.33301 36.667 -16.166 66.834 -38.499 90.501s-53.5 35.5 -93.5 35.5zM271.001 598.998
c43.333 0 68.667 21.999 76 65.999c2.66699 0.666992 5.33398 1.16699 8.00098 1.5s5.66699 0.5 9 0.5c10.667 0 19.167 -3 25.5 -9s9.5 -15.667 9.5 -29c0 -10.667 -2.66699 -21.167 -8 -31.5s-13.333 -19.666 -24 -27.999s-24 -15.166 -40 -20.499s-34.667 -8 -56 -8
c-22 0 -41 2.66699 -57 8s-29.333 12.166 -40 20.499s-18.5 17.833 -23.5 28.5s-7.5 21 -7.5 31c0 25.333 11.667 38 35 38c6 0 11.667 -0.666992 17 -2c7.33301 -44 32.666 -66 75.999 -66z" />
    <glyph glyph-name="Edotaccent" unicode="&#x116;" horiz-adv-x="542" 
d="M145 0c-13.333 0 -24 3.99805 -32 11.998s-12 18.667 -12 32v520c0 13.333 4 24 12 32s18.667 12 32 12h332c2 -3.33301 4 -7.83301 6 -13.5s3 -11.834 3 -18.501c0 -11.333 -2.66699 -20.333 -8 -27s-13 -10 -23 -10h-273v-193h264c2 -3.33301 4 -7.83301 6 -13.5
s3 -11.834 3 -18.501c0 -11.333 -2.66699 -20.166 -8 -26.499s-13 -9.5 -23 -9.5h-242v-210h300c2 -3.33301 4 -7.66602 6 -12.999s3 -11.666 3 -18.999c0 -11.333 -2.66699 -20.166 -8 -26.499s-13 -9.5 -23 -9.5h-315zM363 729.998c0 -14.667 -4.66699 -26.5 -14 -35.5
s-21.666 -13.5 -36.999 -13.5s-27.5 4.5 -36.5 13.5s-13.5 20.833 -13.5 35.5c0 15.333 4.5 27.5 13.5 36.5s21.167 13.5 36.5 13.5s27.666 -4.5 36.999 -13.5s14 -21.167 14 -36.5z" />
    <glyph glyph-name="edotaccent" unicode="&#x117;" horiz-adv-x="519" 
d="M132 184c18 -87.333 75.334 -131.001 172.001 -131.001c28 0 53.333 4.66699 76 14s40.667 19.333 54 30c16 -9.33301 24 -22 24 -38c0 -9.33301 -4.16699 -18.333 -12.5 -27s-19.666 -16.334 -33.999 -23.001s-31 -12 -50 -16s-39.5 -6 -61.5 -6
c-77.333 0 -138.5 21 -183.5 63s-67.5 103.333 -67.5 184c0 38 5.5 71.833 16.5 101.5s26.333 54.834 46 75.501s43.167 36.5 70.5 47.5s57 16.5 89 16.5c30 0 57.667 -5 83 -15s47.166 -24.167 65.499 -42.5s32.666 -40 42.999 -65s15.5 -52.5 15.5 -82.5
c0 -14.667 -3.33301 -25.167 -10 -31.5s-16 -10.166 -28 -11.499zM270.001 409.999c-40.667 0 -74.334 -14.168 -101.001 -42.501s-40.667 -68.833 -42 -121.5l275 38c-3.33301 36.667 -16.166 66.834 -38.499 90.501s-53.5 35.5 -93.5 35.5zM320.001 606.998
c0 -14.667 -4.66699 -26.5 -14 -35.5s-21.666 -13.5 -36.999 -13.5s-27.5 4.5 -36.5 13.5s-13.5 20.833 -13.5 35.5c0 15.333 4.5 27.5 13.5 36.5s21.167 13.5 36.5 13.5s27.666 -4.5 36.999 -13.5s14 -21.167 14 -36.5z" />
    <glyph glyph-name="Eogonek" unicode="&#x118;" horiz-adv-x="542" 
d="M145 0c-13.333 0 -23.9961 4.00195 -31.9961 12.002s-12 18.667 -12 32v520c0 13.333 4 24 12 32s18.667 12 32 12h332c2 -3.33301 4 -7.83301 6 -13.5s3 -11.834 3 -18.501c0 -11.333 -2.66699 -20.333 -8 -27s-13 -10 -23 -10h-273v-193h264
c2 -3.33301 4 -7.83301 6 -13.5s3 -11.834 3 -18.501c0 -11.333 -2.66699 -20.166 -8 -26.499s-13 -9.5 -23 -9.5h-242v-210h300c2 -3.33301 4 -7.66602 6 -12.999s3 -11.666 3 -18.999c0 -11.333 -2.66699 -20.166 -8 -26.499s-13 -9.5 -23 -9.5h-1
c-12.667 -9.33301 -23.334 -19.5 -32.001 -30.5s-13 -25.167 -13 -42.5c0 -18 5.66699 -31.333 17 -40s26.666 -13 45.999 -13h15c4 -8 6 -15.667 6 -23c0 -10.667 -3.66699 -19.334 -11 -26.001s-20 -10 -38 -10c-14.667 0 -28.5 2.16699 -41.5 6.5
s-24.333 10.666 -34 18.999s-17.334 18.333 -23.001 30s-8.5 25.167 -8.5 40.5c0 21.333 4.66699 39.166 14 53.499s19.666 26.166 30.999 35.499h-242v0z" />
    <glyph glyph-name="eogonek" unicode="&#x119;" horiz-adv-x="519" 
d="M132 184c18 -87.333 75.3359 -131 172.003 -131c28 0 53.333 4.66699 76 14s40.667 19.333 54 30c16 -9.33301 24 -22 24 -38c0 -11.333 -5.16699 -21.666 -15.5 -30.999s-24.166 -17.333 -41.499 -24c-14 -9.33301 -26 -19.833 -36 -31.5s-15 -26.834 -15 -45.501
c0 -18 5.66699 -31.333 17 -40s26.666 -13 45.999 -13h15c4 -8 6 -15.667 6 -23c0 -10.667 -3.66699 -19.334 -11 -26.001s-20 -10 -38 -10c-14.667 0 -28.5 2.16699 -41.5 6.5s-24.333 10.666 -34 18.999s-17.334 18.333 -23.001 30s-8.5 25.167 -8.5 40.5
c0 17.333 3 32 9 44s13.333 22.667 22 32h-9c-77.333 0 -138.5 21 -183.5 63s-67.5 103.333 -67.5 184c0 38 5.5 71.833 16.5 101.5s26.333 54.834 46 75.501s43.167 36.5 70.5 47.5s57 16.5 89 16.5c30 0 57.667 -5 83 -15s47.166 -24.167 65.499 -42.5
s32.666 -40 42.999 -65s15.5 -52.5 15.5 -82.5c0 -14.667 -3.33301 -25.167 -10 -31.5s-16 -10.166 -28 -11.499zM270.003 410c-40.667 0 -74.334 -14.168 -101.001 -42.501s-40.667 -68.833 -42 -121.5l275 38c-3.33301 36.667 -16.166 66.834 -38.499 90.501
s-53.5 35.5 -93.5 35.5z" />
    <glyph glyph-name="Ecaron" unicode="&#x11a;" horiz-adv-x="542" 
d="M145 0c-13.333 0 -24 3.99805 -32 11.998s-12 18.667 -12 32v520c0 13.333 4 24 12 32s18.667 12 32 12h332c2 -3.33301 4 -7.83301 6 -13.5s3 -11.834 3 -18.501c0 -11.333 -2.66699 -20.333 -8 -27s-13 -10 -23 -10h-273v-193h264c2 -3.33301 4 -7.83301 6 -13.5
s3 -11.834 3 -18.501c0 -11.333 -2.66699 -20.166 -8 -26.499s-13 -9.5 -23 -9.5h-242v-210h300c2 -3.33301 4 -7.66602 6 -12.999s3 -11.666 3 -18.999c0 -11.333 -2.66699 -20.166 -8 -26.499s-13 -9.5 -23 -9.5h-315zM394 813.998
c12 -1.33301 22.333 -4.83398 31 -10.501s13 -13.167 13 -22.5c0 -8 -2.5 -15 -7.5 -21s-11.167 -12.667 -18.5 -20l-60 -60c-7.33301 -7.33301 -14.5 -12.5 -21.5 -15.5s-15.167 -4.5 -24.5 -4.5c-10 0 -18.833 2 -26.5 6s-15.167 10.333 -22.5 19l-83 88
c0 12.667 3 22.334 9 29.001s14 10 24 10c7.33301 0 14.333 -2 21 -6s14.667 -11.333 24 -22l54 -63z" />
    <glyph glyph-name="ecaron" unicode="&#x11b;" horiz-adv-x="519" 
d="M132 184c18 -87.333 75.334 -131.001 172.001 -131.001c28 0 53.333 4.66699 76 14s40.667 19.333 54 30c16 -9.33301 24 -22 24 -38c0 -9.33301 -4.16699 -18.333 -12.5 -27s-19.666 -16.334 -33.999 -23.001s-31 -12 -50 -16s-39.5 -6 -61.5 -6
c-77.333 0 -138.5 21 -183.5 63s-67.5 103.333 -67.5 184c0 38 5.5 71.833 16.5 101.5s26.333 54.834 46 75.501s43.167 36.5 70.5 47.5s57 16.5 89 16.5c30 0 57.667 -5 83 -15s47.166 -24.167 65.499 -42.5s32.666 -40 42.999 -65s15.5 -52.5 15.5 -82.5
c0 -14.667 -3.33301 -25.167 -10 -31.5s-16 -10.166 -28 -11.499zM270.001 409.999c-40.667 0 -74.334 -14.168 -101.001 -42.501s-40.667 -68.833 -42 -121.5l275 38c-3.33301 36.667 -16.166 66.834 -38.499 90.501s-53.5 35.5 -93.5 35.5zM273.001 582.998l88 97.001
c13.333 -1.33301 23.833 -5 31.5 -11s11.5 -13.667 11.5 -23c0 -7.33301 -2.33301 -14 -7 -20s-10.667 -13 -18 -21l-63 -64c-6.66699 -6.66699 -13.334 -11.667 -20.001 -15s-14.667 -5 -24 -5s-17.833 2.16699 -25.5 6.5s-15.5 10.833 -23.5 19.5l-85 93
c0 10 3 18.833 9 26.5s14 11.5 24 11.5c8.66699 0 15.834 -1.83301 21.501 -5.5s12.167 -9.83398 19.5 -18.501z" />
    <glyph glyph-name="Gcircumflex" unicode="&#x11c;" horiz-adv-x="639" 
d="M570 70c0 -12 -3.5 -21.998 -10.5 -29.998s-17.5 -15.667 -31.5 -23c-16.667 -8 -39.667 -15 -69 -21s-59 -9 -89 -9c-46.667 0 -89.334 6.33301 -128.001 19s-72 32 -100 58s-49.667 58.833 -65 98.5s-23 86.5 -23 140.5c0 53.333 8 100 24 140s37.833 73.167 65.5 99.5
s59.834 46 96.501 59s75.667 19.5 117 19.5c28 0 53.833 -2.33301 77.5 -7s43.834 -10.834 60.501 -18.501s29.667 -16.167 39 -25.5s14 -18.666 14 -27.999s-2.66699 -17.333 -8 -24s-11.666 -11.667 -18.999 -15c-18 12 -39.333 23.167 -64 33.5
s-56.334 15.5 -95.001 15.5c-32 0 -61.667 -5.33301 -89 -16s-51 -26.334 -71 -47.001s-35.667 -46.667 -47 -78s-17 -67.333 -17 -108c0 -43.333 5.83301 -80.5 17.5 -111.5s28 -56.5 49 -76.5s45.667 -34.833 74 -44.5s59.166 -14.5 92.499 -14.5c24 0 46.667 2 68 6
s38 9 50 15v184h-151c-2 3.33301 -4 7.83301 -6 13.5s-3 11.834 -3 18.501c0 11.333 2.66699 20.166 8 26.499s13 9.5 23 9.5h167c12 0 22.167 -3.83301 30.5 -11.5s12.5 -17.834 12.5 -30.501v-217zM345 751.002l-40.0029 -41.499
c-15.333 -16.333 -32.666 -33.166 -51.999 -50.499c-11.333 1.33301 -20.666 4.83301 -27.999 10.5s-11 13.167 -11 22.5c0 7.33301 2.5 14.166 7.5 20.499s11.167 13.166 18.5 20.499l59 59c14.667 14.667 30.334 22 47.001 22c10.667 0 19.667 -2.16699 27 -6.5
s15 -10.833 23 -19.5l82 -93c0 -10 -3.16699 -18.167 -9.5 -24.5s-14.5 -9.5 -24.5 -9.5c-7.33301 0 -14.333 2 -21 6s-14.667 11.333 -24 22z" />
    <glyph glyph-name="gcircumflex" unicode="&#x11d;" horiz-adv-x="537" 
d="M384 48c-11.333 -9.33301 -26.8301 -17.3281 -46.4971 -23.9951s-43.167 -10 -70.5 -10c-29.333 0 -57 4.16699 -83 12.5s-48.833 21.666 -68.5 39.999s-35.334 42.166 -47.001 71.499s-17.5 65 -17.5 107c0 38 5.66699 71.333 17 100s27.166 52.667 47.499 72
s44.5 33.833 72.5 43.5s59 14.5 93 14.5c30.667 0 58.834 -3.83301 84.501 -11.5s47.167 -17.167 64.5 -28.5c10 -6.66699 18.167 -14.167 24.5 -22.5s9.5 -18.5 9.5 -30.5v-402c0 -33.333 -5.5 -61.5 -16.5 -84.5s-26.333 -41.667 -46 -56s-42.834 -24.833 -69.501 -31.5
s-55.334 -10 -86.001 -10c-34 0 -62.833 3.5 -86.5 10.5s-39.834 13.167 -48.501 18.5c-20 11.333 -30 25.666 -30 42.999c0 9.33301 2.16699 17.166 6.5 23.499s9.83301 11.166 16.5 14.499c14 -10.667 33.667 -20.5 59 -29.5s53 -13.5 83 -13.5
c44.667 0 78.834 9.5 102.501 28.5s35.5 49.5 35.5 91.5v63zM276.003 80.0049c26.667 0 48.5 4.16699 65.5 12.5s31.167 17.833 42.5 28.5v260c-11.333 7.33301 -25.5 13.833 -42.5 19.5s-37.167 8.5 -60.5 8.5c-45.333 0 -81.5 -13.667 -108.5 -41s-40.5 -68 -40.5 -122
c0 -30 3.66699 -55.5 11 -76.5s17.5 -38.167 30.5 -51.5s28.333 -23 46 -29s36.5 -9 56.5 -9zM277.003 618.005c-15.333 -18.667 -30.502 -35.8311 -45.502 -51.498s-29.167 -31.167 -42.5 -46.5c-12 1.33301 -22 4.83301 -30 10.5s-12 13.167 -12 22.5
c0 7.33301 2 13.666 6 18.999s9.33301 11.666 16 18.999l61 66c8.66699 7.33301 16.334 13 23.001 17s14.667 6 24 6c10.667 0 19.334 -2 26.001 -6s13.667 -10 21 -18l84 -100c0 -9.33301 -2.5 -17.333 -7.5 -24s-12.833 -10 -23.5 -10c-8 0 -14.5 1.83301 -19.5 5.5
s-10.167 8.16699 -15.5 13.5z" />
    <glyph glyph-name="Gbreve" unicode="&#x11e;" horiz-adv-x="639" 
d="M570 70c0 -12 -3.5 -21.998 -10.5 -29.998s-17.5 -15.667 -31.5 -23c-16.667 -8 -39.667 -15 -69 -21s-59 -9 -89 -9c-46.667 0 -89.334 6.33301 -128.001 19s-72 32 -100 58s-49.667 58.833 -65 98.5s-23 86.5 -23 140.5c0 53.333 8 100 24 140s37.833 73.167 65.5 99.5
s59.834 46 96.501 59s75.667 19.5 117 19.5c28 0 53.833 -2.33301 77.5 -7s43.834 -10.834 60.501 -18.501s29.667 -16.167 39 -25.5s14 -18.666 14 -27.999s-2.66699 -17.333 -8 -24s-11.666 -11.667 -18.999 -15c-18 12 -39.333 23.167 -64 33.5
s-56.334 15.5 -95.001 15.5c-32 0 -61.667 -5.33301 -89 -16s-51 -26.334 -71 -47.001s-35.667 -46.667 -47 -78s-17 -67.333 -17 -108c0 -43.333 5.83301 -80.5 17.5 -111.5s28 -56.5 49 -76.5s45.667 -34.833 74 -44.5s59.166 -14.5 92.499 -14.5c24 0 46.667 2 68 6
s38 9 50 15v184h-151c-2 3.33301 -4 7.83301 -6 13.5s-3 11.834 -3 18.501c0 11.333 2.66699 20.166 8 26.499s13 9.5 23 9.5h167c12 0 22.167 -3.83301 30.5 -11.5s12.5 -17.834 12.5 -30.501v-217zM340 726.002c43.333 0 68.667 21.999 76 65.999
c2.66699 0.666992 5.33398 1.16699 8.00098 1.5s5.66699 0.5 9 0.5c10.667 0 19.167 -3 25.5 -9s9.5 -15.667 9.5 -29c0 -10.667 -2.66699 -21.167 -8 -31.5s-13.333 -19.666 -24 -27.999s-24 -15.166 -40 -20.499s-34.667 -8 -56 -8c-22 0 -41 2.66699 -57 8
s-29.333 12.166 -40 20.499s-18.5 17.833 -23.5 28.5s-7.5 21 -7.5 31c0 25.333 11.667 38 35 38c6 0 11.667 -0.666992 17 -2c7.33301 -44 32.666 -66 75.999 -66z" />
    <glyph glyph-name="gbreve" unicode="&#x11f;" horiz-adv-x="537" 
d="M384 48c-11.333 -9.33301 -26.8301 -17.3281 -46.4971 -23.9951s-43.167 -10 -70.5 -10c-29.333 0 -57 4.16699 -83 12.5s-48.833 21.666 -68.5 39.999s-35.334 42.166 -47.001 71.499s-17.5 65 -17.5 107c0 38 5.66699 71.333 17 100s27.166 52.667 47.499 72
s44.5 33.833 72.5 43.5s59 14.5 93 14.5c30.667 0 58.834 -3.83301 84.501 -11.5s47.167 -17.167 64.5 -28.5c10 -6.66699 18.167 -14.167 24.5 -22.5s9.5 -18.5 9.5 -30.5v-402c0 -33.333 -5.5 -61.5 -16.5 -84.5s-26.333 -41.667 -46 -56s-42.834 -24.833 -69.501 -31.5
s-55.334 -10 -86.001 -10c-34 0 -62.833 3.5 -86.5 10.5s-39.834 13.167 -48.501 18.5c-20 11.333 -30 25.666 -30 42.999c0 9.33301 2.16699 17.166 6.5 23.499s9.83301 11.166 16.5 14.499c14 -10.667 33.667 -20.5 59 -29.5s53 -13.5 83 -13.5
c44.667 0 78.834 9.5 102.501 28.5s35.5 49.5 35.5 91.5v63zM276.003 80.0049c26.667 0 48.5 4.16699 65.5 12.5s31.167 17.833 42.5 28.5v260c-11.333 7.33301 -25.5 13.833 -42.5 19.5s-37.167 8.5 -60.5 8.5c-45.333 0 -81.5 -13.667 -108.5 -41s-40.5 -68 -40.5 -122
c0 -30 3.66699 -55.5 11 -76.5s17.5 -38.167 30.5 -51.5s28.333 -23 46 -29s36.5 -9 56.5 -9zM275.003 599.005c43.333 0 68.667 21.999 76 65.999c2.66699 0.666992 5.33398 1.16699 8.00098 1.5s5.66699 0.5 9 0.5c10.667 0 19.167 -3 25.5 -9s9.5 -15.667 9.5 -29
c0 -10.667 -2.66699 -21.167 -8 -31.5s-13.333 -19.666 -24 -27.999s-24 -15.166 -40 -20.499s-34.667 -8 -56 -8c-22 0 -41 2.66699 -57 8s-29.333 12.166 -40 20.499s-18.5 17.833 -23.5 28.5s-7.5 21 -7.5 31c0 25.333 11.667 38 35 38c6 0 11.667 -0.666992 17 -2
c7.33301 -44 32.666 -66 75.999 -66z" />
    <glyph glyph-name="Gdotaccent" unicode="&#x120;" horiz-adv-x="639" 
d="M570 70c0 -12 -3.5 -21.998 -10.5 -29.998s-17.5 -15.667 -31.5 -23c-16.667 -8 -39.667 -15 -69 -21s-59 -9 -89 -9c-46.667 0 -89.334 6.33301 -128.001 19s-72 32 -100 58s-49.667 58.833 -65 98.5s-23 86.5 -23 140.5c0 53.333 8 100 24 140s37.833 73.167 65.5 99.5
s59.834 46 96.501 59s75.667 19.5 117 19.5c28 0 53.833 -2.33301 77.5 -7s43.834 -10.834 60.501 -18.501s29.667 -16.167 39 -25.5s14 -18.666 14 -27.999s-2.66699 -17.333 -8 -24s-11.666 -11.667 -18.999 -15c-18 12 -39.333 23.167 -64 33.5
s-56.334 15.5 -95.001 15.5c-32 0 -61.667 -5.33301 -89 -16s-51 -26.334 -71 -47.001s-35.667 -46.667 -47 -78s-17 -67.333 -17 -108c0 -43.333 5.83301 -80.5 17.5 -111.5s28 -56.5 49 -76.5s45.667 -34.833 74 -44.5s59.166 -14.5 92.499 -14.5c24 0 46.667 2 68 6
s38 9 50 15v184h-151c-2 3.33301 -4 7.83301 -6 13.5s-3 11.834 -3 18.501c0 11.333 2.66699 20.166 8 26.499s13 9.5 23 9.5h167c12 0 22.167 -3.83301 30.5 -11.5s12.5 -17.834 12.5 -30.501v-217zM406 730.002c0 -14.667 -4.66699 -26.5 -14 -35.5
s-21.666 -13.5 -36.999 -13.5s-27.5 4.5 -36.5 13.5s-13.5 20.833 -13.5 35.5c0 15.333 4.5 27.5 13.5 36.5s21.167 13.5 36.5 13.5s27.666 -4.5 36.999 -13.5s14 -21.167 14 -36.5z" />
    <glyph glyph-name="gdotaccent" unicode="&#x121;" horiz-adv-x="537" 
d="M384 48c-11.333 -9.33301 -26.8301 -17.3281 -46.4971 -23.9951s-43.167 -10 -70.5 -10c-29.333 0 -57 4.16699 -83 12.5s-48.833 21.666 -68.5 39.999s-35.334 42.166 -47.001 71.499s-17.5 65 -17.5 107c0 38 5.66699 71.333 17 100s27.166 52.667 47.499 72
s44.5 33.833 72.5 43.5s59 14.5 93 14.5c30.667 0 58.834 -3.83301 84.501 -11.5s47.167 -17.167 64.5 -28.5c10 -6.66699 18.167 -14.167 24.5 -22.5s9.5 -18.5 9.5 -30.5v-402c0 -33.333 -5.5 -61.5 -16.5 -84.5s-26.333 -41.667 -46 -56s-42.834 -24.833 -69.501 -31.5
s-55.334 -10 -86.001 -10c-34 0 -62.833 3.5 -86.5 10.5s-39.834 13.167 -48.501 18.5c-20 11.333 -30 25.666 -30 42.999c0 9.33301 2.16699 17.166 6.5 23.499s9.83301 11.166 16.5 14.499c14 -10.667 33.667 -20.5 59 -29.5s53 -13.5 83 -13.5
c44.667 0 78.834 9.5 102.501 28.5s35.5 49.5 35.5 91.5v63zM276.003 80.0049c26.667 0 48.5 4.16699 65.5 12.5s31.167 17.833 42.5 28.5v260c-11.333 7.33301 -25.5 13.833 -42.5 19.5s-37.167 8.5 -60.5 8.5c-45.333 0 -81.5 -13.667 -108.5 -41s-40.5 -68 -40.5 -122
c0 -30 3.66699 -55.5 11 -76.5s17.5 -38.167 30.5 -51.5s28.333 -23 46 -29s36.5 -9 56.5 -9zM328.003 607.005c0 -14.667 -4.66699 -26.5 -14 -35.5s-21.666 -13.5 -36.999 -13.5s-27.5 4.5 -36.5 13.5s-13.5 20.833 -13.5 35.5c0 15.333 4.5 27.5 13.5 36.5
s21.167 13.5 36.5 13.5s27.666 -4.5 36.999 -13.5s14 -21.167 14 -36.5z" />
    </font>
</defs>
</svg>
