<?xml version="1.0" standalone="no"?>
<!DOCTYPE svg PUBLIC "-//W3C//DTD SVG 1.1//EN" "http://www.w3.org/Graphics/SVG/1.1/DTD/svg11.dtd" >
<svg>
<metadata>
Created by FontForge 20090914 at Wed Sep  2 09:02:05 2020
 By www-data
Copyright 2019 The Baloo 2 Project Authors (https://github.com/EkType/Baloo2)
</metadata>
<defs>
<font id="BalooChettan2-SemiBold" horiz-adv-x="570" >
  <font-face 
    font-family="Baloo Chettan 2 SemiBold"
    font-weight="600"
    font-stretch="normal"
    units-per-em="1000"
    panose-1="3 8 7 2 4 3 2 2 2 0"
    ascent="800"
    descent="-200"
    x-height="474"
    cap-height="615"
    bbox="-837.001 -370 2288 1048"
    underline-thickness="50"
    underline-position="-50"
    unicode-range="U+000D-U+FB04"
  />
<missing-glyph horiz-adv-x="665" 
d="M460 548h-255v-447h255v447zM89 579c0 21.333 6.16699 38.333 18.5 51s29.5 19 51.5 19h347c22 0 39.167 -6.33301 51.5 -19s18.5 -29.667 18.5 -51v-509c0 -21.333 -6.16699 -38.333 -18.5 -51s-29.5 -19 -51.5 -19h-347c-21.333 -0 -38.333 6.33301 -51 19
s-19 29.667 -19 51v509z" />
    <glyph glyph-name="f_f" unicode="ff" horiz-adv-x="815" 
d="M186 442l181 -0.00195312c3.33301 -5.33301 6.33301 -12.166 9 -20.499s4 -17.5 4 -27.5c0 -17.333 -4 -30 -12 -38s-18.667 -12 -32 -12h-144v-343c-6 -1.33301 -14 -3 -24 -5s-21.333 -3 -34 -3c-23.333 0 -40.666 4.33301 -51.999 13s-17 24 -17 46v442
c0 32 5 59.333 15 82s24 41.334 42 56.001s39.333 25.5 64 32.5s51.667 10.5 81 10.5c88.667 0 133 -23.333 133 -70c0 -10.667 -2.16699 -20.167 -6.5 -28.5s-9.5 -15.166 -15.5 -20.499c-12.667 5.33301 -26.834 9.66602 -42.501 12.999s-32.167 5 -49.5 5
c-34.667 0 -60 -6.66699 -76 -20s-24 -35 -24 -65v-47zM586 441.998l181 -0.00195312c3.33301 -5.33301 6.33301 -12.166 9 -20.499s4 -17.5 4 -27.5c0 -17.333 -4 -30 -12 -38s-18.667 -12 -32 -12h-144v-343c-6 -1.33301 -14 -3 -24 -5s-21.333 -3 -34 -3
c-23.333 0 -40.666 4.33301 -51.999 13s-17 24 -17 46v442c0 32 5 59.333 15 82s24 41.334 42 56.001s39.333 25.5 64 32.5s51.667 10.5 81 10.5c88.667 0 133 -23.333 133 -70c0 -10.667 -2.16699 -20.167 -6.5 -28.5s-9.5 -15.166 -15.5 -20.499
c-12.667 5.33301 -26.834 9.66602 -42.501 12.999s-32.167 5 -49.5 5c-34.667 0 -60 -6.66699 -76 -20s-24 -35 -24 -65v-47z" />
    <glyph glyph-name="fi" unicode="fi" horiz-adv-x="676" 
d="M186 442l181 -0.00195312c3.33301 -5.33301 6.33301 -12.166 9 -20.499s4 -17.5 4 -27.5c0 -17.333 -4 -30 -12 -38s-18.667 -12 -32 -12h-144v-343c-6 -1.33301 -14 -3 -24 -5s-21.333 -3 -34 -3c-23.333 0 -40.666 4.33301 -51.999 13s-17 24 -17 46v442
c0 32 5 59.333 15 82s24 41.334 42 56.001s39.333 25.5 64 32.5s51.667 10.5 81 10.5c88.667 0 133 -23.333 133 -70c0 -10.667 -2.16699 -20.167 -6.5 -28.5s-9.5 -15.166 -15.5 -20.499c-12.667 5.33301 -26.834 9.66602 -42.501 12.999s-32.167 5 -49.5 5
c-34.667 0 -60 -6.66699 -76 -20s-24 -35 -24 -65v-47zM481 469.998c5.33301 1.33301 13.166 3 23.499 5s21.5 3 33.5 3c24 0 41.5 -4.33301 52.5 -13s16.5 -24 16.5 -46v-418c-5.33301 -1.33301 -13.166 -3 -23.499 -5s-21.5 -3 -33.5 -3c-24 0 -41.5 4.33301 -52.5 13
s-16.5 24 -16.5 46v418zM471 614.998c0 19.333 6.83301 35.833 20.5 49.5s31.167 20.5 52.5 20.5s38.666 -6.83301 51.999 -20.5s20 -30.167 20 -49.5c0 -20 -6.66699 -36.833 -20 -50.5s-30.666 -20.5 -51.999 -20.5s-38.833 6.83301 -52.5 20.5s-20.5 30.5 -20.5 50.5z
" />
    <glyph glyph-name="fl" unicode="fl" horiz-adv-x="680" 
d="M186 442l181 -0.00195312c3.33301 -5.33301 6.33301 -12.166 9 -20.499s4 -17.5 4 -27.5c0 -17.333 -4 -30 -12 -38s-18.667 -12 -32 -12h-144v-343c-6 -1.33301 -14 -3 -24 -5s-21.333 -3 -34 -3c-23.333 0 -40.666 4.33301 -51.999 13s-17 24 -17 46v442
c0 32 5 59.333 15 82s24 41.334 42 56.001s39.333 25.5 64 32.5s51.667 10.5 81 10.5c88.667 0 133 -23.333 133 -70c0 -10.667 -2.16699 -20.167 -6.5 -28.5s-9.5 -15.166 -15.5 -20.499c-12.667 5.33301 -26.834 9.66602 -42.501 12.999s-32.167 5 -49.5 5
c-34.667 0 -60 -6.66699 -76 -20s-24 -35 -24 -65v-47zM610 0.998047c-5.33301 -1.33301 -13.166 -3 -23.499 -5s-21.5 -3 -33.5 -3c-24 0 -41.5 4.33301 -52.5 13s-16.5 24 -16.5 46v598c5.33301 2 13.166 3.83301 23.499 5.5s21.5 2.5 33.5 2.5
c24 0 41.5 -4.33301 52.5 -13s16.5 -24 16.5 -46v-598z" />
    <glyph glyph-name="f_f_i" unicode="ffi" horiz-adv-x="1053" 
d="M186 442l181 -0.00195312c3.33301 -5.33301 6.33301 -12.166 9 -20.499s4 -17.5 4 -27.5c0 -17.333 -4 -30 -12 -38s-18.667 -12 -32 -12h-144v-343c-6 -1.33301 -14 -3 -24 -5s-21.333 -3 -34 -3c-23.333 0 -40.666 4.33301 -51.999 13s-17 24 -17 46v442
c0 32 5 59.333 15 82s24 41.334 42 56.001s39.333 25.5 64 32.5s51.667 10.5 81 10.5c88.667 0 133 -23.333 133 -70c0 -10.667 -2.16699 -20.167 -6.5 -28.5s-9.5 -15.166 -15.5 -20.499c-12.667 5.33301 -26.834 9.66602 -42.501 12.999s-32.167 5 -49.5 5
c-34.667 0 -60 -6.66699 -76 -20s-24 -35 -24 -65v-47zM565 441.998l181 -0.00195312c3.33301 -5.33301 6.33301 -12.166 9 -20.499s4 -17.5 4 -27.5c0 -17.333 -4 -30 -12 -38s-18.667 -12 -32 -12h-144v-343c-6 -1.33301 -14 -3 -24 -5s-21.333 -3 -34 -3
c-23.333 0 -40.666 4.33301 -51.999 13s-17 24 -17 46v442c0 32 5 59.333 15 82s24 41.334 42 56.001s39.333 25.5 64 32.5s51.667 10.5 81 10.5c88.667 0 133 -23.333 133 -70c0 -10.667 -2.16699 -20.167 -6.5 -28.5s-9.5 -15.166 -15.5 -20.499
c-12.667 5.33301 -26.834 9.66602 -42.501 12.999s-32.167 5 -49.5 5c-34.667 0 -60 -6.66699 -76 -20s-24 -35 -24 -65v-47zM859 469.996c5.33301 1.33301 13.166 3 23.499 5s21.5 3 33.5 3c24 0 41.5 -4.33301 52.5 -13s16.5 -24 16.5 -46v-418
c-5.33301 -1.33301 -13.166 -3 -23.499 -5s-21.5 -3 -33.5 -3c-24 0 -41.5 4.33301 -52.5 13s-16.5 24 -16.5 46v418zM849 614.996c0 19.333 6.83301 35.833 20.5 49.5s31.167 20.5 52.5 20.5s38.666 -6.83301 51.999 -20.5s20 -30.167 20 -49.5
c0 -20 -6.66699 -36.833 -20 -50.5s-30.666 -20.5 -51.999 -20.5s-38.833 6.83301 -52.5 20.5s-20.5 30.5 -20.5 50.5z" />
    <glyph glyph-name="f_f_l" unicode="ffl" horiz-adv-x="1080" 
d="M990 1c-5.33301 -1.33301 -13.166 -3 -23.499 -5s-21.5 -3 -33.5 -3c-24 0 -41.5 4.33301 -52.5 13s-16.5 24 -16.5 46v598c5.33301 2 13.166 3.83301 23.499 5.5s21.5 2.5 33.5 2.5c24 0 41.5 -4.33301 52.5 -13s16.5 -24 16.5 -46v-598zM186 442l181 -0.00195312
c3.33301 -5.33301 6.33301 -12.166 9 -20.499s4 -17.5 4 -27.5c0 -17.333 -4 -30 -12 -38s-18.667 -12 -32 -12h-144v-343c-6 -1.33301 -14 -3 -24 -5s-21.333 -3 -34 -3c-23.333 0 -40.666 4.33301 -51.999 13s-17 24 -17 46v442c0 32 5 59.333 15 82s24 41.334 42 56.001
s39.333 25.5 64 32.5s51.667 10.5 81 10.5c88.667 0 133 -23.333 133 -70c0 -10.667 -2.16699 -20.167 -6.5 -28.5s-9.5 -15.166 -15.5 -20.499c-12.667 5.33301 -26.834 9.66602 -42.501 12.999s-32.167 5 -49.5 5c-34.667 0 -60 -6.66699 -76 -20s-24 -35 -24 -65v-47z
M565 441.998l181 -0.00195312c3.33301 -5.33301 6.33301 -12.166 9 -20.499s4 -17.5 4 -27.5c0 -17.333 -4 -30 -12 -38s-18.667 -12 -32 -12h-144v-343c-6 -1.33301 -14 -3 -24 -5s-21.333 -3 -34 -3c-23.333 0 -40.666 4.33301 -51.999 13s-17 24 -17 46v442
c0 32 5 59.333 15 82s24 41.334 42 56.001s39.333 25.5 64 32.5s51.667 10.5 81 10.5c88.667 0 133 -23.333 133 -70c0 -10.667 -2.16699 -20.167 -6.5 -28.5s-9.5 -15.166 -15.5 -20.499c-12.667 5.33301 -26.834 9.66602 -42.501 12.999s-32.167 5 -49.5 5
c-34.667 0 -60 -6.66699 -76 -20s-24 -35 -24 -65v-47z" />
    <glyph glyph-name=".notdef" horiz-adv-x="665" 
d="M460 548h-255v-447h255v447zM89 579c0 21.333 6.16699 38.333 18.5 51s29.5 19 51.5 19h347c22 0 39.167 -6.33301 51.5 -19s18.5 -29.667 18.5 -51v-509c0 -21.333 -6.16699 -38.333 -18.5 -51s-29.5 -19 -51.5 -19h-347c-21.333 -0 -38.333 6.33301 -51 19
s-19 29.667 -19 51v509z" />
    <glyph glyph-name="NULL" horiz-adv-x="0" 
 />
    <glyph glyph-name="NULL" horiz-adv-x="0" 
 />
    <glyph glyph-name="uni000D" unicode="&#xd;" horiz-adv-x="223" 
 />
    <glyph glyph-name="space" unicode=" " horiz-adv-x="200" 
 />
    <glyph glyph-name="exclam" unicode="!" horiz-adv-x="275" 
d="M202 570c0 -18 -0.334961 -41.8311 -1.00195 -71.498s-1.66699 -61.334 -3 -95.001s-3.16602 -67.667 -5.49902 -102s-5.16602 -64.833 -8.49902 -91.5c-5.33301 -4 -12.833 -7.16699 -22.5 -9.5s-18.5 -3.5 -26.5 -3.5c-14 0 -25.833 2.5 -35.5 7.5
s-15.5 14.167 -17.5 27.5c-2 17.333 -4 41.833 -6 73.5s-3.66699 65.667 -5 102s-2.33301 72.666 -3 108.999s-1 67.833 -1 94.5c21.333 12.667 45 19 71 19c20 0 35.667 -5 47 -15s17 -25 17 -45zM58.998 61.002c0 22 7 40.167 21 54.5s32.667 21.5 56 21.5
s42 -7.16699 56 -21.5s21 -32.5 21 -54.5s-7 -40.167 -21 -54.5s-32.667 -21.5 -56 -21.5s-42 7.16699 -56 21.5s-21 32.5 -21 54.5z" />
    <glyph glyph-name="quotedbl" unicode="&#x22;" horiz-adv-x="342" 
d="M130 397c-10.667 -5.33301 -25.667 -8 -45 -8c-13.333 0 -24.333 2.83301 -33 8.5s-13.334 15.167 -14.001 28.5l-10 187c15.333 11.333 35.333 17 60 17c18.667 0 32.834 -3.83301 42.501 -11.5s14.5 -20.5 14.5 -38.5c0 -8.66699 -0.5 -20.834 -1.5 -36.501
s-2.16699 -32.167 -3.5 -49.5s-2.83301 -34.666 -4.5 -51.999s-3.5 -32.333 -5.5 -45zM298 397c-10.667 -5.33301 -25.667 -8 -45 -8c-13.333 0 -24.333 2.83301 -33 8.5s-13.334 15.167 -14.001 28.5l-11 187c16.667 11.333 37 17 61 17
c18.667 0 32.834 -3.83301 42.501 -11.5s14.5 -20.5 14.5 -38.5c0 -8.66699 -0.5 -20.834 -1.5 -36.501s-2.16699 -32.167 -3.5 -49.5s-2.83301 -34.666 -4.5 -51.999s-3.5 -32.333 -5.5 -45z" />
    <glyph glyph-name="numbersign" unicode="#" horiz-adv-x="691" 
d="M530 376l-28.999 -135.998h116c3.33301 -5.33301 6.16602 -12 8.49902 -20s3.5 -16.667 3.5 -26c0 -17.333 -4 -29.833 -12 -37.5s-19 -11.5 -33 -11.5h-104l-31 -147c-6.66699 -1.33301 -13.167 -2 -19.5 -2h-17.5c-18 0 -32.333 3.66699 -43 11s-16 20.666 -16 39.999
c0 11.333 1.5 24.333 4.5 39l7.5 37l4 22h-117l-32 -147c-6 -1.33301 -12.167 -2 -18.5 -2h-18.5c-18 0 -32.333 3.66699 -43 11s-16 20.666 -16 39.999c0 11.333 1.5 24.333 4.5 39s5.83301 27 8.5 37l4 22h-93c-3.33301 5.33301 -6.16602 12 -8.49902 20
s-3.5 16.667 -3.5 26c0 17.333 4.16699 29.833 12.5 37.5s19.5 11.5 33.5 11.5h80l29 136h-114c-3.33301 5.33301 -6.33301 12 -9 20s-4 16.667 -4 26c0 17.333 4.16699 29.833 12.5 37.5s19.5 11.5 33.5 11.5h101l31 142c6.66699 1.33301 13.167 2 19.5 2h17.5
c18 0 32.5 -3.5 43.5 -10.5s16.5 -20.167 16.5 -39.5c0 -11.333 -1.5 -24 -4.5 -38l-8.5 -39l-4 -17h117l31 142c7.33301 1.33301 14.166 2 20.499 2h17.5c17.333 0 31.666 -3.5 42.999 -10.5s17 -20.167 17 -39.5c0 -11.333 -1.66699 -24 -5 -38l-9 -39l-4 -17h96
c2.66699 -5.33301 5.33398 -12 8.00098 -20s4 -16.667 4 -26c0 -17.333 -4.16699 -29.833 -12.5 -37.5s-19.5 -11.5 -33.5 -11.5h-82zM272.001 240.002h118l29 136h-117z" />
    <glyph glyph-name="dollar" unicode="$" horiz-adv-x="544" 
d="M256 91c38.667 0 67 7.50293 85 22.5029s27 33.833 27 56.5c0 20.667 -7 37.167 -21 49.5s-35.333 22.833 -64 31.5l-64 20c-25.333 8 -48.333 17 -69 27s-38.334 21.833 -53.001 35.5s-26 29.667 -34 48s-12 40.166 -12 65.499c0 45.333 14.167 82.666 42.5 111.999
s68.166 48.666 119.499 57.999v79c5.33301 1.33301 12.5 2.83301 21.5 4.5s18.833 2.5 29.5 2.5c21.333 0 37 -4 47 -12s15 -21.667 15 -41v-29c44 -4.66699 79.5 -14.667 106.5 -30s40.5 -35 40.5 -59c0 -13.333 -3.16699 -24.833 -9.5 -34.5s-14.166 -17.5 -23.499 -23.5
c-16 11.333 -37.167 21.166 -63.5 29.499s-55.166 12.5 -86.499 12.5c-34.667 0 -61 -6.16699 -79 -18.5s-27 -29.166 -27 -50.499c0 -17.333 6.16699 -30.666 18.5 -39.999s31.833 -18.333 58.5 -27l57 -18c58 -17.333 103 -41 135 -71s48 -70.667 48 -122
c0 -46 -15 -85 -45 -117s-73.333 -52.667 -130 -62v-77c-5.33301 -1.33301 -12.333 -2.83301 -21 -4.5s-18.334 -2.5 -29.001 -2.5c-21.333 0 -37.166 4 -47.499 12s-15.5 21.667 -15.5 41v27c-49.333 4.66699 -89 16.167 -119 34.5s-45 40.166 -45 65.499
c0 15.333 4.5 28.5 13.5 39.5s19.5 19.167 31.5 24.5c16.667 -14.667 38.667 -28.167 66 -40.5s59.333 -18.5 96 -18.5z" />
    <glyph glyph-name="percent" unicode="%" horiz-adv-x="786" 
d="M343 466c0 -23.333 -3.83301 -44.333 -11.5 -63s-18.334 -34.5 -32.001 -47.5s-29.667 -23 -48 -30s-38.166 -10.5 -59.499 -10.5c-22 0 -42.167 3.5 -60.5 10.5s-34.166 17 -47.499 30s-23.833 28.833 -31.5 47.5s-11.5 39.667 -11.5 63
c0 22.667 3.83301 43.334 11.5 62.001s18.167 34.5 31.5 47.5s29.166 23 47.499 30s38.5 10.5 60.5 10.5c21.333 0 41.166 -3.5 59.499 -10.5s34.333 -17 48 -30s24.334 -28.833 32.001 -47.5s11.5 -39.334 11.5 -62.001zM137 466c0 -23.333 5.16699 -40.833 15.5 -52.5
s23.5 -17.5 39.5 -17.5s29 5.83301 39 17.5s15 29.167 15 52.5c0 22.667 -5 39.834 -15 51.501s-23 17.5 -39 17.5s-29.167 -5.83301 -39.5 -17.5s-15.5 -28.834 -15.5 -51.501zM548 617c19.333 -3.33301 35.833 -8.5 49.5 -15.5s20.5 -16.833 20.5 -29.5
c0 -8.66699 -2 -17.5 -6 -26.5s-9.66699 -18.5 -17 -28.5l-356 -524c-20 2 -36.667 7 -50 15s-20 18 -20 30c0 8 2 16.333 6 25s9.33301 18 16 28zM745 143c0 -23.333 -3.83301 -44.333 -11.5 -63s-18.167 -34.5 -31.5 -47.5s-29.166 -23 -47.499 -30
s-38.5 -10.5 -60.5 -10.5s-42.167 3.5 -60.5 10.5s-34.166 17 -47.499 30s-23.833 28.833 -31.5 47.5s-11.5 39.667 -11.5 63c0 22.667 3.83301 43.334 11.5 62.001s18.167 34.5 31.5 47.5s29.166 23 47.499 30s38.5 10.5 60.5 10.5s42.167 -3.5 60.5 -10.5
s34.166 -17 47.499 -30s23.833 -28.833 31.5 -47.5s11.5 -39.334 11.5 -62.001zM539 143c0 -23.333 5.16699 -40.833 15.5 -52.5s23.5 -17.5 39.5 -17.5s29.167 5.83301 39.5 17.5s15.5 29.167 15.5 52.5c0 22.667 -5.16699 39.834 -15.5 51.501s-23.5 17.5 -39.5 17.5
s-29.167 -5.83301 -39.5 -17.5s-15.5 -28.834 -15.5 -51.501z" />
    <glyph glyph-name="ampersand" unicode="&#x26;" horiz-adv-x="656" 
d="M566 -14c-11.333 0 -21.6709 2.49512 -31.0039 7.49512s-19 12.833 -29 23.5l-34 34c-25.333 -22.667 -54.666 -39.5 -87.999 -50.5s-68.333 -16.5 -105 -16.5s-69.667 5 -99 15s-54.166 24 -74.499 42s-35.833 39.333 -46.5 64s-16 51.667 -16 81
c0 46.667 12.5 85 37.5 115s55.833 52.333 92.5 67c-17.333 21.333 -29.166 40.5 -35.499 57.5s-9.5 34.167 -9.5 51.5c0 20.667 3.83301 39.834 11.5 57.501s19 33 34 46s33.167 23.167 54.5 30.5s46 11 74 11c38.667 0 66.834 -6.33301 84.501 -19s26.5 -28.667 26.5 -48
s-7.66699 -35.666 -23 -48.999c-9.33301 4.66699 -19.833 8.5 -31.5 11.5s-24.167 4.5 -37.5 4.5c-21.333 0 -38.333 -5 -51 -15s-19 -24.333 -19 -43c0 -15.333 4.5 -29.166 13.5 -41.499s22.167 -27.166 39.5 -44.499l157 -158c6.66699 20.667 11.5 43.667 14.5 69
s4.5 51 4.5 77c18.667 8 36.667 12 54 12c22.667 0 38.167 -6.33301 46.5 -19s12.5 -29.667 12.5 -51c0 -28 -3.83301 -57.167 -11.5 -87.5s-19.167 -59.166 -34.5 -86.499l83 -83c-2 -19.333 -8.83301 -35 -20.5 -47s-26.167 -18 -43.5 -18zM284.995 83.9951
c15.333 0 33.333 2.83203 54 8.49902s40.667 16.834 60 33.501l-161 165c-20 -6.66699 -37.333 -18.5 -52 -35.5s-22 -38.5 -22 -64.5c0 -31.333 10.5 -57 31.5 -77s50.833 -30 89.5 -30z" />
    <glyph glyph-name="quotesingle" unicode="'" horiz-adv-x="180" 
d="M136 399c-5.33301 -2.66699 -12.3311 -4.99902 -20.998 -6.99902s-17.667 -3 -27 -3c-14 0 -25.667 3.16699 -35 9.5s-14.333 16.166 -15 29.499l-10 183c7.33301 5.33301 16.333 9.83301 27 13.5s22.667 5.5 36 5.5c19.333 0 34.166 -4 44.499 -12
s15.5 -21.333 15.5 -40c0 -9.33301 -0.333008 -21.333 -1 -36s-1.83398 -30.5 -3.50098 -47.5l-5 -51c-1.66699 -17 -3.5 -31.833 -5.5 -44.5z" />
    <glyph glyph-name="parenleft" unicode="(" horiz-adv-x="280" 
d="M214 -126c-19.333 0 -35.833 5.99805 -49.5 17.998s-26.167 27.333 -37.5 46c-24 39.333 -43.167 86.333 -57.5 141s-21.5 118.334 -21.5 191.001c0 72 7.83301 135.667 23.5 191s34.167 101.333 55.5 138c11.333 18.667 23.833 34 37.5 46s30.167 18 49.5 18
c14 0 26.167 -4 36.5 -12s18.166 -16.667 23.499 -26c-34 -48 -60 -100.5 -78 -157.5s-27 -122.833 -27 -197.5c0 -37.333 2.16699 -72.166 6.5 -104.499s10.833 -63 19.5 -92s19.5 -56.667 32.5 -83s28.5 -52.5 46.5 -78.5c-5.33301 -10 -13.166 -18.833 -23.499 -26.5
s-22.5 -11.5 -36.5 -11.5z" />
    <glyph glyph-name="parenright" unicode=")" horiz-adv-x="280" 
d="M67 -126c-14 0 -26.167 3.83496 -36.5 11.502s-18.166 16.5 -23.499 26.5c18 26 33.5 52.167 46.5 78.5s23.833 54 32.5 83s15.167 59.667 19.5 92s6.5 67.166 6.5 104.499c0 74.667 -9 140.5 -27 197.5s-44 109.5 -78 157.5c5.33301 9.33301 13.166 18 23.499 26
s22.5 12 36.5 12c19.333 0 35.833 -6 49.5 -18s26.167 -27.333 37.5 -46c21.333 -36.667 39.833 -82.667 55.5 -138s23.5 -119 23.5 -191c0 -72.667 -7.16699 -136.334 -21.5 -191.001s-33.5 -101.667 -57.5 -141c-11.333 -18.667 -23.833 -34 -37.5 -46
s-30.167 -18 -49.5 -18z" />
    <glyph glyph-name="asterisk" unicode="*" horiz-adv-x="326" 
d="M63 574c8 0 16.999 -2 26.999 -6l33 -14c-0.666992 12 -1 23.667 -1 35v46c4.66699 3.33301 10.667 6.5 18 9.5s15.666 4.5 24.999 4.5c12 0 21.833 -3 29.5 -9s11.5 -15.333 11.5 -28c0 -3.33301 -0.333008 -11.166 -1 -23.499s-1.66699 -24.833 -3 -37.5l68 33
c8.66699 -3.33301 16.334 -9.16602 23.001 -17.499s10 -18.166 10 -29.499c0 -12 -3.16699 -20.5 -9.5 -25.5s-15.166 -9.83301 -26.499 -14.5l-38 -17l54 -71c-3.33301 -12 -9.33301 -21.833 -18 -29.5s-19 -11.5 -31 -11.5c-11.333 0 -20.5 3.66699 -27.5 11
s-13.833 15.666 -20.5 24.999l-21 32l-44 -66c-3.33301 -1.33301 -6.5 -2 -9.5 -2h-9.5c-17.333 0 -30.333 3.66699 -39 11s-13 16.666 -13 27.999c0 12 5.66699 24.667 17 38l29 35l-71 22c-3.33301 11.333 -5 21.333 -5 30c0 13.333 3.83301 23.666 11.5 30.999
s18.167 11 31.5 11z" />
    <glyph glyph-name="plus" unicode="+" horiz-adv-x="546" 
d="M332 344h162.001c3.33301 -5.33301 6.16602 -12.333 8.49902 -21s3.5 -18 3.5 -28c0 -18 -4.33301 -31.167 -13 -39.5s-20.334 -12.5 -35.001 -12.5h-126v-182c-5.33301 -2 -13 -3.83301 -23 -5.5s-20 -2.5 -30 -2.5c-20.667 0 -36.167 3.83301 -46.5 11.5
s-15.5 22.5 -15.5 44.5v134h-165c-3.33301 6 -6.16602 13.167 -8.49902 21.5s-3.5 17.5 -3.5 27.5c0 18 4.33301 31.167 13 39.5s20.667 12.5 36 12.5h128v179c6 2 14 3.83301 24 5.5s20 2.5 30 2.5c20 0 35.167 -3.83301 45.5 -11.5s15.5 -22.5 15.5 -44.5v-131z" />
    <glyph glyph-name="comma" unicode="," horiz-adv-x="195" 
d="M110 -83c-8.66699 -12 -17.833 -20.834 -27.5 -26.501s-21.167 -8.5 -34.5 -8.5c-22 0 -41 7 -57 21c6 16.667 12 34.667 18 54s11.5 39 16.5 59l14 58c4.33301 18.667 8.16602 36 11.499 52c8.66699 4.66699 18.667 8.5 30 11.5s22.666 4.5 33.999 4.5
c16.667 0 30.667 -3.66699 42 -11s17 -20.666 17 -39.999c0 -12.667 -2.16699 -27.167 -6.5 -43.5s-9.66602 -32.666 -15.999 -48.999s-13.166 -31.833 -20.499 -46.5s-14.333 -26.334 -21 -35.001z" />
    <glyph glyph-name="hyphen" unicode="-" horiz-adv-x="371" 
d="M55 206c-3.33301 6 -6.33301 13.333 -9 22s-4 18 -4 28c0 18 4.33301 31.333 13 40s20.334 13 35.001 13h226c3.33301 -5.33301 6.33301 -12.5 9 -21.5s4 -18.5 4 -28.5c0 -18 -4.33301 -31.333 -13 -40s-20.334 -13 -35.001 -13h-226z" />
    <glyph glyph-name="period" unicode="." horiz-adv-x="191" 
d="M19 62c0 22 6.83301 40.5 20.5 55.5s32.5 22.5 56.5 22.5c23.333 0 41.833 -7.5 55.5 -22.5s20.5 -33.5 20.5 -55.5c0 -21.333 -6.83301 -39.5 -20.5 -54.5s-32.167 -22.5 -55.5 -22.5c-24 0 -42.833 7.5 -56.5 22.5s-20.5 33.167 -20.5 54.5z" />
    <glyph glyph-name="slash" unicode="/" horiz-adv-x="325" 
d="M116 -106c-7.33301 -1.33301 -14.166 -2.00098 -20.499 -2.00098h-18.5c-42.667 0 -64 19 -64 57c0 12.667 2 26.167 6 40.5l10 36.5l180 679c14.667 2 28 3 40 3c19.333 0 34.666 -4.33301 45.999 -13s17 -22.667 17 -42c0 -13.333 -1.83301 -26.666 -5.5 -39.999
l-10.5 -39z" />
    <glyph glyph-name="zero" unicode="0" horiz-adv-x="595" 
d="M423 304c0 73.333 -11.832 127.5 -35.499 162.5s-53.834 52.5 -90.501 52.5s-66.667 -17.667 -90 -53s-35 -89.333 -35 -162c0 -71.333 10.833 -125.166 32.5 -161.499s52.5 -54.5 92.5 -54.5s71 18.167 93 54.5s33 90.166 33 161.499zM297.001 -15
c-37.333 0 -71.502 6.66895 -102.502 20.002s-57.667 33.166 -80 59.499s-39.666 59.5 -51.999 99.5s-18.5 86.667 -18.5 140c0 54 6.66699 101 20 141s31.333 73.167 54 99.5s49.334 45.833 80.001 58.5s63.667 19 99 19s68.333 -6.5 99 -19.5s57.5 -32.5 80.5 -58.5
s41.167 -59 54.5 -99s20 -87 20 -141c0 -53.333 -6.16699 -99.833 -18.5 -139.5s-29.833 -72.834 -52.5 -99.501s-49.5 -46.667 -80.5 -60s-65.167 -20 -102.5 -20z" />
    <glyph glyph-name="one" unicode="1" horiz-adv-x="376" 
d="M50 442c-9.33301 4.66699 -18 11.666 -26 20.999s-12 22 -12 38c0 29.333 18.333 51 55 65l126 49h28c21.333 0 38.333 -6.16699 51 -18.5s19 -29.166 19 -50.499v-546c-6 -1.33301 -14.167 -3 -24.5 -5s-21.5 -3 -33.5 -3c-24 0 -41.5 4.33301 -52.5 13
s-16.5 24 -16.5 46v436z" />
    <glyph glyph-name="two" unicode="2" horiz-adv-x="515" 
d="M59 532c0 13.333 4.33203 25.5049 12.999 36.5049s20.667 20.5 36 28.5s33.833 14.167 55.5 18.5s45.167 6.5 70.5 6.5c36 0 67.833 -4.5 95.5 -13.5s51 -21.5 70 -37.5s33.333 -35 43 -57s14.5 -46.333 14.5 -73c0 -36 -9.83301 -71 -29.5 -105
s-52.167 -70.333 -97.5 -109l-146 -127h268c3.33301 -5.33301 6.33301 -12.333 9 -21s4 -18 4 -28c0 -17.333 -4 -30.166 -12 -38.499s-19 -12.5 -33 -12.5h-350c-10.667 7.33301 -19 16.666 -25 27.999s-9 24.666 -9 39.999c0 16.667 3.5 31 10.5 43s15.167 22.333 24.5 31
l159 145c37.333 33.333 63 61.166 77 83.499s21 44.166 21 65.499c0 24.667 -9 44.667 -27 60s-44.333 23 -79 23c-28 0 -53 -4.5 -75 -13.5s-40.333 -18.833 -55 -29.5c-9.33301 5.33301 -17.166 12.666 -23.499 21.999s-9.5 20.666 -9.5 33.999z" />
    <glyph glyph-name="three" unicode="3" horiz-adv-x="512" 
d="M225 622c70.667 0 125.672 -15.0039 165.005 -45.0039s59 -72 59 -126c0 -18 -2.83301 -34.333 -8.5 -49s-12.834 -27.5 -21.501 -38.5s-18.334 -20.333 -29.001 -28s-21.334 -13.5 -32.001 -17.5c13.333 -4.66699 26.5 -11 39.5 -19s24.5 -18.167 34.5 -30.5
s18.167 -26.666 24.5 -42.999s9.5 -35.166 9.5 -56.499c0 -29.333 -5.83301 -55.333 -17.5 -78s-28 -41.834 -49 -57.501s-46.167 -27.5 -75.5 -35.5s-61.333 -12 -96 -12c-31.333 0 -59.333 2.33301 -84 7s-45.667 11.167 -63 19.5s-30.5 18.166 -39.5 29.499
s-13.5 23.333 -13.5 36c0 14 3.5 26 10.5 36s15.833 17.667 26.5 23c15.333 -11.333 34.666 -22.166 57.999 -32.499s54 -15.5 92 -15.5c39.333 0 69.833 7.66699 91.5 23s32.5 37.333 32.5 66c0 26.667 -9.5 47.5 -28.5 62.5s-48.5 22.5 -88.5 22.5h-89
c-3.33301 5.33301 -6.33301 12.333 -9 21s-4 18.334 -4 29.001c0 11.333 1.33301 21.333 4 30s5.66699 15.667 9 21h86c36 0 62.167 7 78.5 21s24.5 32.667 24.5 56c0 24.667 -9.66699 44 -29 58s-47 21 -83 21c-30 0 -56 -4.16699 -78 -12.5s-40.667 -17.5 -56 -27.5
c-8.66699 6 -16.334 13.667 -23.001 23s-10 20.333 -10 33s4.5 24.334 13.5 35.001s21.5 19.834 37.5 27.501s35.167 13.5 57.5 17.5s46.833 6 73.5 6z" />
    <glyph glyph-name="four" unicode="4" horiz-adv-x="576" 
d="M302 605c9.33301 2.66699 20.1689 4.99902 32.502 6.99902s23.166 3 32.499 3c11.333 0 22.333 -1.16699 33 -3.5s20.167 -6.16602 28.5 -11.499s15 -12.666 20 -21.999s7.5 -21 7.5 -35v-307h89c3.33301 -5.33301 6.33301 -12.5 9 -21.5s4 -18.5 4 -28.5
c0 -18 -4.16699 -31.333 -12.5 -40s-19.5 -13 -33.5 -13h-56v-133c-5.33301 -1.33301 -13.333 -3 -24 -5s-21.334 -3 -32.001 -3c-21.333 0 -38 3.33301 -50 10s-18 21.334 -18 44.001v87h-262c-11.333 5.33301 -21 14.166 -29 26.499s-12 27.166 -12 44.499
c0 9.33301 1 19 3 29s5.66699 19 11 27zM338.003 485.999h-2l-172 -250h173z" />
    <glyph glyph-name="five" unicode="5" horiz-adv-x="530" 
d="M85 538c1.33301 21.333 7.99609 38.332 19.9961 50.999s28.667 19 50 19h297c3.33301 -5.33301 6.5 -12.333 9.5 -21s4.5 -18.334 4.5 -29.001c0 -17.333 -4.16699 -30.666 -12.5 -39.999s-19.5 -14 -33.5 -14h-223l-12 -135c12 4.66699 26.333 9 43 13s35.667 6 57 6
c32 0 60.833 -4.66699 86.5 -14s47.5 -22.666 65.5 -39.999s31.833 -38.166 41.5 -62.499s14.5 -51.166 14.5 -80.499c0 -28 -5 -54.5 -15 -79.5s-24.833 -46.833 -44.5 -65.5s-44.5 -33.5 -74.5 -44.5s-65 -16.5 -105 -16.5c-30 0 -57.167 2.5 -81.5 7.5
s-45.166 11.833 -62.499 20.5s-30.666 18.834 -39.999 30.501s-14 24.5 -14 38.5c0 14.667 4.33301 27.167 13 37.5s18.334 18.166 29.001 23.499c16.667 -13.333 36.834 -26 60.501 -38s53.5 -18 89.5 -18c38 0 66.833 9.83301 86.5 29.5s29.5 44.5 29.5 74.5
s-9.5 53.667 -28.5 71s-46.167 26 -81.5 26c-20.667 0 -38.834 -2.83301 -54.501 -8.5s-31.167 -12.834 -46.5 -21.501c-25.333 1.33301 -45.666 8.5 -60.999 21.5s-23 32.167 -23 57.5c0 3.33301 0.166992 7.16602 0.5 11.499s0.833008 10.5 1.5 18.5l14 171v0z" />
    <glyph glyph-name="six" unicode="6" horiz-adv-x="554" 
d="M469 547c0 -11.333 -2.66797 -21.8311 -8.00098 -31.498s-11.666 -17.167 -18.999 -22.5c-16.667 7.33301 -34.5 13.5 -53.5 18.5s-37.833 7.5 -56.5 7.5c-46 0 -83.167 -14.5 -111.5 -43.5s-44.833 -72.833 -49.5 -131.5c13.333 11.333 32.166 22.666 56.499 33.999
s52.5 17 84.5 17c30 0 57.333 -4.33301 82 -13s46 -21.5 64 -38.5s31.833 -38.167 41.5 -63.5s14.5 -54.333 14.5 -87c0 -30 -5 -57.667 -15 -83s-24.667 -47.166 -44 -65.499s-43 -32.833 -71 -43.5s-60 -16 -96 -16c-36.667 0 -70 6.16699 -100 18.5s-55.667 31 -77 56
s-37.833 56.5 -49.5 94.5s-17.5 82.333 -17.5 133c0 58.667 7.16699 109.167 21.5 151.5s34 77.166 59 104.499s54.167 47.333 87.5 60s69 19 107 19c44.667 0 80.834 -6.33301 108.501 -19s41.5 -31.334 41.5 -56.001zM288.999 87.002c30 0 53.834 9.49902 71.501 28.499
s26.5 45.167 26.5 78.5s-9 58.5 -27 75.5s-42 25.5 -72 25.5c-24 0 -46.167 -5.16699 -66.5 -15.5s-36.5 -23.166 -48.5 -38.499l2 -10c0 -46 10.167 -81.5 30.5 -106.5s48.166 -37.5 83.499 -37.5z" />
    <glyph glyph-name="seven" unicode="7" horiz-adv-x="470" 
d="M422 608c9.33301 -6 17.333 -14 24 -24s10 -22 10 -36c0 -18 -4.33301 -36 -13 -54l-228 -500c-7.33301 -0.666992 -14 -1 -20 -1h-17c-22 0 -40 4.66699 -54 14s-21 23.666 -21 42.999c0 10.667 2.5 22.167 7.5 34.5s11.5 26.833 19.5 43.5l185 376h-279
c-3.33301 5.33301 -6.5 12.5 -9.5 21.5s-4.5 18.5 -4.5 28.5c0 18.667 4.16699 32.334 12.5 41.001s19.5 13 33.5 13h354z" />
    <glyph glyph-name="eight" unicode="8" horiz-adv-x="564" 
d="M45 165c0 39.333 10.167 71.501 30.5 96.501s45.166 43.833 74.499 56.5c-28 13.333 -50 31 -66 53s-24 49 -24 81c0 26 5.33301 49.667 16 71s25.834 39.333 45.501 54s43.167 26 70.5 34s57.666 12 90.999 12c70 0 125 -15.167 165 -45.5s60 -72.5 60 -126.5
c0 -34 -9.16699 -62 -27.5 -84s-41.5 -38.667 -69.5 -50c14.667 -6 28.834 -13.5 42.501 -22.5s25.667 -19.667 36 -32s18.5 -26.833 24.5 -43.5s9 -35.334 9 -56.001c0 -28 -5.83301 -53 -17.5 -75s-28 -40.667 -49 -56s-46.167 -27.166 -75.5 -35.499s-62 -12.5 -98 -12.5
s-68.5 4.16699 -97.5 12.5s-54 20.166 -75 35.499s-37.167 34.333 -48.5 57s-17 48 -17 76zM397 171.001c0 27.333 -11.168 49.999 -33.501 67.999s-53.166 30 -92.499 36c-32.667 -8 -57.5 -21.167 -74.5 -39.5s-25.5 -40.166 -25.5 -65.499c0 -28 10 -49.5 30 -64.5
s47.333 -22.5 82 -22.5c34 0 61.5 7.33301 82.5 22s31.5 36.667 31.5 66zM184.999 447c0 -28 10 -49.002 30 -63.002s45.667 -23 77 -27c30 8.66699 52.667 20.167 68 34.5s23 32.833 23 55.5c0 24.667 -8.83301 43.834 -26.5 57.501s-42.167 20.5 -73.5 20.5
c-30 0 -53.833 -7.16699 -71.5 -21.5s-26.5 -33.166 -26.5 -56.499z" />
    <glyph glyph-name="nine" unicode="9" horiz-adv-x="555" 
d="M75 61c0 11.333 2.83008 21.999 8.49707 31.999s12.167 17.667 19.5 23c15.333 -7.33301 33 -13.833 53 -19.5s41 -8.5 63 -8.5c48 0 87.5 14.167 118.5 42.5s46.5 72.5 46.5 132.5c-11.333 -10.667 -28.5 -21.167 -51.5 -31.5s-50.5 -15.5 -82.5 -15.5
c-29.333 0 -56.666 3.83301 -81.999 11.5s-47.5 19.667 -66.5 36s-33.833 36.833 -44.5 61.5s-16 54 -16 88c0 30 5.16699 57.833 15.5 83.5s25.333 47.667 45 66s43.334 32.833 71.001 43.5s58.834 16 93.501 16c36.667 0 70 -6.33301 100 -19s55.833 -31.667 77.5 -57
s38.334 -56.666 50.001 -93.999s17.5 -81 17.5 -131c0 -58 -6.66699 -108.167 -20 -150.5s-32.333 -77.333 -57 -105s-54 -48 -88 -61s-71.333 -19.5 -112 -19.5c-46.667 0 -84.834 6.5 -114.501 19.5s-44.5 31.833 -44.5 56.5zM275.997 313.999
c22.667 0 43.666 5.50098 62.999 16.501s33.333 23.833 42 38.5c0 48 -9.83301 85.167 -29.5 111.5s-48.167 39.5 -85.5 39.5c-30 0 -53.833 -9.33301 -71.5 -28s-26.5 -44 -26.5 -76c0 -34.667 10.333 -60.334 31 -77.001s46.334 -25 77.001 -25z" />
    <glyph glyph-name="colon" unicode=":" horiz-adv-x="225" 
d="M39 394c0 21.333 6.83301 39.5 20.5 54.5s32.167 22.5 55.5 22.5s42 -7.5 56 -22.5s21 -33.167 21 -54.5c0 -22 -7 -40.5 -21 -55.5s-32.667 -22.5 -56 -22.5s-41.833 7.5 -55.5 22.5s-20.5 33.5 -20.5 55.5zM36 62c0 22 6.83301 40.5 20.5 55.5s32.167 22.5 55.5 22.5
s42 -7.5 56 -22.5s21 -33.5 21 -55.5c0 -21.333 -7 -39.5 -21 -54.5s-32.667 -22.5 -56 -22.5s-41.833 7.5 -55.5 22.5s-20.5 33.167 -20.5 54.5z" />
    <glyph glyph-name="semicolon" unicode=";" horiz-adv-x="235" 
d="M42 394c0 21.333 6.83301 39.5 20.5 54.5s32.167 22.5 55.5 22.5s42 -7.5 56 -22.5s21 -33.167 21 -54.5c0 -22 -7 -40.5 -21 -55.5s-32.667 -22.5 -56 -22.5s-41.833 7.5 -55.5 22.5s-20.5 33.5 -20.5 55.5zM127 -83c-8.66699 -12 -17.833 -20.834 -27.5 -26.501
s-21.167 -8.5 -34.5 -8.5c-22 0 -41 7 -57 21c6 16.667 12 34.667 18 54s11.5 39 16.5 59l14 58c4.33301 18.667 8.16602 36 11.499 52c8.66699 4.66699 18.667 8.5 30 11.5s22.666 4.5 33.999 4.5c16.667 0 30.667 -3.66699 42 -11s17 -20.666 17 -39.999
c0 -12.667 -2.16699 -27.167 -6.5 -43.5s-9.66602 -32.666 -15.999 -48.999s-13.166 -31.833 -20.499 -46.5s-14.333 -26.334 -21 -35.001z" />
    <glyph glyph-name="less" unicode="&#x3c;" horiz-adv-x="482" 
d="M449 148c0.666992 -4 1.16699 -8 1.5 -12s0.5 -8 0.5 -12c0 -17.333 -4.5 -32.166 -13.5 -44.499s-23.833 -18.5 -44.5 -18.5c-9.33301 0 -19 2.16699 -29 6.5s-21.667 10.166 -35 17.499l-269 141c-12 16 -18 37 -18 63c0 19.333 2.83301 34.333 8.5 45s13.5 19 23.5 25
l316 160c22 -6 37.333 -14.5 46 -25.5s13 -22.833 13 -35.5c0 -17.333 -4.5 -31 -13.5 -41s-22.167 -19.667 -39.5 -29l-234 -100z" />
    <glyph glyph-name="equal" unicode="=" horiz-adv-x="513" 
d="M53 348c-3.33301 5.33301 -6.16602 12.167 -8.49902 20.5s-3.5 17.5 -3.5 27.5c0 17.333 4.33301 30.333 13 39s20.667 13 36 13h370c3.33301 -5.33301 6.16602 -12.333 8.49902 -21s3.5 -18 3.5 -28c0 -18 -4.33301 -31 -13 -39s-20.667 -12 -36 -12h-370zM53 142.001
c-3.33301 5.33301 -6.16602 12.167 -8.49902 20.5s-3.5 17.5 -3.5 27.5c0 18 4.33301 31.167 13 39.5s20.667 12.5 36 12.5h370c3.33301 -5.33301 6.16602 -12.333 8.49902 -21s3.5 -18 3.5 -28c0 -18 -4.33301 -31 -13 -39s-20.667 -12 -36 -12h-370z" />
    <glyph glyph-name="greater" unicode="&#x3e;" horiz-adv-x="476" 
d="M33 432c-1.33301 3.33301 -1.99902 7.16797 -1.99902 11.501v11.5c0 17.333 4.5 32.166 13.5 44.499s23.5 18.5 43.5 18.5c10 0 20.333 -2.16699 31 -6.5s21.667 -9.5 33 -15.5l265 -141c12 -16 18 -37 18 -63c0 -19.333 -2.83301 -34.333 -8.5 -45s-13.5 -19 -23.5 -25
l-309 -160c-22.667 6 -38.334 14.5 -47.001 25.5s-13 23.167 -13 36.5c0 17.333 4.66699 30.833 14 40.5s22.333 19.167 39 28.5l228 102z" />
    <glyph glyph-name="question" unicode="?" horiz-adv-x="479" 
d="M126 205c-9.33301 6.66699 -17.3359 15.6699 -24.0029 27.0029s-10 24.666 -10 39.999s4.16699 27 12.5 35s21.166 14.333 38.499 19l73 18c30.667 7.33301 53.834 18.666 69.501 33.999s23.5 35.666 23.5 60.999c0 22 -8.66699 41.5 -26 58.5s-45.666 25.5 -84.999 25.5
c-27.333 0 -53.666 -3.83301 -78.999 -11.5s-45.666 -17.167 -60.999 -28.5c-9.33301 7.33301 -17.166 15.833 -23.499 25.5s-9.5 21.167 -9.5 34.5c0 14 4.66699 26.333 14 37s22.166 19.834 38.499 27.501s35.833 13.5 58.5 17.5s47.667 6 75 6
c36 0 68.333 -4.66699 97 -14s53 -22.5 73 -39.5s35.167 -37.167 45.5 -60.5s15.5 -49 15.5 -77c0 -58 -18 -103.833 -54 -137.5s-90.333 -58.834 -163 -75.501zM102.997 61.0029c0 22 7 40.333 21 55s32.667 22 56 22s42 -7.33301 56 -22s21 -33 21 -55
c0 -21.333 -7 -39.166 -21 -53.499s-32.667 -21.5 -56 -21.5s-42 7.16699 -56 21.5s-21 32.166 -21 53.499z" />
    <glyph glyph-name="at" unicode="@" horiz-adv-x="1036" 
d="M708 104c5.33301 -3.33301 11.6689 -5.99414 19.002 -7.99414s15 -3 23 -3c36.667 0 64.667 16.667 84 50s29 76.333 29 129c0 42.667 -7.83301 81.667 -23.5 117s-37.667 65.666 -66 90.999s-62.333 45 -102 59s-83.5 21 -131.5 21
c-55.333 0 -105.5 -8.66699 -150.5 -26s-83.5 -41.833 -115.5 -73.5s-56.833 -69.334 -74.5 -113.001s-26.5 -91.5 -26.5 -143.5c0 -50 8 -95.167 24 -135.5s38.333 -74.833 67 -103.5s62.834 -50.667 102.501 -66s83.5 -23 131.5 -23c27.333 0 50.666 1.33301 69.999 4
s36 5.66699 50 9c4 -6 7.66699 -13 11 -21s5 -16 5 -24c0 -10.667 -2.33301 -20.167 -7 -28.5s-12.5 -15.5 -23.5 -21.5s-25.833 -10.5 -44.5 -13.5s-42 -4.5 -70 -4.5c-57.333 0 -112.333 9 -165 27s-99.167 44.833 -139.5 80.5s-72.5 80.167 -96.5 133.5
s-36 115.666 -36 186.999c0 69.333 12 132 36 188s57.667 103.667 101 143s94.666 69.666 153.999 90.999s124.666 32 195.999 32c66.667 0 127.5 -9.16699 182.5 -27.5s101.833 -44.333 140.5 -78s68.667 -74.334 90 -122.001s32 -100.834 32 -159.501
c0 -88 -20 -156 -60 -204s-98 -72 -174 -72c-20.667 0 -42.167 3 -64.5 9s-42.5 15 -60.5 27c-15.333 -9.33301 -33 -16.833 -53 -22.5s-42.667 -8.5 -68 -8.5c-29.333 0 -56.333 4.5 -81 13.5s-45.667 22 -63 39s-30.833 37.667 -40.5 62s-14.5 52.166 -14.5 83.499
c0 36 5.83301 68.667 17.5 98s28 54.333 49 75s46.5 36.667 76.5 48s63 17 99 17c31.333 0 59 -3.66699 83 -11s44.667 -16.333 62 -27c26.667 -15.333 40 -34.666 40 -57.999v-12.5c0 -4.33301 -0.333008 -8.5 -1 -12.5zM431.003 199.006
c0 -34.667 8.66895 -60.167 26.002 -76.5s39.666 -24.5 66.999 -24.5c25.333 0 47.666 7.66699 66.999 23l20 200c-7.33301 4 -16.5 7.33301 -27.5 10s-24.167 4 -39.5 4c-32.667 0 -59.667 -11.667 -81 -35s-32 -57 -32 -101z" />
    <glyph glyph-name="A" unicode="A" horiz-adv-x="610" 
d="M416 143l-223.994 -0.000976562l-23.5 -77l-20.5 -66c-6.66699 -2.66699 -13.834 -5 -21.501 -7s-17.167 -3 -28.5 -3c-22.667 0 -40.334 4.5 -53.001 13.5s-19 21.833 -19 38.5c0 8 1.16699 15.833 3.5 23.5s5.16602 16.5 8.49902 26.5
c5.33301 18.667 12.5 41.167 21.5 67.5l29 86l33.5 96l34.5 96l32 87l26.5 69.5c8.66699 4.66699 21.5 9.33398 38.5 14.001s34.167 7 51.5 7c23.333 0 44.666 -3.5 63.999 -10.5s31.666 -18.167 36.999 -33.5l44 -126.5l48.5 -147.5l47.5 -149l41 -131
c-6.66699 -7.33301 -15.834 -13.5 -27.501 -18.5s-25.5 -7.5 -41.5 -7.5c-23.333 0 -39.833 4.16699 -49.5 12.5s-17.167 21.5 -22.5 39.5zM304.006 500.999l-19.5 -56l-22 -64.5l-23.5 -68l-23 -67.5h174l-81 256h-5z" />
    <glyph glyph-name="B" unicode="B" horiz-adv-x="609" 
d="M541 451c0 -30 -7.83105 -56.0029 -23.498 -78.0029s-39.167 -39.667 -70.5 -53c38.667 -12.667 67.667 -31.667 87 -57s29 -55.333 29 -90c0 -63.333 -23 -110.333 -69 -141s-112.667 -46 -200 -46c-12.667 0 -26.167 0.333008 -40.5 1s-28.833 1.83398 -43.5 3.50098
s-29.334 4 -44.001 7s-28.334 6.5 -41.001 10.5c-32 10.667 -48 30.334 -48 59.001v489c0 12.667 3.33301 22.334 10 29.001s16 12 28 16c22.667 7.33301 49 12.5 79 15.5s61.333 4.5 94 4.5c80.667 0 143 -13.833 187 -41.5s66 -70.5 66 -128.5zM431.002 177.997
c0 26.667 -9.50098 47.667 -28.501 63s-46.5 23 -82.5 23h-117v-167c12.667 -3.33301 27.834 -5.66602 45.501 -6.99902s35.167 -2 52.5 -2c40.667 0 72.5 7.16699 95.5 21.5s34.5 37.166 34.5 68.499zM203.001 358.997h101c36 0 62.833 7.33301 80.5 22s26.5 35 26.5 61
c0 52.667 -40.667 79 -122 79c-16.667 0 -32.5 -0.666992 -47.5 -2s-27.833 -3 -38.5 -5v-155z" />
    <glyph glyph-name="C" unicode="C" horiz-adv-x="579" 
d="M537 529c0 -13.333 -3.6709 -24.834 -11.0039 -34.501s-15.666 -17.167 -24.999 -22.5c-17.333 11.333 -36.666 21.666 -57.999 30.999s-47.666 14 -78.999 14c-56.667 0 -101.834 -18.333 -135.501 -55s-50.5 -89.667 -50.5 -159c0 -70.667 17.333 -123.667 52 -159
s81.334 -53 140.001 -53c30.667 0 57.167 4.16699 79.5 12.5s42.166 18.166 59.499 29.499c9.33301 -6 17 -14.167 23 -24.5s9 -22.166 9 -35.499c0 -11.333 -3 -21.666 -9 -30.999s-16 -17.666 -30 -24.999c-13.333 -8 -32.166 -15.5 -56.499 -22.5
s-54.5 -10.5 -90.5 -10.5c-44 0 -84.833 6.5 -122.5 19.5s-70.5 32.667 -98.5 59s-50 59.5 -66 99.5s-24 87 -24 141c0 52 8 97.833 24 137.5s37.833 73 65.5 100s60 47.5 97 61.5s76.167 21 117.5 21c28.667 0 54.667 -2.5 78 -7.5s43.333 -11.833 60 -20.5
s29.334 -18.667 38.001 -30s13 -23.333 13 -36z" />
    <glyph glyph-name="D" unicode="D" horiz-adv-x="659" 
d="M482 306c0 36 -5.00098 67.167 -15.001 93.5s-23.833 48 -41.5 65s-38.667 29.667 -63 38s-50.833 12.5 -79.5 12.5c-15.333 0 -29.166 -0.5 -41.499 -1.5s-24.166 -2.16699 -35.499 -3.5v-411c11.333 -2.66699 24.166 -4.5 38.499 -5.5s28.5 -1.5 42.5 -1.5
c62 0 110 18 144 54s51 89.333 51 160zM614.999 307c0 -54 -7.83496 -101.171 -23.502 -141.504s-37.834 -73.666 -66.501 -99.999s-63.167 -46.166 -103.5 -59.499s-85.166 -20 -134.499 -20c-11.333 0 -23.666 0.166992 -36.999 0.5s-27.166 1.33301 -41.499 3
s-28.666 3.83398 -42.999 6.50098s-27.833 6.33398 -40.5 11.001c-32 12 -48 32 -48 60v490c0 12 3.33301 21.333 10 28s16 12 28 16c24.667 8.66699 51.5 14.167 80.5 16.5s56.5 3.5 82.5 3.5c50 0 95.833 -6.5 137.5 -19.5s77.167 -32.5 106.5 -58.5
s52.166 -58.667 68.499 -98s24.5 -85.333 24.5 -138z" />
    <glyph glyph-name="E" unicode="E" horiz-adv-x="540" 
d="M146 -2c-21.333 0 -38.166 6.33301 -50.499 19s-18.5 29.667 -18.5 51v470c0 21.333 6.16699 38.166 18.5 50.499s29.166 18.5 50.499 18.5h331c3.33301 -5.33301 6.33301 -12.333 9 -21s4 -18.334 4 -29.001c0 -17.333 -4 -30.666 -12 -39.999s-19 -14 -33 -14h-242
v-142h244c3.33301 -5.33301 6.5 -12.166 9.5 -20.499s4.5 -17.833 4.5 -28.5c0 -36 -15.333 -54 -46 -54h-212v-155h278c3.33301 -5.33301 6.5 -12.5 9.5 -21.5s4.5 -18.833 4.5 -29.5c0 -36 -15.333 -54 -46 -54h-303v0z" />
    <glyph glyph-name="F" unicode="F" horiz-adv-x="524" 
d="M478 607c3.33301 -5.33301 6.50098 -12.498 9.50098 -21.498s4.5 -18.833 4.5 -29.5c0 -18 -4.16699 -31.667 -12.5 -41s-19.5 -14 -33.5 -14h-241v-159h239c3.33301 -5.33301 6.5 -12.333 9.5 -21s4.5 -18.334 4.5 -29.001c0 -18 -4.16699 -31.5 -12.5 -40.5
s-19.5 -13.5 -33.5 -13.5h-205v-237c-6 -1.33301 -14.5 -3 -25.5 -5s-22.5 -3 -34.5 -3c-25.333 0 -43.333 4.66699 -54 14s-16 25 -16 47v484c0 21.333 6.16699 38.166 18.5 50.499s29.166 18.5 50.499 18.5h332z" />
    <glyph glyph-name="G" unicode="G" horiz-adv-x="652" 
d="M593 84c0 -16.667 -3.49707 -29.5 -10.4971 -38.5s-18.167 -17.5 -33.5 -25.5c-8.66699 -5.33301 -19.5 -10.166 -32.5 -14.499s-27.333 -8 -43 -11s-31.834 -5.5 -48.501 -7.5s-33.334 -3 -50.001 -3c-47.333 0 -91.166 6.16699 -131.499 18.5s-75.333 31.5 -105 57.5
s-52.834 59 -69.501 99s-25 87.667 -25 143c0 52.667 8.5 99.167 25.5 139.5s40.333 73.833 70 100.5s64.167 46.834 103.5 60.501s81.666 20.5 126.999 20.5c30 0 57.167 -2.5 81.5 -7.5s45.333 -11.667 63 -20s31.167 -18.333 40.5 -30s14 -23.834 14 -36.501
c0 -13.333 -3.66699 -25 -11 -35s-15.666 -17.667 -24.999 -23c-17.333 11.333 -38.333 21.833 -63 31.5s-55 14.5 -91 14.5c-29.333 0 -56.333 -4.83301 -81 -14.5s-45.834 -23.5 -63.501 -41.5s-31.5 -40.333 -41.5 -67s-15 -57 -15 -91c0 -36.667 5 -68.334 15 -95.001
s23.833 -48.834 41.5 -66.501s38.667 -30.667 63 -39s50.833 -12.5 79.5 -12.5c19.333 0 37 1.66699 53 5s28.333 7.33301 37 12v139h-128c-3.33301 5.33301 -6.33301 12.333 -9 21s-4 18.334 -4 29.001c0 17.333 4.16699 30.333 12.5 39s19.166 13 32.499 13h168
c16.667 0 29.834 -4.66699 39.501 -14s14.5 -22.333 14.5 -39v-211z" />
    <glyph glyph-name="H" unicode="H" horiz-adv-x="663" 
d="M207 1c-6 -1.33301 -14.502 -3 -25.502 -5s-22.833 -3 -35.5 -3c-25.333 0 -43.166 4.66699 -53.499 14s-15.5 25 -15.5 47v553c5.33301 1.33301 13.833 3 25.5 5s23.167 3 34.5 3c24 0 41.667 -4.33301 53 -13s17 -24.667 17 -48v-197h250v250
c5.33301 1.33301 13.833 3 25.5 5s23.167 3 34.5 3c24 0 41.667 -4.5 53 -13.5s17 -25.167 17 -48.5v-552c-6 -1.33301 -14.5 -3 -25.5 -5s-22.833 -3 -35.5 -3c-25.333 0 -43.166 4.66699 -53.499 14s-15.5 25 -15.5 47v199h-250v-252v0z" />
    <glyph glyph-name="I" unicode="I" horiz-adv-x="284" 
d="M147 -7c-25.333 0 -43.332 4.66699 -53.999 14s-16 25 -16 47v553c6 1.33301 14.667 3 26 5s22.666 3 33.999 3c24 0 41.667 -4.33301 53 -13s17 -24.667 17 -48v-553c-6 -1.33301 -14.5 -3 -25.5 -5s-22.5 -3 -34.5 -3z" />
    <glyph glyph-name="J" unicode="J" horiz-adv-x="399" 
d="M324 164c0 -60 -16.665 -104.5 -49.998 -133.5s-77.333 -43.5 -132 -43.5c-36.667 0 -65.667 5.5 -87 16.5s-32 28.833 -32 53.5c0 11.333 1.83301 21 5.5 29s7.83398 14.667 12.501 20c11.333 -3.33301 22.666 -6.33301 33.999 -9s23.666 -4 36.999 -4
c54.667 0 82 28.333 82 85v429c6 1.33301 14.667 3 26 5s22.666 3 33.999 3c24 0 41.667 -4.33301 53 -13s17 -24.667 17 -48v-390v0z" />
    <glyph glyph-name="K" unicode="K" horiz-adv-x="591" 
d="M207 260v-258.999c-6 -2 -14.5 -3.83301 -25.5 -5.5s-22.833 -2.5 -35.5 -2.5c-25.333 0 -43.166 4.5 -53.499 13.5s-15.5 24.833 -15.5 47.5v553c5.33301 1.33301 13.833 3 25.5 5s23.167 3 34.5 3c24 0 41.667 -4.33301 53 -13s17 -24.667 17 -48v-206l240 264
c32 0 55.167 -6.33301 69.5 -19s21.5 -27.667 21.5 -45c0 -14 -3.5 -26.5 -10.5 -37.5s-17.5 -23.5 -31.5 -37.5l-169 -168l137 -143c39.333 -42 72.666 -75.667 99.999 -101c-0.666992 -22 -7.83398 -39.167 -21.501 -51.5s-30.167 -18.5 -49.5 -18.5
s-35.666 5.16699 -48.999 15.5s-26.333 22.166 -39 35.499z" />
    <glyph glyph-name="L" unicode="L" horiz-adv-x="507" 
d="M146 -2c-21.333 0 -38.166 6.33301 -50.499 19s-18.5 29.667 -18.5 51v539c5.33301 1.33301 13.833 3 25.5 5s23.167 3 34.5 3c24 0 41.667 -4.33301 53 -13s17 -24.667 17 -48v-449h257c3.33301 -5.33301 6.66602 -12.5 9.99902 -21.5s5 -18.833 5 -29.5
c0 -18 -4.16699 -31.833 -12.5 -41.5s-19.833 -14.5 -34.5 -14.5h-286v0z" />
    <glyph glyph-name="M" unicode="M" horiz-adv-x="789" 
d="M460 153c-6.66699 -5.33301 -15.3281 -9.66504 -25.9951 -12.998s-23 -5 -37 -5c-17.333 0 -31.833 2.16699 -43.5 6.5s-19.834 12.166 -24.501 23.499l-69 174c-18.667 48 -33.667 89 -45 123h-5l-5.5 -123c-1.66699 -37.333 -3.16699 -73.833 -4.5 -109.5
s-2.83301 -71.834 -4.5 -108.501s-3.83398 -76.334 -6.50098 -119.001c-6.66699 -2 -15 -4 -25 -6s-20.667 -3 -32 -3c-44.667 0 -67 16.667 -67 50c0 10.667 0.5 27.167 1.5 49.5s2.33301 48.333 4 78s3.66699 62.167 6 97.5l7 107c2.33301 36 4.83301 71.5 7.5 106.5
s5 67.5 7 97.5c5.33301 6.66699 15.166 13.5 29.499 20.5s32.833 10.5 55.5 10.5c25.333 0 45.833 -4.16699 61.5 -12.5s27.5 -22.166 35.5 -41.499l27.5 -68l29.5 -76l29.5 -76.5l27.5 -70.5h4l67.5 182l58.5 149c8 4 18.333 7.33301 31 10s25.667 4 39 4
c24.667 0 44.334 -3.66699 59.001 -11s23.667 -18.333 27 -33c2.66699 -12.667 5.66699 -32.834 9 -60.501s6.66602 -59.167 9.99902 -94.5s6.66602 -73 9.99902 -113s6.33301 -78.5 9 -115.5s5 -70.833 7 -101.5s3.33301 -54.667 4 -72
c-8.66699 -5.33301 -17.834 -9.33301 -27.501 -12s-21.5 -4 -35.5 -4c-17.333 0 -32.5 3.5 -45.5 10.5s-20.167 20.167 -21.5 39.5c-2.66699 42 -5 83.167 -7 123.5s-3.66699 78.5 -5 114.5s-2.66602 69.167 -3.99902 99.5s-2.33301 56.5 -3 78.5h-5
c-10.667 -31.333 -25.334 -71.166 -44.001 -119.499z" />
    <glyph glyph-name="N" unicode="N" horiz-adv-x="670" 
d="M144 -7c-24.667 0 -41.9961 4.50391 -51.9961 13.5039s-15 24.167 -15 45.5v533c7.33301 9.33301 18.166 16.666 32.499 21.999s30.166 8 47.499 8c20.667 0 39.167 -3.66699 55.5 -11s30.833 -22 43.5 -44l144 -259c13.333 -24 26.166 -48.833 38.499 -74.5
s23.166 -49.167 32.499 -70.5l4 1c-3.33301 39.333 -5.5 77.5 -6.5 114.5s-1.5 73.5 -1.5 109.5v227c5.33301 1.33301 13.5 2.83301 24.5 4.5s22.167 2.5 33.5 2.5c24.667 0 42.167 -4.5 52.5 -13.5s15.5 -24.167 15.5 -45.5v-540c-7.33301 -7.33301 -17.833 -13 -31.5 -17
s-29.834 -6 -48.501 -6c-20 0 -38.167 3.5 -54.5 10.5s-30.833 21.5 -43.5 43.5l-144 259c-13.333 23.333 -26.166 48.166 -38.499 74.499l-32.5 71.5l-6 -1c3.33301 -36.667 5.5 -74.334 6.5 -113.001s1.5 -75.334 1.5 -110.001v-227c-5.33301 -1.33301 -13.333 -3 -24 -5
s-22 -3 -34 -3z" />
    <glyph glyph-name="O" unicode="O" horiz-adv-x="696" 
d="M652 304c0 -52 -7.66895 -98 -23.002 -138s-36.5 -73.5 -63.5 -100.5s-59.167 -47.333 -96.5 -61s-77.666 -20.5 -120.999 -20.5s-83.666 6.83301 -120.999 20.5s-69.5 34 -96.5 61s-48.167 60.5 -63.5 100.5s-23 86 -23 138s7.83301 97.833 23.5 137.5
s37.167 73 64.5 100s59.5 47.333 96.5 61s76.833 20.5 119.5 20.5s82.5 -6.83301 119.5 -20.5s69.167 -34 96.5 -61s48.833 -60.333 64.5 -100s23.5 -85.5 23.5 -137.5zM518.998 304c0 69.333 -15.5 122.167 -46.5 158.5s-72.5 54.5 -124.5 54.5
c-51.333 0 -92.5 -18 -123.5 -54s-46.5 -89 -46.5 -159s15.333 -123 46 -159s72 -54 124 -54s93.5 18 124.5 54s46.5 89 46.5 159z" />
    <glyph glyph-name="P" unicode="P" horiz-adv-x="574" 
d="M207 202l-0.000976562 -201.003c-6 -1.33301 -14.5 -3 -25.5 -5s-22.833 -3 -35.5 -3c-25.333 0 -43.166 4.66699 -53.499 14s-15.5 25 -15.5 47v502c0 12.667 3.33301 22.334 10 29.001s16 12 28 16c10.667 3.33301 22.5 6.33301 35.5 9s26.5 4.83398 40.5 6.50098
s28 2.83398 42 3.50098s27.333 1 40 1c88 0 154.167 -18.833 198.5 -56.5s66.5 -88.5 66.5 -152.5s-21.667 -115 -65 -153s-106 -57 -188 -57h-78zM276.999 305.997c40 0 71.5 8.66699 94.5 26s34.5 44 34.5 80c0 34.667 -10.833 60.667 -32.5 78s-53.167 26 -94.5 26
c-28.667 0 -53 -2 -73 -6v-204h71z" />
    <glyph glyph-name="Q" unicode="Q" horiz-adv-x="698" 
d="M652 305c0 -73.333 -14.501 -134.167 -43.501 -182.5s-67.833 -84.166 -116.5 -107.499c38 -19.333 71.833 -34.5 101.5 -45.5l88.5 -31.5c0.666992 -4 1 -7.5 1 -10.5v-8.5c0 -26 -6.83301 -45.333 -20.5 -58s-32.167 -19 -55.5 -19c-26.667 0 -56.667 8.66699 -90 26
s-69.333 41.666 -108 72.999l-55 44h-6c-43.333 0 -83.666 6.83301 -120.999 20.5s-69.5 34 -96.5 61s-48.167 60.5 -63.5 100.5s-23 86 -23 138s7.83301 97.667 23.5 137s37.167 72.5 64.5 99.5s59.5 47.333 96.5 61s76.833 20.5 119.5 20.5s82.5 -6.83301 119.5 -20.5
s69.167 -34 96.5 -61s48.833 -60.167 64.5 -99.5s23.5 -85 23.5 -137zM518.999 304.999c0 69.333 -15.5 122 -46.5 158s-72.5 54 -124.5 54c-51.333 0 -92.5 -18 -123.5 -54s-46.5 -88.667 -46.5 -158c0 -70.667 15.333 -123.834 46 -159.501s72 -53.5 124 -53.5
s93.5 17.833 124.5 53.5s46.5 88.834 46.5 159.501z" />
    <glyph glyph-name="R" unicode="R" horiz-adv-x="599" 
d="M207 1c-6 -1.33301 -14.502 -3.00195 -25.502 -5.00195s-22.833 -3 -35.5 -3c-25.333 0 -43.166 4.66699 -53.499 14s-15.5 25 -15.5 47v502c0 12.667 3.33301 22.334 10 29.001s16 12 28 16c21.333 7.33301 46.5 12.5 75.5 15.5s58.833 4.5 89.5 4.5
c88 0 154 -18.167 198 -54.5s66 -86.5 66 -150.5c0 -42 -11 -78.5 -33 -109.5s-52.333 -54.833 -91 -71.5l84.5 -108.5c27 -34.333 47.167 -61.166 60.5 -80.499c-5.33301 -17.333 -14.666 -30.833 -27.999 -40.5s-28 -14.5 -44 -14.5c-20.667 0 -36.5 4.66699 -47.5 14
s-21.833 22 -32.5 38l-113 169h-93v-211zM286.998 313.998c38 0 68.499 8.33203 91.499 24.999s34.5 42 34.5 76c0 67.333 -45 101 -135 101c-13.333 0 -26.166 -0.666992 -38.499 -2s-23.833 -2.66602 -34.5 -3.99902v-196h82z" />
    <glyph glyph-name="S" unicode="S" horiz-adv-x="537" 
d="M254 91c38.667 0 66.999 7.5 84.999 22.5s27 33.833 27 56.5c0 20.667 -7 37.167 -21 49.5s-35.333 22.833 -64 31.5l-64 20c-25.333 8 -48.333 17 -69 27s-38.334 21.833 -53.001 35.5s-26 29.667 -34 48s-12 40.166 -12 65.499c0 54 20.333 96.833 61 128.5
s96.334 47.5 167.001 47.5c28 0 53.833 -2.16699 77.5 -6.5s44.167 -10.333 61.5 -18s30.833 -17.167 40.5 -28.5s14.5 -24 14.5 -38c0 -13.333 -3.16699 -24.833 -9.5 -34.5s-14.166 -17.5 -23.499 -23.5c-16 11.333 -37.167 21.166 -63.5 29.499
s-55.166 12.5 -86.499 12.5c-34.667 0 -61 -6.16699 -79 -18.5s-27 -29.166 -27 -50.499c0 -17.333 6.16699 -30.666 18.5 -39.999s31.833 -18.333 58.5 -27l57 -18c58 -17.333 103 -41 135 -71s48 -70.667 48 -122c0 -27.333 -5.33301 -52.333 -16 -75
s-26.167 -42.167 -46.5 -58.5s-45.666 -29 -75.999 -38s-64.833 -13.5 -103.5 -13.5c-30.667 0 -58.834 2.66699 -84.501 8s-47.834 12.5 -66.501 21.5s-33.167 19.667 -43.5 32s-15.5 25.833 -15.5 40.5c0 15.333 4.5 28.5 13.5 39.5s19.5 19.167 31.5 24.5
c16.667 -14.667 38.667 -28.167 66 -40.5s59.333 -18.5 96 -18.5z" />
    <glyph glyph-name="T" unicode="T" horiz-adv-x="540" 
d="M504 607c3.33301 -5.33301 6.49902 -12.501 9.49902 -21.501s4.5 -18.833 4.5 -29.5c0 -18 -4.16699 -31.667 -12.5 -41s-19.833 -14 -34.5 -14h-138v-500c-5.33301 -1.33301 -13.666 -3 -24.999 -5s-23 -3 -35 -3c-25.333 0 -43.333 4.66699 -54 14s-16 25 -16 47v447
h-168c-3.33301 6 -6.5 13.333 -9.5 22s-4.5 18.334 -4.5 29.001c0 18.667 4.16699 32.5 12.5 41.5s19.833 13.5 34.5 13.5h436v0z" />
    <glyph glyph-name="U" unicode="U" horiz-adv-x="657" 
d="M328 -16c-40 0 -75.666 5.5 -106.999 16.5s-57.833 26.667 -79.5 47s-38.167 44.666 -49.5 72.999s-17 60.166 -17 95.499v391c5.33301 1.33301 13.833 3 25.5 5s23.167 3 34.5 3c24 0 41.5 -4.33301 52.5 -13s16.5 -24.667 16.5 -48v-333c0 -42 11.667 -74.167 35 -96.5
s53 -33.5 89 -33.5s65.667 11.167 89 33.5s35 54.5 35 96.5v386c6 1.33301 14.667 3 26 5s22.666 3 33.999 3c24 0 41.667 -4.33301 53 -13s17 -24.667 17 -48v-338c0 -35.333 -5.66699 -67.166 -17 -95.499s-28 -52.666 -50 -72.999s-48.667 -36 -80 -47
s-67 -16.5 -107 -16.5z" />
    <glyph glyph-name="V" unicode="V" horiz-adv-x="609" 
d="M389 14c-6.66699 -5.33301 -17.3359 -10.3379 -32.0029 -15.0049s-30.667 -7 -48 -7c-20.667 0 -38.667 3 -54 9s-25.666 14.667 -30.999 26c-8 16 -17.5 37 -28.5 63l-35 86.5l-37.5 101l-37.5 107l-34.5 104c-10.667 33.667 -19.667 64.834 -27 93.501
c6.66699 7.33301 16.5 14 29.5 20s27.167 9 42.5 9c18.667 0 33.167 -4.16699 43.5 -12.5s18.833 -22.5 25.5 -42.5l69.5 -218l73.5 -217h5c12 34 24.167 70.333 36.5 109l36.5 119.5l35.5 124c11.667 41.667 22.5 82.834 32.5 123.501c17.333 9.33301 37.666 14 60.999 14
c18.667 0 34.167 -4.16699 46.5 -12.5s18.5 -22.166 18.5 -41.499c0 -12 -3.66699 -32 -11 -60s-16.666 -59.833 -27.999 -95.5s-24.166 -73.5 -38.499 -113.5l-43 -114.5c-14.333 -36.333 -27.666 -68.666 -39.999 -96.999s-22.5 -49.166 -30.5 -62.499z" />
    <glyph glyph-name="W" unicode="W" horiz-adv-x="834" 
d="M352 458c6.66699 3.33301 15.8252 6.49902 27.4922 9.49902s23.834 4.5 36.501 4.5c21.333 0 38.833 -3.16699 52.5 -9.5s22.167 -15.833 25.5 -28.5l27.5 -89l24.5 -79.5l23 -76l22 -77.5h4c8 42.667 15.333 84 22 124l20 119c6.66699 39.333 12.834 79 18.501 119
l17.5 124c17.333 9.33301 36.333 14 57 14c18.667 0 34.5 -4.16699 47.5 -12.5s19.5 -21.833 19.5 -40.5c0 -13.333 -1.66699 -33.333 -5 -60s-7.83301 -56.667 -13.5 -90s-12.334 -68.833 -20.001 -106.5s-15.667 -74.334 -24 -110.001s-16.666 -68.834 -24.999 -99.501
s-16.5 -55.667 -24.5 -75c-8 -6.66699 -20 -12.334 -36 -17.001s-33 -7 -51 -7c-23.333 0 -43.166 3.5 -59.499 10.5s-26.166 16.167 -29.499 27.5c-6 15.333 -12.5 33.5 -19.5 54.5l-22 68.5l-23.5 77.5c-8 27 -15.667 54.5 -23 82.5l-22.5 -83.5l-22.5 -82
c-7.33301 -26.333 -14.666 -51 -21.999 -74s-14 -42.5 -20 -58.5c-7.33301 -6 -18.5 -11.333 -33.5 -16s-31.5 -7 -49.5 -7c-22.667 0 -42.667 3.5 -60 10.5s-28.666 16.167 -33.999 27.5c-6 13.333 -12.667 32.333 -20 57s-15 52.834 -23 84.501s-16 65.834 -24 102.501
l-23 109.5l-20.5 106c-6.33301 34.333 -11.166 65.5 -14.499 93.5c7.33301 6.66699 17 12.834 29 18.501s25.667 8.5 41 8.5c18.667 0 33.834 -4.33301 45.501 -13s19.167 -22.667 22.5 -42l26 -146.5l20.5 -115.5l18 -96l17.5 -87h5
c7.33301 28.667 14.5 55.334 21.5 80.001l21.5 76l23.5 84.5z" />
    <glyph glyph-name="X" unicode="X" horiz-adv-x="596" 
d="M295 219l-154.997 -224.999c-4 -0.666992 -8.16699 -1.16699 -12.5 -1.5s-8.5 -0.5 -12.5 -0.5c-25.333 0 -44.666 5.5 -57.999 16.5s-20 25.167 -20 42.5c0 14 3.16699 26.5 9.5 37.5s15.166 23.833 26.499 38.5l139 180l-176 245c4.66699 15.333 13.667 29.333 27 42
s30.666 19 51.999 19c14.667 0 27.667 -4 39 -12s22.666 -20.667 33.999 -38l112 -166l146 209c8.66699 3.33301 20.667 5 36 5c22 0 39.167 -5.33301 51.5 -16s18.5 -24 18.5 -40c0 -13.333 -3.33301 -25.333 -10 -36s-15.667 -23.334 -27 -38.001l-67 -86l-69 -87
l184 -255c-4.66699 -18.667 -13.334 -33.5 -26.001 -44.5s-29.667 -16.5 -51 -16.5c-15.333 0 -28.333 3.83301 -39 11.5s-21.667 20.5 -33 38.5z" />
    <glyph glyph-name="Y" unicode="Y" horiz-adv-x="562" 
d="M543 557c0 -7.33301 -3.66504 -19.5 -10.998 -36.5s-18.666 -39.5 -33.999 -67.5s-35 -62 -59 -102l-87 -139v-211c-5.33301 -1.33301 -13.5 -3 -24.5 -5s-22.5 -3 -34.5 -3c-25.333 0 -43 4.66699 -53 14s-15 24.666 -15 45.999v158l-57 86l-59 95
c-19.333 32 -37.333 63.5 -54 94.5s-30.667 59.167 -42 84.5c5.33301 10 13.666 19.167 24.999 27.5s25.666 12.5 42.999 12.5c19.333 0 34.833 -4.33301 46.5 -13s23.167 -23.667 34.5 -45l25.5 -46.5l37 -68.5l37 -68l24.5 -44h5l36 70.5l33 66l31.5 66l32.5 69.5
c8 4.66699 17.167 8 27.5 10s20.166 3 29.499 3c18 0 32.833 -4.66699 44.5 -14s17.5 -22.666 17.5 -39.999z" />
    <glyph glyph-name="Z" unicode="Z" horiz-adv-x="559" 
d="M71 0c-8.66699 7.33301 -15.6641 16.667 -20.9971 28s-8 24 -8 38c0 13.333 3.16699 26.333 9.5 39s14.166 25 23.499 37l280 359h-291c-3.33301 6 -6.5 13.333 -9.5 22s-4.5 18.667 -4.5 30c0 18.667 4.16699 32.667 12.5 42s20.166 14 35.499 14h383
c21.333 -18 32 -40.667 32 -68c0 -13.333 -2.83301 -26 -8.5 -38s-13.167 -24 -22.5 -36l-281 -360h304c3.33301 -6 6.66602 -13.333 9.99902 -22s5 -18.667 5 -30c0 -18.667 -4.16699 -32.5 -12.5 -41.5s-19.833 -13.5 -34.5 -13.5h-402v0z" />
    <glyph glyph-name="bracketleft" unicode="[" horiz-adv-x="286" 
d="M267 655c3.33301 -5.33301 6.16797 -12 8.50098 -20s3.5 -16.667 3.5 -26c0 -17.333 -4.16699 -30 -12.5 -38s-19.5 -12 -33.5 -12h-59v-584h93c3.33301 -5.33301 6.16602 -12 8.49902 -20s3.5 -16.667 3.5 -26c0 -17.333 -4.16699 -30 -12.5 -38s-19.5 -12 -33.5 -12
h-117c-20 0 -34.833 5.66699 -44.5 17s-14.5 25.333 -14.5 42v658c0 16.667 4.83301 30.667 14.5 42s24.5 17 44.5 17h151z" />
    <glyph glyph-name="backslash" unicode="\" horiz-adv-x="351" 
d="M324 -33c-7.33301 -7.33301 -17.166 -13.667 -29.499 -19s-24.166 -8 -35.499 -8c-14 0 -25.833 2.83301 -35.5 8.5s-16.5 16.167 -20.5 31.5l-182 660c7.33301 7.33301 17.166 13.833 29.499 19.5s24.166 8.5 35.499 8.5c13.333 0 25 -3 35 -9s17 -16.667 21 -32z" />
    <glyph glyph-name="bracketright" unicode="]" horiz-adv-x="294" 
d="M19 -121c-3.33301 5.33301 -6.16797 12 -8.50098 20s-3.5 16.667 -3.5 26c0 17.333 4.16699 30 12.5 38s19.5 12 33.5 12h59v584h-93c-3.33301 5.33301 -6.16602 12 -8.49902 20s-3.5 16.667 -3.5 26c0 17.333 4.16699 30 12.5 38s19.5 12 33.5 12h117
c20 0 34.833 -5.66699 44.5 -17s14.5 -25.333 14.5 -42v-658c0 -16.667 -4.83301 -30.667 -14.5 -42s-24.5 -17 -44.5 -17h-151z" />
    <glyph glyph-name="asciicircum" unicode="^" horiz-adv-x="476" 
d="M173 644c6 4.66699 14.667 8.66602 26 11.999s24 5 38 5c16 0 29.667 -2.16699 41 -6.5s19.666 -11.166 24.999 -20.499c8 -13.333 18 -32.166 30 -56.499l37 -78c12.667 -27.667 24.5 -55.5 35.5 -83.5s19.833 -52.333 26.5 -73c-6 -6.66699 -14.167 -12.667 -24.5 -18
s-21.5 -8 -33.5 -8c-16 0 -28.5 3.16699 -37.5 9.5s-17.167 18.833 -24.5 37.5l-76 186h-5l-16.5 -42l-22 -56.5l-22.5 -62.5c-7.33301 -21.333 -13.666 -41.333 -18.999 -60c-16 -8.66699 -34 -13 -54 -13c-14.667 0 -27.167 3.33301 -37.5 10s-15.5 18.334 -15.5 35.001
c0 6.66699 2.5 17.167 7.5 31.5s11.333 30.666 19 48.999s16.334 37.666 26.001 57.999l29 58.5l27 51c8.33301 15.333 15.166 27 20.499 35z" />
    <glyph glyph-name="underscore" unicode="_" horiz-adv-x="488" 
d="M12 -156c-3.33301 5.33301 -6.16895 12 -8.50195 20s-3.5 17.333 -3.5 28c0 17.333 4.33301 30.333 13 39s20.334 13 35.001 13h428c2.66699 -5.33301 5.33398 -12.5 8.00098 -21.5s4 -18.167 4 -27.5c0 -18 -4.5 -31 -13.5 -39s-20.833 -12 -35.5 -12h-427z" />
    <glyph glyph-name="grave" unicode="`" horiz-adv-x="302" 
d="M38 640c-1.33301 6.66699 -2.00195 12.668 -2.00195 18.001c0 18 5.33301 32.167 16 42.5s24 15.5 40 15.5c21.333 0 39.666 -9 54.999 -27l89 -112c-1.33301 -17.333 -7.16602 -30.5 -17.499 -39.5s-21.833 -13.5 -34.5 -13.5c-11.333 0 -20.666 1.66699 -27.999 5
s-14.666 8.66602 -21.999 15.999z" />
    <glyph glyph-name="a" unicode="a" horiz-adv-x="522" 
d="M250 81c19.333 0 37 1.83301 53 5.5s27.667 8.16699 35 13.5v111l-97 -9c-26.667 -2.66699 -47 -8.5 -61 -17.5s-21 -23.167 -21 -42.5s7.16699 -34.333 21.5 -45s37.5 -16 69.5 -16zM246 488c65.333 0 117.501 -14.002 156.501 -42.002s58.5 -71.333 58.5 -130v-231
c0 -16 -4 -28.667 -12 -38s-18 -17.666 -30 -24.999c-18.667 -11.333 -42.334 -20.333 -71.001 -27s-61.334 -10 -98.001 -10c-66.667 0 -119.167 12.833 -157.5 38.5s-57.5 64.167 -57.5 115.5c0 44.667 14.167 78.834 42.5 102.501s69.5 38.167 123.5 43.5l137 14v18
c0 25.333 -9.16699 44 -27.5 56s-44.166 18 -77.499 18c-26 0 -51.333 -3.16699 -76 -9.5s-46.667 -14.166 -66 -23.499c-7.33301 5.33301 -13.5 12.5 -18.5 21.5s-7.5 18.833 -7.5 29.5c0 13.333 3.16699 24.166 9.5 32.499s16.5 15.833 30.5 22.5
c19.333 8 41.333 14 66 18s49.667 6 75 6z" />
    <glyph glyph-name="b" unicode="b" 
d="M302 488c32 0 61.835 -5.16797 89.502 -15.501s51.834 -26 72.501 -47s36.834 -47 48.501 -78s17.5 -67.5 17.5 -109.5s-6 -78.667 -18 -110s-29 -57.666 -51 -78.999s-48.5 -37.333 -79.5 -48s-65.5 -16 -103.5 -16c-38.667 0 -72.334 4.66699 -101.001 14
s-52.334 20.333 -71.001 33c-14 9.33301 -24.333 19.5 -31 30.5s-10 24.167 -10 39.5v548c5.33301 2 13.166 3.83301 23.499 5.5s21.833 2.5 34.5 2.5c23.333 0 40.666 -4.33301 51.999 -13s17 -24 17 -46v-137c14 7.33301 30.167 13.5 48.5 18.5s38.833 7.5 61.5 7.5z
M280.002 387.999c-18 0 -34.501 -3 -49.501 -9s-28.167 -12.667 -39.5 -20v-250c8.66699 -5.33301 20.334 -10.5 35.001 -15.5s31.667 -7.5 51 -7.5c37.333 0 67.333 12.5 90 37.5s34 63.167 34 114.5c0 52 -11.167 90 -33.5 114s-51.5 36 -87.5 36z" />
    <glyph glyph-name="c" unicode="c" horiz-adv-x="484" 
d="M308 387c-20 0 -38.5039 -3.32324 -55.5039 -9.99023s-31.667 -16.334 -44 -29.001s-22.166 -28.334 -29.499 -47.001s-11 -40.334 -11 -65.001c0 -49.333 13 -86.5 39 -111.5s59.667 -37.5 101 -37.5c23.333 0 43.5 3.16699 60.5 9.5s32.167 13.166 45.5 20.499
c9.33301 -6.66699 16.833 -14.334 22.5 -23.001s8.5 -18.667 8.5 -30c0 -22.667 -13.333 -41.334 -40 -56.001s-62.667 -22 -108 -22c-38 0 -72.833 5.16699 -104.5 15.5s-58.834 26 -81.501 47s-40.167 47.167 -52.5 78.5s-18.5 67.666 -18.5 108.999
c0 42 6.66699 78.833 20 110.5s31.5 58 54.5 79s49.833 36.667 80.5 47s63.334 15.5 98.001 15.5c44.667 0 80.334 -7.83301 107.001 -23.5s40 -34.834 40 -57.501c0 -10.667 -2.83301 -20.334 -8.5 -29.001s-12.167 -15.667 -19.5 -21
c-13.333 7.33301 -28.166 14.166 -44.499 20.499s-36.166 9.5 -59.499 9.5z" />
    <glyph glyph-name="d" unicode="d" horiz-adv-x="567" 
d="M502 92c0 -15.333 -3.33301 -27.668 -10 -37.001s-16.667 -18.333 -30 -27c-16.667 -10.667 -38.667 -20.5 -66 -29.5s-59 -13.5 -95 -13.5c-80 0 -143.5 20.5 -190.5 61.5s-70.5 103.833 -70.5 188.5c0 44 6.33301 81.833 19 113.5s29.834 57.834 51.501 78.501
s47.167 36 76.5 46s61 15 95 15c18 0 35 -1.83301 51 -5.5s30.333 -8.16699 43 -13.5v181c5.33301 2 13.166 3.83301 23.499 5.5s21.5 2.5 33.5 2.5c24 0 41.5 -4.33301 52.5 -13s16.5 -24 16.5 -46v-507zM376 366.998c-10 6 -21.668 11 -35.001 15s-27.666 6 -42.999 6
c-37.333 0 -68.333 -12 -93 -36s-37 -63.333 -37 -118c0 -51.333 11.833 -88.833 35.5 -112.5s55.834 -35.5 96.501 -35.5c17.333 0 32.166 2 44.499 6s22.833 8.66699 31.5 14v261z" />
    <glyph glyph-name="e" unicode="e" horiz-adv-x="534" 
d="M166 180c9.33301 -34 26.665 -58.6719 51.998 -74.0049s56.666 -23 93.999 -23c28 0 53.833 4.16699 77.5 12.5s42.834 17.166 57.501 26.499c9.33301 -5.33301 17 -12.666 23 -21.999s9 -19.333 9 -30c0 -13.333 -4.5 -25.166 -13.5 -35.499
s-21.333 -19.166 -37 -26.499s-34.167 -13 -55.5 -17s-44.333 -6 -69 -6c-39.333 0 -75.166 5.33301 -107.499 16s-60 26.834 -83 48.501s-41 48.5 -54 80.5s-19.5 69.333 -19.5 112c0 41.333 6.33301 77.333 19 108s29.834 56.334 51.501 77.001s46.834 36 75.501 46
s59 15 91 15c32.667 0 62.667 -5.16699 90 -15.5s50.666 -24.666 69.999 -42.999s34.5 -40.333 45.5 -66s16.5 -53.5 16.5 -83.5c0 -18.667 -4.83301 -32.667 -14.5 -42s-23.167 -15.333 -40.5 -18zM276.999 392.995c-32.667 0 -59.998 -10.833 -81.998 -32.5
s-34.333 -52.5 -37 -92.5l222 33c-2.66699 24.667 -12.334 46.167 -29.001 64.5s-41.334 27.5 -74.001 27.5z" />
    <glyph glyph-name="f" unicode="f" horiz-adv-x="415" 
d="M186 442l181 -0.00195312c3.33301 -5.33301 6.33301 -12.166 9 -20.499s4 -17.5 4 -27.5c0 -17.333 -4 -30 -12 -38s-18.667 -12 -32 -12h-144v-343c-6 -1.33301 -14 -3 -24 -5s-21.333 -3 -34 -3c-23.333 0 -40.666 4.33301 -51.999 13s-17 24 -17 46v442
c0 32 5 59.333 15 82s24 41.334 42 56.001s39.333 25.5 64 32.5s51.667 10.5 81 10.5c88.667 0 133 -23.333 133 -70c0 -10.667 -2.16699 -20.167 -6.5 -28.5s-9.5 -15.166 -15.5 -20.499c-12.667 5.33301 -26.834 9.66602 -42.501 12.999s-32.167 5 -49.5 5
c-34.667 0 -60 -6.66699 -76 -20s-24 -35 -24 -65v-47z" />
    <glyph glyph-name="g" unicode="g" horiz-adv-x="551" 
d="M368 41c-13.333 -6.66699 -28.832 -12.335 -46.499 -17.002s-38.167 -7 -61.5 -7c-30 0 -58.333 4.16699 -85 12.5s-50 21.833 -70 40.5s-35.833 42.834 -47.5 72.501s-17.5 65.834 -17.5 108.501c0 38.667 5.83301 72.834 17.5 102.501s28.334 54.5 50.001 74.5
s47.5 35 77.5 45s63.333 15 100 15c34.667 0 66.5 -4.33301 95.5 -13s52.167 -18.667 69.5 -30c12 -8 21.5 -17 28.5 -27s10.5 -22.667 10.5 -38v-386c0 -34 -6.16699 -63.333 -18.5 -88s-29.166 -44.834 -50.499 -60.501s-46.333 -27.167 -75 -34.5s-59.667 -11 -93 -11
c-34.667 0 -64.834 3.16699 -90.501 9.5s-44.834 13.5 -57.501 21.5c-22 14 -33 32.667 -33 56c0 12.667 2.66699 23.667 8 33s11.666 16.333 18.999 21c17.333 -10.667 38.333 -20 63 -28s51 -12 79 -12c40 0 71.333 7.66699 94 23s34 40 34 74v43zM281.001 114.999
c19.333 0 35.8311 2.66797 49.498 8.00098s25.5 11.666 35.5 18.999v226c-9.33301 5.33301 -20.166 10 -32.499 14s-27.166 6 -44.499 6c-36.667 0 -66.167 -11.167 -88.5 -33.5s-33.5 -56.833 -33.5 -103.5c0 -25.333 2.83301 -46.666 8.5 -63.999s13.667 -31.333 24 -42
s22.5 -18.334 36.5 -23.001s29 -7 45 -7z" />
    <glyph glyph-name="h" unicode="h" horiz-adv-x="569" 
d="M192 1c-6 -1.33301 -14 -3 -24 -5s-21.333 -3 -34 -3c-23.333 0 -40.666 4.33301 -51.999 13s-17 24 -17 46v598c5.33301 2 13.166 3.83301 23.499 5.5s21.833 2.5 34.5 2.5c23.333 0 40.666 -4.33301 51.999 -13s17 -24 17 -46v-138
c14.667 7.33301 31.5 13.666 50.5 18.999s40.167 8 63.5 8c60.667 0 109 -15.667 145 -47s54 -78.666 54 -141.999v-298c-5.33301 -1.33301 -13.166 -3 -23.499 -5s-21.5 -3 -33.5 -3c-24 0 -41.667 4.33301 -53 13s-17 24 -17 46v241c0 33.333 -8.66699 57.5 -26 72.5
s-40 22.5 -68 22.5c-18 0 -34.667 -2.83301 -50 -8.5s-29.333 -12.5 -42 -20.5v-358v0z" />
    <glyph glyph-name="i" unicode="i" horiz-adv-x="262" 
d="M68 470c5.33301 1.33301 13.166 3 23.499 5s21.5 3 33.5 3c24 0 41.5 -4.33301 52.5 -13s16.5 -24 16.5 -46v-418c-5.33301 -1.33301 -13.166 -3 -23.499 -5s-21.5 -3 -33.5 -3c-24 0 -41.5 4.33301 -52.5 13s-16.5 24 -16.5 46v418zM58 615
c0 19.333 6.83301 35.833 20.5 49.5s31.167 20.5 52.5 20.5s38.666 -6.83301 51.999 -20.5s20 -30.167 20 -49.5c0 -20 -6.66699 -36.833 -20 -50.5s-30.666 -20.5 -51.999 -20.5s-38.833 6.83301 -52.5 20.5s-20.5 30.5 -20.5 50.5z" />
    <glyph glyph-name="j" unicode="j" horiz-adv-x="266" 
d="M-1 -123c12 5.33301 22.501 11.1631 31.501 17.4961s16.667 13.833 23 22.5s11 18.834 14 30.501s4.5 25.5 4.5 41.5v481c5.33301 1.33301 13.166 3 23.499 5s21.5 3 33.5 3c24 0 41.5 -4.33301 52.5 -13s16.5 -24 16.5 -46v-445
c0 -31.333 -3.83301 -57.666 -11.5 -78.999s-17.667 -38.666 -30 -51.999s-26 -23 -41 -29s-29.833 -9 -44.5 -9c-23.333 0 -40.833 6.83301 -52.5 20.5s-18.167 30.834 -19.5 51.501zM59.001 614.997c0 19.333 6.83301 35.833 20.5 49.5s31.167 20.5 52.5 20.5
s38.833 -6.83301 52.5 -20.5s20.5 -30.167 20.5 -49.5c0 -20 -6.83301 -36.833 -20.5 -50.5s-31.167 -20.5 -52.5 -20.5s-38.833 6.83301 -52.5 20.5s-20.5 30.5 -20.5 50.5z" />
    <glyph glyph-name="k" unicode="k" horiz-adv-x="522" 
d="M192 1c-6 -1.33301 -13.9971 -3.00293 -23.9971 -5.00293s-21.333 -3 -34 -3c-23.333 0 -40.666 4.33301 -51.999 13s-17 24 -17 46v598c5.33301 2 13.166 3.83301 23.499 5.5s21.833 2.5 34.5 2.5c23.333 0 40.666 -4.33301 51.999 -13s17 -24 17 -46v-310l194 193
c25.333 0 45.666 -5.66699 60.999 -17s23 -25.666 23 -42.999c0 -15.333 -4.83301 -28.666 -14.5 -39.999s-24.834 -25.666 -45.501 -42.999l-108 -94l191 -179c-2.66699 -23.333 -9.66699 -41.5 -21 -54.5s-27.666 -19.5 -48.999 -19.5c-15.333 0 -28.833 3.66699 -40.5 11
s-25.834 20.333 -42.501 39l-148 164v-205v0z" />
    <glyph glyph-name="l" unicode="l" horiz-adv-x="266" 
d="M196 1c-5.33301 -1.33301 -13.166 -3 -23.499 -5s-21.5 -3 -33.5 -3c-24 0 -41.5 4.33301 -52.5 13s-16.5 24 -16.5 46v598c5.33301 2 13.166 3.83301 23.499 5.5s21.5 2.5 33.5 2.5c24 0 41.5 -4.33301 52.5 -13s16.5 -24 16.5 -46v-598v0z" />
    <glyph glyph-name="m" unicode="m" horiz-adv-x="832" 
d="M768 1c-5.33301 -1.33301 -13.1699 -3 -23.5029 -5s-21.5 -3 -33.5 -3c-24 0 -41.5 4.33301 -52.5 13s-16.5 24 -16.5 46v260c0 26.667 -7.33301 46 -22 58s-34 18 -58 18c-16 0 -31.5 -3 -46.5 -9s-28.167 -14 -39.5 -24c2 -9.33301 3 -18.666 3 -27.999v-326
c-5.33301 -1.33301 -13.166 -3 -23.499 -5s-21.5 -3 -33.5 -3c-24 0 -41.5 4.33301 -52.5 13s-16.5 24 -16.5 46v260c0 26.667 -7.66699 46 -23 58s-35 18 -59 18c-16.667 0 -32 -2.66699 -46 -8s-25.667 -10.666 -35 -15.999v-363c-6 -1.33301 -14 -3 -24 -5
s-21.333 -3 -34 -3c-23.333 0 -40.666 4.33301 -51.999 13s-17 24 -17 46v321c0 15.333 3.33301 28.166 10 38.499s17 20.166 31 29.499c20 13.333 45.333 24.5 76 33.5s62.334 13.5 95.001 13.5c60.667 0 110 -16.333 148 -49c19.333 14 41.5 25.667 66.5 35
s54.5 14 88.5 14c26 0 50.667 -3.16699 74 -9.5s43.5 -16.5 60.5 -30.5s30.5 -31.833 40.5 -53.5s15 -47.5 15 -77.5v-316z" />
    <glyph glyph-name="n" unicode="n" horiz-adv-x="567" 
d="M377 305c0 28.667 -8.1709 49.667 -24.5039 63s-38.5 20 -66.5 20c-19.333 0 -37.166 -2.33301 -53.499 -7s-30.5 -10.667 -42.5 -18v-362c-6 -1.33301 -14 -3 -24 -5s-21.333 -3 -34 -3c-23.333 0 -40.666 4.33301 -51.999 13s-17 24 -17 46v321c0 16 3.33301 29 10 39
s17 19.667 31 29c19.333 13.333 45 24.5 77 33.5s67.333 13.5 106 13.5c68.667 0 121.834 -15.167 159.501 -45.5s56.5 -74.833 56.5 -133.5v-308c-5.33301 -1.33301 -13.166 -3 -23.499 -5s-21.5 -3 -33.5 -3c-24 0 -41.5 4.33301 -52.5 13s-16.5 24 -16.5 46v253v0z" />
    <glyph glyph-name="o" unicode="o" 
d="M530 237c0 -38.667 -5.83496 -73.502 -17.502 -104.502s-28.167 -57.5 -49.5 -79.5s-47 -38.833 -77 -50.5s-63.667 -17.5 -101 -17.5s-71 5.83301 -101 17.5s-55.667 28.334 -77 50.001s-37.833 48 -49.5 79s-17.5 66.167 -17.5 105.5c0 38.667 5.83301 73.5 17.5 104.5
s28.334 57.333 50.001 79s47.5 38.334 77.5 50.001s63.333 17.5 100 17.5s70 -5.83301 100 -17.5s55.833 -28.5 77.5 -50.5s38.334 -48.5 50.001 -79.5s17.5 -65.5 17.5 -103.5zM284.998 387.998c-36 0 -64.333 -13.167 -85 -39.5s-31 -63.5 -31 -111.5
c0 -48.667 10.167 -86 30.5 -112s48.833 -39 85.5 -39s65.167 13.167 85.5 39.5s30.5 63.5 30.5 111.5s-10.333 85.167 -31 111.5s-49 39.5 -85 39.5z" />
    <glyph glyph-name="p" unicode="p" horiz-adv-x="566" 
d="M288 -14c-19.333 0 -37.1699 1.83105 -53.5029 5.49805s-31.166 8.16699 -44.499 13.5v-184c-6 -1.33301 -14 -3 -24 -5s-21.333 -3 -34 -3c-23.333 0 -40.666 4.33301 -51.999 13s-17 24 -17 46v507c0 16 3.16699 29 9.5 39s16.5 19.333 30.5 28
c19.333 11.333 43.333 21.166 72 29.499s61 12.5 97 12.5c36.667 0 70.5 -4.83301 101.5 -14.5s57.833 -24.667 80.5 -45s40.334 -46.166 53.001 -77.499s19 -68.666 19 -111.999c0 -42 -6 -78.667 -18 -110s-28.5 -57.666 -49.5 -78.999s-46 -37.333 -75 -48
s-60.833 -16 -95.5 -16zM268.996 86.998c40 0 71.333 12.333 94 37s34 63 34 115c0 54 -11.667 92.333 -35 115s-53.333 34 -90 34c-18 0 -33.833 -2.33301 -47.5 -7s-25.5 -9.66699 -35.5 -15v-257c10.667 -6.66699 22.5 -12 35.5 -16s27.833 -6 44.5 -6z" />
    <glyph glyph-name="q" unicode="q" horiz-adv-x="567" 
d="M503 -182c-5.33301 -1.33301 -13.168 -3.00293 -23.501 -5.00293s-21.5 -3 -33.5 -3c-24 0 -41.5 4.33301 -52.5 13s-16.5 24 -16.5 46v136c-12.667 -5.33301 -27.167 -10 -43.5 -14s-34.5 -6 -54.5 -6c-34.667 0 -66.667 5.16699 -96 15.5s-54.5 25.833 -75.5 46.5
s-37.5 46.667 -49.5 78s-18 68 -18 110s6.33301 78.833 19 110.5s30.334 58 53.001 79s49.667 36.833 81 47.5s66 16 104 16c35.333 0 67.833 -4.16699 97.5 -12.5s53.167 -18.166 70.5 -29.499c11.333 -7.33301 20.5 -16.166 27.5 -26.499s10.5 -23.166 10.5 -38.499v-563z
M296.998 85.9971c16.667 0 31.6689 1.99902 45.002 5.99902s25 9.66699 35 17v259c-8.66699 5.33301 -19.334 10 -32.001 14s-27.667 6 -45 6c-38.667 0 -70.334 -12.167 -95.001 -36.5s-37 -63.166 -37 -116.499c0 -52 11.5 -89.833 34.5 -113.5s54.5 -35.5 94.5 -35.5z
" />
    <glyph glyph-name="r" unicode="r" horiz-adv-x="397" 
d="M190 1c-6 -1.33301 -13.999 -3.00195 -23.999 -5.00195s-21.333 -3 -34 -3c-23.333 0 -40.666 4.33301 -51.999 13s-17 24 -17 46v317c0 17.333 4 32 12 44s19.667 22.667 35 32c20.667 12.667 46.167 23 76.5 31s63.166 12 98.499 12c63.333 0 95 -19.667 95 -59
c0 -9.33301 -1.5 -18.166 -4.5 -26.499s-6.16699 -15.166 -9.5 -20.499c-15.333 3.33301 -34.333 5 -57 5c-23.333 0 -45.333 -2.66699 -66 -8s-38.334 -12 -53.001 -20v-358z" />
    <glyph glyph-name="s" unicode="s" horiz-adv-x="470" 
d="M432 134c0 -46.667 -17.335 -83.168 -52.002 -109.501s-85.334 -39.5 -152.001 -39.5c-27.333 0 -52.166 2 -74.499 6s-41.666 9.83301 -57.999 17.5s-29 17 -38 28s-13.5 23.167 -13.5 36.5c0 12.667 2.83301 23.667 8.5 33s13.167 17 22.5 23
c18.667 -12 40.167 -22.667 64.5 -32s52.5 -14 84.5 -14c27.333 0 48 4.5 62 13.5s21 21.5 21 37.5c0 27.333 -20 45.333 -60 54l-56 13c-49.333 11.333 -85.833 28.333 -109.5 51s-35.5 53 -35.5 91c0 43.333 17.333 78.5 52 105.5s83.334 40.5 146.001 40.5
c24 0 46.167 -1.83301 66.5 -5.5s38 -9 53 -16s26.667 -15.333 35 -25s12.5 -20.834 12.5 -33.501c0 -12 -2.66699 -22.5 -8 -31.5s-11.666 -16.167 -18.999 -21.5c-6 4 -13.833 8 -23.5 12s-20.334 7.66699 -32.001 11s-24 6.16602 -37 8.49902s-25.833 3.5 -38.5 3.5
c-26 0 -46.333 -4.16699 -61 -12.5s-22 -20.166 -22 -35.499c0 -11.333 4.16699 -20.666 12.5 -27.999s22.833 -13.333 43.5 -18l49 -12c55.333 -12.667 95.333 -31.167 120 -55.5s37 -56.166 37 -95.499z" />
    <glyph glyph-name="t" unicode="t" horiz-adv-x="385" 
d="M190 147c0 -21.333 6.50098 -36.668 19.501 -46.001s31.167 -14 54.5 -14c11.333 0 22.833 1.33301 34.5 4s22.167 6 31.5 10c5.33301 -5.33301 9.83301 -11.833 13.5 -19.5s5.5 -16.5 5.5 -26.5c0 -20 -9 -36.5 -27 -49.5s-47 -19.5 -87 -19.5
c-52.667 0 -94.167 11.833 -124.5 35.5s-45.5 62.834 -45.5 117.501v459c5.33301 1.33301 13.166 3 23.499 5s21.5 3 33.5 3c23.333 0 40.5 -4.33301 51.5 -13s16.5 -24 16.5 -46v-83h147c3.33301 -5.33301 6.33301 -12.333 9 -21s4 -18 4 -28c0 -17.333 -4 -30 -12 -38
s-18.667 -12 -32 -12h-116v-218v0z" />
    <glyph glyph-name="u" unicode="u" horiz-adv-x="566" 
d="M503 93c0 -15.333 -2.66406 -28.167 -7.99707 -38.5s-15 -19.5 -29 -27.5c-19.333 -12 -43.833 -22 -73.5 -30s-63.5 -12 -101.5 -12c-34.667 0 -66 3.83301 -94 11.5s-52 19.5 -72 35.5s-35.333 36.333 -46 61s-16 54 -16 88v291c5.33301 2 13.166 3.83301 23.499 5.5
s21.833 2.5 34.5 2.5c23.333 0 40.666 -4.16699 51.999 -12.5s17 -23.833 17 -46.5v-238c0 -34.667 8.83301 -59.5 26.5 -74.5s42.834 -22.5 75.501 -22.5c20.667 0 38.167 2 52.5 6s25.166 8.33301 32.499 13v367c5.33301 2 13.166 3.83301 23.499 5.5s21.5 2.5 33.5 2.5
c24 0 41.5 -4.16699 52.5 -12.5s16.5 -23.833 16.5 -46.5v-328v0z" />
    <glyph glyph-name="v" unicode="v" horiz-adv-x="521" 
d="M430 484c17.333 0 31.8311 -4.00488 43.498 -12.0049s17.5 -21.333 17.5 -40c0 -8.66699 -2.5 -22.667 -7.5 -42s-11.667 -41.666 -20 -66.999s-17.833 -52.666 -28.5 -81.999l-33 -86.5c-11.333 -28.333 -22.666 -55.166 -33.999 -80.499
s-21.666 -46.666 -30.999 -63.999c-6.66699 -5.33301 -16.667 -9.66602 -30 -12.999s-28 -5 -44 -5c-19.333 0 -35.833 2.5 -49.5 7.5s-23.5 13.167 -29.5 24.5s-13.333 27 -22 47l-28 68l-31 80.5l-30.5 84.5l-27 81c-8.33301 26 -15.166 49.333 -20.499 70
c6.66699 8 16.167 14.833 28.5 20.5s25.166 8.5 38.499 8.5c17.333 0 31.5 -4 42.5 -12s19.5 -22.333 25.5 -43l50 -165c4 -13.333 8.5 -27.5 13.5 -42.5l14.5 -44l13.5 -41l10.5 -32.5h4l57 181.5c18.667 62.333 35 123.833 49 184.5c8 4.66699 17.167 8.16699 27.5 10.5
s20.5 3.5 30.5 3.5z" />
    <glyph glyph-name="w" unicode="w" horiz-adv-x="761" 
d="M384 307c-7.33301 -27.333 -15.1709 -55.002 -23.5039 -83.002l-25 -81.5l-24 -73.5l-19.5 -58c-7.33301 -5.33301 -16.666 -9.83301 -27.999 -13.5s-25.666 -5.5 -42.999 -5.5c-19.333 0 -36.166 2.83301 -50.499 8.5s-24.166 14.167 -29.499 25.5
c-8 16 -17 41.5 -27 76.5s-20.333 73.333 -31 115s-20.5 84 -29.5 127s-16.5 80.5 -22.5 112.5c6.66699 6.66699 15.834 12.834 27.501 18.501s24.5 8.5 38.5 8.5c18.667 0 33.334 -4.5 44.001 -13.5s17.667 -23.5 21 -43.5c12.667 -80 24.667 -147.833 36 -203.5
s19.333 -93.5 24 -113.5h4c2.66699 11.333 7.16699 28 13.5 50l22 76l27 92l29.5 99c9.33301 5.33301 19.166 9.5 29.499 12.5s22.5 4.5 36.5 4.5c18 0 33.167 -3 45.5 -9s20.5 -15 24.5 -27l28.5 -94l24.5 -85.5l19.5 -70.5l13.5 -48h5l35.5 173
c12.333 60 22.833 122 31.5 186c8 4.66699 17 8.33398 27 11.001s20 4 30 4c17.333 0 31.5 -4 42.5 -12s16.5 -21 16.5 -39c0 -9.33301 -2 -24.5 -6 -45.5s-9.16699 -45 -15.5 -72l-21 -86c-7.66699 -30.333 -15.5 -59.666 -23.5 -87.999s-15.667 -54 -23 -77
s-13.666 -40.833 -18.999 -53.5c-6.66699 -5.33301 -16.834 -9.83301 -30.501 -13.5s-28.5 -5.5 -44.5 -5.5c-42 0 -67 10.333 -75 31l-19 54c-7.33301 21.333 -14.833 44.666 -22.5 69.999l-23 79c-7.66699 27.333 -14.834 54.333 -21.501 81z" />
    <glyph glyph-name="x" unicode="x" horiz-adv-x="503" 
d="M70 116l52.502 62.999l53.5 63l-72.5 87.5l-70.5 87.5c4 19.333 11.833 34.833 23.5 46.5s26.167 17.5 43.5 17.5c16.667 0 29.667 -4 39 -12s19.666 -19.333 30.999 -34l41.5 -58l44.5 -60l61.5 81l60.5 82c3.33301 0.666992 6 1 8 1h7c22.667 0 40.667 -5 54 -15
s20 -23 20 -39c0 -12.667 -2.83301 -24 -8.5 -34s-15.834 -23.333 -30.501 -40l-97 -113l72 -93.5l72 -92.5c-2.66699 -19.333 -10 -34.666 -22 -45.999s-26.667 -17 -44 -17c-18.667 0.666992 -33.667 6 -45 16s-22.666 23 -33.999 39l-41 57l-41 58l-61 -84l-59 -84h-18
c-24.667 0 -43.5 5.33301 -56.5 16s-19.5 23.667 -19.5 39c0 10.667 2.66699 20.5 8 29.5s14.666 21.833 27.999 38.5z" />
    <glyph glyph-name="y" unicode="y" horiz-adv-x="521" 
d="M148 114c-16 33.333 -35.001 78.333 -57.001 135s-44 125.334 -66 206.001c6.66699 8 16 14.833 28 20.5s25 8.5 39 8.5c17.333 0 31.5 -4 42.5 -12s19.833 -22.333 26.5 -43c31.333 -100.667 67 -202.667 107 -306h4c8.66699 22 17.834 47 27.501 75s19 57.333 28 88
s17.5 61.667 25.5 93s15 61.666 21 90.999c8 4 16.5 7.33301 25.5 10s18.5 4 28.5 4c17.333 0 32.333 -4 45 -12s19 -21 19 -39c0 -20 -4.33301 -48.167 -13 -84.5s-20.167 -75.333 -34.5 -117s-30.5 -83.667 -48.5 -126s-36 -79.5 -54 -111.5
c-34.667 -61.333 -66.167 -107.166 -94.5 -137.499s-56.166 -45.5 -83.499 -45.5c-21.333 0 -38.5 6.16699 -51.5 18.5s-21.167 27.833 -24.5 46.5c10.667 9.33301 22 20.166 34 32.499s24 25.5 36 39.5s23.333 28.333 34 43s20 29 28 43c-6 2 -11.833 4.5 -17.5 7.5
s-11.334 7.5 -17.001 13.5s-11.667 13.667 -18 23s-12.833 21.333 -19.5 36z" />
    <glyph glyph-name="z" unicode="z" horiz-adv-x="475" 
d="M65 0c-8 7.33301 -14.333 15.668 -19 25.001s-7 19.666 -7 30.999s2.5 21.833 7.5 31.5s11.167 19.167 18.5 28.5l212 258h-220c-3.33301 5.33301 -6.33301 12.5 -9 21.5s-4 18.5 -4 28.5c0 17.333 4 30 12 38s18.667 12 32 12h318c8 -7.33301 14.333 -15.666 19 -24.999
s7 -20 7 -32c0 -10.667 -2.5 -20.834 -7.5 -30.501s-11.167 -19.167 -18.5 -28.5l-211 -259h233c3.33301 -5.33301 6.33301 -12.333 9 -21s4 -18 4 -28c0 -17.333 -4 -30 -12 -38s-18.667 -12 -32 -12h-332z" />
    <glyph glyph-name="braceleft" unicode="{" horiz-adv-x="310" 
d="M162 270c40.667 -20.667 61.002 -62 61.002 -124v-120c0 -23.333 5 -39.833 15 -49.5s23.667 -15.5 41 -17.5c1.33301 -4.66699 2 -9.16699 2 -13.5v-12.5c0 -20 -5.5 -34.667 -16.5 -44s-26.167 -14 -45.5 -14c-32.667 0 -59.334 10.833 -80.001 32.5s-31 54.5 -31 98.5
v113c0 32 -5.83301 56.5 -17.5 73.5s-29.5 28.167 -53.5 33.5c-2 6 -3.66699 13 -5 21s-2 15.667 -2 23c0 8 0.666992 16 2 24s3 15 5 21c24 5.33301 41.833 16.5 53.5 33.5s17.5 41.5 17.5 73.5v108c0 44 10.667 76.667 32 98s48.333 32 81 32
c19.333 0 34.166 -4.5 44.499 -13.5s15.5 -24.167 15.5 -45.5v-12c0 -4 -0.666992 -8.33301 -2 -13c-17.333 -2 -31 -7.83301 -41 -17.5s-15 -26.167 -15 -49.5v-115c0 -62.667 -20.333 -104 -61 -124z" />
    <glyph glyph-name="bar" unicode="|" horiz-adv-x="266" 
d="M190 -174c-6 -2 -13.667 -3.66699 -23 -5s-19 -2 -29 -2c-20 0 -35.167 3.66699 -45.5 11s-15.5 22 -15.5 44v801c12.667 4.66699 29.667 7 51 7c20 0 35.333 -3.66699 46 -11s16 -22.333 16 -45v-800z" />
    <glyph glyph-name="braceright" unicode="}" horiz-adv-x="310" 
d="M148 270c-40.667 20 -60.998 61.333 -60.998 124v115c0 23.333 -5 39.833 -15 49.5s-23.667 15.5 -41 17.5c-1.33301 4.66699 -2 9 -2 13v12c0 21.333 5.16699 36.5 15.5 45.5s25.166 13.5 44.499 13.5c32.667 0 59.667 -10.667 81 -32s32 -54 32 -98v-108
c0 -32 5.83301 -56.5 17.5 -73.5s29.5 -28.167 53.5 -33.5c2 -6 3.66699 -13 5 -21s2 -16 2 -24c0 -7.33301 -0.666992 -15 -2 -23s-3 -15 -5 -21c-24 -5.33301 -41.833 -16.5 -53.5 -33.5s-17.5 -41.5 -17.5 -73.5v-113c0 -44 -10.333 -76.833 -31 -98.5
s-47.334 -32.5 -80.001 -32.5c-19.333 0 -34.5 4.66699 -45.5 14s-16.5 24 -16.5 44v12.5c0 4.33301 0.666992 8.83301 2 13.5c17.333 2 31 7.83301 41 17.5s15 26.167 15 49.5v120c0 62 20.333 103.333 61 124z" />
    <glyph glyph-name="asciitilde" unicode="~" horiz-adv-x="476" 
d="M319 298c17.333 0 29.9971 4.5 37.9971 13.5s15 18.833 21 29.5c21.333 0 39.666 -6.33301 54.999 -19s23 -29.667 23 -51c0 -28 -10.333 -49.333 -31 -64s-46.334 -22 -77.001 -22c-18 0 -35.333 2 -52 6s-32.667 8.16699 -48 12.5l-45.5 12.5c-15 4 -29.833 6 -44.5 6
c-17.333 0 -30.166 -4.83301 -38.499 -14.5s-15.166 -19.167 -20.499 -28.5c-21.333 0 -39.666 6.33301 -54.999 19s-23 29.667 -23 51c0 14 3 26.5 9 37.5s14 20 24 27s21.5 12.333 34.5 16s26.5 5.5 40.5 5.5c18.667 0 36.334 -2 53.001 -6s32.834 -8.16699 48.501 -12.5
l45.5 -12.5c14.667 -4 29 -6 43 -6z" />
    <glyph glyph-name="DEL" horiz-adv-x="0" 
 />
    <glyph glyph-name="uni00A0" unicode="&#xa0;" horiz-adv-x="200" 
 />
    <glyph glyph-name="exclamdown" unicode="&#xa1;" horiz-adv-x="275" 
d="M73 -107c0 18 0.334961 41.8311 1.00195 71.498s1.66699 61.334 3 95.001s3.16602 67.667 5.49902 102s5.16602 64.833 8.49902 91.5c5.33301 4 12.833 7.16699 22.5 9.5s18.5 3.5 26.5 3.5c14 0 25.833 -2.5 35.5 -7.5s15.5 -14.167 17.5 -27.5
c2 -17.333 4 -41.833 6 -73.5s3.66699 -65.667 5 -102s2.33301 -72.666 3 -108.999s1 -67.833 1 -94.5c-21.333 -12.667 -45 -19 -71 -19c-20 0 -35.667 5 -47 15s-17 25 -17 45zM216.002 401.998c0 -22 -7 -40.167 -21 -54.5s-32.667 -21.5 -56 -21.5s-42 7.16699 -56 21.5
s-21 32.5 -21 54.5s7 40.167 21 54.5s32.667 21.5 56 21.5s42 -7.16699 56 -21.5s21 -32.5 21 -54.5z" />
    <glyph glyph-name="cent" unicode="&#xa2;" horiz-adv-x="484" 
d="M307 387c-20 0 -38.5039 -3.32422 -55.5039 -9.99121s-31.667 -16.334 -44 -29.001s-22.166 -28.334 -29.499 -47.001s-11 -40.334 -11 -65.001c0 -49.333 13 -86.5 39 -111.5s59.667 -37.5 101 -37.5c23.333 0 43.5 3.16699 60.5 9.5s32.167 13.166 45.5 20.499
c9.33301 -6.66699 16.833 -14.334 22.5 -23.001s8.5 -18.667 8.5 -30c0 -20.667 -11 -37.834 -33 -51.501s-52 -22.167 -90 -25.5v-84c-4.66699 -1.33301 -11.5 -2.66602 -20.5 -3.99902s-18.833 -2 -29.5 -2c-21.333 0 -37 3.83301 -47 11.5s-15 21.167 -15 40.5v47
c-52.667 13.333 -94.167 40 -124.5 80s-45.5 93.333 -45.5 160c0 33.333 4.33301 63.333 13 90s20.5 50 35.5 70s32.833 36.667 53.5 50s43.334 23.666 68.001 30.999v96c4.66699 1.33301 11.5 2.66602 20.5 3.99902s18.833 2 29.5 2c21.333 0 37 -3.83301 47 -11.5
s15 -21.167 15 -40.5v-41c36 -3.33301 64.667 -12.333 86 -27s32 -32 32 -52c0 -10.667 -2.83301 -20.334 -8.5 -29.001s-12.167 -15.667 -19.5 -21c-13.333 7.33301 -28.166 14.166 -44.499 20.499s-36.166 9.5 -59.499 9.5z" />
    <glyph glyph-name="sterling" unicode="&#xa3;" horiz-adv-x="504" 
d="M130 224c0 4 -0.166016 8.16699 -0.499023 12.5s-0.5 9.16602 -0.5 14.499h-39c-12.667 0 -23 3.83301 -31 11.5s-12 20.834 -12 39.501c0 9.33301 1.5 18.333 4.5 27s5.83301 15.667 8.5 21h59c-1.33301 11.333 -2.33301 22.5 -3 33.5s-1 21.167 -1 30.5
c0 36.667 5.66699 68.167 17 94.5s26.833 48 46.5 65s42.667 29.5 69 37.5s54.5 12 84.5 12c44 0 77.167 -7.16699 99.5 -21.5s33.5 -32.5 33.5 -54.5c0 -9.33301 -2.33301 -19.166 -7 -29.499s-11 -17.833 -19 -22.5c-13.333 8 -26.833 14.167 -40.5 18.5
s-30.167 6.5 -49.5 6.5c-36 0 -63.167 -9 -81.5 -27s-27.5 -47 -27.5 -87c0 -8 0.166992 -16.667 0.5 -26s0.833008 -19.333 1.5 -30h161c2.66699 -5.33301 5.5 -12.333 8.5 -21s4.5 -17.667 4.5 -27c0 -18.667 -4 -31.834 -12 -39.501s-18.667 -11.5 -32 -11.5h-120
c0.666992 -5.33301 1 -10.5 1 -15.5v-13.5c0 -52.667 -14 -93.334 -42 -122.001h256c3.33301 -6 6.16602 -13.167 8.49902 -21.5s3.5 -17.5 3.5 -27.5c0 -17.333 -4 -30.166 -12 -38.499s-18.667 -12.5 -32 -12.5h-335c-15.333 0 -28.5 5.5 -39.5 16.5
s-16.5 26.5 -16.5 46.5v7.5c0 1.66699 0.333008 4.16699 1 7.5c28.667 12.667 50 29.667 64 51s21 53 21 95z" />
    <glyph glyph-name="currency" unicode="&#xa4;" horiz-adv-x="546" 
d="M471 294c0 -25.333 -3.49902 -48.5 -10.499 -69.5s-17.167 -39.167 -30.5 -54.5l56 -66c-6.66699 -15.333 -14.834 -26.5 -24.501 -33.5s-19.834 -10.5 -30.501 -10.5c-10 0 -19.5 4.33301 -28.5 13s-17.167 17.667 -24.5 27l-16 19c-28.667 -11.333 -59 -17 -91 -17
c-32.667 0 -63 5.66699 -91 17l-50 -65c-15.333 3.33301 -29 9 -41 17s-18 18.667 -18 32c0 8.66699 2.5 17.5 7.5 26.5s11.5 18.5 19.5 28.5l11 14c-12 15.333 -21.333 33.166 -28 53.499s-10 43.166 -10 68.499c0 49.333 13 90 39 122l-53 64
c6.66699 15.333 14.834 26.5 24.501 33.5s20.167 10.5 31.5 10.5c9.33301 0 18.5 -4.33301 27.5 -13s17.5 -17.667 25.5 -27l12 -15c28 12 58.667 18 92 18c34.667 0 67 -6.66699 97 -20l49 63c15.333 -3.33301 29 -9 41 -17s18 -18.667 18 -32
c0 -9.33301 -2.5 -18.333 -7.5 -27s-11.5 -18 -19.5 -28l-12 -16c11.333 -15.333 20 -32.666 26 -51.999s9 -40.666 9 -63.999zM362.001 294c0 34 -8.33301 60 -25 78s-38.667 27 -66 27c-28 0 -50.333 -9 -67 -27s-25 -44 -25 -78s8.33301 -60 25 -78s39 -27 67 -27
c27.333 0 49.333 9 66 27s25 44 25 78z" />
    <glyph glyph-name="yen" unicode="&#xa5;" horiz-adv-x="572" 
d="M67 267c-8 10 -12 23.667 -12 41c0 15.333 3.33301 26.333 10 33s15 10 25 10h73l-73 120c-23.333 40 -41.666 75.333 -54.999 106c6.66699 9.33301 15.5 17.666 26.5 24.999s24.167 11 39.5 11c19.333 0 34.333 -4.16699 45 -12.5s22 -23.166 34 -44.499l110 -195h6
l32.5 61.5c9.66699 18.333 18.834 36.666 27.501 54.999l27 56.5l32 66c17.333 8.66699 36.666 13 57.999 13c17.333 0 31.333 -4.66699 42 -14s16 -22 16 -38c0 -11.333 -9.33301 -34.166 -28 -68.499s-46.334 -81.5 -83.001 -141.5h94c2.66699 -6 5.16699 -12.5 7.5 -19.5
s3.5 -14.833 3.5 -23.5c0 -14 -3.5 -24.333 -10.5 -31s-15.833 -10 -26.5 -10h-421zM354 124l0.000976562 -122.999c-5.33301 -1.33301 -13.5 -3 -24.5 -5s-22.5 -3 -34.5 -3c-24.667 0 -42.334 4.66699 -53.001 14s-16 24.666 -16 45.999v71h-159c-8 10 -12 24 -12 42
c0 16 3.33301 27 10 33s15 9 25 9h423c2.66699 -5.33301 5.16699 -11.666 7.5 -18.999s3.5 -15 3.5 -23c0 -14.667 -3.5 -25.334 -10.5 -32.001s-15.5 -10 -25.5 -10h-134z" />
    <glyph glyph-name="brokenbar" unicode="&#xa6;" horiz-adv-x="293" 
d="M190 312c-6 -2 -13.666 -3.66699 -22.999 -5s-19 -2 -29 -2c-20 0 -35.167 3.66699 -45.5 11s-15.5 22 -15.5 44v316c5.33301 1.33301 12.666 2.83301 21.999 4.5s19 2.5 29 2.5c20 0 35.333 -3.83301 46 -11.5s16 -22.5 16 -44.5v-315zM190.001 -174
c-6 -2 -13.666 -3.66699 -22.999 -5s-19 -2 -29 -2c-20 0 -35.167 3.66699 -45.5 11s-15.5 22 -15.5 44v316c5.33301 1.33301 12.666 2.83301 21.999 4.5s19 2.5 29 2.5c20 0 35.333 -3.83301 46 -11.5s16 -22.5 16 -44.5v-315z" />
    <glyph glyph-name="section" unicode="&#xa7;" horiz-adv-x="526" 
d="M471 280c0 -20.667 -4.49805 -39.3359 -13.498 -56.0029s-20.167 -30.667 -33.5 -42c31.333 -21.333 47 -52.666 47 -93.999c0 -45.333 -18.667 -80.833 -56 -106.5s-92.333 -38.5 -165 -38.5c-28 0 -53.833 2 -77.5 6s-44.167 9.83301 -61.5 17.5s-30.833 17 -40.5 28
s-14.5 23.5 -14.5 37.5c0 12.667 2.83301 23.334 8.5 32.001s12.834 16 21.501 22c20.667 -12 44 -22.5 70 -31.5s56 -13.5 90 -13.5c66.667 0 100 16 100 48c0 13.333 -5.16699 23.333 -15.5 30s-27.5 12.334 -51.5 17.001l-75 14c-47.333 8.66699 -83.833 24 -109.5 46
s-38.5 53.667 -38.5 95c0 20.667 4.33301 38.667 13 54s20.667 28.666 36 39.999c-14.667 11.333 -25.834 24.833 -33.501 40.5s-11.5 34.834 -11.5 57.501c0 44.667 18 79.167 54 103.5s84.333 36.5 145 36.5c24.667 0 47.834 -1.66699 69.501 -5s40.667 -8.33301 57 -15
s29.166 -15 38.499 -25s14 -21.333 14 -34c0 -12 -2.33301 -22.5 -7 -31.5s-10.667 -16.167 -18 -21.5c-7.33301 4 -16.5 8 -27.5 12s-23 7.83301 -36 11.5s-26.5 6.5 -40.5 8.5s-27.667 3 -41 3c-26.667 0 -47.334 -3.83301 -62.001 -11.5s-22 -19.167 -22 -34.5
c0 -13.333 4.66699 -23 14 -29s23.666 -10.667 42.999 -14l72 -13c51.333 -9.33301 90.5 -25.5 117.5 -48.5s40.5 -54.833 40.5 -95.5zM236.002 239.998c21.333 -4.66699 37.998 -8.16895 49.998 -10.502s20.667 -4.16602 26 -5.49902l10 -2.5l2 -0.5
c8.66699 7.33301 15.334 15.333 20.001 24s7 18.667 7 30c0 28.667 -24 47.667 -72 57l-78 14c-16.667 -12.667 -25 -30 -25 -52c0 -13.333 4.83301 -24.666 14.5 -33.999s24.834 -16 45.501 -20z" />
    <glyph glyph-name="dieresis" unicode="&#xa8;" horiz-adv-x="374" 
d="M159 618c0 -18 -6.5 -33.333 -19.5 -46s-29.167 -19 -48.5 -19c-20 0 -36.167 6.33301 -48.5 19s-18.5 28 -18.5 46c0 18.667 6.16699 34.334 18.5 47.001s28.5 19 48.5 19c19.333 0 35.5 -6.33301 48.5 -19s19.5 -28.334 19.5 -47.001zM353 618
c0 -18 -6.33301 -33.333 -19 -46s-28.667 -19 -48 -19s-35.5 6.33301 -48.5 19s-19.5 28 -19.5 46c0 18.667 6.5 34.334 19.5 47.001s29.167 19 48.5 19s35.333 -6.33301 48 -19s19 -28.334 19 -47.001z" />
    <glyph glyph-name="copyright" unicode="&#xa9;" horiz-adv-x="713" 
d="M44 303c0 43.333 7.5 84 22.5 122s36.167 71 63.5 99s60 50 98 66s80.333 24 127 24c46 0 88.333 -8 127 -24s71.834 -38 99.501 -66s49.167 -61 64.5 -99s23 -78.667 23 -122s-7.66699 -83.5 -23 -120.5s-36.833 -69.167 -64.5 -96.5s-60.834 -48.833 -99.501 -64.5
s-81 -23.5 -127 -23.5c-46.667 0 -89 7.83301 -127 23.5s-70.667 37.167 -98 64.5s-48.5 59.5 -63.5 96.5s-22.5 77.167 -22.5 120.5zM355 542c-35.333 0 -66.833 -6 -94.5 -18s-51.334 -28.5 -71.001 -49.5s-34.667 -46.167 -45 -75.5s-15.5 -61.333 -15.5 -96
c0 -34 5.16699 -65.167 15.5 -93.5s25.333 -52.666 45 -72.999s43.334 -36.166 71.001 -47.499s59.167 -17 94.5 -17s67 5.66699 95 17s51.667 27.166 71 47.499s34.166 44.666 44.499 72.999s15.5 59.5 15.5 93.5c0 34.667 -5.16699 66.667 -15.5 96
s-25.166 54.5 -44.499 75.5s-43 37.5 -71 49.5s-59.667 18 -95 18zM386 396c-23.333 0 -43.499 -7.16699 -60.499 -21.5s-25.5 -36.5 -25.5 -66.5c0 -29.333 8.16699 -51.666 24.5 -66.999s37.166 -23 62.499 -23c15.333 0 28 1.83301 38 5.5s18.667 7.83398 26 12.501
c14 -10 21 -23.667 21 -41c0 -13.333 -8.66699 -25.5 -26 -36.5s-41.666 -16.5 -72.999 -16.5c-23.333 0 -45 3.5 -65 10.5s-37.5 17.5 -52.5 31.5s-26.833 31.333 -35.5 52s-13 44.667 -13 72c0 28 5 52.5 15 73.5s22.833 38.167 38.5 51.5s33.167 23.333 52.5 30
s38.666 10 57.999 10c28.667 0 52 -5.33301 70 -16s27 -24.334 27 -41.001c0 -7.33301 -2 -14.333 -6 -21s-9 -12.334 -15 -17.001c-7.33301 4 -16 8 -26 12s-21.667 6 -35 6z" />
    <glyph glyph-name="ordfeminine" unicode="&#xaa;" horiz-adv-x="354" 
d="M169 363c11.333 0 22 0.999023 32 2.99902s17.667 4.66699 23 8v66l-57 -6c-36.667 -3.33301 -55 -14.666 -55 -33.999c0 -24.667 19 -37 57 -37zM165 621.999c42.667 0 77.1689 -8.83301 103.502 -26.5s39.5 -47.167 39.5 -88.5v-150
c0 -9.33301 -2.66699 -16.833 -8 -22.5s-12 -10.834 -20 -15.501c-27.333 -15.333 -64.333 -23 -111 -23c-44 0 -78.5 8.16699 -103.5 24.5s-37.5 41.5 -37.5 75.5c0 30 9.16699 52.833 27.5 68.5s46.5 25.167 84.5 28.5l84 9v5c0 17.333 -5.66699 29.5 -17 36.5
s-28.666 10.5 -51.999 10.5c-16.667 0 -33.334 -2.16699 -50.001 -6.5s-30.667 -9.83301 -42 -16.5c-5.33301 3.33301 -9.83301 8.33301 -13.5 15s-5.5 13.667 -5.5 21c0 9.33301 2.16699 16.833 6.5 22.5s11.166 10.834 20.499 15.501
c11.333 5.33301 25.666 9.5 42.999 12.5s34.333 4.5 51 4.5z" />
    <glyph glyph-name="guillemotleft" unicode="&#xab;" horiz-adv-x="523" 
d="M267 88c0 -14.667 -4.83398 -27.999 -14.501 -39.999s-24.5 -18 -44.5 -18c-11.333 0 -21.833 3.33301 -31.5 10s-19.167 14.667 -28.5 24l-104 110c-3.33301 6 -6.16602 13.167 -8.49902 21.5s-3.5 16.833 -3.5 25.5c0 16.667 2 29.667 6 39s9.33301 17 16 23l146 146
c19.333 -5.33301 33.833 -13 43.5 -23s14.5 -21.333 14.5 -34c0 -11.333 -2.5 -21.333 -7.5 -30s-14.833 -20.334 -29.5 -35.001l-85 -84zM486.999 88.001c0 -14.667 -4.83398 -28 -14.501 -40s-24.167 -18 -43.5 -18c-12 0 -22.667 3.33301 -32 10
s-18.666 14.667 -27.999 24l-104 110c-3.33301 6 -6.33301 13.167 -9 21.5s-4 16.833 -4 25.5c0 16.667 2 29.667 6 39s9.33301 17 16 23l146 146c19.333 -5.33301 34 -13 44 -23s15 -21.333 15 -34c0 -11.333 -2.5 -21.5 -7.5 -30.5s-14.833 -20.5 -29.5 -34.5l-85 -84z
" />
    <glyph glyph-name="logicalnot" unicode="&#xac;" horiz-adv-x="535" 
d="M437 416c17.333 0 31.1641 -5 41.4971 -15s15.5 -23.667 15.5 -41v-178c-5.33301 -2 -13.166 -3.83301 -23.499 -5.5s-20.833 -2.5 -31.5 -2.5c-21.333 0 -37.166 4 -47.499 12s-15.5 23.667 -15.5 47v85h-324c-3.33301 5.33301 -6.16602 12.333 -8.49902 21
s-3.5 17.667 -3.5 27c0 17.333 4.16699 30 12.5 38s19.833 12 34.5 12h350z" />
    <glyph glyph-name="uni00AD" unicode="&#xad;" horiz-adv-x="371" 
d="M55 206c-3.33301 6 -6.33301 13.333 -9 22s-4 18 -4 28c0 18 4.33301 31.333 13 40s20.334 13 35.001 13h226c3.33301 -5.33301 6.33301 -12.5 9 -21.5s4 -18.5 4 -28.5c0 -18 -4.33301 -31.333 -13 -40s-20.334 -13 -35.001 -13h-226z" />
    <glyph glyph-name="registered" unicode="&#xae;" horiz-adv-x="619" 
d="M47 374c0 35.333 6.33301 68.666 19 99.999s30.5 58.5 53.5 81.5s50.5 41.167 82.5 54.5s67.667 20 107 20c38.667 0 74 -6.66699 106 -20s59.667 -31.5 83 -54.5s41.5 -50.167 54.5 -81.5s19.5 -64.666 19.5 -99.999s-6.5 -68.5 -19.5 -99.5s-31.167 -58 -54.5 -81
s-51 -41.167 -83 -54.5s-67.333 -20 -106 -20c-39.333 0 -75 6.66699 -107 20s-59.5 31.5 -82.5 54.5s-40.833 50 -53.5 81s-19 64.167 -19 99.5zM120 374c0 -27.333 4.5 -52.666 13.5 -75.999s21.667 -43.5 38 -60.5s36.166 -30.333 59.499 -40s49.333 -14.5 78 -14.5
s54.667 4.83301 78 14.5s43.166 23 59.499 40s28.833 37.167 37.5 60.5s13 48.666 13 75.999c0 28 -4.33301 53.667 -13 77s-21.167 43.666 -37.5 60.999s-36.166 30.833 -59.499 40.5s-49.333 14.5 -78 14.5s-54.667 -4.83301 -78 -14.5s-43.166 -23.167 -59.499 -40.5
s-29 -37.666 -38 -60.999s-13.5 -49 -13.5 -77zM285 343v-78.001c-3.33301 -0.666992 -7.83301 -1.33398 -13.5 -2.00098s-12.167 -1 -19.5 -1c-9.33301 0 -16.833 1.66699 -22.5 5s-8.5 11 -8.5 23v186c0 8.66699 6.33301 15 19 19c18 4.66699 38.667 7 62 7
c34 0 60.167 -7.16699 78.5 -21.5s27.5 -34.166 27.5 -59.499c0 -17.333 -4.5 -31.5 -13.5 -42.5s-20.167 -19.167 -33.5 -24.5l54 -69c-2 -7.33301 -6.33301 -13.166 -13 -17.499s-14 -6.5 -22 -6.5c-9.33301 0 -17 2.16699 -23 6.5s-11.667 10.5 -17 18.5l-38 57h-17z
M308 389.999c23.333 0 34.999 10.667 34.999 32c0 20 -13 30 -39 30c-3.33301 0 -6.66602 -0.166992 -9.99902 -0.5s-6.33301 -0.5 -9 -0.5v-61h23z" />
    <glyph glyph-name="macron" unicode="&#xaf;" horiz-adv-x="347" 
d="M35 567c-3.33301 5.33301 -6.5 12.168 -9.5 20.501s-4.5 17.166 -4.5 26.499c0 18.667 4 31.667 12 39s18.667 11 32 11h247c8.66699 -12 13 -27.667 13 -47c0 -18 -3.83301 -30.833 -11.5 -38.5s-18.167 -11.5 -31.5 -11.5h-247z" />
    <glyph glyph-name="degree" unicode="&#xb0;" horiz-adv-x="361" 
d="M333 482c0 -22 -4 -41.667 -12 -59s-18.833 -32 -32.5 -44s-29.667 -21.167 -48 -27.5s-38.166 -9.5 -59.499 -9.5c-44.667 0 -81.5 12.5 -110.5 37.5s-43.5 59.167 -43.5 102.5c0 22 4 41.667 12 59s19 32 33 44s30.333 21.167 49 27.5s38.667 9.5 60 9.5
s41.166 -3.16699 59.499 -9.5s34.333 -15.5 48 -27.5s24.5 -26.667 32.5 -44s12 -37 12 -59zM181 543c-15.333 0 -29 -4.83301 -41 -14.5s-18 -25.167 -18 -46.5s5.83301 -37.166 17.5 -47.499s25.5 -15.5 41.5 -15.5c15.333 0 28.833 5.16699 40.5 15.5
s17.5 26.166 17.5 47.499s-5.83301 36.833 -17.5 46.5s-25.167 14.5 -40.5 14.5z" />
    <glyph glyph-name="plusminus" unicode="&#xb1;" horiz-adv-x="546" 
d="M332 416l144.001 0.000976562c3.33301 -5.33301 6.16602 -12.333 8.49902 -21s3.5 -18 3.5 -28c0 -18 -4.33301 -31 -13 -39s-20.334 -12 -35.001 -12h-108v-145c-6 -1.33301 -13.833 -2.83301 -23.5 -4.5s-19.5 -2.5 -29.5 -2.5c-20.667 0 -36.167 3.66699 -46.5 11
s-15.5 22.333 -15.5 45v96h-148c-3.33301 5.33301 -6 12.166 -8 20.499s-3 17.5 -3 27.5c0 18 4.33301 31.167 13 39.5s20.334 12.5 35.001 12.5h111v141c6 2 14 3.83301 24 5.5s20 2.5 30 2.5c19.333 0 34.333 -3.83301 45 -11.5s16 -22.5 16 -44.5v-93z
M69.001 0.000976562c-3.33301 5.33301 -5.99902 12.167 -7.99902 20.5s-3 17.5 -3 27.5c0 18 4.33301 31.333 13 40s20.334 13 35.001 13h370c3.33301 -6 6.16602 -13.333 8.49902 -22s3.5 -18 3.5 -28c0 -18 -4.33301 -31 -13 -39s-20.334 -12 -35.001 -12h-371z" />
    <glyph glyph-name="twosuperior" unicode="&#xb2;" horiz-adv-x="278" 
d="M124 699c38 0 67.668 -9.00098 89.001 -27.001s32 -43 32 -75c0 -20.667 -6 -40.334 -18 -59.001s-30.333 -38 -55 -58l-54 -43h125c2 -4 3.83301 -8.66699 5.5 -14s2.5 -11.333 2.5 -18c0 -22 -10 -33 -30 -33h-180c-5.33301 4.66699 -9.83301 10.334 -13.5 17.001
s-5.5 14.334 -5.5 23.001c0 20 5 34.333 15 43l80 70c18 16 30.667 29.167 38 39.5s11 20.5 11 30.5c0 12.667 -4.5 22.5 -13.5 29.5s-20.5 10.5 -34.5 10.5s-26.333 -2.33301 -37 -7s-20.334 -10 -29.001 -16c-5.33301 3.33301 -9.83301 8 -13.5 14s-5.5 13.667 -5.5 23
c0 16 8.66699 28.333 26 37s39 13 65 13z" />
    <glyph glyph-name="threesuperior" unicode="&#xb3;" horiz-adv-x="279" 
d="M128 567c12 0 21.5 2.83496 28.5 8.50195s10.5 13.167 10.5 22.5c0 11.333 -4.66699 20.166 -14 26.499s-22.666 9.5 -39.999 9.5c-13.333 0 -25.833 -1.83301 -37.5 -5.5s-21.834 -8.16699 -30.501 -13.5c-13.333 8 -20 20 -20 36c0 15.333 9.5 27.333 28.5 36
s42.833 13 71.5 13c38.667 0 68.5 -8.66699 89.5 -26s31.5 -40 31.5 -68c0 -14.667 -4.16699 -28.167 -12.5 -40.5s-19.166 -21.166 -32.499 -26.499c14.667 -6 26.834 -15.667 36.501 -29s14.5 -29.666 14.5 -48.999c0 -32 -12.167 -56.167 -36.5 -72.5
s-54.833 -24.5 -91.5 -24.5c-33.333 0 -59.833 5.16699 -79.5 15.5s-29.5 23.166 -29.5 38.499c0 8.66699 2.16699 16.167 6.5 22.5s10.166 11.166 17.499 14.499c9.33301 -6 20.166 -11.833 32.499 -17.5s27.5 -8.5 45.5 -8.5c17.333 0 31 3.33301 41 10
s15 16.334 15 29.001c0 11.333 -3.83301 20.166 -11.5 26.499s-18.5 9.5 -32.5 9.5h-52c-6 9.33301 -9 19.666 -9 30.999c0 14 3 24.667 9 32h51z" />
    <glyph glyph-name="acute" unicode="&#xb4;" horiz-adv-x="298" 
d="M182 720c24.667 0 43.667 -5.66504 57 -16.998s20 -24 20 -38c0 -12.667 -2.66699 -22.834 -8 -30.501s-14.333 -17.167 -27 -28.5l-93 -84c-21.333 0 -37.833 5.33301 -49.5 16s-17.5 22.334 -17.5 35.001c0 7.33301 1.5 13.666 4.5 18.999s7.83301 11.666 14.5 18.999z
" />
    <glyph glyph-name="mu" unicode="&#xb5;" horiz-adv-x="567" 
d="M134 -183c-24 0 -41.665 4.50195 -52.998 13.502s-17 24.167 -17 45.5v596c5.33301 2 13.166 3.83301 23.499 5.5s21.5 2.5 33.5 2.5c24 0 41.5 -4.16699 52.5 -12.5s16.5 -23.833 16.5 -46.5v-238c0 -34.667 9.16699 -59.5 27.5 -74.5s43.5 -22.5 75.5 -22.5
c20.667 0 38.167 2 52.5 6s25.166 8.33301 32.499 13v367c5.33301 2 13.166 3.83301 23.499 5.5s21.5 2.5 33.5 2.5c24 0 41.5 -4.16699 52.5 -12.5s16.5 -23.833 16.5 -46.5v-328c0 -15.333 -2.66699 -28 -8 -38s-15 -19.333 -29 -28
c-16.667 -10.667 -37.667 -20.334 -63 -29.001s-56.666 -13 -93.999 -13c-58 0 -101.333 14.333 -130 43c3.33301 -23.333 5.83301 -47.333 7.5 -72s2.5 -50.334 2.5 -77.001v-51c-6 -2.66699 -13.833 -5.16699 -23.5 -7.5s-20.5 -3.5 -32.5 -3.5z" />
    <glyph glyph-name="paragraph" unicode="&#xb6;" horiz-adv-x="497" 
d="M366 613c21.333 0 38.1689 -3.66992 50.502 -11.0029s18.5 -23.666 18.5 -48.999v-622c-5.33301 -1.33301 -13.333 -3 -24 -5s-21.667 -3 -33 -3c-22 0 -39 4 -51 12s-18 24 -18 48v523h-68v-255c0 -8.66699 -4.66699 -15.667 -14 -21s-24.333 -8 -45 -8
c-20 0 -40 3.66699 -60 11s-37.833 18.833 -53.5 34.5s-28.334 35.334 -38.001 59.001s-14.5 51.834 -14.5 84.501c0 34 5.83301 63.667 17.5 89s27.5 46.333 47.5 63s43.167 29.167 69.5 37.5s54.166 12.5 83.499 12.5h132z" />
    <glyph glyph-name="periodcentered" unicode="&#xb7;" horiz-adv-x="191" 
d="M19 262c0 22 6.83301 40.5 20.5 55.5s32.5 22.5 56.5 22.5c23.333 0 41.833 -7.5 55.5 -22.5s20.5 -33.5 20.5 -55.5c0 -21.333 -6.83301 -39.5 -20.5 -54.5s-32.167 -22.5 -55.5 -22.5c-24 0 -42.833 7.5 -56.5 22.5s-20.5 33.167 -20.5 54.5z" />
    <glyph glyph-name="cedilla" unicode="&#xb8;" horiz-adv-x="195" 
d="M119 28c21.333 -13.333 36.668 -29.667 46.001 -49s14 -40.333 14 -63c0 -34 -10.333 -61.167 -31 -81.5s-48.667 -30.5 -84 -30.5c-22.667 0 -40.5 5 -53.5 15s-19.5 24.333 -19.5 43c0 8.66699 1.66699 18 5 28h13c22 0 38 5 48 15s15 23 15 39
c0 8.66699 -1.83301 18.5 -5.5 29.5s-9.83398 21.167 -18.501 30.5z" />
    <glyph glyph-name="onesuperior" unicode="&#xb9;" horiz-adv-x="217" 
d="M91 608l-50.999 -20.001c-7.33301 3.33301 -14 8.5 -20 15.5s-9 15.833 -9 26.5c0 9.33301 2.5 17 7.5 23s11.833 10.667 20.5 14l73 30h15c13.333 0 23.666 -4 30.999 -12s11 -18.667 11 -32v-279c-4 -1.33301 -9.33301 -2.66602 -16 -3.99902s-13.334 -2 -20.001 -2
c-13.333 0 -23.666 2.33301 -30.999 7s-11 14.667 -11 30v203z" />
    <glyph glyph-name="ordmasculine" unicode="&#xba;" horiz-adv-x="387" 
d="M349 459c0 -52.667 -14.333 -93 -43 -121s-66.667 -42 -114 -42s-85.5 14.167 -114.5 42.5s-43.5 68.5 -43.5 120.5s14.667 92.167 44 120.5s67.333 42.5 114 42.5c47.333 0 85.333 -14.5 114 -43.5s43 -68.833 43 -119.5zM192 551
c-21.333 0 -38.166 -7.83301 -50.499 -23.5s-18.5 -38.5 -18.5 -68.5s6.16699 -52.833 18.5 -68.5s29.166 -23.5 50.499 -23.5s38.166 7.83301 50.499 23.5s18.5 38.5 18.5 68.5c0 29.333 -6.16699 52 -18.5 68s-29.166 24 -50.499 24z" />
    <glyph glyph-name="guillemotright" unicode="&#xbb;" horiz-adv-x="523" 
d="M256 371c0 14.667 4.83301 27.998 14.5 39.998s24.167 18 43.5 18c12 0 22.833 -3.33301 32.5 -10s18.834 -14.667 27.501 -24l105 -110c3.33301 -6 6.16602 -13.167 8.49902 -21.5s3.5 -16.833 3.5 -25.5c0 -16.667 -2 -29.667 -6 -39s-9.33301 -16.666 -16 -21.999
l-146 -147c-19.333 5.33301 -33.833 13 -43.5 23s-14.5 21.333 -14.5 34c0 11.333 2.5 21.333 7.5 30s14.833 20.334 29.5 35.001l85 84zM36 370.998c0 14.667 4.83398 27.999 14.501 39.999s24.167 18 43.5 18c12 0 22.667 -3.33301 32 -10s18.666 -14.667 27.999 -24
l104 -110c3.33301 -6 6.33301 -13.167 9 -21.5s4 -16.833 4 -25.5c0 -16.667 -2 -29.667 -6 -39s-9.33301 -16.666 -16 -21.999l-146 -147c-19.333 5.33301 -34 13 -44 23s-15 21.333 -15 34c0 11.333 2.5 21.5 7.5 30.5s14.833 20.5 29.5 34.5l85 84z" />
    <glyph glyph-name="onequarter" unicode="&#xbc;" horiz-adv-x="616" 
d="M87 528l-50.999 -20.001c-7.33301 3.33301 -14 8.5 -20 15.5s-9 15.833 -9 26.5c0 9.33301 2.5 17 7.5 23s11.833 10.667 20.5 14l73 30h15c13.333 0 23.666 -4 30.999 -12s11 -18.667 11 -32v-279c-4 -1.33301 -9.33301 -2.66602 -16 -3.99902s-13.334 -2 -20.001 -2
c-13.333 0 -23.666 2.33301 -30.999 7s-11 14.667 -11 30v203zM480.001 66.999l-131.999 -0.00292969c-7.33301 3.33301 -13.333 8.5 -18 15.5s-7 15.5 -7 25.5c0 14.667 4 27.334 12 38.001l125 170c5.33301 1.33301 11.666 2.66602 18.999 3.99902s15 2 23 2
c13.333 0 25.5 -3 36.5 -9s16.5 -16.333 16.5 -31v-151h46c1.33301 -3.33301 2.83301 -7.5 4.5 -12.5s2.5 -11.167 2.5 -18.5c0 -11.333 -2.83301 -19.666 -8.5 -24.999s-12.5 -8 -20.5 -8h-24v-65c-4 -1.33301 -9 -2.66602 -15 -3.99902s-12.667 -2 -20 -2
c-13.333 0 -23.333 2.33301 -30 7s-10 14.334 -10 29.001v35zM483.002 181.996v28.001c0 11.333 0.333008 22.666 1 33.999l-74 -113h73v51zM451.002 612.997c16.667 -1.33301 30.001 -5.50098 40.001 -12.501s15.333 -16.167 16 -27.5
c0 -8.66699 -1.83301 -16.834 -5.5 -24.501s-8.83398 -16.5 -15.501 -26.5l-359 -528c-17.333 2 -31 6.33301 -41 13s-15.333 15.667 -16 27c0 8.66699 1.83301 16.834 5.5 24.501s9.16699 16.834 16.5 27.501z" />
    <glyph glyph-name="onehalf" unicode="&#xbd;" horiz-adv-x="629" 
d="M87 528l-50.999 -20.001c-7.33301 3.33301 -14 8.5 -20 15.5s-9 15.833 -9 26.5c0 9.33301 2.5 17 7.5 23s11.833 10.667 20.5 14l73 30h15c13.333 0 23.666 -4 30.999 -12s11 -18.667 11 -32v-279c-4 -1.33301 -9.33301 -2.66602 -16 -3.99902s-13.334 -2 -20.001 -2
c-13.333 0 -23.666 2.33301 -30.999 7s-11 14.667 -11 30v203zM477.001 327.999c38 0 67.668 -9.00098 89.001 -27.001s32 -43 32 -75c0 -20.667 -6 -40.334 -18 -59.001s-30.333 -38 -55 -58l-54 -43h125c2 -4 3.83301 -8.66699 5.5 -14s2.5 -11.333 2.5 -18
c0 -22 -10 -33 -30 -33h-180c-5.33301 4.66699 -9.83301 10.334 -13.5 17.001s-5.5 14.334 -5.5 23.001c0 20 5 34.333 15 43l80 70c18 16 30.667 29.167 38 39.5s11 20.5 11 30.5c0 12.667 -4.5 22.5 -13.5 29.5s-20.5 10.5 -34.5 10.5s-26.333 -2.33301 -37 -7
s-20.334 -10 -29.001 -16c-5.33301 3.33301 -9.83301 8 -13.5 14s-5.5 13.667 -5.5 23c0 16 8.66699 28.333 26 37s39 13 65 13zM451.002 612.998c16.667 -1.33301 30.001 -5.50098 40.001 -12.501s15.333 -16.167 16 -27.5c0 -8.66699 -1.83301 -16.834 -5.5 -24.501
s-8.83398 -16.5 -15.501 -26.5l-359 -528c-17.333 2 -31 6.33301 -41 13s-15.333 15.667 -16 27c0 8.66699 1.83301 16.834 5.5 24.501s9.16699 16.834 16.5 27.501z" />
    <glyph glyph-name="threequarters" unicode="&#xbe;" horiz-adv-x="667" 
d="M128 489c12 0 21.5 2.83496 28.5 8.50195s10.5 13.167 10.5 22.5c0 11.333 -4.66699 20.166 -14 26.499s-22.666 9.5 -39.999 9.5c-13.333 0 -25.833 -1.83301 -37.5 -5.5s-21.834 -8.16699 -30.501 -13.5c-13.333 8 -20 20 -20 36c0 15.333 9.5 27.333 28.5 36
s42.833 13 71.5 13c38.667 0 68.5 -8.66699 89.5 -26s31.5 -40 31.5 -68c0 -14.667 -4.16699 -28.167 -12.5 -40.5s-19.166 -21.166 -32.499 -26.499c14.667 -6 26.834 -15.667 36.501 -29s14.5 -29.666 14.5 -48.999c0 -32 -12.167 -56.167 -36.5 -72.5
s-54.833 -24.5 -91.5 -24.5c-33.333 0 -59.833 5.16699 -79.5 15.5s-29.5 23.166 -29.5 38.499c0 8.66699 2.16699 16.167 6.5 22.5s10.166 11.166 17.499 14.499c9.33301 -6 20.166 -11.833 32.499 -17.5s27.5 -8.5 45.5 -8.5c17.333 0 31 3.33301 41 10
s15 16.334 15 29.001c0 11.333 -3.83301 20.166 -11.5 26.499s-18.5 9.5 -32.5 9.5h-52c-6 9.33301 -9 19.666 -9 30.999c0 14 3 24.667 9 32h51zM530 67.002l-131.999 -0.00292969c-7.33301 3.33301 -13.333 8.5 -18 15.5s-7 15.5 -7 25.5c0 14.667 4 27.334 12 38.001
l125 170c5.33301 1.33301 11.666 2.66602 18.999 3.99902s15 2 23 2c13.333 0 25.5 -3 36.5 -9s16.5 -16.333 16.5 -31v-151h46c1.33301 -3.33301 2.83301 -7.5 4.5 -12.5s2.5 -11.167 2.5 -18.5c0 -11.333 -2.83301 -19.666 -8.5 -24.999s-12.5 -8 -20.5 -8h-24v-65
c-4 -1.33301 -9 -2.66602 -15 -3.99902s-12.667 -2 -20 -2c-13.333 0 -23.333 2.33301 -30 7s-10 14.334 -10 29.001v35zM533.001 181.999v28.001c0 11.333 0.333008 22.666 1 33.999l-74 -113h73v51zM503.001 613c16.667 -1.33301 30.001 -5.50098 40.001 -12.501
s15.333 -16.167 16 -27.5c0 -8.66699 -1.83301 -16.834 -5.5 -24.501s-8.83398 -16.5 -15.501 -26.5l-359 -528c-17.333 2 -31 6.33301 -41 13s-15.333 15.667 -16 27c0 8.66699 1.83301 16.834 5.5 24.501s9.16699 16.834 16.5 27.501z" />
    <glyph glyph-name="questiondown" unicode="&#xbf;" horiz-adv-x="479" 
d="M347 259c9.33301 -6.66699 17.3359 -15.6699 24.0029 -27.0029s10 -24.666 10 -39.999s-4.16699 -27 -12.5 -35s-21.166 -14.333 -38.499 -19l-73 -18c-30.667 -7.33301 -53.834 -18.666 -69.501 -33.999s-23.5 -35.666 -23.5 -60.999c0 -22 8.66699 -41.5 26 -58.5
s45.666 -25.5 84.999 -25.5c27.333 0 53.666 3.83301 78.999 11.5s45.666 17.167 60.999 28.5c9.33301 -7.33301 17.166 -15.833 23.499 -25.5s9.5 -21.167 9.5 -34.5c0 -14 -4.66699 -26.333 -14 -37s-22.166 -19.834 -38.499 -27.501s-36 -13.5 -59 -17.5
s-47.833 -6 -74.5 -6c-36 0 -68.333 4.66699 -97 14s-53 22.5 -73 39.5s-35.167 37.167 -45.5 60.5s-15.5 49 -15.5 77c0 58 18 103.833 54 137.5s90.333 58.834 163 75.501zM370.003 402.997c0 -22 -7 -40.333 -21 -55s-32.667 -22 -56 -22s-42 7.33301 -56 22
s-21 33 -21 55c0 21.333 7 39.166 21 53.499s32.667 21.5 56 21.5s42 -7.16699 56 -21.5s21 -32.166 21 -53.499z" />
    <glyph glyph-name="Agrave" unicode="&#xc0;" horiz-adv-x="610" 
d="M416 143l-223.994 -0.000976562l-23.5 -77l-20.5 -66c-6.66699 -2.66699 -13.834 -5 -21.501 -7s-17.167 -3 -28.5 -3c-22.667 0 -40.334 4.5 -53.001 13.5s-19 21.833 -19 38.5c0 8 1.16699 15.833 3.5 23.5s5.16602 16.5 8.49902 26.5
c5.33301 18.667 12.5 41.167 21.5 67.5l29 86l33.5 96l34.5 96l32 87l26.5 69.5c8.66699 4.66699 21.5 9.33398 38.5 14.001s34.167 7 51.5 7c23.333 0 44.666 -3.5 63.999 -10.5s31.666 -18.167 36.999 -33.5l44 -126.5l48.5 -147.5l47.5 -149l41 -131
c-6.66699 -7.33301 -15.834 -13.5 -27.501 -18.5s-25.5 -7.5 -41.5 -7.5c-23.333 0 -39.833 4.16699 -49.5 12.5s-17.167 21.5 -22.5 39.5zM304.006 500.999l-19.5 -56l-22 -64.5l-23.5 -68l-23 -67.5h174l-81 256h-5zM162.006 752.999
c-1.33301 6.66699 -1.99902 12.667 -1.99902 18c0 17.333 5.16699 31.333 15.5 42s23.166 16 38.499 16c19.333 0 38 -9.33301 56 -28l85 -93c-1.33301 -17.333 -7.16602 -30.333 -17.499 -39s-21.833 -13 -34.5 -13c-10.667 0 -19.834 2 -27.501 6s-15.5 9 -23.5 15z" />
    <glyph glyph-name="Aacute" unicode="&#xc1;" horiz-adv-x="610" 
d="M416 143l-223.994 -0.000976562l-23.5 -77l-20.5 -66c-6.66699 -2.66699 -13.834 -5 -21.501 -7s-17.167 -3 -28.5 -3c-22.667 0 -40.334 4.5 -53.001 13.5s-19 21.833 -19 38.5c0 8 1.16699 15.833 3.5 23.5s5.16602 16.5 8.49902 26.5
c5.33301 18.667 12.5 41.167 21.5 67.5l29 86l33.5 96l34.5 96l32 87l26.5 69.5c8.66699 4.66699 21.5 9.33398 38.5 14.001s34.167 7 51.5 7c23.333 0 44.666 -3.5 63.999 -10.5s31.666 -18.167 36.999 -33.5l44 -126.5l48.5 -147.5l47.5 -149l41 -131
c-6.66699 -7.33301 -15.834 -13.5 -27.501 -18.5s-25.5 -7.5 -41.5 -7.5c-23.333 0 -39.833 4.16699 -49.5 12.5s-17.167 21.5 -22.5 39.5zM304.006 500.999l-19.5 -56l-22 -64.5l-23.5 -68l-23 -67.5h174l-81 256h-5zM381.006 832.999c21.333 0 38 -5.16992 50 -15.5029
s18 -23.166 18 -38.499c0 -11.333 -2.5 -21.166 -7.5 -29.499s-14.5 -17.5 -28.5 -27.5l-93 -66c-19.333 0.666992 -34.333 5.33398 -45 14.001s-16 19 -16 31c0 7.33301 1.33301 14 4 20s7.66699 12.333 15 19z" />
    <glyph glyph-name="Acircumflex" unicode="&#xc2;" horiz-adv-x="610" 
d="M311 742l-43.498 -43.001c-15.667 -15.333 -32.167 -30.333 -49.5 -45c-16 0.666992 -29.333 5.5 -40 14.5s-16 20.167 -16 33.5c0 11.333 3 20.833 9 28.5s15.333 17.167 28 28.5l41 38c13.333 12 25.666 20.667 36.999 26s23.333 8 36 8c14 0 26.5 -2.66699 37.5 -8
s22.167 -14 33.5 -26l82 -87c0 -17.333 -4.83301 -30.666 -14.5 -39.999s-22.5 -14 -38.5 -14c-10.667 0 -20.334 3.33301 -29.001 10s-19.667 17 -33 31zM416.002 142.999l-223.994 -0.000976562l-23.5 -77l-20.5 -66c-6.66699 -2.66699 -13.834 -5 -21.501 -7
s-17.167 -3 -28.5 -3c-22.667 0 -40.334 4.5 -53.001 13.5s-19 21.833 -19 38.5c0 8 1.16699 15.833 3.5 23.5s5.16602 16.5 8.49902 26.5c5.33301 18.667 12.5 41.167 21.5 67.5l29 86l33.5 96l34.5 96l32 87l26.5 69.5c8.66699 4.66699 21.5 9.33398 38.5 14.001
s34.167 7 51.5 7c23.333 0 44.666 -3.5 63.999 -10.5s31.666 -18.167 36.999 -33.5l44 -126.5l48.5 -147.5l47.5 -149l41 -131c-6.66699 -7.33301 -15.834 -13.5 -27.501 -18.5s-25.5 -7.5 -41.5 -7.5c-23.333 0 -39.833 4.16699 -49.5 12.5s-17.167 21.5 -22.5 39.5z
M304.008 500.998l-19.5 -56l-22 -64.5l-23.5 -68l-23 -67.5h174l-81 256h-5z" />
    <glyph glyph-name="Atilde" unicode="&#xc3;" horiz-adv-x="610" 
d="M416 143l-223.994 -0.000976562l-23.5 -77l-20.5 -66c-6.66699 -2.66699 -13.834 -5 -21.501 -7s-17.167 -3 -28.5 -3c-22.667 0 -40.334 4.5 -53.001 13.5s-19 21.833 -19 38.5c0 8 1.16699 15.833 3.5 23.5s5.16602 16.5 8.49902 26.5
c5.33301 18.667 12.5 41.167 21.5 67.5l29 86l33.5 96l34.5 96l32 87l26.5 69.5c8.66699 4.66699 21.5 9.33398 38.5 14.001s34.167 7 51.5 7c23.333 0 44.666 -3.5 63.999 -10.5s31.666 -18.167 36.999 -33.5l44 -126.5l48.5 -147.5l47.5 -149l41 -131
c-6.66699 -7.33301 -15.834 -13.5 -27.501 -18.5s-25.5 -7.5 -41.5 -7.5c-23.333 0 -39.833 4.16699 -49.5 12.5s-17.167 21.5 -22.5 39.5zM304.006 500.999l-19.5 -56l-22 -64.5l-23.5 -68l-23 -67.5h174l-81 256h-5zM231.006 814.999c14 0 27.332 -1.66699 39.999 -5
s24.667 -6.83301 36 -10.5l32 -10.5c10 -3.33301 19 -5 27 -5c13.333 0 23.333 3.83301 30 11.5s11.667 15.834 15 24.501h5c16.667 0 31.334 -5.16699 44.001 -15.5s19 -25.166 19 -44.499c0 -24 -8 -42.5 -24 -55.5s-36.667 -19.5 -62 -19.5
c-15.333 0 -29.5 1.66699 -42.5 5s-25.167 7 -36.5 11l-31.5 11c-9.66699 3.33301 -18.5 5 -26.5 5c-13.333 0 -23.333 -3.83301 -30 -11.5s-11.667 -16.167 -15 -25.5h-4c-17.333 0 -32.166 5.16699 -44.499 15.5s-18.5 25.166 -18.5 44.499c0 12.667 2.5 23.667 7.5 33
s11.667 17.166 20 23.499s17.666 11 27.999 14s20.833 4.5 31.5 4.5z" />
    <glyph glyph-name="Adieresis" unicode="&#xc4;" horiz-adv-x="610" 
d="M416 143l-223.994 -0.000976562l-23.5 -77l-20.5 -66c-6.66699 -2.66699 -13.834 -5 -21.501 -7s-17.167 -3 -28.5 -3c-22.667 0 -40.334 4.5 -53.001 13.5s-19 21.833 -19 38.5c0 8 1.16699 15.833 3.5 23.5s5.16602 16.5 8.49902 26.5
c5.33301 18.667 12.5 41.167 21.5 67.5l29 86l33.5 96l34.5 96l32 87l26.5 69.5c8.66699 4.66699 21.5 9.33398 38.5 14.001s34.167 7 51.5 7c23.333 0 44.666 -3.5 63.999 -10.5s31.666 -18.167 36.999 -33.5l44 -126.5l48.5 -147.5l47.5 -149l41 -131
c-6.66699 -7.33301 -15.834 -13.5 -27.501 -18.5s-25.5 -7.5 -41.5 -7.5c-23.333 0 -39.833 4.16699 -49.5 12.5s-17.167 21.5 -22.5 39.5zM304.006 500.999l-19.5 -56l-22 -64.5l-23.5 -68l-23 -67.5h174l-81 256h-5zM277.006 742.999c0 -18 -6.5 -33.333 -19.5 -46
s-29.167 -19 -48.5 -19c-20 0 -36.167 6.33301 -48.5 19s-18.5 28 -18.5 46c0 18.667 6.16699 34.334 18.5 47.001s28.5 19 48.5 19c19.333 0 35.5 -6.33301 48.5 -19s19.5 -28.334 19.5 -47.001zM471.006 742.999c0 -18 -6.33301 -33.333 -19 -46s-28.667 -19 -48 -19
s-35.5 6.33301 -48.5 19s-19.5 28 -19.5 46c0 18.667 6.5 34.334 19.5 47.001s29.167 19 48.5 19s35.333 -6.33301 48 -19s19 -28.334 19 -47.001z" />
    <glyph glyph-name="Aring" unicode="&#xc5;" horiz-adv-x="610" 
d="M416 143l-223.994 -0.000976562l-23.5 -77l-20.5 -66c-6.66699 -2.66699 -13.834 -5 -21.501 -7s-17.167 -3 -28.5 -3c-22.667 0 -40.334 4.5 -53.001 13.5s-19 21.833 -19 38.5c0 8 1.16699 15.833 3.5 23.5s5.16602 16.5 8.49902 26.5
c5.33301 18.667 12.5 41.167 21.5 67.5l29 86l33.5 96l34.5 96l32 87l26.5 69.5c8.66699 4.66699 21.5 9.33398 38.5 14.001s34.167 7 51.5 7c23.333 0 44.666 -3.5 63.999 -10.5s31.666 -18.167 36.999 -33.5l44 -126.5l48.5 -147.5l47.5 -149l41 -131
c-6.66699 -7.33301 -15.834 -13.5 -27.501 -18.5s-25.5 -7.5 -41.5 -7.5c-23.333 0 -39.833 4.16699 -49.5 12.5s-17.167 21.5 -22.5 39.5zM304.006 500.999l-19.5 -56l-22 -64.5l-23.5 -68l-23 -67.5h174l-81 256h-5zM190.006 748.999c0 28.667 10.667 52.5 32 71.5
s50.666 28.5 87.999 28.5c38 0 67.833 -9.5 89.5 -28.5s32.5 -42.833 32.5 -71.5c0 -28 -10.833 -51.5 -32.5 -70.5s-51.5 -28.5 -89.5 -28.5c-37.333 0 -66.666 9.5 -87.999 28.5s-32 42.5 -32 70.5zM271.006 748.999c0 -11.333 3.66699 -20.166 11 -26.499
s16.666 -9.5 27.999 -9.5s20.833 3.16699 28.5 9.5s11.5 15.166 11.5 26.499s-3.83301 20.166 -11.5 26.499s-17.167 9.5 -28.5 9.5s-20.666 -3.16699 -27.999 -9.5s-11 -15.166 -11 -26.499z" />
    <glyph glyph-name="AE" unicode="&#xc6;" horiz-adv-x="860" 
d="M466 -2c-20.667 0 -37.1689 6.33594 -49.502 19.0029s-18.5 29.667 -18.5 51v75h-183l-69 -143c-7.33301 -2.66699 -14.166 -4.83398 -20.499 -6.50098s-15.166 -2.5 -26.499 -2.5c-22 0 -38.5 4.33301 -49.5 13s-16.5 20.667 -16.5 36c0 8 1.16699 16.167 3.5 24.5
s6.16602 17.833 11.499 28.5l29.5 59l41.5 82l49 94.5l51 97l48 90.5l41 75c7.33301 5.33301 18 10.166 32 14.499s29.667 6.5 47 6.5c12 0 24.833 -1.33301 38.5 -4s25.834 -7 36.501 -13c5.33301 3.33301 11.5 6.16602 18.5 8.49902s14.833 3.5 23.5 3.5h293
c3.33301 -5.33301 6.5 -12.333 9.5 -21s4.5 -18.334 4.5 -29.001c0 -36 -15.333 -54 -46 -54h-241v-142h244c3.33301 -5.33301 6.5 -12.166 9.5 -20.499s4.5 -17.833 4.5 -28.5c0 -18 -4.16699 -31.5 -12.5 -40.5s-19.5 -13.5 -33.5 -13.5h-212v-155h278
c3.33301 -5.33301 6.5 -12.5 9.5 -21.5s4.5 -18.833 4.5 -29.5c0 -18 -4.16699 -31.5 -12.5 -40.5s-19.5 -13.5 -33.5 -13.5h-304zM265.998 245.003h132v254h-6z" />
    <glyph glyph-name="Ccedilla" unicode="&#xc7;" horiz-adv-x="579" 
d="M537 529c0 -13.333 -3.6709 -24.8311 -11.0039 -34.498s-15.666 -17.167 -24.999 -22.5c-17.333 11.333 -36.666 21.666 -57.999 30.999s-47.666 14 -78.999 14c-56.667 0 -101.834 -18.333 -135.501 -55s-50.5 -89.667 -50.5 -159c0 -70.667 17.333 -123.667 52 -159
s81.334 -53 140.001 -53c30.667 0 57.167 4.16699 79.5 12.5s42.166 18.166 59.499 29.499c9.33301 -6 17 -14.167 23 -24.5s9 -22.166 9 -35.499c0 -11.333 -3 -21.666 -9 -30.999s-16 -17.666 -30 -24.999c-10 -6 -23 -11.667 -39 -17s-34.667 -9.33301 -56 -12
c12.667 -20.667 19 -44.667 19 -72c0 -34 -10.333 -61.167 -31 -81.5s-48.667 -30.5 -84 -30.5c-22.667 0 -40.5 5 -53.5 15s-19.5 24.333 -19.5 43c0 8.66699 1.66699 18 5 28h13c22 0 38 5 48 15s15 23 15 39c0 13.333 -4 27.666 -12 42.999c-38 4 -73 13.5 -105 28.5
s-59.667 35.667 -83 62s-41.666 58.166 -54.999 95.499s-20 80.666 -20 129.999c0 52 8 97.833 24 137.5s37.833 73 65.5 100s60 47.5 97 61.5s76.167 21 117.5 21c28.667 0 54.667 -2.5 78 -7.5s43.333 -11.833 60 -20.5s29.334 -18.667 38.001 -30s13 -23.333 13 -36z" />
    <glyph glyph-name="Egrave" unicode="&#xc8;" horiz-adv-x="545" 
d="M152 -2c-21.333 0 -38.166 6.33301 -50.499 19s-18.5 29.667 -18.5 51v470c0 21.333 6.16699 38.166 18.5 50.499s29.166 18.5 50.499 18.5h331c3.33301 -5.33301 6.33301 -12.333 9 -21s4 -18.334 4 -29.001c0 -17.333 -4 -30.666 -12 -39.999s-19 -14 -33 -14h-242
v-142h244c3.33301 -5.33301 6.5 -12.166 9.5 -20.499s4.5 -17.833 4.5 -28.5c0 -36 -15.333 -54 -46 -54h-212v-155h278c3.33301 -5.33301 6.5 -12.5 9.5 -21.5s4.5 -18.833 4.5 -29.5c0 -36 -15.333 -54 -46 -54h-303zM168 753
c-1.33301 6.66699 -1.99902 12.667 -1.99902 18c0 17.333 5.16699 31.333 15.5 42s23.166 16 38.499 16c19.333 0 38 -9.33301 56 -28l85 -93c-1.33301 -17.333 -7.16602 -30.333 -17.499 -39s-21.833 -13 -34.5 -13c-10.667 0 -19.834 2 -27.501 6s-15.5 9 -23.5 15z" />
    <glyph glyph-name="Eacute" unicode="&#xc9;" horiz-adv-x="545" 
d="M152 -2c-21.333 0 -38.166 6.33301 -50.499 19s-18.5 29.667 -18.5 51v470c0 21.333 6.16699 38.166 18.5 50.499s29.166 18.5 50.499 18.5h331c3.33301 -5.33301 6.33301 -12.333 9 -21s4 -18.334 4 -29.001c0 -17.333 -4 -30.666 -12 -39.999s-19 -14 -33 -14h-242
v-142h244c3.33301 -5.33301 6.5 -12.166 9.5 -20.499s4.5 -17.833 4.5 -28.5c0 -36 -15.333 -54 -46 -54h-212v-155h278c3.33301 -5.33301 6.5 -12.5 9.5 -21.5s4.5 -18.833 4.5 -29.5c0 -36 -15.333 -54 -46 -54h-303zM372 833c21.333 0 38 -5.16992 50 -15.5029
s18 -23.166 18 -38.499c0 -11.333 -2.5 -21.166 -7.5 -29.499s-14.5 -17.5 -28.5 -27.5l-93 -66c-19.333 0.666992 -34.333 5.33398 -45 14.001s-16 19 -16 31c0 7.33301 1.33301 14 4 20s7.66699 12.333 15 19z" />
    <glyph glyph-name="Ecircumflex" unicode="&#xca;" horiz-adv-x="545" 
d="M152 -2c-21.333 0 -38.166 6.33301 -50.499 19s-18.5 29.667 -18.5 51v470c0 21.333 6.16699 38.166 18.5 50.499s29.166 18.5 50.499 18.5h331c3.33301 -5.33301 6.33301 -12.333 9 -21s4 -18.334 4 -29.001c0 -17.333 -4 -30.666 -12 -39.999s-19 -14 -33 -14h-242
v-142h244c3.33301 -5.33301 6.5 -12.166 9.5 -20.499s4.5 -17.833 4.5 -28.5c0 -36 -15.333 -54 -46 -54h-212v-155h278c3.33301 -5.33301 6.5 -12.5 9.5 -21.5s4.5 -18.833 4.5 -29.5c0 -36 -15.333 -54 -46 -54h-303zM294 742l-43.999 -43.001l-49 -45
c-16 0.666992 -29.333 5.5 -40 14.5s-16 20.167 -16 33.5c0 11.333 3 20.833 9 28.5s15 17.167 27 28.5l44 40c26 21.333 49.667 32 71 32c14 0 26.333 -2.83301 37 -8.5s22 -14.167 34 -25.5l81 -87c0 -17.333 -4.83301 -30.666 -14.5 -39.999s-22.167 -14 -37.5 -14
c-10.667 0 -20.334 3.33301 -29.001 10s-19.667 17 -33 31z" />
    <glyph glyph-name="Edieresis" unicode="&#xcb;" horiz-adv-x="545" 
d="M152 -2c-21.333 0 -38.166 6.33301 -50.499 19s-18.5 29.667 -18.5 51v470c0 21.333 6.16699 38.166 18.5 50.499s29.166 18.5 50.499 18.5h331c3.33301 -5.33301 6.33301 -12.333 9 -21s4 -18.334 4 -29.001c0 -17.333 -4 -30.666 -12 -39.999s-19 -14 -33 -14h-242
v-142h244c3.33301 -5.33301 6.5 -12.166 9.5 -20.499s4.5 -17.833 4.5 -28.5c0 -36 -15.333 -54 -46 -54h-212v-155h278c3.33301 -5.33301 6.5 -12.5 9.5 -21.5s4.5 -18.833 4.5 -29.5c0 -36 -15.333 -54 -46 -54h-303zM265 738c0 -18 -6.5 -33.333 -19.5 -46
s-29.167 -19 -48.5 -19c-20 0 -36.167 6.33301 -48.5 19s-18.5 28 -18.5 46c0 18.667 6.16699 34.334 18.5 47.001s28.5 19 48.5 19c19.333 0 35.5 -6.33301 48.5 -19s19.5 -28.334 19.5 -47.001zM459 738c0 -18 -6.33301 -33.333 -19 -46s-28.667 -19 -48 -19
s-35.5 6.33301 -48.5 19s-19.5 28 -19.5 46c0 18.667 6.5 34.334 19.5 47.001s29.167 19 48.5 19s35.333 -6.33301 48 -19s19 -28.334 19 -47.001z" />
    <glyph glyph-name="Igrave" unicode="&#xcc;" horiz-adv-x="284" 
d="M147 -7c-25.333 0 -43.332 4.66699 -53.999 14s-16 25 -16 47v553c6 1.33301 14.667 3 26 5s22.666 3 33.999 3c24 0 41.667 -4.33301 53 -13s17 -24.667 17 -48v-553c-6 -1.33301 -14.5 -3 -25.5 -5s-22.5 -3 -34.5 -3zM-7.99902 753
c-1.33301 6.66699 -1.99902 12.667 -1.99902 18c0 17.333 5.16699 31.333 15.5 42s23.166 16 38.499 16c19.333 0 38 -9.33301 56 -28l85 -93c-1.33301 -17.333 -7.16602 -30.333 -17.499 -39s-21.833 -13 -34.5 -13c-10.667 0 -19.834 2 -27.501 6s-15.5 9 -23.5 15z" />
    <glyph glyph-name="Iacute" unicode="&#xcd;" horiz-adv-x="284" 
d="M147 -7c-25.333 0 -43.332 4.66699 -53.999 14s-16 25 -16 47v553c6 1.33301 14.667 3 26 5s22.666 3 33.999 3c24 0 41.667 -4.33301 53 -13s17 -24.667 17 -48v-553c-6 -1.33301 -14.5 -3 -25.5 -5s-22.5 -3 -34.5 -3zM210.001 833c21.333 0 38 -5.16992 50 -15.5029
s18 -23.166 18 -38.499c0 -11.333 -2.5 -21.166 -7.5 -29.499s-14.5 -17.5 -28.5 -27.5l-93 -66c-19.333 0.666992 -34.333 5.33398 -45 14.001s-16 19 -16 31c0 7.33301 1.33301 14 4 20s7.66699 12.333 15 19z" />
    <glyph glyph-name="Icircumflex" unicode="&#xce;" horiz-adv-x="284" 
d="M147 -7c-25.333 0 -43.332 4.66699 -53.999 14s-16 25 -16 47v553c6 1.33301 14.667 3 26 5s22.666 3 33.999 3c24 0 41.667 -4.33301 53 -13s17 -24.667 17 -48v-553c-6 -1.33301 -14.5 -3 -25.5 -5s-22.5 -3 -34.5 -3zM142.001 742l-43.999 -43.001l-49 -45
c-16 0.666992 -29.333 5.5 -40 14.5s-16 20.167 -16 33.5c0 11.333 3 20.833 9 28.5s15 17.167 27 28.5l44 40c26 21.333 49.667 32 71 32c14 0 26.333 -2.83301 37 -8.5s22 -14.167 34 -25.5l81 -87c0 -17.333 -4.83301 -30.666 -14.5 -39.999s-22.167 -14 -37.5 -14
c-10.667 0 -20.334 3.33301 -29.001 10s-19.667 17 -33 31z" />
    <glyph glyph-name="Idieresis" unicode="&#xcf;" horiz-adv-x="284" 
d="M147 -7c-25.333 0 -43.332 4.66699 -53.999 14s-16 25 -16 47v553c6 1.33301 14.667 3 26 5s22.666 3 33.999 3c24 0 41.667 -4.33301 53 -13s17 -24.667 17 -48v-553c-6 -1.33301 -14.5 -3 -25.5 -5s-22.5 -3 -34.5 -3zM110.001 738c0 -18 -6.5 -33.333 -19.5 -46
s-29.167 -19 -48.5 -19c-20 0 -36.167 6.33301 -48.5 19s-18.5 28 -18.5 46c0 18.667 6.16699 34.334 18.5 47.001s28.5 19 48.5 19c19.333 0 35.5 -6.33301 48.5 -19s19.5 -28.334 19.5 -47.001zM304.001 738c0 -18 -6.33301 -33.333 -19 -46s-28.667 -19 -48 -19
s-35.5 6.33301 -48.5 19s-19.5 28 -19.5 46c0 18.667 6.5 34.334 19.5 47.001s29.167 19 48.5 19s35.333 -6.33301 48 -19s19 -28.334 19 -47.001z" />
    <glyph glyph-name="Eth" unicode="&#xd0;" horiz-adv-x="691" 
d="M647 307c0 -54 -7.83496 -101.17 -23.502 -141.503s-37.834 -73.666 -66.501 -99.999s-63.167 -46.166 -103.5 -59.499s-85.166 -20 -134.499 -20c-11.333 0 -23.666 0.166992 -36.999 0.5s-27.166 1.33301 -41.499 3s-28.666 3.83398 -42.999 6.50098
s-27.833 6.33398 -40.5 11.001c-32 12 -48 32 -48 60v187h-80c-3.33301 5.33301 -6.5 12.166 -9.5 20.499s-4.5 17.833 -4.5 28.5c0 18 4.16699 31.5 12.5 40.5s19.5 13.5 33.5 13.5h48v200c0 12 3.33301 21.333 10 28s16 12 28 16c24.667 8.66699 51.5 14.167 80.5 16.5
s56.5 3.5 82.5 3.5c50 0 95.833 -6.5 137.5 -19.5s77.167 -32.5 106.5 -58.5s52.166 -58.667 68.499 -98s24.5 -85.333 24.5 -138zM513.998 305.997c0 36 -5.00098 67.168 -15.001 93.501s-23.833 48 -41.5 65s-38.667 29.667 -63 38s-50.833 12.5 -79.5 12.5
c-15.333 0 -29.166 -0.5 -41.499 -1.5s-24.166 -2.16699 -35.499 -3.5v-153h123c3.33301 -5.33301 6.33301 -12.333 9 -21s4 -18.334 4 -29.001c0 -35.333 -15.333 -53 -46 -53h-90v-155c11.333 -2.66699 24.166 -4.5 38.499 -5.5s28.5 -1.5 42.5 -1.5c62 0 110 18 144 54
s51 89.333 51 160z" />
    <glyph glyph-name="Ntilde" unicode="&#xd1;" horiz-adv-x="670" 
d="M144 -7c-24.667 0 -41.9961 4.50391 -51.9961 13.5039s-15 24.167 -15 45.5v533c7.33301 9.33301 18.166 16.666 32.499 21.999s30.166 8 47.499 8c20.667 0 39.167 -3.66699 55.5 -11s30.833 -22 43.5 -44l144 -259c13.333 -24 26.166 -48.833 38.499 -74.5
s23.166 -49.167 32.499 -70.5l4 1c-3.33301 39.333 -5.5 77.5 -6.5 114.5s-1.5 73.5 -1.5 109.5v227c5.33301 1.33301 13.5 2.83301 24.5 4.5s22.167 2.5 33.5 2.5c24.667 0 42.167 -4.5 52.5 -13.5s15.5 -24.167 15.5 -45.5v-540c-7.33301 -7.33301 -17.833 -13 -31.5 -17
s-29.834 -6 -48.501 -6c-20 0 -38.167 3.5 -54.5 10.5s-30.833 21.5 -43.5 43.5l-144 259c-13.333 23.333 -26.166 48.166 -38.499 74.499l-32.5 71.5l-6 -1c3.33301 -36.667 5.5 -74.334 6.5 -113.001s1.5 -75.334 1.5 -110.001v-227c-5.33301 -1.33301 -13.333 -3 -24 -5
s-22 -3 -34 -3zM249.004 815.004c14 0 27.332 -1.66699 39.999 -5s24.667 -6.83301 36 -10.5l32 -10.5c10 -3.33301 19 -5 27 -5c13.333 0 23.333 3.83301 30 11.5s11.667 15.834 15 24.501h5c16.667 0 31.334 -5.16699 44.001 -15.5s19 -25.166 19 -44.499
c0 -24 -8 -42.5 -24 -55.5s-36.667 -19.5 -62 -19.5c-15.333 0 -29.5 1.66699 -42.5 5s-25.167 7 -36.5 11l-31.5 11c-9.66699 3.33301 -18.5 5 -26.5 5c-13.333 0 -23.333 -3.83301 -30 -11.5s-11.667 -16.167 -15 -25.5h-4c-17.333 0 -32.166 5.16699 -44.499 15.5
s-18.5 25.166 -18.5 44.499c0 12.667 2.5 23.667 7.5 33s11.667 17.166 20 23.499s17.666 11 27.999 14s20.833 4.5 31.5 4.5z" />
    <glyph glyph-name="Ograve" unicode="&#xd2;" horiz-adv-x="696" 
d="M652 304c0 -52 -7.66895 -98 -23.002 -138s-36.5 -73.5 -63.5 -100.5s-59.167 -47.333 -96.5 -61s-77.666 -20.5 -120.999 -20.5s-83.666 6.83301 -120.999 20.5s-69.5 34 -96.5 61s-48.167 60.5 -63.5 100.5s-23 86 -23 138s7.83301 97.833 23.5 137.5
s37.167 73 64.5 100s59.5 47.333 96.5 61s76.833 20.5 119.5 20.5s82.5 -6.83301 119.5 -20.5s69.167 -34 96.5 -61s48.833 -60.333 64.5 -100s23.5 -85.5 23.5 -137.5zM518.998 304c0 69.333 -15.5 122.167 -46.5 158.5s-72.5 54.5 -124.5 54.5
c-51.333 0 -92.5 -18 -123.5 -54s-46.5 -89 -46.5 -159s15.333 -123 46 -159s72 -54 124 -54s93.5 18 124.5 54s46.5 89 46.5 159zM207.998 753.001c-1.33301 6.66699 -1.99902 12.667 -1.99902 18c0 17.333 5.16699 31.333 15.5 42s23.166 16 38.499 16
c19.333 0 38 -9.33301 56 -28l85 -93c-1.33301 -17.333 -7.16602 -30.333 -17.499 -39s-21.833 -13 -34.5 -13c-10.667 0 -19.834 2 -27.501 6s-15.5 9 -23.5 15z" />
    <glyph glyph-name="Oacute" unicode="&#xd3;" horiz-adv-x="696" 
d="M652 304c0 -52 -7.66895 -98 -23.002 -138s-36.5 -73.5 -63.5 -100.5s-59.167 -47.333 -96.5 -61s-77.666 -20.5 -120.999 -20.5s-83.666 6.83301 -120.999 20.5s-69.5 34 -96.5 61s-48.167 60.5 -63.5 100.5s-23 86 -23 138s7.83301 97.833 23.5 137.5
s37.167 73 64.5 100s59.5 47.333 96.5 61s76.833 20.5 119.5 20.5s82.5 -6.83301 119.5 -20.5s69.167 -34 96.5 -61s48.833 -60.333 64.5 -100s23.5 -85.5 23.5 -137.5zM518.998 304c0 69.333 -15.5 122.167 -46.5 158.5s-72.5 54.5 -124.5 54.5
c-51.333 0 -92.5 -18 -123.5 -54s-46.5 -89 -46.5 -159s15.333 -123 46 -159s72 -54 124 -54s93.5 18 124.5 54s46.5 89 46.5 159zM426.998 833.001c21.333 0 38 -5.16992 50 -15.5029s18 -23.166 18 -38.499c0 -11.333 -2.5 -21.166 -7.5 -29.499s-14.5 -17.5 -28.5 -27.5
l-93 -66c-19.333 0.666992 -34.333 5.33398 -45 14.001s-16 19 -16 31c0 7.33301 1.33301 14 4 20s7.66699 12.333 15 19z" />
    <glyph glyph-name="Ocircumflex" unicode="&#xd4;" horiz-adv-x="696" 
d="M652 304c0 -52 -7.66895 -98 -23.002 -138s-36.5 -73.5 -63.5 -100.5s-59.167 -47.333 -96.5 -61s-77.666 -20.5 -120.999 -20.5s-83.666 6.83301 -120.999 20.5s-69.5 34 -96.5 61s-48.167 60.5 -63.5 100.5s-23 86 -23 138s7.83301 97.833 23.5 137.5
s37.167 73 64.5 100s59.5 47.333 96.5 61s76.833 20.5 119.5 20.5s82.5 -6.83301 119.5 -20.5s69.167 -34 96.5 -61s48.833 -60.333 64.5 -100s23.5 -85.5 23.5 -137.5zM518.998 304c0 69.333 -15.5 122.167 -46.5 158.5s-72.5 54.5 -124.5 54.5
c-51.333 0 -92.5 -18 -123.5 -54s-46.5 -89 -46.5 -159s15.333 -123 46 -159s72 -54 124 -54s93.5 18 124.5 54s46.5 89 46.5 159zM348.998 742.001l-43.999 -43.001l-49 -45c-16 0.666992 -29.333 5.5 -40 14.5s-16 20.167 -16 33.5c0 11.333 3 20.833 9 28.5
s15 17.167 27 28.5l44 40c26 21.333 49.667 32 71 32c14 0 26.333 -2.83301 37 -8.5s22 -14.167 34 -25.5l81 -87c0 -17.333 -4.83301 -30.666 -14.5 -39.999s-22.167 -14 -37.5 -14c-10.667 0 -20.334 3.33301 -29.001 10s-19.667 17 -33 31z" />
    <glyph glyph-name="Otilde" unicode="&#xd5;" horiz-adv-x="696" 
d="M652 304c0 -52 -7.66895 -98 -23.002 -138s-36.5 -73.5 -63.5 -100.5s-59.167 -47.333 -96.5 -61s-77.666 -20.5 -120.999 -20.5s-83.666 6.83301 -120.999 20.5s-69.5 34 -96.5 61s-48.167 60.5 -63.5 100.5s-23 86 -23 138s7.83301 97.833 23.5 137.5
s37.167 73 64.5 100s59.5 47.333 96.5 61s76.833 20.5 119.5 20.5s82.5 -6.83301 119.5 -20.5s69.167 -34 96.5 -61s48.833 -60.333 64.5 -100s23.5 -85.5 23.5 -137.5zM518.998 304c0 69.333 -15.5 122.167 -46.5 158.5s-72.5 54.5 -124.5 54.5
c-51.333 0 -92.5 -18 -123.5 -54s-46.5 -89 -46.5 -159s15.333 -123 46 -159s72 -54 124 -54s93.5 18 124.5 54s46.5 89 46.5 159zM268.998 815.001c14 0 27.332 -1.66699 39.999 -5s24.667 -6.83301 36 -10.5l32 -10.5c10 -3.33301 19 -5 27 -5
c13.333 0 23.333 3.83301 30 11.5s11.667 15.834 15 24.501h5c16.667 0 31.334 -5.16699 44.001 -15.5s19 -25.166 19 -44.499c0 -24 -8 -42.5 -24 -55.5s-36.667 -19.5 -62 -19.5c-15.333 0 -29.5 1.66699 -42.5 5s-25.167 7 -36.5 11l-31.5 11
c-9.66699 3.33301 -18.5 5 -26.5 5c-13.333 0 -23.333 -3.83301 -30 -11.5s-11.667 -16.167 -15 -25.5h-4c-17.333 0 -32.166 5.16699 -44.499 15.5s-18.5 25.166 -18.5 44.499c0 12.667 2.5 23.667 7.5 33s11.667 17.166 20 23.499s17.666 11 27.999 14
s20.833 4.5 31.5 4.5z" />
    <glyph glyph-name="Odieresis" unicode="&#xd6;" horiz-adv-x="696" 
d="M652 304c0 -52 -7.66895 -98 -23.002 -138s-36.5 -73.5 -63.5 -100.5s-59.167 -47.333 -96.5 -61s-77.666 -20.5 -120.999 -20.5s-83.666 6.83301 -120.999 20.5s-69.5 34 -96.5 61s-48.167 60.5 -63.5 100.5s-23 86 -23 138s7.83301 97.833 23.5 137.5
s37.167 73 64.5 100s59.5 47.333 96.5 61s76.833 20.5 119.5 20.5s82.5 -6.83301 119.5 -20.5s69.167 -34 96.5 -61s48.833 -60.333 64.5 -100s23.5 -85.5 23.5 -137.5zM518.998 304c0 69.333 -15.5 122.167 -46.5 158.5s-72.5 54.5 -124.5 54.5
c-51.333 0 -92.5 -18 -123.5 -54s-46.5 -89 -46.5 -159s15.333 -123 46 -159s72 -54 124 -54s93.5 18 124.5 54s46.5 89 46.5 159zM316.998 738.001c0 -18 -6.5 -33.333 -19.5 -46s-29.167 -19 -48.5 -19c-20 0 -36.167 6.33301 -48.5 19s-18.5 28 -18.5 46
c0 18.667 6.16699 34.334 18.5 47.001s28.5 19 48.5 19c19.333 0 35.5 -6.33301 48.5 -19s19.5 -28.334 19.5 -47.001zM510.998 738.001c0 -18 -6.33301 -33.333 -19 -46s-28.667 -19 -48 -19s-35.5 6.33301 -48.5 19s-19.5 28 -19.5 46c0 18.667 6.5 34.334 19.5 47.001
s29.167 19 48.5 19s35.333 -6.33301 48 -19s19 -28.334 19 -47.001z" />
    <glyph glyph-name="multiply" unicode="&#xd7;" horiz-adv-x="500" 
d="M326 287l131.001 -145.001c-5.33301 -16 -13.666 -29.333 -24.999 -40s-25.333 -16 -42 -16c-14.667 0 -28.334 7 -41.001 21l-99 115l-136 -142c-18 4 -33.833 11.833 -47.5 23.5s-20.5 24.5 -20.5 38.5c0 6.66699 2.16699 13.5 6.5 20.5s10.166 14.167 17.499 21.5
l106 109l-132 138c4 14.667 12 28.334 24 41.001s25.667 19 41 19c13.333 0 26 -6.66699 38 -20l107 -116l131 137c14.667 -4.66699 28 -12.667 40 -24s18 -24.666 18 -39.999c0 -12.667 -7.33301 -26.334 -22 -41.001z" />
    <glyph glyph-name="Oslash" unicode="&#xd8;" horiz-adv-x="696" 
d="M652 304c0 -52 -7.66797 -98.001 -23.001 -138.001s-36.5 -73.5 -63.5 -100.5s-59.167 -47.333 -96.5 -61s-77.666 -20.5 -120.999 -20.5c-36 0 -70 5 -102 15s-60.667 24.667 -86 44l-57 -60c-19.333 4.66699 -34.333 11.834 -45 21.501s-16 21.167 -16 34.5
c0 9.33301 2.66699 18.333 8 27s14 18.667 26 30l18 18c-16 25.333 -28.333 53.833 -37 85.5s-13 66.5 -13 104.5c0 52 7.83301 97.833 23.5 137.5s37.167 73 64.5 100s59.5 47.333 96.5 61s76.833 20.5 119.5 20.5c34 0 66.5 -4.83301 97.5 -14.5
s59.167 -23.834 84.5 -42.501l56 59c18 -4.66699 32.667 -11.834 44 -21.501s17 -20.5 17 -32.5c0 -9.33301 -3.16699 -18.666 -9.5 -27.999s-14.833 -19.333 -25.5 -30l-15 -16c17.333 -25.333 30.833 -54.166 40.5 -86.499s14.5 -67.833 14.5 -106.5zM521.999 303.999
c0 38 -5.66504 71.999 -16.998 101.999l-262 -280c28.667 -23.333 63.667 -35 105 -35c26 0 49.667 4.5 71 13.5s39.666 22.5 54.999 40.5s27.166 40.333 35.499 67s12.5 57.334 12.5 92.001zM175.001 303.998c0 -38 5 -71 15 -99l259 279c-28 22 -61.667 33 -101 33
c-51.333 0 -93 -18 -125 -54s-48 -89 -48 -159z" />
    <glyph glyph-name="Ugrave" unicode="&#xd9;" horiz-adv-x="657" 
d="M328 -16c-40 0 -75.666 5.5 -106.999 16.5s-57.833 26.667 -79.5 47s-38.167 44.666 -49.5 72.999s-17 60.166 -17 95.499v391c5.33301 1.33301 13.833 3 25.5 5s23.167 3 34.5 3c24 0 41.5 -4.33301 52.5 -13s16.5 -24.667 16.5 -48v-333c0 -42 11.667 -74.167 35 -96.5
s53 -33.5 89 -33.5s65.667 11.167 89 33.5s35 54.5 35 96.5v386c6 1.33301 14.667 3 26 5s22.666 3 33.999 3c24 0 41.667 -4.33301 53 -13s17 -24.667 17 -48v-338c0 -35.333 -5.66699 -67.166 -17 -95.499s-28 -52.666 -50 -72.999s-48.667 -36 -80 -47
s-67 -16.5 -107 -16.5zM176.001 753c-1.33301 6.66699 -1.99902 12.667 -1.99902 18c0 17.333 5.16699 31.333 15.5 42s23.166 16 38.499 16c19.333 0 38 -9.33301 56 -28l85 -93c-1.33301 -17.333 -7.16602 -30.333 -17.499 -39s-21.833 -13 -34.5 -13
c-10.667 0 -19.834 2 -27.501 6s-15.5 9 -23.5 15z" />
    <glyph glyph-name="Uacute" unicode="&#xda;" horiz-adv-x="657" 
d="M328 -16c-40 0 -75.666 5.5 -106.999 16.5s-57.833 26.667 -79.5 47s-38.167 44.666 -49.5 72.999s-17 60.166 -17 95.499v391c5.33301 1.33301 13.833 3 25.5 5s23.167 3 34.5 3c24 0 41.5 -4.33301 52.5 -13s16.5 -24.667 16.5 -48v-333c0 -42 11.667 -74.167 35 -96.5
s53 -33.5 89 -33.5s65.667 11.167 89 33.5s35 54.5 35 96.5v386c6 1.33301 14.667 3 26 5s22.666 3 33.999 3c24 0 41.667 -4.33301 53 -13s17 -24.667 17 -48v-338c0 -35.333 -5.66699 -67.166 -17 -95.499s-28 -52.666 -50 -72.999s-48.667 -36 -80 -47
s-67 -16.5 -107 -16.5zM403.001 833c21.333 0 38 -5.16992 50 -15.5029s18 -23.166 18 -38.499c0 -11.333 -2.5 -21.166 -7.5 -29.499s-14.5 -17.5 -28.5 -27.5l-93 -66c-19.333 0.666992 -34.333 5.33398 -45 14.001s-16 19 -16 31c0 7.33301 1.33301 14 4 20
s7.66699 12.333 15 19z" />
    <glyph glyph-name="Ucircumflex" unicode="&#xdb;" horiz-adv-x="657" 
d="M328 -16c-40 0 -75.666 5.5 -106.999 16.5s-57.833 26.667 -79.5 47s-38.167 44.666 -49.5 72.999s-17 60.166 -17 95.499v391c5.33301 1.33301 13.833 3 25.5 5s23.167 3 34.5 3c24 0 41.5 -4.33301 52.5 -13s16.5 -24.667 16.5 -48v-333c0 -42 11.667 -74.167 35 -96.5
s53 -33.5 89 -33.5s65.667 11.167 89 33.5s35 54.5 35 96.5v386c6 1.33301 14.667 3 26 5s22.666 3 33.999 3c24 0 41.667 -4.33301 53 -13s17 -24.667 17 -48v-338c0 -35.333 -5.66699 -67.166 -17 -95.499s-28 -52.666 -50 -72.999s-48.667 -36 -80 -47
s-67 -16.5 -107 -16.5zM333.001 742l-43.999 -43.001l-49 -45c-16 0.666992 -29.333 5.5 -40 14.5s-16 20.167 -16 33.5c0 11.333 3 20.833 9 28.5s15 17.167 27 28.5l44 40c26 21.333 49.667 32 71 32c14 0 26.333 -2.83301 37 -8.5s22 -14.167 34 -25.5l81 -87
c0 -17.333 -4.83301 -30.666 -14.5 -39.999s-22.167 -14 -37.5 -14c-10.667 0 -20.334 3.33301 -29.001 10s-19.667 17 -33 31z" />
    <glyph glyph-name="Udieresis" unicode="&#xdc;" horiz-adv-x="657" 
d="M328 -16c-40 0 -75.666 5.5 -106.999 16.5s-57.833 26.667 -79.5 47s-38.167 44.666 -49.5 72.999s-17 60.166 -17 95.499v391c5.33301 1.33301 13.833 3 25.5 5s23.167 3 34.5 3c24 0 41.5 -4.33301 52.5 -13s16.5 -24.667 16.5 -48v-333c0 -42 11.667 -74.167 35 -96.5
s53 -33.5 89 -33.5s65.667 11.167 89 33.5s35 54.5 35 96.5v386c6 1.33301 14.667 3 26 5s22.666 3 33.999 3c24 0 41.667 -4.33301 53 -13s17 -24.667 17 -48v-338c0 -35.333 -5.66699 -67.166 -17 -95.499s-28 -52.666 -50 -72.999s-48.667 -36 -80 -47
s-67 -16.5 -107 -16.5zM297.001 738c0 -18 -6.5 -33.333 -19.5 -46s-29.167 -19 -48.5 -19c-20 0 -36.167 6.33301 -48.5 19s-18.5 28 -18.5 46c0 18.667 6.16699 34.334 18.5 47.001s28.5 19 48.5 19c19.333 0 35.5 -6.33301 48.5 -19s19.5 -28.334 19.5 -47.001z
M491.001 738c0 -18 -6.33301 -33.333 -19 -46s-28.667 -19 -48 -19s-35.5 6.33301 -48.5 19s-19.5 28 -19.5 46c0 18.667 6.5 34.334 19.5 47.001s29.167 19 48.5 19s35.333 -6.33301 48 -19s19 -28.334 19 -47.001z" />
    <glyph glyph-name="Yacute" unicode="&#xdd;" horiz-adv-x="562" 
d="M543 557c0 -7.33301 -3.66504 -19.5 -10.998 -36.5s-18.666 -39.5 -33.999 -67.5s-35 -62 -59 -102l-87 -139v-211c-5.33301 -1.33301 -13.5 -3 -24.5 -5s-22.5 -3 -34.5 -3c-25.333 0 -43 4.66699 -53 14s-15 24.666 -15 45.999v158l-57 86l-59 95
c-19.333 32 -37.333 63.5 -54 94.5s-30.667 59.167 -42 84.5c5.33301 10 13.666 19.167 24.999 27.5s25.666 12.5 42.999 12.5c19.333 0 34.833 -4.33301 46.5 -13s23.167 -23.667 34.5 -45l25.5 -46.5l37 -68.5l37 -68l24.5 -44h5l36 70.5l33 66l31.5 66l32.5 69.5
c8 4.66699 17.167 8 27.5 10s20.166 3 29.499 3c18 0 32.833 -4.66699 44.5 -14s17.5 -22.666 17.5 -39.999zM348.002 833c21.333 0 38 -5.16992 50 -15.5029s18 -23.166 18 -38.499c0 -11.333 -2.5 -21.166 -7.5 -29.499s-14.5 -17.5 -28.5 -27.5l-93 -66
c-19.333 0.666992 -34.333 5.33398 -45 14.001s-16 19 -16 31c0 7.33301 1.33301 14 4 20s7.66699 12.333 15 19z" />
    <glyph glyph-name="Thorn" unicode="&#xde;" horiz-adv-x="576" 
d="M74 608c5.33301 1.33301 13.833 2.83398 25.5 4.50098s23.167 2.5 34.5 2.5c24 0 41.5 -4.33301 52.5 -13s16.5 -24.334 16.5 -47.001v-45h99c78.667 0 137.5 -18.333 176.5 -55s58.5 -86.334 58.5 -149.001c0 -61.333 -19.5 -110.666 -58.5 -147.999
s-97.833 -56 -176.5 -56h-99v-101c-5.33301 -1.33301 -13.5 -3 -24.5 -5s-22.5 -3 -34.5 -3c-25.333 0 -43.333 4.66699 -54 14s-16 25 -16 47v554zM203 206.001h80c38.667 0 68.834 8.16699 90.501 24.5s32.5 41.5 32.5 75.5s-10.833 59.167 -32.5 75.5
s-51.834 24.5 -90.501 24.5h-80v-200z" />
    <glyph glyph-name="germandbls" unicode="&#xdf;" horiz-adv-x="601" 
d="M193 0c-5.33301 -1.33301 -13.165 -2.99902 -23.498 -4.99902s-21.166 -3 -32.499 -3c-24 0 -41.667 4.5 -53 13.5s-17 24.167 -17 45.5v413c0 35.333 5.66699 66.166 17 92.499s27 48.333 47 66s43.5 30.834 70.5 39.501s56.167 13 87.5 13
c32.667 0 62.667 -4.83301 90 -14.5s51 -23.667 71 -42s35.5 -40.833 46.5 -67.5s16.5 -57 16.5 -91c0 -26.667 -11.667 -45.667 -35 -57l-39 -17c-25.333 -11.333 -38 -26.666 -38 -45.999c0 -10 3.16699 -18.667 9.5 -26s17.166 -15 32.499 -23
c40.667 -22 71.167 -44.333 91.5 -67s30.5 -53 30.5 -91c0 -24.667 -4.33301 -46.334 -13 -65.001s-20.834 -34.334 -36.501 -47.001s-34.334 -22.167 -56.001 -28.5s-45.167 -9.5 -70.5 -9.5c-39.333 0 -70.666 6.16699 -93.999 18.5s-35 29.166 -35 50.499
c0 24.667 10 42.667 30 54c10.667 -7.33301 22.667 -13.666 36 -18.999s28.666 -8 45.999 -8c19.333 0 34.833 5 46.5 15s17.5 22.667 17.5 38s-4.33301 28 -13 38s-24.667 21.333 -48 34c-34 18 -59.667 37.333 -77 58s-26 47.334 -26 80.001
c0 26.667 7.83301 49.667 23.5 69s37.834 34.666 66.501 45.999l25 10c0 30 -9 54.833 -27 74.5s-41.667 29.5 -71 29.5c-26.667 0 -49.334 -8.66699 -68.001 -26s-28 -44.333 -28 -81v-464v0z" />
    <glyph glyph-name="agrave" unicode="&#xe0;" horiz-adv-x="522" 
d="M250 81c19.333 0 37 1.83301 53 5.5s27.667 8.16699 35 13.5v111l-97 -9c-26.667 -2.66699 -47 -8.5 -61 -17.5s-21 -23.167 -21 -42.5s7.16699 -34.333 21.5 -45s37.5 -16 69.5 -16zM246 488c65.333 0 117.501 -14.002 156.501 -42.002s58.5 -71.333 58.5 -130v-231
c0 -16 -4 -28.667 -12 -38s-18 -17.666 -30 -24.999c-18.667 -11.333 -42.334 -20.333 -71.001 -27s-61.334 -10 -98.001 -10c-66.667 0 -119.167 12.833 -157.5 38.5s-57.5 64.167 -57.5 115.5c0 44.667 14.167 78.834 42.5 102.501s69.5 38.167 123.5 43.5l137 14v18
c0 25.333 -9.16699 44 -27.5 56s-44.166 18 -77.499 18c-26 0 -51.333 -3.16699 -76 -9.5s-46.667 -14.166 -66 -23.499c-7.33301 5.33301 -13.5 12.5 -18.5 21.5s-7.5 18.833 -7.5 29.5c0 13.333 3.16699 24.166 9.5 32.499s16.5 15.833 30.5 22.5
c19.333 8 41.333 14 66 18s49.667 6 75 6zM116.001 639.998c-1.33301 6.66699 -2.00195 12.668 -2.00195 18.001c0 18 5.33301 32.167 16 42.5s24 15.5 40 15.5c21.333 0 39.666 -9 54.999 -27l89 -112c-1.33301 -17.333 -7.16602 -30.5 -17.499 -39.5
s-21.833 -13.5 -34.5 -13.5c-11.333 0 -20.666 1.66699 -27.999 5s-14.666 8.66602 -21.999 15.999z" />
    <glyph glyph-name="aacute" unicode="&#xe1;" horiz-adv-x="522" 
d="M250 81c19.333 0 37 1.83301 53 5.5s27.667 8.16699 35 13.5v111l-97 -9c-26.667 -2.66699 -47 -8.5 -61 -17.5s-21 -23.167 -21 -42.5s7.16699 -34.333 21.5 -45s37.5 -16 69.5 -16zM246 488c65.333 0 117.501 -14.002 156.501 -42.002s58.5 -71.333 58.5 -130v-231
c0 -16 -4 -28.667 -12 -38s-18 -17.666 -30 -24.999c-18.667 -11.333 -42.334 -20.333 -71.001 -27s-61.334 -10 -98.001 -10c-66.667 0 -119.167 12.833 -157.5 38.5s-57.5 64.167 -57.5 115.5c0 44.667 14.167 78.834 42.5 102.501s69.5 38.167 123.5 43.5l137 14v18
c0 25.333 -9.16699 44 -27.5 56s-44.166 18 -77.499 18c-26 0 -51.333 -3.16699 -76 -9.5s-46.667 -14.166 -66 -23.499c-7.33301 5.33301 -13.5 12.5 -18.5 21.5s-7.5 18.833 -7.5 29.5c0 13.333 3.16699 24.166 9.5 32.499s16.5 15.833 30.5 22.5
c19.333 8 41.333 14 66 18s49.667 6 75 6zM318.001 719.998c24.667 0 43.667 -5.66504 57 -16.998s20 -24 20 -38c0 -12.667 -2.66699 -22.834 -8 -30.501s-14.333 -17.167 -27 -28.5l-93 -84c-21.333 0 -37.833 5.33301 -49.5 16s-17.5 22.334 -17.5 35.001
c0 7.33301 1.5 13.666 4.5 18.999s7.83301 11.666 14.5 18.999z" />
    <glyph glyph-name="acircumflex" unicode="&#xe2;" horiz-adv-x="522" 
d="M250 81c19.333 0 37 1.83301 53 5.5s27.667 8.16699 35 13.5v111l-97 -9c-26.667 -2.66699 -47 -8.5 -61 -17.5s-21 -23.167 -21 -42.5s7.16699 -34.333 21.5 -45s37.5 -16 69.5 -16zM246 488c65.333 0 117.501 -14.002 156.501 -42.002s58.5 -71.333 58.5 -130v-231
c0 -16 -4 -28.667 -12 -38s-18 -17.666 -30 -24.999c-18.667 -11.333 -42.334 -20.333 -71.001 -27s-61.334 -10 -98.001 -10c-66.667 0 -119.167 12.833 -157.5 38.5s-57.5 64.167 -57.5 115.5c0 44.667 14.167 78.834 42.5 102.501s69.5 38.167 123.5 43.5l137 14v18
c0 25.333 -9.16699 44 -27.5 56s-44.166 18 -77.499 18c-26 0 -51.333 -3.16699 -76 -9.5s-46.667 -14.166 -66 -23.499c-7.33301 5.33301 -13.5 12.5 -18.5 21.5s-7.5 18.833 -7.5 29.5c0 13.333 3.16699 24.166 9.5 32.499s16.5 15.833 30.5 22.5
c19.333 8 41.333 14 66 18s49.667 6 75 6zM256.001 621.998l-44.0029 -49.498c-12.667 -13.667 -26 -28.834 -40 -45.501c-19.333 0.666992 -34.833 5.5 -46.5 14.5s-17.5 20.5 -17.5 34.5c0 10.667 2.83301 19.667 8.5 27s13.834 16.666 24.501 27.999l47 50
c10.667 10 21.334 17.833 32.001 23.5s23.334 8.5 38.001 8.5c14 0 26.5 -2.5 37.5 -7.5s23.167 -15.5 36.5 -31.5l77 -94c0 -14 -4 -26 -12 -36s-20.333 -15 -37 -15c-11.333 0 -20.833 2.83301 -28.5 8.5s-15.167 13.167 -22.5 22.5z" />
    <glyph glyph-name="atilde" unicode="&#xe3;" horiz-adv-x="522" 
d="M250 81c19.333 0 37 1.83301 53 5.5s27.667 8.16699 35 13.5v111l-97 -9c-26.667 -2.66699 -47 -8.5 -61 -17.5s-21 -23.167 -21 -42.5s7.16699 -34.333 21.5 -45s37.5 -16 69.5 -16zM246 488c65.333 0 117.501 -14.002 156.501 -42.002s58.5 -71.333 58.5 -130v-231
c0 -16 -4 -28.667 -12 -38s-18 -17.666 -30 -24.999c-18.667 -11.333 -42.334 -20.333 -71.001 -27s-61.334 -10 -98.001 -10c-66.667 0 -119.167 12.833 -157.5 38.5s-57.5 64.167 -57.5 115.5c0 44.667 14.167 78.834 42.5 102.501s69.5 38.167 123.5 43.5l137 14v18
c0 25.333 -9.16699 44 -27.5 56s-44.166 18 -77.499 18c-26 0 -51.333 -3.16699 -76 -9.5s-46.667 -14.166 -66 -23.499c-7.33301 5.33301 -13.5 12.5 -18.5 21.5s-7.5 18.833 -7.5 29.5c0 13.333 3.16699 24.166 9.5 32.499s16.5 15.833 30.5 22.5
c19.333 8 41.333 14 66 18s49.667 6 75 6zM175.001 683.998c14 0 27.332 -1.66699 39.999 -5s24.667 -6.83301 36 -10.5l32 -10.5c10 -3.33301 19 -5 27 -5c13.333 0 23.333 3.83301 30 11.5s11.667 15.834 15 24.501h5c16.667 0 31.334 -5.16699 44.001 -15.5
s19 -25.166 19 -44.499c0 -24 -8 -42.5 -24 -55.5s-36.667 -19.5 -62 -19.5c-15.333 0 -29.5 1.66699 -42.5 5s-25.167 7 -36.5 11l-31.5 11c-9.66699 3.33301 -18.5 5 -26.5 5c-13.333 0 -23.333 -3.83301 -30 -11.5s-11.667 -16.167 -15 -25.5h-4
c-17.333 0 -32.166 5.16699 -44.499 15.5s-18.5 25.166 -18.5 44.499c0 12.667 2.5 23.667 7.5 33s11.667 17.166 20 23.499s17.666 11 27.999 14s20.833 4.5 31.5 4.5z" />
    <glyph glyph-name="adieresis" unicode="&#xe4;" horiz-adv-x="522" 
d="M250 81c19.333 0 37 1.83301 53 5.5s27.667 8.16699 35 13.5v111l-97 -9c-26.667 -2.66699 -47 -8.5 -61 -17.5s-21 -23.167 -21 -42.5s7.16699 -34.333 21.5 -45s37.5 -16 69.5 -16zM246 488c65.333 0 117.501 -14.002 156.501 -42.002s58.5 -71.333 58.5 -130v-231
c0 -16 -4 -28.667 -12 -38s-18 -17.666 -30 -24.999c-18.667 -11.333 -42.334 -20.333 -71.001 -27s-61.334 -10 -98.001 -10c-66.667 0 -119.167 12.833 -157.5 38.5s-57.5 64.167 -57.5 115.5c0 44.667 14.167 78.834 42.5 102.501s69.5 38.167 123.5 43.5l137 14v18
c0 25.333 -9.16699 44 -27.5 56s-44.166 18 -77.499 18c-26 0 -51.333 -3.16699 -76 -9.5s-46.667 -14.166 -66 -23.499c-7.33301 5.33301 -13.5 12.5 -18.5 21.5s-7.5 18.833 -7.5 29.5c0 13.333 3.16699 24.166 9.5 32.499s16.5 15.833 30.5 22.5
c19.333 8 41.333 14 66 18s49.667 6 75 6zM232.001 615.998c0 -18 -6.5 -33.333 -19.5 -46s-29.167 -19 -48.5 -19c-20 0 -36.167 6.33301 -48.5 19s-18.5 28 -18.5 46c0 18.667 6.16699 34.334 18.5 47.001s28.5 19 48.5 19c19.333 0 35.5 -6.33301 48.5 -19
s19.5 -28.334 19.5 -47.001zM426.001 615.998c0 -18 -6.33301 -33.333 -19 -46s-28.667 -19 -48 -19s-35.5 6.33301 -48.5 19s-19.5 28 -19.5 46c0 18.667 6.5 34.334 19.5 47.001s29.167 19 48.5 19s35.333 -6.33301 48 -19s19 -28.334 19 -47.001z" />
    <glyph glyph-name="aring" unicode="&#xe5;" horiz-adv-x="522" 
d="M250 81c19.333 0 37 1.83301 53 5.5s27.667 8.16699 35 13.5v111l-97 -9c-26.667 -2.66699 -47 -8.5 -61 -17.5s-21 -23.167 -21 -42.5s7.16699 -34.333 21.5 -45s37.5 -16 69.5 -16zM246 488c65.333 0 117.501 -14.002 156.501 -42.002s58.5 -71.333 58.5 -130v-231
c0 -16 -4 -28.667 -12 -38s-18 -17.666 -30 -24.999c-18.667 -11.333 -42.334 -20.333 -71.001 -27s-61.334 -10 -98.001 -10c-66.667 0 -119.167 12.833 -157.5 38.5s-57.5 64.167 -57.5 115.5c0 44.667 14.167 78.834 42.5 102.501s69.5 38.167 123.5 43.5l137 14v18
c0 25.333 -9.16699 44 -27.5 56s-44.166 18 -77.499 18c-26 0 -51.333 -3.16699 -76 -9.5s-46.667 -14.166 -66 -23.499c-7.33301 5.33301 -13.5 12.5 -18.5 21.5s-7.5 18.833 -7.5 29.5c0 13.333 3.16699 24.166 9.5 32.499s16.5 15.833 30.5 22.5
c19.333 8 41.333 14 66 18s49.667 6 75 6zM142.001 626.998c0 28.667 10.333 53 31 73s49.667 30 87 30c38 0 67.667 -10 89 -30s32 -44.333 32 -73s-10.667 -52.834 -32 -72.501s-51 -29.5 -89 -29.5c-37.333 0 -66.333 9.83301 -87 29.5s-31 43.834 -31 72.501z
M222.001 626.998c0 -12.667 3.66699 -22.5 11 -29.5s16.666 -10.5 27.999 -10.5s20.833 3.5 28.5 10.5s11.5 16.833 11.5 29.5s-3.83301 22.5 -11.5 29.5s-17.167 10.5 -28.5 10.5s-20.666 -3.5 -27.999 -10.5s-11 -16.833 -11 -29.5z" />
    <glyph glyph-name="ae" unicode="&#xe6;" horiz-adv-x="821" 
d="M246 488c75.333 0 128.666 -21.3369 159.999 -64.0039c20 21.333 43.5 37.333 70.5 48s56.167 16 87.5 16c32.667 0 62.667 -5.16699 90 -15.5s50.666 -24.666 69.999 -42.999s34.5 -40.333 45.5 -66s16.5 -53.5 16.5 -83.5c0 -18.667 -5 -32.667 -15 -42
s-23.667 -15.333 -41 -18l-278 -40c9.33301 -34 26.833 -58.667 52.5 -74s56.834 -23 93.501 -23c28 0 54 4.16699 78 12.5s43.333 17.166 58 26.499c9.33301 -5.33301 16.833 -12.666 22.5 -21.999s8.5 -19.333 8.5 -30c0 -13.333 -4.5 -25.166 -13.5 -35.499
s-21.167 -19.166 -36.5 -26.499s-33.833 -13 -55.5 -17s-44.834 -6 -69.501 -6c-35.333 0 -66.833 4.83301 -94.5 14.5s-51.5 23.167 -71.5 40.5c-7.33301 -9.33301 -15.666 -16.333 -24.999 -21c-18 -10 -38.5 -18.167 -61.5 -24.5s-52.5 -9.5 -88.5 -9.5
c-66.667 0 -119 12.833 -157 38.5s-57 64.167 -57 115.5c0 44.667 14.167 78.834 42.5 102.501s69.5 38.167 123.5 43.5l137 14v18c0 25.333 -9.16699 44 -27.5 56s-44.166 18 -77.499 18c-26 0 -51.333 -3.16699 -76 -9.5s-46.667 -14.166 -66 -23.499
c-7.33301 5.33301 -13.5 12.5 -18.5 21.5s-7.5 18.833 -7.5 29.5c0 13.333 3.16699 24.166 9.5 32.499s16.5 15.833 30.5 22.5c19.333 8 41.333 14 66 18s49.667 6 75 6zM250 80.9961c19.333 0 37 1.83301 53 5.5s27.667 8.16699 35 13.5v111l-97 -9
c-26.667 -2.66699 -47 -8.5 -61 -17.5s-21 -23.167 -21 -42.5s7.16699 -34.333 21.5 -45s37.5 -16 69.5 -16zM564 392.996c-33.333 0 -60.8301 -10.833 -82.4971 -32.5s-33.834 -52.5 -36.501 -92.5l222 33c-2.66699 24.667 -12.334 46.167 -29.001 64.5
s-41.334 27.5 -74.001 27.5z" />
    <glyph glyph-name="ccedilla" unicode="&#xe7;" horiz-adv-x="484" 
d="M308 387c-20 0 -38.502 -3.32422 -55.502 -9.99121s-31.667 -16.334 -44 -29.001s-22.166 -28.334 -29.499 -47.001s-11 -40.334 -11 -65.001c0 -49.333 13 -86.5 39 -111.5s59.667 -37.5 101 -37.5c23.333 0 43.5 3.16699 60.5 9.5s32.167 13.166 45.5 20.499
c9.33301 -6.66699 16.833 -14.334 22.5 -23.001s8.5 -18.667 8.5 -30c0 -18 -8.83301 -33.5 -26.5 -46.5s-41.834 -22.167 -72.501 -27.5c7.33301 -10.667 12.666 -22.334 15.999 -35.001s5 -25.667 5 -39c0 -34 -10.333 -61.167 -31 -81.5s-48.667 -30.5 -84 -30.5
c-22.667 0 -40.5 5 -53.5 15s-19.5 24.333 -19.5 43c0 8.66699 1.66699 18 5 28h13c22 0 38 5 48 15s15 23 15 39c0 6.66699 -1 14 -3 22s-5.33301 16 -10 24c-62.667 8 -112.834 32.5 -150.501 73.5s-56.5 98.5 -56.5 172.5c0 42 6.66699 78.833 20 110.5s31.5 58 54.5 79
s49.833 36.667 80.5 47s63.334 15.5 98.001 15.5c44.667 0 80.334 -7.83301 107.001 -23.5s40 -34.834 40 -57.501c0 -10.667 -2.83301 -20.334 -8.5 -29.001s-12.167 -15.667 -19.5 -21c-13.333 7.33301 -28.166 14.166 -44.499 20.499s-36.166 9.5 -59.499 9.5z" />
    <glyph glyph-name="egrave" unicode="&#xe8;" horiz-adv-x="534" 
d="M166 180c9.33301 -34 26.665 -58.6719 51.998 -74.0049s56.666 -23 93.999 -23c28 0 53.833 4.16699 77.5 12.5s42.834 17.166 57.501 26.499c9.33301 -5.33301 17 -12.666 23 -21.999s9 -19.333 9 -30c0 -13.333 -4.5 -25.166 -13.5 -35.499
s-21.333 -19.166 -37 -26.499s-34.167 -13 -55.5 -17s-44.333 -6 -69 -6c-39.333 0 -75.166 5.33301 -107.499 16s-60 26.834 -83 48.501s-41 48.5 -54 80.5s-19.5 69.333 -19.5 112c0 41.333 6.33301 77.333 19 108s29.834 56.334 51.501 77.001s46.834 36 75.501 46
s59 15 91 15c32.667 0 62.667 -5.16699 90 -15.5s50.666 -24.666 69.999 -42.999s34.5 -40.333 45.5 -66s16.5 -53.5 16.5 -83.5c0 -18.667 -4.83301 -32.667 -14.5 -42s-23.167 -15.333 -40.5 -18zM276.999 392.995c-32.667 0 -59.998 -10.833 -81.998 -32.5
s-34.333 -52.5 -37 -92.5l222 33c-2.66699 24.667 -12.334 46.167 -29.001 64.5s-41.334 27.5 -74.001 27.5zM128.001 639.995c-1.33301 6.66699 -2.00195 12.668 -2.00195 18.001c0 18 5.33301 32.167 16 42.5s24 15.5 40 15.5c21.333 0 39.666 -9 54.999 -27l89 -112
c-1.33301 -17.333 -7.16602 -30.5 -17.499 -39.5s-21.833 -13.5 -34.5 -13.5c-11.333 0 -20.666 1.66699 -27.999 5s-14.666 8.66602 -21.999 15.999z" />
    <glyph glyph-name="eacute" unicode="&#xe9;" horiz-adv-x="534" 
d="M166 180c9.33301 -34 26.665 -58.6719 51.998 -74.0049s56.666 -23 93.999 -23c28 0 53.833 4.16699 77.5 12.5s42.834 17.166 57.501 26.499c9.33301 -5.33301 17 -12.666 23 -21.999s9 -19.333 9 -30c0 -13.333 -4.5 -25.166 -13.5 -35.499
s-21.333 -19.166 -37 -26.499s-34.167 -13 -55.5 -17s-44.333 -6 -69 -6c-39.333 0 -75.166 5.33301 -107.499 16s-60 26.834 -83 48.501s-41 48.5 -54 80.5s-19.5 69.333 -19.5 112c0 41.333 6.33301 77.333 19 108s29.834 56.334 51.501 77.001s46.834 36 75.501 46
s59 15 91 15c32.667 0 62.667 -5.16699 90 -15.5s50.666 -24.666 69.999 -42.999s34.5 -40.333 45.5 -66s16.5 -53.5 16.5 -83.5c0 -18.667 -4.83301 -32.667 -14.5 -42s-23.167 -15.333 -40.5 -18zM276.999 392.995c-32.667 0 -59.998 -10.833 -81.998 -32.5
s-34.333 -52.5 -37 -92.5l222 33c-2.66699 24.667 -12.334 46.167 -29.001 64.5s-41.334 27.5 -74.001 27.5zM343.001 719.995c24.667 0 43.667 -5.66504 57 -16.998s20 -24 20 -38c0 -12.667 -2.66699 -22.834 -8 -30.501s-14.333 -17.167 -27 -28.5l-93 -84
c-21.333 0 -37.833 5.33301 -49.5 16s-17.5 22.334 -17.5 35.001c0 7.33301 1.5 13.666 4.5 18.999s7.83301 11.666 14.5 18.999z" />
    <glyph glyph-name="ecircumflex" unicode="&#xea;" horiz-adv-x="534" 
d="M166 180c9.33301 -34 26.665 -58.6719 51.998 -74.0049s56.666 -23 93.999 -23c28 0 53.833 4.16699 77.5 12.5s42.834 17.166 57.501 26.499c9.33301 -5.33301 17 -12.666 23 -21.999s9 -19.333 9 -30c0 -13.333 -4.5 -25.166 -13.5 -35.499
s-21.333 -19.166 -37 -26.499s-34.167 -13 -55.5 -17s-44.333 -6 -69 -6c-39.333 0 -75.166 5.33301 -107.499 16s-60 26.834 -83 48.501s-41 48.5 -54 80.5s-19.5 69.333 -19.5 112c0 41.333 6.33301 77.333 19 108s29.834 56.334 51.501 77.001s46.834 36 75.501 46
s59 15 91 15c32.667 0 62.667 -5.16699 90 -15.5s50.666 -24.666 69.999 -42.999s34.5 -40.333 45.5 -66s16.5 -53.5 16.5 -83.5c0 -18.667 -4.83301 -32.667 -14.5 -42s-23.167 -15.333 -40.5 -18zM276.999 392.995c-32.667 0 -59.998 -10.833 -81.998 -32.5
s-34.333 -52.5 -37 -92.5l222 33c-2.66699 24.667 -12.334 46.167 -29.001 64.5s-41.334 27.5 -74.001 27.5zM277.001 621.995l-44.0029 -49.498c-12.667 -13.667 -26 -28.834 -40 -45.501c-19.333 0.666992 -34.833 5.5 -46.5 14.5s-17.5 20.5 -17.5 34.5
c0 10.667 2.83301 19.667 8.5 27s13.834 16.666 24.501 27.999l47 50c10.667 10 21.334 17.833 32.001 23.5s23.334 8.5 38.001 8.5c14 0 26.5 -2.5 37.5 -7.5s23.167 -15.5 36.5 -31.5l77 -94c0 -14 -4 -26 -12 -36s-20.333 -15 -37 -15
c-11.333 0 -20.833 2.83301 -28.5 8.5s-15.167 13.167 -22.5 22.5z" />
    <glyph glyph-name="edieresis" unicode="&#xeb;" horiz-adv-x="534" 
d="M166 180c9.33301 -34 26.665 -58.6719 51.998 -74.0049s56.666 -23 93.999 -23c28 0 53.833 4.16699 77.5 12.5s42.834 17.166 57.501 26.499c9.33301 -5.33301 17 -12.666 23 -21.999s9 -19.333 9 -30c0 -13.333 -4.5 -25.166 -13.5 -35.499
s-21.333 -19.166 -37 -26.499s-34.167 -13 -55.5 -17s-44.333 -6 -69 -6c-39.333 0 -75.166 5.33301 -107.499 16s-60 26.834 -83 48.501s-41 48.5 -54 80.5s-19.5 69.333 -19.5 112c0 41.333 6.33301 77.333 19 108s29.834 56.334 51.501 77.001s46.834 36 75.501 46
s59 15 91 15c32.667 0 62.667 -5.16699 90 -15.5s50.666 -24.666 69.999 -42.999s34.5 -40.333 45.5 -66s16.5 -53.5 16.5 -83.5c0 -18.667 -4.83301 -32.667 -14.5 -42s-23.167 -15.333 -40.5 -18zM276.999 392.995c-32.667 0 -59.998 -10.833 -81.998 -32.5
s-34.333 -52.5 -37 -92.5l222 33c-2.66699 24.667 -12.334 46.167 -29.001 64.5s-41.334 27.5 -74.001 27.5zM241.001 615.995c0 -18 -6.5 -33.333 -19.5 -46s-29.167 -19 -48.5 -19c-20 0 -36.167 6.33301 -48.5 19s-18.5 28 -18.5 46c0 18.667 6.16699 34.334 18.5 47.001
s28.5 19 48.5 19c19.333 0 35.5 -6.33301 48.5 -19s19.5 -28.334 19.5 -47.001zM435.001 615.995c0 -18 -6.33301 -33.333 -19 -46s-28.667 -19 -48 -19s-35.5 6.33301 -48.5 19s-19.5 28 -19.5 46c0 18.667 6.5 34.334 19.5 47.001s29.167 19 48.5 19
s35.333 -6.33301 48 -19s19 -28.334 19 -47.001z" />
    <glyph glyph-name="igrave" unicode="&#xec;" horiz-adv-x="262" 
d="M138 -8c-24 0 -41.667 4.5 -53 13.5s-17 24.167 -17 45.5v418c5.33301 1.33301 13 3 23 5s21 3 33 3c24 0 41.667 -4.5 53 -13.5s17 -24.167 17 -45.5v-418c-5.33301 -1.33301 -13 -3 -23 -5s-21 -3 -33 -3zM-16 640c-1.33301 6.66699 -2.00195 12.668 -2.00195 18.001
c0 18 5.33301 32.167 16 42.5s24 15.5 40 15.5c21.333 0 39.666 -9 54.999 -27l89 -112c-1.33301 -17.333 -7.16602 -30.5 -17.499 -39.5s-21.833 -13.5 -34.5 -13.5c-11.333 0 -20.666 1.66699 -27.999 5s-14.666 8.66602 -21.999 15.999z" />
    <glyph glyph-name="iacute" unicode="&#xed;" horiz-adv-x="262" 
d="M138 -8c-24 0 -41.667 4.5 -53 13.5s-17 24.167 -17 45.5v418c5.33301 1.33301 13 3 23 5s21 3 33 3c24 0 41.667 -4.5 53 -13.5s17 -24.167 17 -45.5v-418c-5.33301 -1.33301 -13 -3 -23 -5s-21 -3 -33 -3zM198 720c24.667 0 43.667 -5.66504 57 -16.998s20 -24 20 -38
c0 -12.667 -2.66699 -22.834 -8 -30.501s-14.333 -17.167 -27 -28.5l-93 -84c-21.333 0 -37.833 5.33301 -49.5 16s-17.5 22.334 -17.5 35.001c0 7.33301 1.5 13.666 4.5 18.999s7.83301 11.666 14.5 18.999z" />
    <glyph glyph-name="icircumflex" unicode="&#xee;" horiz-adv-x="262" 
d="M138 -8c-24 0 -41.667 4.5 -53 13.5s-17 24.167 -17 45.5v418c5.33301 1.33301 13 3 23 5s21 3 33 3c24 0 41.667 -4.5 53 -13.5s17 -24.167 17 -45.5v-418c-5.33301 -1.33301 -13 -3 -23 -5s-21 -3 -33 -3zM131 622l-44.0029 -49.498
c-12.667 -13.667 -26 -28.834 -40 -45.501c-19.333 0.666992 -34.833 5.5 -46.5 14.5s-17.5 20.5 -17.5 34.5c0 10.667 2.83301 19.667 8.5 27s13.834 16.666 24.501 27.999l47 50c10.667 10 21.334 17.833 32.001 23.5s23.334 8.5 38.001 8.5c14 0 26.5 -2.5 37.5 -7.5
s23.167 -15.5 36.5 -31.5l77 -94c0 -14 -4 -26 -12 -36s-20.333 -15 -37 -15c-11.333 0 -20.833 2.83301 -28.5 8.5s-15.167 13.167 -22.5 22.5z" />
    <glyph glyph-name="idieresis" unicode="&#xef;" horiz-adv-x="262" 
d="M138 -8c-24 0 -41.667 4.5 -53 13.5s-17 24.167 -17 45.5v418c5.33301 1.33301 13 3 23 5s21 3 33 3c24 0 41.667 -4.5 53 -13.5s17 -24.167 17 -45.5v-418c-5.33301 -1.33301 -13 -3 -23 -5s-21 -3 -33 -3zM101 616c0 -18 -6.5 -33.333 -19.5 -46s-29.167 -19 -48.5 -19
c-20 0 -36.167 6.33301 -48.5 19s-18.5 28 -18.5 46c0 18.667 6.16699 34.334 18.5 47.001s28.5 19 48.5 19c19.333 0 35.5 -6.33301 48.5 -19s19.5 -28.334 19.5 -47.001zM295 616c0 -18 -6.33301 -33.333 -19 -46s-28.667 -19 -48 -19s-35.5 6.33301 -48.5 19
s-19.5 28 -19.5 46c0 18.667 6.5 34.334 19.5 47.001s29.167 19 48.5 19s35.333 -6.33301 48 -19s19 -28.334 19 -47.001z" />
    <glyph glyph-name="eth" unicode="&#xf0;" horiz-adv-x="562" 
d="M403 561c33.333 -40 61.3311 -86.668 83.998 -140.001s34 -110.333 34 -171c0 -40.667 -5 -77.334 -15 -110.001s-24.833 -60.5 -44.5 -83.5s-44.5 -40.667 -74.5 -53s-65 -18.5 -105 -18.5c-37.333 0 -70.833 5.5 -100.5 16.5s-55 26.667 -76 47s-37.167 45 -48.5 74
s-17 61.5 -17 97.5c0 38.667 6.33301 72.167 19 100.5s29.334 51.833 50.001 70.5s44.334 32.667 71.001 42s54 14 82 14c19.333 0 37 -2 53 -6s30.667 -9.66699 44 -17c-9.33301 17.333 -19.333 33.833 -30 49.5s-23.334 30.5 -38.001 44.5l-133 -49
c-8.66699 5.33301 -16 12.833 -22 22.5s-9 20.167 -9 31.5c0 18 9.66699 30.667 29 38l53 21c-13.333 7.33301 -27.333 13.5 -42 18.5l-45 15.5c1.33301 22 7.66602 39.167 18.999 51.5s26 18.5 44 18.5c22.667 0 46.334 -5.16699 71.001 -15.5
s49.334 -24.166 74.001 -41.499l105 43c8 -5.33301 15.333 -13 22 -23s10 -20.667 10 -32c0 -12 -2.83301 -21.167 -8.5 -27.5s-13.167 -11.166 -22.5 -14.499zM391.998 223.999c0 29.333 -2.33301 55.332 -7 77.999c-12 15.333 -26.667 27 -44 35s-35.666 12 -54.999 12
c-38.667 0 -67.834 -11.667 -87.501 -35s-29.5 -54.666 -29.5 -93.999c0 -41.333 10 -74 30 -98s48 -36 84 -36c36.667 0 64 12.5 82 37.5s27 58.5 27 100.5z" />
    <glyph glyph-name="ntilde" unicode="&#xf1;" horiz-adv-x="572" 
d="M382 305c0 28.667 -8.1709 49.667 -24.5039 63s-38.5 20 -66.5 20c-19.333 0 -37.166 -2.33301 -53.499 -7s-30.5 -10.667 -42.5 -18v-362c-6 -1.33301 -14 -3 -24 -5s-21.333 -3 -34 -3c-23.333 0 -40.666 4.33301 -51.999 13s-17 24 -17 46v321c0 16 3.33301 29 10 39
s17 19.667 31 29c19.333 13.333 45 24.5 77 33.5s67.333 13.5 106 13.5c68.667 0 121.834 -15.167 159.501 -45.5s56.5 -74.833 56.5 -133.5v-308c-5.33301 -1.33301 -13.166 -3 -23.499 -5s-21.5 -3 -33.5 -3c-24 0 -41.5 4.33301 -52.5 13s-16.5 24 -16.5 46v253z
M203.996 684c14 0 27.332 -1.66699 39.999 -5s24.667 -6.83301 36 -10.5l32 -10.5c10 -3.33301 19 -5 27 -5c13.333 0 23.333 3.83301 30 11.5s11.667 15.834 15 24.501h5c16.667 0 31.334 -5.16699 44.001 -15.5s19 -25.166 19 -44.499c0 -24 -8 -42.5 -24 -55.5
s-36.667 -19.5 -62 -19.5c-15.333 0 -29.5 1.66699 -42.5 5s-25.167 7 -36.5 11l-31.5 11c-9.66699 3.33301 -18.5 5 -26.5 5c-13.333 0 -23.333 -3.83301 -30 -11.5s-11.667 -16.167 -15 -25.5h-4c-17.333 0 -32.166 5.16699 -44.499 15.5s-18.5 25.166 -18.5 44.499
c0 12.667 2.5 23.667 7.5 33s11.667 17.166 20 23.499s17.666 11 27.999 14s20.833 4.5 31.5 4.5z" />
    <glyph glyph-name="ograve" unicode="&#xf2;" 
d="M530 237c0 -38.667 -5.83496 -73.502 -17.502 -104.502s-28.167 -57.5 -49.5 -79.5s-47 -38.833 -77 -50.5s-63.667 -17.5 -101 -17.5s-71 5.83301 -101 17.5s-55.667 28.334 -77 50.001s-37.833 48 -49.5 79s-17.5 66.167 -17.5 105.5c0 38.667 5.83301 73.5 17.5 104.5
s28.334 57.333 50.001 79s47.5 38.334 77.5 50.001s63.333 17.5 100 17.5s70 -5.83301 100 -17.5s55.833 -28.5 77.5 -50.5s38.334 -48.5 50.001 -79.5s17.5 -65.5 17.5 -103.5zM284.998 387.998c-36 0 -64.333 -13.167 -85 -39.5s-31 -63.5 -31 -111.5
c0 -48.667 10.167 -86 30.5 -112s48.833 -39 85.5 -39s65.167 13.167 85.5 39.5s30.5 63.5 30.5 111.5s-10.333 85.167 -31 111.5s-49 39.5 -85 39.5zM154.998 639.998c-1.33301 6.66699 -2.00195 12.668 -2.00195 18.001c0 18 5.33301 32.167 16 42.5s24 15.5 40 15.5
c21.333 0 39.666 -9 54.999 -27l89 -112c-1.33301 -17.333 -7.16602 -30.5 -17.499 -39.5s-21.833 -13.5 -34.5 -13.5c-11.333 0 -20.666 1.66699 -27.999 5s-14.666 8.66602 -21.999 15.999z" />
    <glyph glyph-name="oacute" unicode="&#xf3;" 
d="M530 237c0 -38.667 -5.83496 -73.502 -17.502 -104.502s-28.167 -57.5 -49.5 -79.5s-47 -38.833 -77 -50.5s-63.667 -17.5 -101 -17.5s-71 5.83301 -101 17.5s-55.667 28.334 -77 50.001s-37.833 48 -49.5 79s-17.5 66.167 -17.5 105.5c0 38.667 5.83301 73.5 17.5 104.5
s28.334 57.333 50.001 79s47.5 38.334 77.5 50.001s63.333 17.5 100 17.5s70 -5.83301 100 -17.5s55.833 -28.5 77.5 -50.5s38.334 -48.5 50.001 -79.5s17.5 -65.5 17.5 -103.5zM284.998 387.998c-36 0 -64.333 -13.167 -85 -39.5s-31 -63.5 -31 -111.5
c0 -48.667 10.167 -86 30.5 -112s48.833 -39 85.5 -39s65.167 13.167 85.5 39.5s30.5 63.5 30.5 111.5s-10.333 85.167 -31 111.5s-49 39.5 -85 39.5zM342.998 719.998c24.667 0 43.667 -5.66504 57 -16.998s20 -24 20 -38c0 -12.667 -2.66699 -22.834 -8 -30.501
s-14.333 -17.167 -27 -28.5l-93 -84c-21.333 0 -37.833 5.33301 -49.5 16s-17.5 22.334 -17.5 35.001c0 7.33301 1.5 13.666 4.5 18.999s7.83301 11.666 14.5 18.999z" />
    <glyph glyph-name="ocircumflex" unicode="&#xf4;" 
d="M530 237c0 -38.667 -5.83496 -73.502 -17.502 -104.502s-28.167 -57.5 -49.5 -79.5s-47 -38.833 -77 -50.5s-63.667 -17.5 -101 -17.5s-71 5.83301 -101 17.5s-55.667 28.334 -77 50.001s-37.833 48 -49.5 79s-17.5 66.167 -17.5 105.5c0 38.667 5.83301 73.5 17.5 104.5
s28.334 57.333 50.001 79s47.5 38.334 77.5 50.001s63.333 17.5 100 17.5s70 -5.83301 100 -17.5s55.833 -28.5 77.5 -50.5s38.334 -48.5 50.001 -79.5s17.5 -65.5 17.5 -103.5zM284.998 387.998c-36 0 -64.333 -13.167 -85 -39.5s-31 -63.5 -31 -111.5
c0 -48.667 10.167 -86 30.5 -112s48.833 -39 85.5 -39s65.167 13.167 85.5 39.5s30.5 63.5 30.5 111.5s-10.333 85.167 -31 111.5s-49 39.5 -85 39.5zM282.998 621.998l-44.0029 -49.498c-12.667 -13.667 -26 -28.834 -40 -45.501c-19.333 0.666992 -34.833 5.5 -46.5 14.5
s-17.5 20.5 -17.5 34.5c0 10.667 2.83301 19.667 8.5 27s13.834 16.666 24.501 27.999l47 50c10.667 10 21.334 17.833 32.001 23.5s23.334 8.5 38.001 8.5c14 0 26.5 -2.5 37.5 -7.5s23.167 -15.5 36.5 -31.5l77 -94c0 -14 -4 -26 -12 -36s-20.333 -15 -37 -15
c-11.333 0 -20.833 2.83301 -28.5 8.5s-15.167 13.167 -22.5 22.5z" />
    <glyph glyph-name="otilde" unicode="&#xf5;" 
d="M530 237c0 -38.667 -5.83496 -73.502 -17.502 -104.502s-28.167 -57.5 -49.5 -79.5s-47 -38.833 -77 -50.5s-63.667 -17.5 -101 -17.5s-71 5.83301 -101 17.5s-55.667 28.334 -77 50.001s-37.833 48 -49.5 79s-17.5 66.167 -17.5 105.5c0 38.667 5.83301 73.5 17.5 104.5
s28.334 57.333 50.001 79s47.5 38.334 77.5 50.001s63.333 17.5 100 17.5s70 -5.83301 100 -17.5s55.833 -28.5 77.5 -50.5s38.334 -48.5 50.001 -79.5s17.5 -65.5 17.5 -103.5zM284.998 387.998c-36 0 -64.333 -13.167 -85 -39.5s-31 -63.5 -31 -111.5
c0 -48.667 10.167 -86 30.5 -112s48.833 -39 85.5 -39s65.167 13.167 85.5 39.5s30.5 63.5 30.5 111.5s-10.333 85.167 -31 111.5s-49 39.5 -85 39.5zM206.998 683.998c14 0 27.332 -1.66699 39.999 -5s24.667 -6.83301 36 -10.5l32 -10.5c10 -3.33301 19 -5 27 -5
c13.333 0 23.333 3.83301 30 11.5s11.667 15.834 15 24.501h5c16.667 0 31.334 -5.16699 44.001 -15.5s19 -25.166 19 -44.499c0 -24 -8 -42.5 -24 -55.5s-36.667 -19.5 -62 -19.5c-15.333 0 -29.5 1.66699 -42.5 5s-25.167 7 -36.5 11l-31.5 11
c-9.66699 3.33301 -18.5 5 -26.5 5c-13.333 0 -23.333 -3.83301 -30 -11.5s-11.667 -16.167 -15 -25.5h-4c-17.333 0 -32.166 5.16699 -44.499 15.5s-18.5 25.166 -18.5 44.499c0 12.667 2.5 23.667 7.5 33s11.667 17.166 20 23.499s17.666 11 27.999 14
s20.833 4.5 31.5 4.5z" />
    <glyph glyph-name="odieresis" unicode="&#xf6;" 
d="M530 237c0 -38.667 -5.83496 -73.502 -17.502 -104.502s-28.167 -57.5 -49.5 -79.5s-47 -38.833 -77 -50.5s-63.667 -17.5 -101 -17.5s-71 5.83301 -101 17.5s-55.667 28.334 -77 50.001s-37.833 48 -49.5 79s-17.5 66.167 -17.5 105.5c0 38.667 5.83301 73.5 17.5 104.5
s28.334 57.333 50.001 79s47.5 38.334 77.5 50.001s63.333 17.5 100 17.5s70 -5.83301 100 -17.5s55.833 -28.5 77.5 -50.5s38.334 -48.5 50.001 -79.5s17.5 -65.5 17.5 -103.5zM284.998 387.998c-36 0 -64.333 -13.167 -85 -39.5s-31 -63.5 -31 -111.5
c0 -48.667 10.167 -86 30.5 -112s48.833 -39 85.5 -39s65.167 13.167 85.5 39.5s30.5 63.5 30.5 111.5s-10.333 85.167 -31 111.5s-49 39.5 -85 39.5zM254.998 615.998c0 -18 -6.5 -33.333 -19.5 -46s-29.167 -19 -48.5 -19c-20 0 -36.167 6.33301 -48.5 19
s-18.5 28 -18.5 46c0 18.667 6.16699 34.334 18.5 47.001s28.5 19 48.5 19c19.333 0 35.5 -6.33301 48.5 -19s19.5 -28.334 19.5 -47.001zM448.998 615.998c0 -18 -6.33301 -33.333 -19 -46s-28.667 -19 -48 -19s-35.5 6.33301 -48.5 19s-19.5 28 -19.5 46
c0 18.667 6.5 34.334 19.5 47.001s29.167 19 48.5 19s35.333 -6.33301 48 -19s19 -28.334 19 -47.001z" />
    <glyph glyph-name="divide" unicode="&#xf7;" horiz-adv-x="524" 
d="M52 243c-3.33301 6 -6.16504 13.167 -8.49805 21.5s-3.5 17.5 -3.5 27.5c0 18 4.33301 31.167 13 39.5s20.667 12.5 36 12.5h382c3.33301 -5.33301 6.16602 -12.333 8.49902 -21s3.5 -18 3.5 -28c0 -18 -4.33301 -31.167 -13 -39.5s-20.334 -12.5 -35.001 -12.5h-383z
M198.001 127c0 19.333 6 35.333 18 48s28 19 48 19s36 -6.33301 48 -19s18 -28.667 18 -48c0 -18.667 -6 -34.334 -18 -47.001s-28 -19 -48 -19s-36 6.33301 -48 19s-18 28.334 -18 47.001zM198.001 458c0 19.333 6 35.333 18 48s28 19 48 19s36 -6.33301 48 -19
s18 -28.667 18 -48s-6 -35.166 -18 -47.499s-28 -18.5 -48 -18.5s-36 6.16699 -48 18.5s-18 28.166 -18 47.499z" />
    <glyph glyph-name="oslash" unicode="&#xf8;" 
d="M530 237c0 -38.667 -5.83398 -73.5 -17.501 -104.5s-28.167 -57.5 -49.5 -79.5s-47 -38.833 -77 -50.5s-63.667 -17.5 -101 -17.5c-40 0 -76.333 6.66699 -109 20l-45 -66c-14.667 0 -28 4.16699 -40 12.5s-18 18.166 -18 29.499c0 6.66699 2.33301 13.334 7 20.001
l31 46c-22.667 22 -40.167 49 -52.5 81s-18.5 68.333 -18.5 109c0 38.667 5.83301 73.5 17.5 104.5s28.334 57.333 50.001 79s47.5 38.334 77.5 50.001s63.333 17.5 100 17.5c38.667 0 74.667 -7.33301 108 -22l46 69c13.333 0 26.333 -3.83301 39 -11.5
s19 -17.834 19 -30.501c0 -5.33301 -2.33301 -11.333 -7 -18l-34 -49c23.333 -22 41.5 -49 54.5 -81s19.5 -68 19.5 -108zM407.999 237c0 36 -6.66797 66.333 -20.001 91l-153 -233c14 -6.66699 30.667 -10 50 -10c36.667 0 66.334 12.833 89.001 38.5s34 63.5 34 113.5z
M284.998 389c-36 0 -65.5 -13.001 -88.5 -39.001s-34.5 -63.667 -34.5 -113c0 -35.333 6.33301 -65.666 19 -90.999l153 233c-7.33301 3.33301 -15 5.83301 -23 7.5s-16.667 2.5 -26 2.5z" />
    <glyph glyph-name="ugrave" unicode="&#xf9;" horiz-adv-x="566" 
d="M503 93c0 -15.333 -2.66406 -28.167 -7.99707 -38.5s-15 -19.5 -29 -27.5c-19.333 -12 -43.833 -22 -73.5 -30s-63.5 -12 -101.5 -12c-34.667 0 -66 3.83301 -94 11.5s-52 19.5 -72 35.5s-35.333 36.333 -46 61s-16 54 -16 88v291c5.33301 2 13.166 3.83301 23.499 5.5
s21.833 2.5 34.5 2.5c23.333 0 40.666 -4.16699 51.999 -12.5s17 -23.833 17 -46.5v-238c0 -34.667 8.83301 -59.5 26.5 -74.5s42.834 -22.5 75.501 -22.5c20.667 0 38.167 2 52.5 6s25.166 8.33301 32.499 13v367c5.33301 2 13.166 3.83301 23.499 5.5s21.5 2.5 33.5 2.5
c24 0 41.5 -4.16699 52.5 -12.5s16.5 -23.833 16.5 -46.5v-328zM130.003 639.999c-1.33301 6.66699 -2.00195 12.668 -2.00195 18.001c0 18 5.33301 32.167 16 42.5s24 15.5 40 15.5c21.333 0 39.666 -9 54.999 -27l89 -112c-1.33301 -17.333 -7.16602 -30.5 -17.499 -39.5
s-21.833 -13.5 -34.5 -13.5c-11.333 0 -20.666 1.66699 -27.999 5s-14.666 8.66602 -21.999 15.999z" />
    <glyph glyph-name="uacute" unicode="&#xfa;" horiz-adv-x="566" 
d="M503 93c0 -15.333 -2.66406 -28.167 -7.99707 -38.5s-15 -19.5 -29 -27.5c-19.333 -12 -43.833 -22 -73.5 -30s-63.5 -12 -101.5 -12c-34.667 0 -66 3.83301 -94 11.5s-52 19.5 -72 35.5s-35.333 36.333 -46 61s-16 54 -16 88v291c5.33301 2 13.166 3.83301 23.499 5.5
s21.833 2.5 34.5 2.5c23.333 0 40.666 -4.16699 51.999 -12.5s17 -23.833 17 -46.5v-238c0 -34.667 8.83301 -59.5 26.5 -74.5s42.834 -22.5 75.501 -22.5c20.667 0 38.167 2 52.5 6s25.166 8.33301 32.499 13v367c5.33301 2 13.166 3.83301 23.499 5.5s21.5 2.5 33.5 2.5
c24 0 41.5 -4.16699 52.5 -12.5s16.5 -23.833 16.5 -46.5v-328zM356.003 719.999c24.667 0 43.667 -5.66504 57 -16.998s20 -24 20 -38c0 -12.667 -2.66699 -22.834 -8 -30.501s-14.333 -17.167 -27 -28.5l-93 -84c-21.333 0 -37.833 5.33301 -49.5 16
s-17.5 22.334 -17.5 35.001c0 7.33301 1.5 13.666 4.5 18.999s7.83301 11.666 14.5 18.999z" />
    <glyph glyph-name="ucircumflex" unicode="&#xfb;" horiz-adv-x="566" 
d="M503 93c0 -15.333 -2.66406 -28.167 -7.99707 -38.5s-15 -19.5 -29 -27.5c-19.333 -12 -43.833 -22 -73.5 -30s-63.5 -12 -101.5 -12c-34.667 0 -66 3.83301 -94 11.5s-52 19.5 -72 35.5s-35.333 36.333 -46 61s-16 54 -16 88v291c5.33301 2 13.166 3.83301 23.499 5.5
s21.833 2.5 34.5 2.5c23.333 0 40.666 -4.16699 51.999 -12.5s17 -23.833 17 -46.5v-238c0 -34.667 8.83301 -59.5 26.5 -74.5s42.834 -22.5 75.501 -22.5c20.667 0 38.167 2 52.5 6s25.166 8.33301 32.499 13v367c5.33301 2 13.166 3.83301 23.499 5.5s21.5 2.5 33.5 2.5
c24 0 41.5 -4.16699 52.5 -12.5s16.5 -23.833 16.5 -46.5v-328zM283.003 621.999l-44.0029 -49.498c-12.667 -13.667 -26 -28.834 -40 -45.501c-19.333 0.666992 -34.833 5.5 -46.5 14.5s-17.5 20.5 -17.5 34.5c0 10.667 2.83301 19.667 8.5 27s13.834 16.666 24.501 27.999
l47 50c10.667 10 21.334 17.833 32.001 23.5s23.334 8.5 38.001 8.5c14 0 26.5 -2.5 37.5 -7.5s23.167 -15.5 36.5 -31.5l77 -94c0 -14 -4 -26 -12 -36s-20.333 -15 -37 -15c-11.333 0 -20.833 2.83301 -28.5 8.5s-15.167 13.167 -22.5 22.5z" />
    <glyph glyph-name="udieresis" unicode="&#xfc;" horiz-adv-x="566" 
d="M503 93c0 -15.333 -2.66406 -28.167 -7.99707 -38.5s-15 -19.5 -29 -27.5c-19.333 -12 -43.833 -22 -73.5 -30s-63.5 -12 -101.5 -12c-34.667 0 -66 3.83301 -94 11.5s-52 19.5 -72 35.5s-35.333 36.333 -46 61s-16 54 -16 88v291c5.33301 2 13.166 3.83301 23.499 5.5
s21.833 2.5 34.5 2.5c23.333 0 40.666 -4.16699 51.999 -12.5s17 -23.833 17 -46.5v-238c0 -34.667 8.83301 -59.5 26.5 -74.5s42.834 -22.5 75.501 -22.5c20.667 0 38.167 2 52.5 6s25.166 8.33301 32.499 13v367c5.33301 2 13.166 3.83301 23.499 5.5s21.5 2.5 33.5 2.5
c24 0 41.5 -4.16699 52.5 -12.5s16.5 -23.833 16.5 -46.5v-328zM251.003 615.999c0 -18 -6.5 -33.333 -19.5 -46s-29.167 -19 -48.5 -19c-20 0 -36.167 6.33301 -48.5 19s-18.5 28 -18.5 46c0 18.667 6.16699 34.334 18.5 47.001s28.5 19 48.5 19
c19.333 0 35.5 -6.33301 48.5 -19s19.5 -28.334 19.5 -47.001zM445.003 615.999c0 -18 -6.33301 -33.333 -19 -46s-28.667 -19 -48 -19s-35.5 6.33301 -48.5 19s-19.5 28 -19.5 46c0 18.667 6.5 34.334 19.5 47.001s29.167 19 48.5 19s35.333 -6.33301 48 -19
s19 -28.334 19 -47.001z" />
    <glyph glyph-name="yacute" unicode="&#xfd;" horiz-adv-x="521" 
d="M148 114c-16 33.333 -35.001 78.333 -57.001 135s-44 125.334 -66 206.001c6.66699 8 16 14.833 28 20.5s25 8.5 39 8.5c17.333 0 31.5 -4 42.5 -12s19.833 -22.333 26.5 -43c31.333 -100.667 67 -202.667 107 -306h4c8.66699 22 17.834 47 27.501 75s19 57.333 28 88
s17.5 61.667 25.5 93s15 61.666 21 90.999c8 4 16.5 7.33301 25.5 10s18.5 4 28.5 4c17.333 0 32.333 -4 45 -12s19 -21 19 -39c0 -20 -4.33301 -48.167 -13 -84.5s-20.167 -75.333 -34.5 -117s-30.5 -83.667 -48.5 -126s-36 -79.5 -54 -111.5
c-34.667 -61.333 -66.167 -107.166 -94.5 -137.499s-56.166 -45.5 -83.499 -45.5c-21.333 0 -38.5 6.16699 -51.5 18.5s-21.167 27.833 -24.5 46.5c10.667 9.33301 22 20.166 34 32.499s24 25.5 36 39.5s23.333 28.333 34 43s20 29 28 43c-6 2 -11.833 4.5 -17.5 7.5
s-11.334 7.5 -17.001 13.5s-11.667 13.667 -18 23s-12.833 21.333 -19.5 36zM316.999 720c24.667 0 43.667 -5.66504 57 -16.998s20 -24 20 -38c0 -12.667 -2.66699 -22.834 -8 -30.501s-14.333 -17.167 -27 -28.5l-93 -84c-21.333 0 -37.833 5.33301 -49.5 16
s-17.5 22.334 -17.5 35.001c0 7.33301 1.5 13.666 4.5 18.999s7.83301 11.666 14.5 18.999z" />
    <glyph glyph-name="thorn" unicode="&#xfe;" horiz-adv-x="571" 
d="M290 -14c-19.333 0 -37.1689 1.83008 -53.502 5.49707s-31.166 8.16699 -44.499 13.5v-178c-6 -2 -14 -3.83301 -24 -5.5s-21.333 -2.5 -34 -2.5c-23.333 0 -40.666 4.33301 -51.999 13s-17 24 -17 46v773c5.33301 1.33301 13.166 2.83301 23.499 4.5s21.5 2.5 33.5 2.5
c24 0 41.667 -4.33301 53 -13s17 -24 17 -46v-130c13.333 5.33301 28.333 9.83301 45 13.5s34.667 5.5 54 5.5c32.667 0 63.334 -4.83301 92.001 -14.5s53.667 -24.667 75 -45s38.333 -46.166 51 -77.499s19 -68.666 19 -111.999c0 -42 -6 -78.667 -18 -110
s-28.5 -57.666 -49.5 -78.999s-46 -37.333 -75 -48s-60.833 -16 -95.5 -16zM270.997 86.9971c40 0 71.332 12.333 93.999 37s34 63 34 115c0 26.667 -3.16699 49.5 -9.5 68.5s-15.166 34.5 -26.499 46.5s-24.5 20.667 -39.5 26s-31.5 8 -49.5 8c-28.667 0 -56 -7 -82 -21
v-259c10.667 -6 22.5 -11 35.5 -15s27.5 -6 43.5 -6z" />
    <glyph glyph-name="ydieresis" unicode="&#xff;" horiz-adv-x="521" 
d="M148 114c-16 33.333 -35.001 78.333 -57.001 135s-44 125.334 -66 206.001c6.66699 8 16 14.833 28 20.5s25 8.5 39 8.5c17.333 0 31.5 -4 42.5 -12s19.833 -22.333 26.5 -43c31.333 -100.667 67 -202.667 107 -306h4c8.66699 22 17.834 47 27.501 75s19 57.333 28 88
s17.5 61.667 25.5 93s15 61.666 21 90.999c8 4 16.5 7.33301 25.5 10s18.5 4 28.5 4c17.333 0 32.333 -4 45 -12s19 -21 19 -39c0 -20 -4.33301 -48.167 -13 -84.5s-20.167 -75.333 -34.5 -117s-30.5 -83.667 -48.5 -126s-36 -79.5 -54 -111.5
c-34.667 -61.333 -66.167 -107.166 -94.5 -137.499s-56.166 -45.5 -83.499 -45.5c-21.333 0 -38.5 6.16699 -51.5 18.5s-21.167 27.833 -24.5 46.5c10.667 9.33301 22 20.166 34 32.499s24 25.5 36 39.5s23.333 28.333 34 43s20 29 28 43c-6 2 -11.833 4.5 -17.5 7.5
s-11.334 7.5 -17.001 13.5s-11.667 13.667 -18 23s-12.833 21.333 -19.5 36zM228.999 616c0 -18 -6.5 -33.333 -19.5 -46s-29.167 -19 -48.5 -19c-20 0 -36.167 6.33301 -48.5 19s-18.5 28 -18.5 46c0 18.667 6.16699 34.334 18.5 47.001s28.5 19 48.5 19
c19.333 0 35.5 -6.33301 48.5 -19s19.5 -28.334 19.5 -47.001zM422.999 616c0 -18 -6.33301 -33.333 -19 -46s-28.667 -19 -48 -19s-35.5 6.33301 -48.5 19s-19.5 28 -19.5 46c0 18.667 6.5 34.334 19.5 47.001s29.167 19 48.5 19s35.333 -6.33301 48 -19
s19 -28.334 19 -47.001z" />
    <glyph glyph-name="Amacron" unicode="&#x100;" horiz-adv-x="610" 
d="M162 692c-3.33301 5.33301 -6.5 12.168 -9.5 20.501s-4.5 17.166 -4.5 26.499c0 18 4 30.833 12 38.5s18.667 11.5 32 11.5h247c8.66699 -12 13 -27.667 13 -47c0 -18.667 -3.83301 -31.667 -11.5 -39s-18.167 -11 -31.5 -11h-247zM416 143.002l-223.994 -0.000976562
l-23.5 -77l-20.5 -66c-6.66699 -2.66699 -13.834 -5 -21.501 -7s-17.167 -3 -28.5 -3c-22.667 0 -40.334 4.5 -53.001 13.5s-19 21.833 -19 38.5c0 8 1.16699 15.833 3.5 23.5s5.16602 16.5 8.49902 26.5c5.33301 18.667 12.5 41.167 21.5 67.5l29 86l33.5 96l34.5 96l32 87
l26.5 69.5c8.66699 4.66699 21.5 9.33398 38.5 14.001s34.167 7 51.5 7c23.333 0 44.666 -3.5 63.999 -10.5s31.666 -18.167 36.999 -33.5l44 -126.5l48.5 -147.5l47.5 -149l41 -131c-6.66699 -7.33301 -15.834 -13.5 -27.501 -18.5s-25.5 -7.5 -41.5 -7.5
c-23.333 0 -39.833 4.16699 -49.5 12.5s-17.167 21.5 -22.5 39.5zM304.006 501.001l-19.5 -56l-22 -64.5l-23.5 -68l-23 -67.5h174l-81 256h-5z" />
    <glyph glyph-name="amacron" unicode="&#x101;" horiz-adv-x="522" 
d="M250 81c19.333 0 37 1.83301 53 5.5s27.667 8.16699 35 13.5v111l-97 -9c-26.667 -2.66699 -47 -8.5 -61 -17.5s-21 -23.167 -21 -42.5s7.16699 -34.333 21.5 -45s37.5 -16 69.5 -16zM246 488c65.333 0 117.501 -14.002 156.501 -42.002s58.5 -71.333 58.5 -130v-231
c0 -16 -4 -28.667 -12 -38s-18 -17.666 -30 -24.999c-18.667 -11.333 -42.334 -20.333 -71.001 -27s-61.334 -10 -98.001 -10c-66.667 0 -119.167 12.833 -157.5 38.5s-57.5 64.167 -57.5 115.5c0 44.667 14.167 78.834 42.5 102.501s69.5 38.167 123.5 43.5l137 14v18
c0 25.333 -9.16699 44 -27.5 56s-44.166 18 -77.499 18c-26 0 -51.333 -3.16699 -76 -9.5s-46.667 -14.166 -66 -23.499c-7.33301 5.33301 -13.5 12.5 -18.5 21.5s-7.5 18.833 -7.5 29.5c0 13.333 3.16699 24.166 9.5 32.499s16.5 15.833 30.5 22.5
c19.333 8 41.333 14 66 18s49.667 6 75 6zM127.001 566.998c-3.33301 5.33301 -6.5 12.168 -9.5 20.501s-4.5 17.166 -4.5 26.499c0 18.667 4 31.667 12 39s18.667 11 32 11h247c8.66699 -12 13 -27.667 13 -47c0 -18 -3.83301 -30.833 -11.5 -38.5
s-18.167 -11.5 -31.5 -11.5h-247z" />
    <glyph glyph-name="Abreve" unicode="&#x102;" horiz-adv-x="610" 
d="M416 143l-223.994 -0.000976562l-23.5 -77l-20.5 -66c-6.66699 -2.66699 -13.834 -5 -21.501 -7s-17.167 -3 -28.5 -3c-22.667 0 -40.334 4.5 -53.001 13.5s-19 21.833 -19 38.5c0 8 1.16699 15.833 3.5 23.5s5.16602 16.5 8.49902 26.5
c5.33301 18.667 12.5 41.167 21.5 67.5l29 86l33.5 96l34.5 96l32 87l26.5 69.5c8.66699 4.66699 21.5 9.33398 38.5 14.001s34.167 7 51.5 7c23.333 0 44.666 -3.5 63.999 -10.5s31.666 -18.167 36.999 -33.5l44 -126.5l48.5 -147.5l47.5 -149l41 -131
c-6.66699 -7.33301 -15.834 -13.5 -27.501 -18.5s-25.5 -7.5 -41.5 -7.5c-23.333 0 -39.833 4.16699 -49.5 12.5s-17.167 21.5 -22.5 39.5zM304.006 500.999l-19.5 -56l-22 -64.5l-23.5 -68l-23 -67.5h174l-81 256h-5zM307.006 756.999c20.667 0 37.5049 5.33301 50.5049 16
s21.5 24.667 25.5 42c3.33301 0.666992 6.16602 1.16699 8.49902 1.5s5.16602 0.5 8.49902 0.5c19.333 0 33.833 -5.5 43.5 -16.5s14.5 -24.167 14.5 -39.5c0 -12.667 -3.33301 -24.834 -10 -36.501s-16.334 -22 -29.001 -31s-28.334 -16.167 -47.001 -21.5
s-40.334 -8 -65.001 -8c-25.333 0 -47.333 2.66699 -66 8s-34.5 12.5 -47.5 21.5s-22.667 19.333 -29 31s-9.5 23.834 -9.5 36.501c0 15.333 4.83301 28.5 14.5 39.5s24.167 16.5 43.5 16.5c3.33301 0 6.33301 -0.166992 9 -0.5s5.66699 -0.833008 9 -1.5
c3.33301 -17.333 11.5 -31.333 24.5 -42s30.167 -16 51.5 -16z" />
    <glyph glyph-name="abreve" unicode="&#x103;" horiz-adv-x="522" 
d="M250 81c19.333 0 37 1.83301 53 5.5s27.667 8.16699 35 13.5v111l-97 -9c-26.667 -2.66699 -47 -8.5 -61 -17.5s-21 -23.167 -21 -42.5s7.16699 -34.333 21.5 -45s37.5 -16 69.5 -16zM246 488c65.333 0 117.501 -14.002 156.501 -42.002s58.5 -71.333 58.5 -130v-231
c0 -16 -4 -28.667 -12 -38s-18 -17.666 -30 -24.999c-18.667 -11.333 -42.334 -20.333 -71.001 -27s-61.334 -10 -98.001 -10c-66.667 0 -119.167 12.833 -157.5 38.5s-57.5 64.167 -57.5 115.5c0 44.667 14.167 78.834 42.5 102.501s69.5 38.167 123.5 43.5l137 14v18
c0 25.333 -9.16699 44 -27.5 56s-44.166 18 -77.499 18c-26 0 -51.333 -3.16699 -76 -9.5s-46.667 -14.166 -66 -23.499c-7.33301 5.33301 -13.5 12.5 -18.5 21.5s-7.5 18.833 -7.5 29.5c0 13.333 3.16699 24.166 9.5 32.499s16.5 15.833 30.5 22.5
c19.333 8 41.333 14 66 18s49.667 6 75 6zM263.001 639.998c20.667 0 37.5049 5.33301 50.5049 16s21.5 24.667 25.5 42c3.33301 0.666992 6.16602 1.16699 8.49902 1.5s5.16602 0.5 8.49902 0.5c19.333 0 33.833 -5.5 43.5 -16.5s14.5 -24.167 14.5 -39.5
c0 -12.667 -3.33301 -24.834 -10 -36.501s-16.334 -22 -29.001 -31s-28.334 -16.167 -47.001 -21.5s-40.334 -8 -65.001 -8c-25.333 0 -47.333 2.66699 -66 8s-34.5 12.5 -47.5 21.5s-22.667 19.333 -29 31s-9.5 23.834 -9.5 36.501c0 15.333 4.83301 28.5 14.5 39.5
s24.167 16.5 43.5 16.5c3.33301 0 6.33301 -0.166992 9 -0.5s5.66699 -0.833008 9 -1.5c3.33301 -17.333 11.5 -31.333 24.5 -42s30.167 -16 51.5 -16z" />
    <glyph glyph-name="Aogonek" unicode="&#x104;" horiz-adv-x="610" 
d="M416 143l-223.996 -0.00292969l-23.5 -77l-20.5 -66c-6.66699 -2.66699 -13.834 -5 -21.501 -7s-17.167 -3 -28.5 -3c-22.667 0 -40.334 4.5 -53.001 13.5s-19 21.833 -19 38.5c0 8 1.16699 15.833 3.5 23.5s5.16602 16.5 8.49902 26.5
c5.33301 18.667 12.5 41.167 21.5 67.5l29 86l33.5 96l34.5 96l32 87l26.5 69.5c8.66699 4.66699 21.5 9.33398 38.5 14.001s34.167 7 51.5 7c23.333 0 44.666 -3.5 63.999 -10.5s31.666 -18.167 36.999 -33.5l44 -126.5l48.5 -147.5l47.5 -149l41 -131
c-7.33301 -8.66699 -16.333 -14.667 -27 -18c-8.66699 -7.33301 -15.834 -15.333 -21.501 -24s-8.5 -19.334 -8.5 -32.001c0 -15.333 5.16699 -27.166 15.5 -35.499s24.833 -12.5 43.5 -12.5h9c2 -5.33301 3.66699 -10.666 5 -15.999s2 -11 2 -17
c0 -15.333 -5.16699 -28.5 -15.5 -39.5s-29.166 -16.5 -56.499 -16.5c-33.333 0 -61.166 8.83301 -83.499 26.5s-33.5 42.5 -33.5 74.5c0 23.333 5.5 43.5 16.5 60.5s22.5 29.5 34.5 37.5c-8.66699 6.66699 -15.667 19.334 -21 38.001zM304.004 500.997l-19.5 -56l-22 -64.5
l-23.5 -68l-23 -67.5h174l-81 256h-5z" />
    <glyph glyph-name="aogonek" unicode="&#x105;" horiz-adv-x="522" 
d="M246 488c65.333 0 117.497 -14.0029 156.497 -42.0029s58.5 -71.333 58.5 -130v-231c0 -13.333 -2.66699 -24 -8 -32s-12.333 -15.333 -21 -22c-16.667 -13.333 -30.167 -26.333 -40.5 -39s-15.5 -29 -15.5 -49c0 -15.333 5.16699 -27.166 15.5 -35.499
s24.5 -12.5 42.5 -12.5h10c2 -5.33301 3.66699 -10.666 5 -15.999s2 -11 2 -17c0 -15.333 -5.16699 -28.5 -15.5 -39.5s-29.5 -16.5 -57.5 -16.5c-33.333 0 -61.166 8.83301 -83.499 26.5s-33.5 42.5 -33.5 74.5c0 18 3.33301 33.5 10 46.5s14.667 24.167 24 33.5
c-7.33301 -0.666992 -14.666 -1.16699 -21.999 -1.5s-15 -0.5 -23 -0.5c-66.667 0 -119.167 12.833 -157.5 38.5s-57.5 64.167 -57.5 115.5c0 44.667 14.167 78.834 42.5 102.501s69.5 38.167 123.5 43.5l137 14v18c0 25.333 -9.16699 44 -27.5 56s-44.166 18 -77.499 18
c-26 0 -51.333 -3.16699 -76 -9.5s-46.667 -14.166 -66 -23.499c-7.33301 5.33301 -13.5 12.5 -18.5 21.5s-7.5 18.833 -7.5 29.5c0 13.333 3.16699 24.166 9.5 32.499s16.5 15.833 30.5 22.5c19.333 8 41.333 14 66 18s49.667 6 75 6zM249.997 80.9971
c19.333 0 37 1.83301 53 5.5s27.667 8.16699 35 13.5v111l-97 -9c-26.667 -2.66699 -47 -8.5 -61 -17.5s-21 -23.167 -21 -42.5s7.16699 -34.333 21.5 -45s37.5 -16 69.5 -16z" />
    <glyph glyph-name="Cacute" unicode="&#x106;" horiz-adv-x="579" 
d="M537 529c0 -13.333 -3.6709 -24.834 -11.0039 -34.501s-15.666 -17.167 -24.999 -22.5c-17.333 11.333 -36.666 21.666 -57.999 30.999s-47.666 14 -78.999 14c-56.667 0 -101.834 -18.333 -135.501 -55s-50.5 -89.667 -50.5 -159c0 -70.667 17.333 -123.667 52 -159
s81.334 -53 140.001 -53c30.667 0 57.167 4.16699 79.5 12.5s42.166 18.166 59.499 29.499c9.33301 -6 17 -14.167 23 -24.5s9 -22.166 9 -35.499c0 -11.333 -3 -21.666 -9 -30.999s-16 -17.666 -30 -24.999c-13.333 -8 -32.166 -15.5 -56.499 -22.5
s-54.5 -10.5 -90.5 -10.5c-44 0 -84.833 6.5 -122.5 19.5s-70.5 32.667 -98.5 59s-50 59.5 -66 99.5s-24 87 -24 141c0 52 8 97.833 24 137.5s37.833 73 65.5 100s60 47.5 97 61.5s76.167 21 117.5 21c28.667 0 54.667 -2.5 78 -7.5s43.333 -11.833 60 -20.5
s29.334 -18.667 38.001 -30s13 -23.333 13 -36zM398.996 832.999c21.333 0 38 -5.16992 50 -15.5029s18 -23.166 18 -38.499c0 -11.333 -2.5 -21.166 -7.5 -29.499s-14.5 -17.5 -28.5 -27.5l-93 -66c-19.333 0.666992 -34.333 5.33398 -45 14.001s-16 19 -16 31
c0 7.33301 1.33301 14 4 20s7.66699 12.333 15 19z" />
    <glyph glyph-name="cacute" unicode="&#x107;" horiz-adv-x="484" 
d="M308 387c-20 0 -38.5039 -3.32324 -55.5039 -9.99023s-31.667 -16.334 -44 -29.001s-22.166 -28.334 -29.499 -47.001s-11 -40.334 -11 -65.001c0 -49.333 13 -86.5 39 -111.5s59.667 -37.5 101 -37.5c23.333 0 43.5 3.16699 60.5 9.5s32.167 13.166 45.5 20.499
c9.33301 -6.66699 16.833 -14.334 22.5 -23.001s8.5 -18.667 8.5 -30c0 -22.667 -13.333 -41.334 -40 -56.001s-62.667 -22 -108 -22c-38 0 -72.833 5.16699 -104.5 15.5s-58.834 26 -81.501 47s-40.167 47.167 -52.5 78.5s-18.5 67.666 -18.5 108.999
c0 42 6.66699 78.833 20 110.5s31.5 58 54.5 79s49.833 36.667 80.5 47s63.334 15.5 98.001 15.5c44.667 0 80.334 -7.83301 107.001 -23.5s40 -34.834 40 -57.501c0 -10.667 -2.83301 -20.334 -8.5 -29.001s-12.167 -15.667 -19.5 -21
c-13.333 7.33301 -28.166 14.166 -44.499 20.499s-36.166 9.5 -59.499 9.5zM340.996 720.01c24.667 0 43.667 -5.66504 57 -16.998s20 -24 20 -38c0 -12.667 -2.66699 -22.834 -8 -30.501s-14.333 -17.167 -27 -28.5l-93 -84c-21.333 0 -37.833 5.33301 -49.5 16
s-17.5 22.334 -17.5 35.001c0 7.33301 1.5 13.666 4.5 18.999s7.83301 11.666 14.5 18.999z" />
    <glyph glyph-name="Ccircumflex" unicode="&#x108;" horiz-adv-x="579" 
d="M537 529c0 -13.333 -3.6709 -24.834 -11.0039 -34.501s-15.666 -17.167 -24.999 -22.5c-17.333 11.333 -36.666 21.666 -57.999 30.999s-47.666 14 -78.999 14c-56.667 0 -101.834 -18.333 -135.501 -55s-50.5 -89.667 -50.5 -159c0 -70.667 17.333 -123.667 52 -159
s81.334 -53 140.001 -53c30.667 0 57.167 4.16699 79.5 12.5s42.166 18.166 59.499 29.499c9.33301 -6 17 -14.167 23 -24.5s9 -22.166 9 -35.499c0 -11.333 -3 -21.666 -9 -30.999s-16 -17.666 -30 -24.999c-13.333 -8 -32.166 -15.5 -56.499 -22.5
s-54.5 -10.5 -90.5 -10.5c-44 0 -84.833 6.5 -122.5 19.5s-70.5 32.667 -98.5 59s-50 59.5 -66 99.5s-24 87 -24 141c0 52 8 97.833 24 137.5s37.833 73 65.5 100s60 47.5 97 61.5s76.167 21 117.5 21c28.667 0 54.667 -2.5 78 -7.5s43.333 -11.833 60 -20.5
s29.334 -18.667 38.001 -30s13 -23.333 13 -36zM337.996 741.999l-43.999 -43.001l-49 -45c-16 0.666992 -29.333 5.5 -40 14.5s-16 20.167 -16 33.5c0 11.333 3 20.833 9 28.5s15 17.167 27 28.5l44 40c26 21.333 49.667 32 71 32c14 0 26.333 -2.83301 37 -8.5
s22 -14.167 34 -25.5l81 -87c0 -17.333 -4.83301 -30.666 -14.5 -39.999s-22.167 -14 -37.5 -14c-10.667 0 -20.334 3.33301 -29.001 10s-19.667 17 -33 31z" />
    <glyph glyph-name="ccircumflex" unicode="&#x109;" horiz-adv-x="484" 
d="M308 387c-20 0 -38.5039 -3.32324 -55.5039 -9.99023s-31.667 -16.334 -44 -29.001s-22.166 -28.334 -29.499 -47.001s-11 -40.334 -11 -65.001c0 -49.333 13 -86.5 39 -111.5s59.667 -37.5 101 -37.5c23.333 0 43.5 3.16699 60.5 9.5s32.167 13.166 45.5 20.499
c9.33301 -6.66699 16.833 -14.334 22.5 -23.001s8.5 -18.667 8.5 -30c0 -22.667 -13.333 -41.334 -40 -56.001s-62.667 -22 -108 -22c-38 0 -72.833 5.16699 -104.5 15.5s-58.834 26 -81.501 47s-40.167 47.167 -52.5 78.5s-18.5 67.666 -18.5 108.999
c0 42 6.66699 78.833 20 110.5s31.5 58 54.5 79s49.833 36.667 80.5 47s63.334 15.5 98.001 15.5c44.667 0 80.334 -7.83301 107.001 -23.5s40 -34.834 40 -57.501c0 -10.667 -2.83301 -20.334 -8.5 -29.001s-12.167 -15.667 -19.5 -21
c-13.333 7.33301 -28.166 14.166 -44.499 20.499s-36.166 9.5 -59.499 9.5zM274.996 622.01l-44.0029 -49.498c-12.667 -13.667 -26 -28.834 -40 -45.501c-19.333 0.666992 -34.833 5.5 -46.5 14.5s-17.5 20.5 -17.5 34.5c0 10.667 2.83301 19.667 8.5 27
s13.834 16.666 24.501 27.999l47 50c10.667 10 21.334 17.833 32.001 23.5s23.334 8.5 38.001 8.5c14 0 26.5 -2.5 37.5 -7.5s23.167 -15.5 36.5 -31.5l77 -94c0 -14 -4 -26 -12 -36s-20.333 -15 -37 -15c-11.333 0 -20.833 2.83301 -28.5 8.5s-15.167 13.167 -22.5 22.5z
" />
    <glyph glyph-name="Cdotaccent" unicode="&#x10a;" horiz-adv-x="579" 
d="M537 529c0 -13.333 -3.6709 -24.834 -11.0039 -34.501s-15.666 -17.167 -24.999 -22.5c-17.333 11.333 -36.666 21.666 -57.999 30.999s-47.666 14 -78.999 14c-56.667 0 -101.834 -18.333 -135.501 -55s-50.5 -89.667 -50.5 -159c0 -70.667 17.333 -123.667 52 -159
s81.334 -53 140.001 -53c30.667 0 57.167 4.16699 79.5 12.5s42.166 18.166 59.499 29.499c9.33301 -6 17 -14.167 23 -24.5s9 -22.166 9 -35.499c0 -11.333 -3 -21.666 -9 -30.999s-16 -17.666 -30 -24.999c-13.333 -8 -32.166 -15.5 -56.499 -22.5
s-54.5 -10.5 -90.5 -10.5c-44 0 -84.833 6.5 -122.5 19.5s-70.5 32.667 -98.5 59s-50 59.5 -66 99.5s-24 87 -24 141c0 52 8 97.833 24 137.5s37.833 73 65.5 100s60 47.5 97 61.5s76.167 21 117.5 21c28.667 0 54.667 -2.5 78 -7.5s43.333 -11.833 60 -20.5
s29.334 -18.667 38.001 -30s13 -23.333 13 -36zM408.996 745.999c0 -19.333 -6.5 -35.666 -19.5 -48.999s-30.167 -20 -51.5 -20s-38.5 6.66699 -51.5 20s-19.5 29.666 -19.5 48.999c0 20 6.5 36.5 19.5 49.5s30.167 19.5 51.5 19.5s38.5 -6.5 51.5 -19.5
s19.5 -29.5 19.5 -49.5z" />
    <glyph glyph-name="cdotaccent" unicode="&#x10b;" horiz-adv-x="484" 
d="M308 387c-20 0 -38.5039 -3.32324 -55.5039 -9.99023s-31.667 -16.334 -44 -29.001s-22.166 -28.334 -29.499 -47.001s-11 -40.334 -11 -65.001c0 -49.333 13 -86.5 39 -111.5s59.667 -37.5 101 -37.5c23.333 0 43.5 3.16699 60.5 9.5s32.167 13.166 45.5 20.499
c9.33301 -6.66699 16.833 -14.334 22.5 -23.001s8.5 -18.667 8.5 -30c0 -22.667 -13.333 -41.334 -40 -56.001s-62.667 -22 -108 -22c-38 0 -72.833 5.16699 -104.5 15.5s-58.834 26 -81.501 47s-40.167 47.167 -52.5 78.5s-18.5 67.666 -18.5 108.999
c0 42 6.66699 78.833 20 110.5s31.5 58 54.5 79s49.833 36.667 80.5 47s63.334 15.5 98.001 15.5c44.667 0 80.334 -7.83301 107.001 -23.5s40 -34.834 40 -57.501c0 -10.667 -2.83301 -20.334 -8.5 -29.001s-12.167 -15.667 -19.5 -21
c-13.333 7.33301 -28.166 14.166 -44.499 20.499s-36.166 9.5 -59.499 9.5zM344.996 620.01c0 -19.333 -6.5 -35.666 -19.5 -48.999s-30.167 -20 -51.5 -20s-38.5 6.66699 -51.5 20s-19.5 29.666 -19.5 48.999c0 20 6.5 36.5 19.5 49.5s30.167 19.5 51.5 19.5
s38.5 -6.5 51.5 -19.5s19.5 -29.5 19.5 -49.5z" />
    <glyph glyph-name="Ccaron" unicode="&#x10c;" horiz-adv-x="579" 
d="M537 529c0 -13.333 -3.6709 -24.834 -11.0039 -34.501s-15.666 -17.167 -24.999 -22.5c-17.333 11.333 -36.666 21.666 -57.999 30.999s-47.666 14 -78.999 14c-56.667 0 -101.834 -18.333 -135.501 -55s-50.5 -89.667 -50.5 -159c0 -70.667 17.333 -123.667 52 -159
s81.334 -53 140.001 -53c30.667 0 57.167 4.16699 79.5 12.5s42.166 18.166 59.499 29.499c9.33301 -6 17 -14.167 23 -24.5s9 -22.166 9 -35.499c0 -11.333 -3 -21.666 -9 -30.999s-16 -17.666 -30 -24.999c-13.333 -8 -32.166 -15.5 -56.499 -22.5
s-54.5 -10.5 -90.5 -10.5c-44 0 -84.833 6.5 -122.5 19.5s-70.5 32.667 -98.5 59s-50 59.5 -66 99.5s-24 87 -24 141c0 52 8 97.833 24 137.5s37.833 73 65.5 100s60 47.5 97 61.5s76.167 21 117.5 21c28.667 0 54.667 -2.5 78 -7.5s43.333 -11.833 60 -20.5
s29.334 -18.667 38.001 -30s13 -23.333 13 -36zM434.996 830.999c17.333 -0.666992 31.665 -5.50195 42.998 -14.502s17 -20.5 17 -34.5c0 -11.333 -3.16699 -20.833 -9.5 -28.5s-15.833 -17.167 -28.5 -28.5l-43 -40c-13.333 -11.333 -25.166 -19.166 -35.499 -23.499
s-21.833 -6.5 -34.5 -6.5c-15.333 0 -28.666 2.83301 -39.999 8.5s-22.333 13.834 -33 24.501l-83 81c0 19.333 4.5 34 13.5 44s21.5 15 37.5 15c10.667 0 20.667 -2.83301 30 -8.5s21 -16.167 35 -31.5l40 -46z" />
    <glyph glyph-name="ccaron" unicode="&#x10d;" horiz-adv-x="484" 
d="M308 387c-20 0 -38.5039 -3.32324 -55.5039 -9.99023s-31.667 -16.334 -44 -29.001s-22.166 -28.334 -29.499 -47.001s-11 -40.334 -11 -65.001c0 -49.333 13 -86.5 39 -111.5s59.667 -37.5 101 -37.5c23.333 0 43.5 3.16699 60.5 9.5s32.167 13.166 45.5 20.499
c9.33301 -6.66699 16.833 -14.334 22.5 -23.001s8.5 -18.667 8.5 -30c0 -22.667 -13.333 -41.334 -40 -56.001s-62.667 -22 -108 -22c-38 0 -72.833 5.16699 -104.5 15.5s-58.834 26 -81.501 47s-40.167 47.167 -52.5 78.5s-18.5 67.666 -18.5 108.999
c0 42 6.66699 78.833 20 110.5s31.5 58 54.5 79s49.833 36.667 80.5 47s63.334 15.5 98.001 15.5c44.667 0 80.334 -7.83301 107.001 -23.5s40 -34.834 40 -57.501c0 -10.667 -2.83301 -20.334 -8.5 -29.001s-12.167 -15.667 -19.5 -21
c-13.333 7.33301 -28.166 14.166 -44.499 20.499s-36.166 9.5 -59.499 9.5zM272.996 621.01l90.001 90.002c19.333 -0.666992 34.833 -5.66699 46.5 -15s17.5 -21.333 17.5 -36c0 -10.667 -3.16699 -19.834 -9.5 -27.501s-15.5 -17.167 -27.5 -28.5l-53 -50
c-19.333 -17.333 -40 -26 -62 -26c-14 0 -26.5 2.5 -37.5 7.5s-24.833 15.5 -41.5 31.5l-79 78c-0.666992 2.66699 -1 5.66699 -1 9c0 13.333 4 25.833 12 37.5s20.333 17.5 37 17.5c10.667 0 20.167 -2.33301 28.5 -7s19.166 -14.334 32.499 -29.001z" />
    <glyph glyph-name="Dcaron" unicode="&#x10e;" horiz-adv-x="659" 
d="M482 306c0 36 -5.00098 67.167 -15.001 93.5s-23.833 48 -41.5 65s-38.667 29.667 -63 38s-50.833 12.5 -79.5 12.5c-15.333 0 -29.166 -0.5 -41.499 -1.5s-24.166 -2.16699 -35.499 -3.5v-411c11.333 -2.66699 24.166 -4.5 38.499 -5.5s28.5 -1.5 42.5 -1.5
c62 0 110 18 144 54s51 89.333 51 160zM614.999 307c0 -54 -7.83496 -101.171 -23.502 -141.504s-37.834 -73.666 -66.501 -99.999s-63.167 -46.166 -103.5 -59.499s-85.166 -20 -134.499 -20c-11.333 0 -23.666 0.166992 -36.999 0.5s-27.166 1.33301 -41.499 3
s-28.666 3.83398 -42.999 6.50098s-27.833 6.33398 -40.5 11.001c-32 12 -48 32 -48 60v490c0 12 3.33301 21.333 10 28s16 12 28 16c24.667 8.66699 51.5 14.167 80.5 16.5s56.5 3.5 82.5 3.5c50 0 95.833 -6.5 137.5 -19.5s77.167 -32.5 106.5 -58.5
s52.166 -58.667 68.499 -98s24.5 -85.333 24.5 -138zM418.997 830.996c17.333 -0.666992 31.665 -5.50195 42.998 -14.502s17 -20.5 17 -34.5c0 -11.333 -3.16699 -20.833 -9.5 -28.5s-15.833 -17.167 -28.5 -28.5l-43 -40c-13.333 -11.333 -25.166 -19.166 -35.499 -23.499
s-21.833 -6.5 -34.5 -6.5c-15.333 0 -28.666 2.83301 -39.999 8.5s-22.333 13.834 -33 24.501l-83 81c0 19.333 4.5 34 13.5 44s21.5 15 37.5 15c10.667 0 20.667 -2.83301 30 -8.5s21 -16.167 35 -31.5l40 -46z" />
    <glyph glyph-name="dcaron" unicode="&#x10f;" horiz-adv-x="700" 
d="M502 92c0 -15.333 -3.33301 -27.668 -10 -37.001s-16.667 -18.333 -30 -27c-16.667 -10.667 -38.667 -20.5 -66 -29.5s-59 -13.5 -95 -13.5c-80 0 -143.5 20.5 -190.5 61.5s-70.5 103.833 -70.5 188.5c0 44 6.33301 81.833 19 113.5s29.834 57.834 51.501 78.501
s47.167 36 76.5 46s61 15 95 15c18 0 35 -1.83301 51 -5.5s30.333 -8.16699 43 -13.5v181c5.33301 2 13.166 3.83301 23.499 5.5s21.5 2.5 33.5 2.5c24 0 41.5 -4.33301 52.5 -13s16.5 -24 16.5 -46v-507zM376 366.998c-10 6 -21.668 11 -35.001 15s-27.666 6 -42.999 6
c-37.333 0 -68.333 -12 -93 -36s-37 -63.333 -37 -118c0 -51.333 11.833 -88.833 35.5 -112.5s55.834 -35.5 96.501 -35.5c17.333 0 32.166 2 44.499 6s22.833 8.66699 31.5 14v261zM653.999 503.998c-8.66699 -9.33301 -17.8311 -15.998 -27.498 -19.998
s-20.167 -6 -31.5 -6c-20.667 0 -36.667 6.33301 -48 19c11.333 25.333 20.666 50.666 27.999 75.999s12.666 49.333 15.999 72c8 4.66699 17.167 8.33398 27.5 11.001s20.833 4 31.5 4c16 0 29.167 -3.33301 39.5 -10s15.5 -17.334 15.5 -32.001
c0 -8 -1.5 -17.333 -4.5 -28s-7 -21.167 -12 -31.5s-10.5 -20.333 -16.5 -30s-12 -17.834 -18 -24.501z" />
    <glyph glyph-name="Dcroat" unicode="&#x110;" horiz-adv-x="696" 
d="M651 307c0 -54 -7.83496 -101.17 -23.502 -141.503s-37.834 -73.666 -66.501 -99.999s-63.167 -46.166 -103.5 -59.499s-85.166 -20 -134.499 -20c-11.333 0 -23.666 0.166992 -36.999 0.5s-27.166 1.33301 -41.499 3s-28.666 3.83398 -42.999 6.50098
s-27.833 6.33398 -40.5 11.001c-32 12 -48 32 -48 60v187h-89c-3.33301 5.33301 -6.5 12.166 -9.5 20.499s-4.5 17.833 -4.5 28.5c0 18 4.16699 31.5 12.5 40.5s19.5 13.5 33.5 13.5h57v200c0 12 3.33301 21.333 10 28s16 12 28 16c24.667 8.66699 51.5 14.167 80.5 16.5
s56.5 3.5 82.5 3.5c50 0 95.833 -6.5 137.5 -19.5s77.167 -32.5 106.5 -58.5s52.166 -58.667 68.499 -98s24.5 -85.333 24.5 -138zM517.998 305.997c0 36 -5.00098 67.168 -15.001 93.501s-23.833 48 -41.5 65s-38.667 29.667 -63 38s-50.833 12.5 -79.5 12.5
c-15.333 0 -29.166 -0.5 -41.499 -1.5s-24.166 -2.16699 -35.499 -3.5v-153h116c3.33301 -5.33301 6.5 -12.333 9.5 -21s4.5 -18.334 4.5 -29.001c0 -35.333 -15.333 -53 -46 -53h-84v-155c11.333 -2.66699 24.166 -4.5 38.499 -5.5s28.5 -1.5 42.5 -1.5c62 0 110 18 144 54
s51 89.333 51 160z" />
    <glyph glyph-name="dcroat" unicode="&#x111;" horiz-adv-x="572" 
d="M502 529v-437.001c0 -15.333 -3.33301 -27.666 -10 -36.999s-16.667 -18.333 -30 -27c-16.667 -10.667 -38.667 -20.5 -66 -29.5s-59 -13.5 -95 -13.5c-80 0 -143.5 20.5 -190.5 61.5s-70.5 103.833 -70.5 188.5c0 44 6.33301 81.833 19 113.5
s29.834 57.834 51.501 78.501s47.167 36 76.5 46s61 15 95 15c18 0 35 -1.83301 51 -5.5s30.333 -8.16699 43 -13.5v60h-87c-2.66699 4 -5.16699 9.33301 -7.5 16s-3.5 14 -3.5 22c0 13.333 3.16699 23.166 9.5 29.499s14.833 9.5 25.5 9.5h63v60
c5.33301 2 13.166 3.83301 23.499 5.5s21.5 2.5 33.5 2.5c24 0 41.5 -4.33301 52.5 -13s16.5 -24 16.5 -46v-9h58c2 -4 4.16699 -9.33301 6.5 -16s3.5 -13.667 3.5 -21c0 -26.667 -11.667 -40 -35 -40h-33zM376 366.999c-10 6 -21.668 11 -35.001 15s-27.666 6 -42.999 6
c-37.333 0 -68.333 -12 -93 -36s-37 -63.333 -37 -118c0 -51.333 11.833 -88.833 35.5 -112.5s55.834 -35.5 96.501 -35.5c17.333 0 32.166 2 44.499 6s22.833 8.66699 31.5 14v261z" />
    <glyph glyph-name="Emacron" unicode="&#x112;" horiz-adv-x="545" 
d="M152 -2c-21.333 0 -38.166 6.33301 -50.499 19s-18.5 29.667 -18.5 51v470c0 21.333 6.16699 38.166 18.5 50.499s29.166 18.5 50.499 18.5h331c3.33301 -5.33301 6.33301 -12.333 9 -21s4 -18.334 4 -29.001c0 -17.333 -4 -30.666 -12 -39.999s-19 -14 -33 -14h-242
v-142h244c3.33301 -5.33301 6.5 -12.166 9.5 -20.499s4.5 -17.833 4.5 -28.5c0 -36 -15.333 -54 -46 -54h-212v-155h278c3.33301 -5.33301 6.5 -12.5 9.5 -21.5s4.5 -18.833 4.5 -29.5c0 -36 -15.333 -54 -46 -54h-303zM155 692c-3.33301 5.33301 -6.5 12.168 -9.5 20.501
s-4.5 17.166 -4.5 26.499c0 18.667 4 31.667 12 39s18.667 11 32 11h247c8.66699 -12 13 -27.667 13 -47c0 -18 -3.83301 -30.833 -11.5 -38.5s-18.167 -11.5 -31.5 -11.5h-247z" />
    <glyph glyph-name="emacron" unicode="&#x113;" horiz-adv-x="534" 
d="M166 180c9.33301 -34 26.665 -58.6719 51.998 -74.0049s56.666 -23 93.999 -23c28 0 53.833 4.16699 77.5 12.5s42.834 17.166 57.501 26.499c9.33301 -5.33301 17 -12.666 23 -21.999s9 -19.333 9 -30c0 -13.333 -4.5 -25.166 -13.5 -35.499
s-21.333 -19.166 -37 -26.499s-34.167 -13 -55.5 -17s-44.333 -6 -69 -6c-39.333 0 -75.166 5.33301 -107.499 16s-60 26.834 -83 48.501s-41 48.5 -54 80.5s-19.5 69.333 -19.5 112c0 41.333 6.33301 77.333 19 108s29.834 56.334 51.501 77.001s46.834 36 75.501 46
s59 15 91 15c32.667 0 62.667 -5.16699 90 -15.5s50.666 -24.666 69.999 -42.999s34.5 -40.333 45.5 -66s16.5 -53.5 16.5 -83.5c0 -18.667 -4.83301 -32.667 -14.5 -42s-23.167 -15.333 -40.5 -18zM276.999 392.995c-32.667 0 -59.998 -10.833 -81.998 -32.5
s-34.333 -52.5 -37 -92.5l222 33c-2.66699 24.667 -12.334 46.167 -29.001 64.5s-41.334 27.5 -74.001 27.5zM138.001 566.995c-3.33301 5.33301 -6.5 12.168 -9.5 20.501s-4.5 17.166 -4.5 26.499c0 18.667 4 31.667 12 39s18.667 11 32 11h247
c8.66699 -12 13 -27.667 13 -47c0 -18 -3.83301 -30.833 -11.5 -38.5s-18.167 -11.5 -31.5 -11.5h-247z" />
    <glyph glyph-name="Ebreve" unicode="&#x114;" horiz-adv-x="545" 
d="M152 -2c-21.333 0 -38.166 6.33301 -50.499 19s-18.5 29.667 -18.5 51v470c0 21.333 6.16699 38.166 18.5 50.499s29.166 18.5 50.499 18.5h331c3.33301 -5.33301 6.33301 -12.333 9 -21s4 -18.334 4 -29.001c0 -17.333 -4 -30.666 -12 -39.999s-19 -14 -33 -14h-242
v-142h244c3.33301 -5.33301 6.5 -12.166 9.5 -20.499s4.5 -17.833 4.5 -28.5c0 -36 -15.333 -54 -46 -54h-212v-155h278c3.33301 -5.33301 6.5 -12.5 9.5 -21.5s4.5 -18.833 4.5 -29.5c0 -36 -15.333 -54 -46 -54h-303zM300 762c20.667 0 37.5049 5.33301 50.5049 16
s21.5 24.667 25.5 42c3.33301 0.666992 6.16602 1.16699 8.49902 1.5s5.16602 0.5 8.49902 0.5c19.333 0 33.833 -5.5 43.5 -16.5s14.5 -24.167 14.5 -39.5c0 -12.667 -3.33301 -24.834 -10 -36.501s-16.334 -22 -29.001 -31s-28.334 -16.167 -47.001 -21.5
s-40.334 -8 -65.001 -8c-25.333 0 -47.333 2.66699 -66 8s-34.5 12.5 -47.5 21.5s-22.667 19.333 -29 31s-9.5 23.834 -9.5 36.501c0 15.333 4.83301 28.5 14.5 39.5s24.167 16.5 43.5 16.5c3.33301 0 6.33301 -0.166992 9 -0.5s5.66699 -0.833008 9 -1.5
c3.33301 -17.333 11.5 -31.333 24.5 -42s30.167 -16 51.5 -16z" />
    <glyph glyph-name="ebreve" unicode="&#x115;" horiz-adv-x="534" 
d="M166 180c9.33301 -34 26.665 -58.6719 51.998 -74.0049s56.666 -23 93.999 -23c28 0 53.833 4.16699 77.5 12.5s42.834 17.166 57.501 26.499c9.33301 -5.33301 17 -12.666 23 -21.999s9 -19.333 9 -30c0 -13.333 -4.5 -25.166 -13.5 -35.499
s-21.333 -19.166 -37 -26.499s-34.167 -13 -55.5 -17s-44.333 -6 -69 -6c-39.333 0 -75.166 5.33301 -107.499 16s-60 26.834 -83 48.501s-41 48.5 -54 80.5s-19.5 69.333 -19.5 112c0 41.333 6.33301 77.333 19 108s29.834 56.334 51.501 77.001s46.834 36 75.501 46
s59 15 91 15c32.667 0 62.667 -5.16699 90 -15.5s50.666 -24.666 69.999 -42.999s34.5 -40.333 45.5 -66s16.5 -53.5 16.5 -83.5c0 -18.667 -4.83301 -32.667 -14.5 -42s-23.167 -15.333 -40.5 -18zM276.999 392.995c-32.667 0 -59.998 -10.833 -81.998 -32.5
s-34.333 -52.5 -37 -92.5l222 33c-2.66699 24.667 -12.334 46.167 -29.001 64.5s-41.334 27.5 -74.001 27.5zM281.001 639.995c20.667 0 37.5049 5.33301 50.5049 16s21.5 24.667 25.5 42c3.33301 0.666992 6.16602 1.16699 8.49902 1.5s5.16602 0.5 8.49902 0.5
c19.333 0 33.833 -5.5 43.5 -16.5s14.5 -24.167 14.5 -39.5c0 -12.667 -3.33301 -24.834 -10 -36.501s-16.334 -22 -29.001 -31s-28.334 -16.167 -47.001 -21.5s-40.334 -8 -65.001 -8c-25.333 0 -47.333 2.66699 -66 8s-34.5 12.5 -47.5 21.5s-22.667 19.333 -29 31
s-9.5 23.834 -9.5 36.501c0 15.333 4.83301 28.5 14.5 39.5s24.167 16.5 43.5 16.5c3.33301 0 6.33301 -0.166992 9 -0.5s5.66699 -0.833008 9 -1.5c3.33301 -17.333 11.5 -31.333 24.5 -42s30.167 -16 51.5 -16z" />
    <glyph glyph-name="Edotaccent" unicode="&#x116;" horiz-adv-x="545" 
d="M152 -2c-21.333 0 -38.166 6.33301 -50.499 19s-18.5 29.667 -18.5 51v470c0 21.333 6.16699 38.166 18.5 50.499s29.166 18.5 50.499 18.5h331c3.33301 -5.33301 6.33301 -12.333 9 -21s4 -18.334 4 -29.001c0 -17.333 -4 -30.666 -12 -39.999s-19 -14 -33 -14h-242
v-142h244c3.33301 -5.33301 6.5 -12.166 9.5 -20.499s4.5 -17.833 4.5 -28.5c0 -36 -15.333 -54 -46 -54h-212v-155h278c3.33301 -5.33301 6.5 -12.5 9.5 -21.5s4.5 -18.833 4.5 -29.5c0 -36 -15.333 -54 -46 -54h-303zM375 746c0 -19.333 -6.5 -35.666 -19.5 -48.999
s-30.167 -20 -51.5 -20s-38.5 6.66699 -51.5 20s-19.5 29.666 -19.5 48.999c0 20 6.5 36.5 19.5 49.5s30.167 19.5 51.5 19.5s38.5 -6.5 51.5 -19.5s19.5 -29.5 19.5 -49.5z" />
    <glyph glyph-name="edotaccent" unicode="&#x117;" horiz-adv-x="534" 
d="M166 180c9.33301 -34 26.665 -58.6719 51.998 -74.0049s56.666 -23 93.999 -23c28 0 53.833 4.16699 77.5 12.5s42.834 17.166 57.501 26.499c9.33301 -5.33301 17 -12.666 23 -21.999s9 -19.333 9 -30c0 -13.333 -4.5 -25.166 -13.5 -35.499
s-21.333 -19.166 -37 -26.499s-34.167 -13 -55.5 -17s-44.333 -6 -69 -6c-39.333 0 -75.166 5.33301 -107.499 16s-60 26.834 -83 48.501s-41 48.5 -54 80.5s-19.5 69.333 -19.5 112c0 41.333 6.33301 77.333 19 108s29.834 56.334 51.501 77.001s46.834 36 75.501 46
s59 15 91 15c32.667 0 62.667 -5.16699 90 -15.5s50.666 -24.666 69.999 -42.999s34.5 -40.333 45.5 -66s16.5 -53.5 16.5 -83.5c0 -18.667 -4.83301 -32.667 -14.5 -42s-23.167 -15.333 -40.5 -18zM276.999 392.995c-32.667 0 -59.998 -10.833 -81.998 -32.5
s-34.333 -52.5 -37 -92.5l222 33c-2.66699 24.667 -12.334 46.167 -29.001 64.5s-41.334 27.5 -74.001 27.5zM349.001 619.995c0 -19.333 -6.5 -35.666 -19.5 -48.999s-30.167 -20 -51.5 -20s-38.5 6.66699 -51.5 20s-19.5 29.666 -19.5 48.999c0 20 6.5 36.5 19.5 49.5
s30.167 19.5 51.5 19.5s38.5 -6.5 51.5 -19.5s19.5 -29.5 19.5 -49.5z" />
    <glyph glyph-name="Eogonek" unicode="&#x118;" horiz-adv-x="545" 
d="M152 -2c-21.333 0 -38.167 6.33398 -50.5 19.001s-18.5 29.667 -18.5 51v470c0 21.333 6.16699 38.166 18.5 50.499s29.166 18.5 50.499 18.5h331c3.33301 -5.33301 6.33301 -12.333 9 -21s4 -18.334 4 -29.001c0 -17.333 -4 -30.666 -12 -39.999s-19 -14 -33 -14h-242
v-142h244c3.33301 -5.33301 6.5 -12.166 9.5 -20.499s4.5 -17.833 4.5 -28.5c0 -36 -15.333 -54 -46 -54h-212v-155h278c3.33301 -5.33301 6.5 -12.5 9.5 -21.5s4.5 -18.833 4.5 -29.5c0 -18 -4 -31.333 -12 -40s-19 -13.334 -33 -14.001
c-8.66699 -6.66699 -15.667 -14.334 -21 -23.001s-8 -19.334 -8 -32.001c0 -15.333 5.16699 -27.166 15.5 -35.499s24.833 -12.5 43.5 -12.5h9c2 -5.33301 3.66699 -10.666 5 -15.999s2 -11 2 -17c0 -15.333 -5.16699 -28.5 -15.5 -39.5s-29.5 -16.5 -57.5 -16.5
c-33.333 0 -61.166 8.83301 -83.499 26.5s-33.5 42.5 -33.5 74.5c0 21.333 4.5 39.5 13.5 54.5s19.167 27.167 30.5 36.5h-204v0z" />
    <glyph glyph-name="eogonek" unicode="&#x119;" horiz-adv-x="534" 
d="M166 180c9.33301 -34 26.6631 -58.668 51.9961 -74.001s56.666 -23 93.999 -23c28 0 53.833 4.16699 77.5 12.5s42.834 17.166 57.501 26.499c9.33301 -5.33301 17 -12.666 23 -21.999s9 -19.333 9 -30c0 -16.667 -6.66699 -31 -20 -43s-31.333 -21.333 -54 -28
c-9.33301 -7.33301 -16.666 -15.333 -21.999 -24s-8 -19.334 -8 -32.001c0 -15.333 5.16699 -27.166 15.5 -35.499s24.833 -12.5 43.5 -12.5h9c2 -5.33301 3.66699 -10.666 5 -15.999s2 -11 2 -17c0 -15.333 -5.16699 -28.5 -15.5 -39.5s-29.5 -16.5 -57.5 -16.5
c-33.333 0 -61.166 8.83301 -83.499 26.5s-33.5 42.5 -33.5 74.5c0 17.333 2.83301 32.333 8.5 45s12.834 23.667 21.501 33c-37.333 1.33301 -71.333 7.66602 -102 18.999s-57 27.833 -79 49.5s-39 48.167 -51 79.5s-18 67.666 -18 108.999s6.33301 77.333 19 108
s29.834 56.334 51.501 77.001s46.834 36 75.501 46s59 15 91 15c32.667 0 62.667 -5.16699 90 -15.5s50.666 -24.666 69.999 -42.999s34.5 -40.333 45.5 -66s16.5 -53.5 16.5 -83.5c0 -18.667 -4.83301 -32.667 -14.5 -42s-23.167 -15.333 -40.5 -18zM276.997 392.999
c-32.667 0 -59.998 -10.833 -81.998 -32.5s-34.333 -52.5 -37 -92.5l222 33c-2.66699 24.667 -12.334 46.167 -29.001 64.5s-41.334 27.5 -74.001 27.5z" />
    <glyph glyph-name="Ecaron" unicode="&#x11a;" horiz-adv-x="545" 
d="M152 -2c-21.333 0 -38.166 6.33301 -50.499 19s-18.5 29.667 -18.5 51v470c0 21.333 6.16699 38.166 18.5 50.499s29.166 18.5 50.499 18.5h331c3.33301 -5.33301 6.33301 -12.333 9 -21s4 -18.334 4 -29.001c0 -17.333 -4 -30.666 -12 -39.999s-19 -14 -33 -14h-242
v-142h244c3.33301 -5.33301 6.5 -12.166 9.5 -20.499s4.5 -17.833 4.5 -28.5c0 -36 -15.333 -54 -46 -54h-212v-155h278c3.33301 -5.33301 6.5 -12.5 9.5 -21.5s4.5 -18.833 4.5 -29.5c0 -36 -15.333 -54 -46 -54h-303zM392 831
c17.333 -0.666992 31.665 -5.50195 42.998 -14.502s17 -20.5 17 -34.5c0 -11.333 -3.16699 -20.833 -9.5 -28.5s-15.833 -17.167 -28.5 -28.5l-43 -40c-13.333 -11.333 -25.166 -19.166 -35.499 -23.499s-21.833 -6.5 -34.5 -6.5c-15.333 0 -28.666 2.83301 -39.999 8.5
s-22.333 13.834 -33 24.501l-83 81c0 19.333 4.5 34 13.5 44s21.5 15 37.5 15c10.667 0 20.667 -2.83301 30 -8.5s21 -16.167 35 -31.5l40 -46z" />
    <glyph glyph-name="ecaron" unicode="&#x11b;" horiz-adv-x="534" 
d="M166 180c9.33301 -34 26.665 -58.6719 51.998 -74.0049s56.666 -23 93.999 -23c28 0 53.833 4.16699 77.5 12.5s42.834 17.166 57.501 26.499c9.33301 -5.33301 17 -12.666 23 -21.999s9 -19.333 9 -30c0 -13.333 -4.5 -25.166 -13.5 -35.499
s-21.333 -19.166 -37 -26.499s-34.167 -13 -55.5 -17s-44.333 -6 -69 -6c-39.333 0 -75.166 5.33301 -107.499 16s-60 26.834 -83 48.501s-41 48.5 -54 80.5s-19.5 69.333 -19.5 112c0 41.333 6.33301 77.333 19 108s29.834 56.334 51.501 77.001s46.834 36 75.501 46
s59 15 91 15c32.667 0 62.667 -5.16699 90 -15.5s50.666 -24.666 69.999 -42.999s34.5 -40.333 45.5 -66s16.5 -53.5 16.5 -83.5c0 -18.667 -4.83301 -32.667 -14.5 -42s-23.167 -15.333 -40.5 -18zM276.999 392.995c-32.667 0 -59.998 -10.833 -81.998 -32.5
s-34.333 -52.5 -37 -92.5l222 33c-2.66699 24.667 -12.334 46.167 -29.001 64.5s-41.334 27.5 -74.001 27.5zM281.001 620.995l90.001 90.002c19.333 -0.666992 34.833 -5.66699 46.5 -15s17.5 -21.333 17.5 -36c0 -10.667 -3.16699 -19.834 -9.5 -27.501
s-15.5 -17.167 -27.5 -28.5l-53 -50c-19.333 -17.333 -40 -26 -62 -26c-14 0 -26.5 2.5 -37.5 7.5s-24.833 15.5 -41.5 31.5l-79 78c-0.666992 2.66699 -1 5.66699 -1 9c0 13.333 4 25.833 12 37.5s20.333 17.5 37 17.5c10.667 0 20.167 -2.33301 28.5 -7
s19.166 -14.334 32.499 -29.001z" />
    <glyph glyph-name="Gcircumflex" unicode="&#x11c;" horiz-adv-x="652" 
d="M593 84c0 -16.667 -3.49707 -29.5 -10.4971 -38.5s-18.167 -17.5 -33.5 -25.5c-8.66699 -5.33301 -19.5 -10.166 -32.5 -14.499s-27.333 -8 -43 -11s-31.834 -5.5 -48.501 -7.5s-33.334 -3 -50.001 -3c-47.333 0 -91.166 6.16699 -131.499 18.5s-75.333 31.5 -105 57.5
s-52.834 59 -69.501 99s-25 87.667 -25 143c0 52.667 8.5 99.167 25.5 139.5s40.333 73.833 70 100.5s64.167 46.834 103.5 60.501s81.666 20.5 126.999 20.5c30 0 57.167 -2.5 81.5 -7.5s45.333 -11.667 63 -20s31.167 -18.333 40.5 -30s14 -23.834 14 -36.501
c0 -13.333 -3.66699 -25 -11 -35s-15.666 -17.667 -24.999 -23c-17.333 11.333 -38.333 21.833 -63 31.5s-55 14.5 -91 14.5c-29.333 0 -56.333 -4.83301 -81 -14.5s-45.834 -23.5 -63.501 -41.5s-31.5 -40.333 -41.5 -67s-15 -57 -15 -91c0 -36.667 5 -68.334 15 -95.001
s23.833 -48.834 41.5 -66.501s38.667 -30.667 63 -39s50.833 -12.5 79.5 -12.5c19.333 0 37 1.66699 53 5s28.333 7.33301 37 12v139h-128c-3.33301 5.33301 -6.33301 12.333 -9 21s-4 18.334 -4 29.001c0 17.333 4.16699 30.333 12.5 39s19.166 13 32.499 13h168
c16.667 0 29.834 -4.66699 39.501 -14s14.5 -22.333 14.5 -39v-211zM350.003 742l-43.999 -43.001l-49 -45c-16 0.666992 -29.333 5.5 -40 14.5s-16 20.167 -16 33.5c0 11.333 3 20.833 9 28.5s15 17.167 27 28.5l44 40c26 21.333 49.667 32 71 32
c14 0 26.333 -2.83301 37 -8.5s22 -14.167 34 -25.5l81 -87c0 -17.333 -4.83301 -30.666 -14.5 -39.999s-22.167 -14 -37.5 -14c-10.667 0 -20.334 3.33301 -29.001 10s-19.667 17 -33 31z" />
    <glyph glyph-name="gcircumflex" unicode="&#x11d;" horiz-adv-x="552" 
d="M369 41c-13.333 -6.66699 -28.832 -12.335 -46.499 -17.002s-38.167 -7 -61.5 -7c-30 0 -58.333 4.16699 -85 12.5s-50 21.833 -70 40.5s-35.833 42.834 -47.5 72.501s-17.5 65.834 -17.5 108.501c0 38.667 5.83301 72.834 17.5 102.501s28.334 54.5 50.001 74.5
s47.5 35 77.5 45s63.333 15 100 15c34.667 0 66.5 -4.33301 95.5 -13s52.167 -18.667 69.5 -30c12 -8 21.5 -17 28.5 -27s10.5 -22.667 10.5 -38v-386c0 -34 -6.16699 -63.333 -18.5 -88s-29.166 -44.834 -50.499 -60.501s-46.333 -27.167 -75 -34.5s-59.667 -11 -93 -11
c-34.667 0 -64.834 3.16699 -90.501 9.5s-44.834 13.5 -57.501 21.5c-22 14 -33 32.667 -33 56c0 12.667 2.66699 23.667 8 33s11.666 16.333 18.999 21c17.333 -10.667 38.333 -20 63 -28s51 -12 79 -12c40 0 71.333 7.66699 94 23s34 40 34 74v43zM282.001 114.999
c19.333 0 35.8311 2.66797 49.498 8.00098s25.5 11.666 35.5 18.999v226c-9.33301 5.33301 -20.166 10 -32.499 14s-27.166 6 -44.499 6c-36.667 0 -66.167 -11.167 -88.5 -33.5s-33.5 -56.833 -33.5 -103.5c0 -25.333 2.83301 -46.666 8.5 -63.999s13.667 -31.333 24 -42
s22.5 -18.334 36.5 -23.001s29 -7 45 -7zM282.999 622l-44.0029 -49.498c-12.667 -13.667 -26 -28.834 -40 -45.501c-19.333 0.666992 -34.833 5.5 -46.5 14.5s-17.5 20.5 -17.5 34.5c0 10.667 2.83301 19.667 8.5 27s13.834 16.666 24.501 27.999l47 50
c10.667 10 21.334 17.833 32.001 23.5s23.334 8.5 38.001 8.5c14 0 26.5 -2.5 37.5 -7.5s23.167 -15.5 36.5 -31.5l77 -94c0 -14 -4 -26 -12 -36s-20.333 -15 -37 -15c-11.333 0 -20.833 2.83301 -28.5 8.5s-15.167 13.167 -22.5 22.5z" />
    <glyph glyph-name="Gbreve" unicode="&#x11e;" horiz-adv-x="652" 
d="M593 84c0 -16.667 -3.49707 -29.5 -10.4971 -38.5s-18.167 -17.5 -33.5 -25.5c-8.66699 -5.33301 -19.5 -10.166 -32.5 -14.499s-27.333 -8 -43 -11s-31.834 -5.5 -48.501 -7.5s-33.334 -3 -50.001 -3c-47.333 0 -91.166 6.16699 -131.499 18.5s-75.333 31.5 -105 57.5
s-52.834 59 -69.501 99s-25 87.667 -25 143c0 52.667 8.5 99.167 25.5 139.5s40.333 73.833 70 100.5s64.167 46.834 103.5 60.501s81.666 20.5 126.999 20.5c30 0 57.167 -2.5 81.5 -7.5s45.333 -11.667 63 -20s31.167 -18.333 40.5 -30s14 -23.834 14 -36.501
c0 -13.333 -3.66699 -25 -11 -35s-15.666 -17.667 -24.999 -23c-17.333 11.333 -38.333 21.833 -63 31.5s-55 14.5 -91 14.5c-29.333 0 -56.333 -4.83301 -81 -14.5s-45.834 -23.5 -63.501 -41.5s-31.5 -40.333 -41.5 -67s-15 -57 -15 -91c0 -36.667 5 -68.334 15 -95.001
s23.833 -48.834 41.5 -66.501s38.667 -30.667 63 -39s50.833 -12.5 79.5 -12.5c19.333 0 37 1.66699 53 5s28.333 7.33301 37 12v139h-128c-3.33301 5.33301 -6.33301 12.333 -9 21s-4 18.334 -4 29.001c0 17.333 4.16699 30.333 12.5 39s19.166 13 32.499 13h168
c16.667 0 29.834 -4.66699 39.501 -14s14.5 -22.333 14.5 -39v-211zM345.003 762c20.667 0 37.5049 5.33301 50.5049 16s21.5 24.667 25.5 42c3.33301 0.666992 6.16602 1.16699 8.49902 1.5s5.16602 0.5 8.49902 0.5c19.333 0 33.833 -5.5 43.5 -16.5
s14.5 -24.167 14.5 -39.5c0 -12.667 -3.33301 -24.834 -10 -36.501s-16.334 -22 -29.001 -31s-28.334 -16.167 -47.001 -21.5s-40.334 -8 -65.001 -8c-25.333 0 -47.333 2.66699 -66 8s-34.5 12.5 -47.5 21.5s-22.667 19.333 -29 31s-9.5 23.834 -9.5 36.501
c0 15.333 4.83301 28.5 14.5 39.5s24.167 16.5 43.5 16.5c3.33301 0 6.33301 -0.166992 9 -0.5s5.66699 -0.833008 9 -1.5c3.33301 -17.333 11.5 -31.333 24.5 -42s30.167 -16 51.5 -16z" />
    </font>
</defs>
</svg>
