<svg width="200" height="200" viewBox="0 0 200 200" fill="none" xmlns="http://www.w3.org/2000/svg">
<rect width="200" height="200" fill="#E5E5E5"/>
<rect width="200" height="200" fill="white"/>
<g filter="url(#filter0_d)">
<path fill-rule="evenodd" clip-rule="evenodd" d="M172.106 45H26.9127L99.9965 89.8247L172.106 45ZM174 45L100 91L26 45.6133V154H174V45ZM174 155H26H25V154V45V44H175V45V154V155H174Z" fill="black"/>
<path d="M26.9127 45V37.5C23.5551 37.5 20.6067 39.7315 19.6947 42.9628C18.7827 46.1941 20.1294 49.6379 22.9915 51.3933L26.9127 45ZM172.106 45L176.065 51.3696C178.91 49.6015 180.237 46.1617 179.318 42.9412C178.398 39.7206 175.455 37.5 172.106 37.5V45ZM99.9965 89.8247L96.0753 96.218C98.495 97.7021 101.545 97.693 103.956 96.1944L99.9965 89.8247ZM174 45H181.5C181.5 42.2768 180.024 39.7676 177.644 38.4446C175.264 37.1216 172.353 37.1927 170.04 38.6304L174 45ZM100 91L96.0788 97.3933C98.4985 98.8774 101.549 98.8682 103.96 97.3696L100 91ZM26 45.6133L29.9212 39.22C27.6067 37.8005 24.7058 37.7427 22.3366 39.0689C19.9674 40.3951 18.5 42.8982 18.5 45.6133H26ZM26 154H18.5C18.5 158.142 21.8579 161.5 26 161.5V154ZM174 154V161.5C178.142 161.5 181.5 158.142 181.5 154H174ZM25 155H17.5C17.5 159.142 20.8579 162.5 25 162.5V155ZM25 44V36.5C20.8579 36.5 17.5 39.8579 17.5 44H25ZM175 44H182.5C182.5 39.8579 179.142 36.5 175 36.5V44ZM175 155V162.5C179.142 162.5 182.5 159.142 182.5 155H175ZM26.9127 52.5H172.106V37.5H26.9127V52.5ZM103.918 83.4314L30.8339 38.6067L22.9915 51.3933L96.0753 96.218L103.918 83.4314ZM103.956 96.1944L176.065 51.3696L168.146 38.6304L96.037 83.4551L103.956 96.1944ZM170.04 38.6304L96.0405 84.6304L103.96 97.3696L177.96 51.3696L170.04 38.6304ZM22.0788 52.0066L96.0788 97.3933L103.921 84.6067L29.9212 39.22L22.0788 52.0066ZM33.5 154V45.6133H18.5V154H33.5ZM174 146.5H26V161.5H174V146.5ZM166.5 45V154H181.5V45H166.5ZM26 162.5H174V147.5H26V162.5ZM25 162.5H26V147.5H25V162.5ZM17.5 154V155H32.5V154H17.5ZM17.5 45V154H32.5V45H17.5ZM17.5 44V45H32.5V44H17.5ZM175 36.5H25V51.5H175V36.5ZM182.5 45V44H167.5V45H182.5ZM182.5 154V45H167.5V154H182.5ZM182.5 155V154H167.5V155H182.5ZM174 162.5H175V147.5H174V162.5Z" fill="#3349C0"/>
</g>
<defs>
<filter id="filter0_d" x="9.5" y="36.5" width="173" height="134" filterUnits="userSpaceOnUse" color-interpolation-filters="sRGB">
<feFlood flood-opacity="0" result="BackgroundImageFix"/>
<feColorMatrix in="SourceAlpha" type="matrix" values="0 0 0 0 0 0 0 0 0 0 0 0 0 0 0 0 0 0 127 0"/>
<feOffset dx="-4" dy="4"/>
<feGaussianBlur stdDeviation="2"/>
<feColorMatrix type="matrix" values="0 0 0 0 0 0 0 0 0 0 0 0 0 0 0 0 0 0 0.25 0"/>
<feBlend mode="normal" in2="BackgroundImageFix" result="effect1_dropShadow"/>
<feBlend mode="normal" in="SourceGraphic" in2="effect1_dropShadow" result="shape"/>
</filter>
</defs>
</svg>
