<svg width="200" height="200" viewBox="0 0 200 200" fill="none" xmlns="http://www.w3.org/2000/svg">
<rect width="200" height="200" fill="#E5E5E5"/>
<rect width="200" height="200" fill="white"/>
<g filter="url(#filter0_d)">
<line x1="24.5" y1="39" x2="24.5" y2="159" stroke="#3349C0" stroke-width="15"/>
<line x1="174.5" y1="39" x2="174.5" y2="159" stroke="#3349C0" stroke-width="15"/>
<path d="M58.5 129V70H53.5V129H58.5ZM140 131.5H61V136.5H140V131.5ZM147.5 129V70H142.5V129H147.5ZM61 67.5H140V62.5H61V67.5ZM56 137.5H145V132.5H56V137.5ZM52.5 65V134H57.5V65H52.5ZM145 61.5H56V66.5H145V61.5ZM143.5 65V134H148.5V65H143.5ZM57.5 65C57.5 65.8284 56.8284 66.5 56 66.5V61.5C54.067 61.5 52.5 63.067 52.5 65H57.5ZM56 132.5C56.8284 132.5 57.5 133.172 57.5 134H52.5C52.5 135.933 54.067 137.5 56 137.5V132.5ZM147.5 70C147.5 65.8579 144.142 62.5 140 62.5V67.5C141.381 67.5 142.5 68.6193 142.5 70H147.5ZM140 136.5C144.142 136.5 147.5 133.142 147.5 129H142.5C142.5 130.381 141.381 131.5 140 131.5V136.5ZM58.5 70C58.5 68.6193 59.6193 67.5 61 67.5V62.5C56.8579 62.5 53.5 65.8579 53.5 70H58.5ZM143.5 134C143.5 133.172 144.172 132.5 145 132.5V137.5C146.933 137.5 148.5 135.933 148.5 134H143.5ZM145 66.5C144.172 66.5 143.5 65.8284 143.5 65H148.5C148.5 63.067 146.933 61.5 145 61.5V66.5ZM53.5 129C53.5 133.142 56.8579 136.5 61 136.5V131.5C59.6193 131.5 58.5 130.381 58.5 129H53.5Z" fill="#3349C0"/>
<path d="M53.5 153V154.5H58.5V153H53.5ZM58 153.5H143V148.5H58V153.5ZM142.5 153V154.5H147.5V153H142.5ZM148.5 154.5V151H143.5V154.5H148.5ZM145 147.5H56V152.5H145V147.5ZM57.5 154.5V151H52.5V154.5H57.5ZM52.5 154.5C52.5 156.157 53.8431 157.5 55.5 157.5V152.5C56.6046 152.5 57.5 153.395 57.5 154.5H52.5ZM56 147.5C54.067 147.5 52.5 149.067 52.5 151H57.5C57.5 151.828 56.8284 152.5 56 152.5V147.5ZM148.5 151C148.5 149.067 146.933 147.5 145 147.5V152.5C144.172 152.5 143.5 151.828 143.5 151H148.5ZM145.5 157.5C147.157 157.5 148.5 156.157 148.5 154.5H143.5C143.5 153.395 144.395 152.5 145.5 152.5V157.5ZM142.5 154.5C142.5 156.157 143.843 157.5 145.5 157.5V152.5C146.605 152.5 147.5 153.395 147.5 154.5H142.5ZM143 153.5C142.724 153.5 142.5 153.276 142.5 153H147.5C147.5 150.515 145.485 148.5 143 148.5V153.5ZM53.5 154.5C53.5 153.395 54.3954 152.5 55.5 152.5V157.5C57.1569 157.5 58.5 156.157 58.5 154.5H53.5ZM58.5 153C58.5 153.276 58.2761 153.5 58 153.5V148.5C55.5147 148.5 53.5 150.515 53.5 153H58.5Z" fill="#3349C0"/>
<path d="M58.5 44V42.5H53.5V44H58.5ZM143 43.5H58V48.5H143V43.5ZM147.5 44V42.5H142.5V44H147.5ZM143.5 42.5V46H148.5V42.5H143.5ZM56 49.5H145V44.5H56V49.5ZM52.5 42.5V46H57.5V42.5H52.5ZM57.5 42.5C57.5 43.6046 56.6046 44.5 55.5 44.5V39.5C53.8431 39.5 52.5 40.8431 52.5 42.5H57.5ZM56 44.5C56.8284 44.5 57.5 45.1716 57.5 46H52.5C52.5 47.933 54.067 49.5 56 49.5V44.5ZM143.5 46C143.5 45.1716 144.172 44.5 145 44.5V49.5C146.933 49.5 148.5 47.933 148.5 46H143.5ZM145.5 44.5C144.395 44.5 143.5 43.6046 143.5 42.5H148.5C148.5 40.8431 147.157 39.5 145.5 39.5V44.5ZM147.5 42.5C147.5 43.6046 146.605 44.5 145.5 44.5V39.5C143.843 39.5 142.5 40.8431 142.5 42.5H147.5ZM143 48.5C145.485 48.5 147.5 46.4853 147.5 44H142.5C142.5 43.7239 142.724 43.5 143 43.5V48.5ZM58.5 42.5C58.5 40.8431 57.1569 39.5 55.5 39.5V44.5C54.3954 44.5 53.5 43.6046 53.5 42.5H58.5ZM53.5 44C53.5 46.4853 55.5147 48.5 58 48.5V43.5C58.2761 43.5 58.5 43.7239 58.5 44H53.5Z" fill="#3349C0"/>
</g>
<defs>
<filter id="filter0_d" x="9" y="39" width="173" height="128" filterUnits="userSpaceOnUse" color-interpolation-filters="sRGB">
<feFlood flood-opacity="0" result="BackgroundImageFix"/>
<feColorMatrix in="SourceAlpha" type="matrix" values="0 0 0 0 0 0 0 0 0 0 0 0 0 0 0 0 0 0 127 0"/>
<feOffset dx="-4" dy="4"/>
<feGaussianBlur stdDeviation="2"/>
<feColorMatrix type="matrix" values="0 0 0 0 0 0 0 0 0 0 0 0 0 0 0 0 0 0 0.25 0"/>
<feBlend mode="normal" in2="BackgroundImageFix" result="effect1_dropShadow"/>
<feBlend mode="normal" in="SourceGraphic" in2="effect1_dropShadow" result="shape"/>
</filter>
</defs>
</svg>
